<?xml version="1.0" standalone="no"?>
<!DOCTYPE svg PUBLIC "-//W3C//DTD SVG 1.1//EN" "http://www.w3.org/Graphics/SVG/1.1/DTD/svg11.dtd" >
<svg xmlns="http://www.w3.org/2000/svg">
<metadata></metadata>
<defs>
<font id="CuprumBold" horiz-adv-x="972" >
<font-face units-per-em="2048" ascent="1638" descent="-410" />
<missing-glyph horiz-adv-x="512" />
<glyph unicode=" "  horiz-adv-x="512" />
<glyph unicode="&#x09;" horiz-adv-x="512" />
<glyph unicode="&#xa0;" horiz-adv-x="512" />
<glyph unicode="!" horiz-adv-x="532" d="M123 1434h287l-41 -1055h-205zM143 -20v245h246v-245h-246z" />
<glyph unicode="&#x22;" horiz-adv-x="757" d="M82 1434h246l-52 -482h-143zM430 1434h246l-51 -482h-144z" />
<glyph unicode="#" horiz-adv-x="1208" d="M41 399v164h213l47 307h-199v164h226l61 400h236l-62 -400h185l61 400h235l-61 -400h184v-164h-213l-47 -307h199v-164h-225l-62 -399h-235l61 399h-184l-62 -399h-235l61 399h-184zM467 563h227l47 307h-227z" />
<glyph unicode="$" horiz-adv-x="952" d="M61 1085q0 154 87.5 251.5t261.5 113.5v168h143v-166q84 -4 150.5 -15.5t105.5 -23.5v-113h-256v-497q59 -29 119.5 -61.5t108.5 -81t79 -118t31 -173.5q0 -156 -79 -252.5t-259 -124.5v-176h-143v164h-11q-109 0 -194.5 12t-132.5 28v113h286h26.5t25.5 2v496 q-61 29 -123 61.5t-112 83.5t-82 124.5t-32 184.5zM307 1085q0 -72 27.5 -118.5t75.5 -81.5v391q-103 -56 -103 -191zM553 174q92 58 92 195q0 63 -25.5 106t-66.5 76v-377z" />
<glyph unicode="%" horiz-adv-x="1474" d="M51 1147q0 139 85.5 223t232.5 84t232 -84t85 -223t-85 -223t-232 -84t-232.5 84t-85.5 223zM215 0l799 1434h246l-799 -1434h-246zM256 1147q0 -86 33 -125t80 -39t79.5 39t32.5 125t-32.5 125t-79.5 39t-80 -39t-33 -125zM788 287q0 139 85.5 223t232.5 84t232 -84 t85 -223t-85 -223t-232 -84t-232.5 83.5t-85.5 223.5zM993 287q0 -86 33 -125t80 -39t80 39t33 125t-33 125t-80 39t-80 -39t-33 -125z" />
<glyph unicode="&#x26;" horiz-adv-x="1116" d="M72 369q0 92 12 176t29 131h194v-307q0 -74 13.5 -119t34 -71.5t44 -36t41.5 -9.5q47 0 90 47t74 148q-104 145 -173 253.5t-109.5 194.5t-58 159t-17.5 150q0 170 100 269.5t279 99.5q109 0 194.5 -12t132.5 -29v-113h-286q-70 0 -122 -57.5t-52 -157.5q0 -53 7 -104 t29.5 -112.5t62.5 -135.5t105 -170l92 236h246l-184 -451l246 -348h-267l-96 139q-53 -80 -120.5 -119.5t-182.5 -39.5q-162 0 -260 101t-98 288z" />
<glyph unicode="'" horiz-adv-x="409" d="M82 1434h246l-52 -482h-143z" />
<glyph unicode="(" horiz-adv-x="544" d="M102 573q0 100 16.5 220t55.5 246t101.5 254t154.5 243l115 -61q-47 -109 -80 -213.5t-54.5 -214t-31.5 -226.5t-10 -248t10 -247.5t31.5 -226t54.5 -215t80 -212.5l-115 -61q-92 115 -154.5 243t-101.5 253.5t-55.5 245.5t-16.5 220z" />
<glyph unicode=")" horiz-adv-x="544" d="M0 -328q47 106 80 212t54.5 215.5t31.5 226t10 247.5t-10 248t-31.5 226.5t-54.5 214t-80 213.5l115 61q92 -115 154.5 -243t101.5 -254t55 -245.5t16 -220.5q0 -100 -16 -220t-55 -245.5t-101.5 -253.5t-154.5 -243z" />
<glyph unicode="*" horiz-adv-x="921" d="M41 1024l45 188l272 -59v281h205v-281l273 59l45 -188l-244 -53l127 -240l-176 -96l-127 242l-127 -242l-176 96l127 240z" />
<glyph unicode="+" horiz-adv-x="921" d="M61 532v164h308v348h184v-348h307v-164h-307v-348h-184v348h-308z" />
<glyph unicode="," horiz-adv-x="399" d="M82 225h246l-82 -471h-164v471z" />
<glyph unicode="-" horiz-adv-x="778" d="M61 532v164h656v-164h-656z" />
<glyph unicode="." horiz-adv-x="409" d="M82 -20v245h246v-245h-246z" />
<glyph unicode="/" horiz-adv-x="860" d="M0 0l614 1434h246l-614 -1434h-246z" />
<glyph unicode="0" horiz-adv-x="1085" d="M92 717q0 207 33 348t92 227t142 124t184 38q100 0 183 -38t142.5 -124t92 -227t32.5 -348t-32.5 -348.5t-92 -227.5t-142.5 -123.5t-183 -37.5t-183.5 37.5t-142.5 123.5t-92 227.5t-33 348.5zM338 717q0 -180 19.5 -296t49 -181.5t65.5 -91t71 -25.5t70.5 25.5t65.5 91 t49.5 181.5t19.5 296t-19.5 295.5t-49.5 181.5t-65.5 91.5t-70.5 25.5t-71 -25.5t-65.5 -91.5t-49 -181.5t-19.5 -295.5z" />
<glyph unicode="1" horiz-adv-x="624" d="M20 1270v123q47 16 133.5 28.5t194.5 12.5h133v-1434h-245v1270h-216z" />
<glyph unicode="2" horiz-adv-x="860" d="M31 0v184q137 158 236.5 276t163 214t93 179t29.5 171q0 147 -57.5 211.5t-157.5 64.5h-287v113q47 16 133 28.5t195 12.5q420 0 420 -430q0 -96 -41 -196.5t-113 -207t-167 -220t-202 -236.5h512v-164h-757z" />
<glyph unicode="3" horiz-adv-x="890" d="M31 20v113h286q256 0 256 256q0 147 -62 213t-194 66h-163v161h143q236 0 235 246q0 109 -57 167t-158 58h-266v113q47 16 133 28.5t195 12.5q193 0 296 -100.5t103 -278.5q0 -117 -54 -193.5t-140 -119.5v-8q53 -18 97 -54t74.5 -84.5t47 -106.5t16.5 -120 q0 -201 -110.5 -305t-350.5 -104q-109 0 -194.5 12t-132.5 28z" />
<glyph unicode="4" horiz-adv-x="993" d="M51 348v184l512 902h266v-922h113v-164h-113v-348h-245v348h-533zM276 512h308v553h-9z" />
<glyph unicode="5" horiz-adv-x="952" d="M92 20v113h287q131 0 193.5 64.5t62.5 212.5q0 154 -62.5 220t-193.5 66h-266v738h716v-154h-471v-430h62q240 0 350.5 -108.5t110.5 -331.5q0 -217 -111 -323.5t-350 -106.5q-109 0 -195 12t-133 28z" />
<glyph unicode="6" d="M92 410v450q0 307 114.5 450.5t315.5 143.5q109 0 195 -12t133 -29v-113h-266q-53 0 -98.5 -21.5t-78 -74.5t-51 -141t-18.5 -223q47 16 101.5 23t92.5 7q178 0 278.5 -109.5t100.5 -340.5q0 -223 -104.5 -331.5t-304.5 -108.5q-201 0 -305.5 106.5t-104.5 323.5z M338 410q0 -154 47 -220.5t117 -66.5t117 67.5t47 229.5q0 84 -10.5 142.5t-37 95t-69.5 53t-109 16.5h-102v-317z" />
<glyph unicode="7" horiz-adv-x="880" d="M41 1270v164h778v-185q-70 -176 -125 -338.5t-100 -316.5t-78 -301.5t-55 -292.5h-246q45 291 137 603t232 667h-543z" />
<glyph unicode="8" horiz-adv-x="1024" d="M72 369q0 74 21.5 134t58 106t85 79t101.5 55v9q-43 14 -85 41.5t-76 70.5t-54.5 100.5t-20.5 131.5q0 162 104.5 260t305.5 98t305.5 -98.5t104.5 -259.5q0 -74 -20.5 -131.5t-54.5 -100.5t-76 -70.5t-85 -41.5v-9q53 -23 101.5 -55.5t85 -78.5t58 -106.5t21.5 -133.5 q0 -186 -108.5 -287.5t-331.5 -101.5t-331.5 101t-108.5 288zM317 369q0 -123 54.5 -184.5t140.5 -61.5t140.5 61.5t54.5 184.5q0 57 -14.5 100t-41 77t-61.5 60.5t-78 48.5q-43 -23 -78 -49t-61.5 -60t-41 -77t-14.5 -100zM348 1096q0 -109 47 -171t117 -87q70 25 117 87 t47 171q0 100 -51.5 157.5t-112.5 57.5t-112.5 -57.5t-51.5 -157.5z" />
<glyph unicode="9" d="M61 1014q0 223 104.5 331.5t305.5 108.5t305.5 -106.5t104.5 -323.5v-451q0 -154 -30 -265t-85 -185t-135 -108.5t-180 -34.5q-109 0 -195 12t-133 28v113h266q53 0 98 21.5t78 75t51.5 141.5t18.5 223q-47 -16 -101.5 -23.5t-93.5 -7.5q-178 0 -278.5 109.5 t-100.5 341.5zM307 1014q0 -84 10.5 -142.5t37 -95.5t69.5 -53t108 -16h103v317q0 154 -47 220.5t-117 66.5t-117 -67.5t-47 -229.5z" />
<glyph unicode=":" horiz-adv-x="409" d="M82 -20v245h246v-245h-246zM82 778v246h246v-246h-246z" />
<glyph unicode=";" horiz-adv-x="389" d="M82 225h246l-82 -471h-164v471zM82 778v246h246v-246h-246z" />
<glyph unicode="&#x3c;" horiz-adv-x="829" d="M82 410v215l666 399v-246l-431 -252v-10l431 -260v-246z" />
<glyph unicode="=" horiz-adv-x="921" d="M61 348v174h799v-174h-799zM61 707v174h799v-174h-799z" />
<glyph unicode="&#x3e;" horiz-adv-x="829" d="M82 10v246l430 260v10l-430 252v246l666 -399v-215z" />
<glyph unicode="?" horiz-adv-x="808" d="M20 1300v113q47 16 133.5 28.5t194.5 12.5q193 0 296.5 -101.5t103.5 -287.5q0 -86 -23 -150.5t-57.5 -115.5t-75.5 -95.5t-78 -92.5t-63.5 -103t-30.5 -129h-205q0 94 21.5 161.5t53.5 121t68.5 95.5t68.5 87t53.5 97t21.5 124q0 117 -57.5 176t-157.5 59h-267zM195 -20 v245h245v-245h-245z" />
<glyph unicode="@" horiz-adv-x="1740" d="M92 635q0 199 52.5 352.5t151.5 257t241.5 156.5t322.5 53q188 0 334.5 -51t248 -144.5t154 -223.5t52.5 -287q0 -150 -32 -256.5t-102.5 -175t-181 -100.5t-268.5 -32l-31 62h-10q-39 -39 -87 -60.5t-118 -21.5q-66 0 -126 27.5t-107 83t-76 140.5t-29 199 q0 262 110.5 377t350.5 115q86 0 168 -12.5t129 -28.5v-748q35 0 67.5 19.5t59.5 69t42 132.5t15 210q0 270 -146.5 416.5t-416.5 146.5q-254 0 -398.5 -162t-144.5 -514q0 -346 155 -506t470 -160h287v-112q-47 -16 -133 -28.5t-195 -12.5q-393 0 -601 208.5t-208 610.5z M727 614q0 -84 14.5 -142t36 -95t49 -53.5t54.5 -16.5q39 0 67.5 12.5t44.5 28.5v615h-51q-49 0 -89 -17.5t-67.5 -57.5t-43 -106.5t-15.5 -167.5z" />
<glyph unicode="A" horiz-adv-x="1105" d="M31 0l368 1434h308l368 -1434h-256l-90 358h-352l-90 -358h-256zM410 522h284l-137 584h-8z" />
<glyph unicode="B" horiz-adv-x="1085" d="M143 20v1393q78 23 160 32t199 9q231 0 340.5 -100.5t109.5 -278.5q0 -92 -51 -176t-143 -127v-8q123 -43 189.5 -139.5t66.5 -235.5q0 -201 -118 -305t-394 -104q-117 0 -199 9t-160 31zM389 133h113q131 0 193.5 63.5t62.5 202.5q0 147 -62.5 212t-193.5 65h-113v-543z M389 829h92q100 0 157.5 59.5t57.5 176.5t-57 176t-158 59h-92v-471z" />
<glyph unicode="C" horiz-adv-x="931" d="M92 717q0 215 31 357.5t89 226t144 118.5t197 35q109 0 195 -12t133 -29v-113h-246q-66 0 -120 -26.5t-94 -92t-61.5 -179t-21.5 -285.5t22.5 -286t63.5 -179.5t99.5 -92t131.5 -26.5h246v-113q-47 -16 -133 -28t-195 -12q-119 0 -209 34.5t-150 118.5t-91 226.5 t-31 357.5z" />
<glyph unicode="D" horiz-adv-x="1116" d="M143 20v1393q78 23 160 32t199 9q127 0 224 -38t163.5 -124t100.5 -227t34 -348t-34 -348.5t-100.5 -227.5t-163.5 -123.5t-224 -37.5q-117 0 -199 9t-160 31zM389 133h113q61 0 112.5 26.5t87 92t56 179.5t20.5 286t-20.5 285.5t-56 179t-87 92t-112.5 26.5h-113v-1167z " />
<glyph unicode="E" d="M143 0v1434h748v-164h-502v-441h440v-163h-440v-502h502v-164h-748z" />
<glyph unicode="F" horiz-adv-x="931" d="M143 0v1434h748v-164h-502v-471h420v-164h-420v-635h-246z" />
<glyph unicode="G" horiz-adv-x="1075" d="M92 717q0 215 31 357.5t91 226t150.5 118.5t208.5 35q109 0 195 -12t133 -29v-113h-266q-66 0 -120 -26.5t-94 -92t-61.5 -179t-21.5 -285.5t22.5 -286t63.5 -179.5t99.5 -92t131.5 -26.5h52v645h245v-758q-47 -16 -134 -28t-204 -12q-135 0 -233 34.5t-162.5 118.5 t-95.5 226.5t-31 357.5z" />
<glyph unicode="H" horiz-adv-x="1146" d="M143 0v1434h246v-625h369v625h246v-1434h-246v645h-369v-645h-246z" />
<glyph unicode="I" horiz-adv-x="532" d="M143 0v1434h246v-1434h-246z" />
<glyph unicode="J" horiz-adv-x="768" d="M0 20v113h205q43 0 77.5 17.5t61.5 58.5t41 109.5t14 173.5v942h246v-942q0 -276 -108.5 -394t-331.5 -118q-61 0 -113.5 12t-91.5 28z" />
<glyph unicode="K" horiz-adv-x="1064" d="M143 0v1434h246v-656l338 656h277l-379 -707l419 -727h-276l-379 676v-676h-246z" />
<glyph unicode="L" horiz-adv-x="911" d="M143 0v1434h246v-1270h502v-164h-748z" />
<glyph unicode="M" horiz-adv-x="1556" d="M102 0l82 1434h267l323 -973h8l324 973h266l82 -1434h-235l-56 971h-8l-264 -797h-225l-265 797h-8l-55 -971h-236z" />
<glyph unicode="N" horiz-adv-x="1167" d="M143 0v1434h246l389 -942h10v942h236v-1434h-246l-389 942h-10v-942h-236z" />
<glyph unicode="O" horiz-adv-x="1126" d="M92 717q0 207 33 348t94.5 227t148 124t195.5 38q106 0 193.5 -38t149 -124t95 -227t33.5 -348t-33.5 -348.5t-95 -227.5t-148.5 -123.5t-194 -37.5q-109 0 -195.5 37.5t-148 123.5t-94.5 227.5t-33 348.5zM338 717q0 -176 19.5 -291t51 -182.5t71.5 -94t83 -26.5 t83 26.5t72 94t51 182.5t19 291t-19 290.5t-51 182t-72 94.5t-83 27t-83 -27t-71.5 -94.5t-51 -182t-19.5 -290.5z" />
<glyph unicode="P" horiz-adv-x="1054" d="M143 0v1413q78 23 160 32t199 9q127 0 218 -28.5t149.5 -90t86 -159t27.5 -234.5q0 -145 -26.5 -246.5t-80 -165t-131 -92t-182.5 -28.5q-12 0 -33.5 2t-46 5t-50 6t-44.5 7v-430h-246zM389 573h113q57 0 101 17.5t74 59.5t45 113t15 179q0 104 -15 173t-45 110t-74 58 t-101 17h-113v-727z" />
<glyph unicode="Q" horiz-adv-x="1136" d="M92 717q0 207 33 348t94.5 227t148 124t195.5 38q106 0 193.5 -38t149 -124t95 -227t33.5 -348q0 -231 -46 -373.5t-107 -220.5q92 0 145 -12.5t100 -28.5v-102h-563q-109 0 -195.5 37.5t-148 123.5t-94.5 227.5t-33 348.5zM338 717q0 -184 20.5 -300t53 -181.5t72.5 -89 t79 -23.5q43 0 83 26.5t72 94t51 182.5t19 291t-19 290.5t-51 182t-72 94.5t-83 27t-83 -27t-71.5 -94.5t-51 -182t-19.5 -290.5z" />
<glyph unicode="R" horiz-adv-x="1095" d="M143 0v1413q78 23 160 32t199 9q127 0 218 -27.5t149.5 -87t86 -152.5t27.5 -224q0 -104 -16.5 -179t-46 -127.5t-71.5 -87t-91 -57.5l276 -512h-276l-236 461h-133v-461h-246zM389 625h113q57 0 101 16t74 56t45 104.5t15 161.5q0 96 -15 160.5t-45 104.5t-74 56 t-101 16h-113v-675z" />
<glyph unicode="S" horiz-adv-x="952" d="M61 1085q0 170 105.5 269.5t314.5 99.5q109 0 195 -12t133 -29v-113h-287q-100 0 -157.5 -57t-57.5 -158q0 -90 43 -143t108.5 -91t140.5 -70.5t140.5 -83t108.5 -127t43 -201.5q0 -184 -116 -286.5t-376 -102.5q-109 0 -194.5 12t-132.5 28v113h286q154 0 220.5 59.5 t66.5 176.5q0 84 -43 134t-108.5 86t-140 68.5t-140.5 85t-109 132t-43 210.5z" />
<glyph unicode="T" horiz-adv-x="921" d="M20 1270v164h881v-164h-317v-1270h-246v1270h-318z" />
<glyph unicode="U" horiz-adv-x="1126" d="M123 492v942h246v-942q0 -109 14 -179.5t41 -112.5t61.5 -59.5t77.5 -17.5t78 17.5t61.5 59.5t41 112.5t14.5 179.5v942h246v-942q0 -276 -109 -394t-332 -118t-331.5 117.5t-108.5 394.5z" />
<glyph unicode="V" horiz-adv-x="1064" d="M31 1434h256l241 -1117h9l241 1117h256l-348 -1434h-307z" />
<glyph unicode="W" horiz-adv-x="1536" d="M31 1434h256l174 -1035h8l197 768h204l197 -768h8l174 1035h256l-256 -1434h-266l-211 799h-8l-211 -799h-266z" />
<glyph unicode="X" horiz-adv-x="1003" d="M20 0l297 737l-266 697h256l195 -533l194 533h256l-266 -697l297 -737h-256l-225 584l-226 -584h-256z" />
<glyph unicode="Y" horiz-adv-x="983" d="M10 1434h256l221 -686h9l221 686h256l-359 -1004v-430h-245v430z" />
<glyph unicode="Z" horiz-adv-x="890" d="M41 0v154l532 1116h-522v164h799v-154l-533 -1116h523v-164h-799z" />
<glyph unicode="[" horiz-adv-x="583" d="M143 -369v1885h441v-144h-195v-1597h195v-144h-441z" />
<glyph unicode="\" horiz-adv-x="860" d="M0 1434h246l614 -1434h-246z" />
<glyph unicode="]" horiz-adv-x="583" d="M0 -225h195v1597h-195v144h440v-1885h-440v144z" />
<glyph unicode="^" d="M61 922l318 512h215l317 -512l-174 -113l-245 410h-11l-245 -410z" />
<glyph unicode="_" horiz-adv-x="655" d="M0 0h655v-164h-655v164z" />
<glyph unicode="`" horiz-adv-x="409" d="M41 1434h256l72 -349h-164z" />
<glyph unicode="a" d="M82 307q0 100 25.5 164t70.5 100.5t106.5 50t135.5 13.5q47 0 91 -6t83 -15v82q0 123 -57.5 164t-157.5 41h-205v103q47 16 115.5 28t130.5 12q104 0 182 -14t131 -52t80 -106.5t27 -175.5v-696h-174l-31 61h-10q-33 -31 -86.5 -56t-139.5 -25q-66 0 -123 13t-100 50 t-68.5 100.5t-25.5 163.5zM328 307q0 -53 14 -89t35.5 -57.5t49.5 -29.5t54 -8q39 0 68 12t45 29v328h-113q-27 0 -54.5 -8.5t-49 -30t-35.5 -57.5t-14 -89z" />
<glyph unicode="b" horiz-adv-x="1013" d="M143 41v1393h246v-441q33 23 77 37t97 14q84 0 152.5 -28.5t117 -92t74 -165t25.5 -246.5t-27.5 -246.5t-83 -165t-140.5 -92t-200 -28.5q-109 0 -184.5 15t-153.5 46zM389 123h92q45 0 83 17.5t65.5 61.5t42 119.5t14.5 190.5t-14.5 190.5t-39 119.5t-58 61.5 t-72.5 17.5t-67.5 -12t-45.5 -29v-737z" />
<glyph unicode="c" horiz-adv-x="808" d="M82 512q0 145 26.5 246.5t79 165t128 92t176.5 28.5q78 0 148.5 -12t117.5 -28v-103h-226q-47 0 -83.5 -17.5t-64.5 -61.5t-42 -119.5t-14 -190.5t15 -190.5t44 -119.5t71 -61.5t95 -17.5h225v-103q-47 -16 -117.5 -28t-148.5 -12q-109 0 -188.5 28.5t-134 92t-81 165 t-26.5 246.5z" />
<glyph unicode="d" horiz-adv-x="1013" d="M82 512q0 145 25.5 246.5t73.5 165t117 92t153 28.5q53 0 97 -14t77 -37v441h245v-1434h-174l-30 61h-11q-33 -31 -86 -56t-139 -25q-78 0 -141.5 28.5t-109.5 92t-71.5 165t-25.5 246.5zM328 512q0 -115 14 -190.5t39 -119.5t58.5 -61.5t72.5 -17.5t64.5 12t48.5 29v696 q-16 16 -45 28.5t-68 12.5t-72.5 -17.5t-58.5 -61.5t-39 -119.5t-14 -190.5z" />
<glyph unicode="e" horiz-adv-x="942" d="M82 512q0 145 26.5 246.5t75.5 165t122 92t165 28.5t165 -28.5t122 -92t75.5 -165t26.5 -246.5v-72h-532q0 -176 62.5 -246.5t193.5 -70.5h225v-103q-47 -16 -117.5 -28t-148.5 -12q-119 0 -206 28.5t-143.5 92t-84 165t-27.5 246.5zM328 584h286q0 100 -11 163.5 t-29.5 100.5t-45 50t-57.5 13t-57.5 -13t-45 -50t-29.5 -100.5t-11 -163.5z" />
<glyph unicode="f" horiz-adv-x="696" d="M41 850v154h113v81q0 106 25.5 175t68.5 107t100.5 52.5t122.5 14.5q31 0 65.5 -3.5t68.5 -9.5t63.5 -13t48.5 -15v-103h-164q-31 0 -58.5 -9t-49 -31.5t-34 -62.5t-12.5 -102v-81h277v-113q-47 -16 -118 -28.5t-148 -12.5h-11v-850h-245v850h-113z" />
<glyph unicode="g" horiz-adv-x="1003" d="M82 512q0 145 27.5 246.5t83 165t140.5 92t199 28.5q109 0 185 -15t153 -46v-901q0 -276 -108.5 -394t-331.5 -118q-78 0 -148.5 12t-117.5 29v102h225q115 0 175.5 71t60.5 247q-31 -23 -76 -37t-98 -14q-84 0 -153 28.5t-117 92t-73.5 165t-25.5 246.5zM328 512 q0 -115 14 -190.5t39 -119.5t58.5 -61.5t72.5 -17.5t67.5 12t45.5 29v737h-93q-47 0 -83.5 -17.5t-64.5 -61.5t-42 -119.5t-14 -190.5z" />
<glyph unicode="h" horiz-adv-x="1044" d="M143 0v1434h246v-451q39 31 91 46t114 15q66 0 123 -13t100 -50t68.5 -100.5t25.5 -163.5v-717h-245v717q0 53 -14.5 89t-37 57.5t-52.5 29.5t-60 8q-39 0 -67.5 -12t-45.5 -29v-860h-246z" />
<glyph unicode="i" horiz-adv-x="532" d="M143 0v1024h246v-1024h-246zM143 1147v246h246v-246h-246z" />
<glyph unicode="j" horiz-adv-x="542" d="M-123 -287h143q53 0 93.5 48.5t40.5 156.5v1106h245v-1106q0 -109 -25.5 -176.5t-68.5 -105t-100.5 -52t-122.5 -14.5q-61 0 -113.5 12t-91.5 29v102zM154 1147v246h245v-246h-245z" />
<glyph unicode="k" horiz-adv-x="942" d="M143 0v1434h246v-850l246 440h266l-276 -481l297 -543h-267l-266 502v-502h-246z" />
<glyph unicode="l" horiz-adv-x="532" d="M143 0v1434h246v-1434h-246z" />
<glyph unicode="m" horiz-adv-x="1515" d="M133 0v1024h174l31 -61h10q33 31 88.5 56t147.5 25q78 0 132 -21.5t93 -59.5q47 39 110.5 60t155.5 21q61 0 116.5 -13t98.5 -50t67.5 -100.5t24.5 -163.5v-717h-245v717q0 53 -14.5 89t-36 57.5t-49 29.5t-54.5 8q-39 0 -69.5 -9t-53.5 -22q8 -23 14.5 -64.5t6.5 -88.5 v-717h-246v717q0 53 -13.5 89t-35 57.5t-47 29.5t-47.5 8q-39 0 -68 -12t-45 -29v-860h-246z" />
<glyph unicode="n" horiz-adv-x="1034" d="M133 0v1024h174l31 -61h10q33 31 88.5 56t147.5 25q66 0 123 -13t100 -50t68.5 -100.5t25.5 -163.5v-717h-246v717q0 53 -14 89t-36.5 57.5t-52.5 29.5t-60 8q-39 0 -68 -12t-45 -29v-860h-246z" />
<glyph unicode="o" horiz-adv-x="983" d="M82 512q0 145 26.5 246.5t79 165t128.5 92t176 28.5t175.5 -28.5t128 -92t79 -165t26.5 -246.5t-26.5 -246.5t-79 -165t-128 -92t-175.5 -28.5t-176 28.5t-128.5 92t-79 165t-26.5 246.5zM328 512q0 -119 12 -196.5t34.5 -123t52.5 -62.5t65 -17t64.5 17t52 62.5 t34.5 123t12 196.5t-12 196.5t-34.5 123t-52 62.5t-64.5 17t-65 -17t-52.5 -62.5t-34.5 -123t-12 -196.5z" />
<glyph unicode="p" horiz-adv-x="1003" d="M133 -410v1434h174l31 -61h10q33 31 86 56t139 25q76 0 140.5 -28.5t110.5 -92t72 -165t26 -246.5t-26 -246.5t-74 -165t-116.5 -92t-152.5 -28.5q-53 0 -97 14t-77 37v-441h-246zM379 164q16 -16 45 -28.5t68 -12.5t72.5 17.5t58 61.5t39 119.5t14.5 190.5t-14.5 190.5 t-39 119.5t-58.5 61.5t-72 17.5q-39 0 -65 -12t-48 -29v-696z" />
<glyph unicode="q" horiz-adv-x="1003" d="M82 512q0 145 27.5 246.5t83 165t140.5 92t199 28.5q109 0 185 -15t153 -46v-1393h-245v441q-33 -23 -77 -37t-97 -14q-84 0 -153 28.5t-117 92t-73.5 165t-25.5 246.5zM328 512q0 -115 14 -190.5t39 -119.5t58.5 -61.5t72.5 -17.5t67.5 12t45.5 29v737h-93 q-47 0 -83.5 -17.5t-64.5 -61.5t-42 -119.5t-14 -190.5z" />
<glyph unicode="r" horiz-adv-x="737" d="M133 0v1024h174l31 -82h10q33 31 88.5 56.5t147.5 25.5h133v-174h-225q-39 0 -68 -12.5t-45 -28.5v-809h-246z" />
<glyph unicode="s" horiz-adv-x="849" d="M61 758q0 84 27 139t77 88t125 46t171 13q78 0 148.5 -12t117.5 -28v-103h-225q-86 0 -140.5 -31t-54.5 -92q0 -53 36 -87t89 -59.5t115.5 -50t116 -60.5t89 -92t35.5 -142q0 -92 -26.5 -151.5t-81.5 -94.5t-138 -48t-194 -13q-78 0 -148.5 12t-117.5 28v103h225 q117 0 176.5 32.5t59.5 110.5q0 53 -36 87t-89 59.5t-115.5 50t-116 60.5t-89.5 91.5t-36 143.5z" />
<glyph unicode="t" horiz-adv-x="747" d="M41 850v154h113v245h245v-245h277v-113q-47 -16 -118 -28.5t-148 -12.5h-11v-522q0 -61 12.5 -101.5t32 -63t43 -31.5t45.5 -9h185v-103q-18 -8 -48 -15t-64 -13t-68.5 -9t-65.5 -3q-66 0 -123 14t-100 52t-68.5 105.5t-25.5 176.5v522h-113z" />
<glyph unicode="u" horiz-adv-x="1034" d="M133 307v717h246v-717q0 -53 14.5 -89t37 -57.5t52 -29.5t60.5 -8q39 0 67.5 12t44.5 29v860h246v-1024h-174l-31 61h-10q-33 -31 -88 -56t-147 -25q-66 0 -123.5 13t-100.5 50t-68.5 100.5t-25.5 163.5z" />
<glyph unicode="v" horiz-adv-x="962" d="M31 1024h245l201 -768h8l201 768h246l-297 -1024h-307z" />
<glyph unicode="w" horiz-adv-x="1331" d="M31 1024h245l125 -717h9l163 512h185l164 -512h8l125 717h245l-204 -1024h-267l-159 502h-8l-160 -502h-266z" />
<glyph unicode="x" horiz-adv-x="880" d="M20 0l246 522l-235 502h256l153 -358l154 358h256l-236 -502l246 -522h-256l-164 379l-164 -379h-256z" />
<glyph unicode="y" horiz-adv-x="1034" d="M133 307v717h246v-717q0 -53 14.5 -89t37 -57.5t52 -29.5t60.5 -8q39 0 67.5 12t44.5 29v860h246v-942q0 -276 -108.5 -394t-331.5 -118q-78 0 -148.5 12t-117.5 29v102h225q115 0 175 72t60 256q-78 -61 -204 -61q-66 0 -123.5 13t-100.5 50t-68.5 100.5t-25.5 163.5z " />
<glyph unicode="z" horiz-adv-x="819" d="M41 0v143l451 727h-431v154h717v-143l-450 -727h440v-154h-727z" />
<glyph unicode="{" horiz-adv-x="614" d="M41 502v143q70 23 112 78t42 178v266q0 106 26.5 175t79.5 107t131 52.5t182 14.5v-144q-35 0 -66.5 -9t-55 -31.5t-38 -62.5t-14.5 -102v-225q0 -84 -14 -142.5t-39 -99.5t-58.5 -69.5t-72.5 -52.5v-9q39 -25 72.5 -53.5t58.5 -69t39 -99t14 -142.5v-225 q0 -68 14.5 -109t38 -62.5t55.5 -27.5t66 -6v-144q-104 0 -182 14.5t-131 52.5t-79.5 105.5t-26.5 176.5v266q0 123 -42 178t-112 78z" />
<glyph unicode="|" horiz-adv-x="532" d="M143 -410v1844h246v-1844h-246z" />
<glyph unicode="}" horiz-adv-x="614" d="M0 -225q35 0 66.5 6t55 27.5t38 62.5t14.5 109v225q0 84 14.5 142.5t39 99t58 69.5t72.5 53v9q-39 25 -72.5 53t-58 69t-39 99.5t-14.5 142.5v225q0 61 -14.5 101.5t-38 63t-55 31.5t-66.5 9v144q104 0 182 -14.5t131.5 -52.5t80 -106.5t26.5 -175.5v-266q0 -123 42 -178 t111 -78v-143q-70 -23 -111.5 -78t-41.5 -178v-266q0 -109 -26.5 -176.5t-80 -105.5t-131.5 -52.5t-182 -14.5v144z" />
<glyph unicode="~" horiz-adv-x="942" d="M61 758h164q0 -70 22.5 -112t69.5 -42q35 0 62 25.5t58.5 56.5t74.5 56.5t113 25.5q74 0 123 -25.5t78.5 -75t42 -120t12.5 -158.5h-164q0 70 -22.5 112t-69.5 42q-35 0 -61.5 -25.5t-58.5 -56.5t-75 -56.5t-113 -25.5q-74 0 -123 25.5t-78.5 74.5t-42 120t-12.5 159z " />
<glyph unicode="&#xa1;" horiz-adv-x="532" d="M123 0l41 1055h205l41 -1055h-287zM143 1208v246h246v-246h-246z" />
<glyph unicode="&#xa2;" horiz-adv-x="808" d="M82 512q0 139 24.5 238.5t71.5 163t119 94t164 34.5v125h143v-131q45 -6 85 -14t69 -18v-103h-154v-778h174v-103q-33 -10 -78 -20t-96 -14v-109h-143v105q-190 12 -284.5 134t-94.5 396zM328 512q0 -176 33.5 -261t99.5 -112v750q-61 -25 -97 -111t-36 -266z" />
<glyph unicode="&#xa3;" horiz-adv-x="890" d="M72 645v164h112v215q0 137 27 222t82 131t138 61.5t194 15.5q61 0 113.5 -12t90.5 -29v-113h-204q-43 0 -78 -10t-61.5 -39.5t-41 -84t-14.5 -142.5v-215h297v-164h-297v-166q0 -70 -9 -120t-23.5 -86.5t-33 -60.5t-36.5 -40v-8h522v-164h-758v123q23 14 40.5 35.5 t28.5 56.5t17 86t6 129v215h-112z" />
<glyph unicode="&#xa4;" horiz-adv-x="1064" d="M41 379l143 143q-23 31 -37 86.5t-14 108.5t14.5 108.5t36.5 85.5l-143 144l123 123l143 -134q31 23 89.5 42.5t135.5 19.5q78 0 136.5 -19.5t89.5 -42.5l143 134l123 -123l-143 -144q23 -31 37 -86t14 -108t-14.5 -108.5t-36.5 -86.5l143 -143l-123 -123l-143 133 q-31 -23 -89.5 -42t-136.5 -19t-136 19.5t-89 41.5l-143 -133zM369 717q0 -117 51 -176.5t112 -59.5t112.5 59.5t51.5 176.5t-51 176t-113 59q-61 0 -112 -59t-51 -176z" />
<glyph unicode="&#xa5;" horiz-adv-x="983" d="M10 1434h256l221 -686h9l221 686h256l-217 -605h94v-163h-152l-36 -103h188v-164h-236v-399h-245v399h-236v164h189l-37 103h-152v163h92z" />
<glyph unicode="&#xa6;" horiz-adv-x="532" d="M143 348h246v-758h-246v758zM143 635v758h246v-758h-246z" />
<glyph unicode="&#xa7;" horiz-adv-x="952" d="M82 512q0 115 59.5 192.5t145.5 124.5q-39 23 -73 49.5t-58.5 61.5t-39 80t-14.5 106q0 70 27 129.5t81 103.5t134 69.5t188 25.5q92 0 171 -12t126 -29v-102h-256q-109 0 -167 -53.5t-58 -131.5q0 -63 39 -105t96.5 -75t126 -65.5t126 -79.5t96 -116t38.5 -173 q0 -117 -58 -192.5t-136 -114.5q39 -23 73.5 -50.5t61.5 -64.5t43 -84t16 -108q0 -70 -27.5 -129.5t-82.5 -103.5t-140 -69.5t-200 -25.5q-92 0 -171 12t-126 29v102h256q123 0 184.5 53.5t61.5 131.5q0 63 -40 105t-100.5 75t-131 65.5t-131 79.5t-100.5 116t-40 173z M328 512q0 -84 58 -140.5t136 -95.5q47 31 75 87.5t28 148.5q0 43 -16.5 78t-43 63.5t-61.5 52t-74 42.5q-47 -31 -74.5 -87.5t-27.5 -148.5z" />
<glyph unicode="&#xa8;" horiz-adv-x="634" d="M41 1167v246h225v-246h-225zM369 1167v246h225v-246h-225z" />
<glyph unicode="&#xa9;" horiz-adv-x="1720" d="M92 717q0 168 55.5 308t155.5 239.5t242.5 155t314.5 55.5t314.5 -55.5t243 -155t155.5 -239.5t55 -308q0 -170 -55 -309.5t-155.5 -238.5t-243 -154.5t-314.5 -55.5t-314.5 55.5t-242.5 154.5t-155.5 238.5t-55.5 309.5zM297 717q0 -145 41 -260t114.5 -194t177 -120 t230.5 -41t230.5 41t177 120t114.5 194t41 260t-41 260t-114.5 193.5t-177 119.5t-230.5 41t-230.5 -41t-177 -119.5t-114.5 -193.5t-41 -260zM502 717q0 137 25.5 225t74.5 138t120 68.5t159 18.5q86 0 147.5 -12t108.5 -29v-102h-215q-43 0 -78 -10t-61.5 -43t-41 -93.5 t-14.5 -160.5t14.5 -160.5t41 -93.5t61.5 -43t78 -10h235v-103q-47 -16 -118.5 -28.5t-157.5 -12.5q-88 0 -159 18.5t-120 68.5t-74.5 137.5t-25.5 226.5z" />
<glyph unicode="&#xaa;" horiz-adv-x="624" d="M61 1004q0 115 61.5 159.5t153.5 44.5q18 0 39 -2t37 -4q20 -2 37 -4v31q0 92 -113 92h-163v98q31 10 81 17.5t103 7.5q66 0 115 -9.5t82.5 -33t51 -65.5t17.5 -107v-410h-143l-21 41q-31 -23 -63.5 -37t-79.5 -14q-39 0 -74 10t-61.5 32.5t-43 60.5t-16.5 92zM236 1004 q0 -31 21.5 -51.5t59.5 -20.5q16 0 28.5 1t23.5 3q10 2 20 6v143h-72q-82 0 -81 -81z" />
<glyph unicode="&#xab;" horiz-adv-x="1044" d="M41 512l358 471l174 -113l-266 -352v-12l266 -352l-174 -113zM451 512l358 471l174 -113l-266 -352v-12l266 -352l-174 -113z" />
<glyph unicode="&#xac;" horiz-adv-x="911" d="M61 686v164h789v-358h-174l-31 194h-584z" />
<glyph unicode="&#xad;" horiz-adv-x="737" d="M61 532v164h615v-164h-615z" />
<glyph unicode="&#xae;" horiz-adv-x="1720" d="M92 717q0 168 55.5 308t155.5 239.5t242.5 155t314.5 55.5t314.5 -55.5t243 -155t155.5 -239.5t55 -308q0 -170 -55 -309.5t-155.5 -238.5t-243 -154.5t-314.5 -55.5t-314.5 55.5t-242.5 154.5t-155.5 238.5t-55.5 309.5zM297 717q0 -145 41 -260t114.5 -194t177 -120 t230.5 -41t230.5 41t177 120t114.5 194t41 260t-41 260t-114.5 193.5t-177 119.5t-230.5 41t-230.5 -41t-177 -119.5t-114.5 -193.5t-41 -260zM543 287v839q53 16 120.5 28.5t176.5 12.5q186 0 277 -66.5t91 -219.5q0 -66 -15 -110t-37.5 -72.5t-49.5 -45t-51 -28.5 l174 -338h-236l-143 297h-82v-297h-225zM768 727h72q61 0 102 34t41 120q0 78 -41 110.5t-102 32.5h-72v-297z" />
<glyph unicode="&#xaf;" horiz-adv-x="573" d="M41 1290v144h491v-144h-491z" />
<glyph unicode="&#xb0;" horiz-adv-x="839" d="M82 1126q0 154 88 241t250 87t250 -87t88 -241t-88 -240.5t-250 -86.5t-250 87t-88 240zM297 1126q0 -92 38 -138t85 -46t85 46t38 138t-38 138.5t-85 46.5t-85 -46t-38 -139z" />
<glyph unicode="&#xb1;" horiz-adv-x="921" d="M61 92v164h799v-164h-799zM61 614v164h308v328h184v-328h307v-164h-307v-307h-184v307h-308z" />
<glyph unicode="&#xb2;" horiz-adv-x="552" d="M61 819v133q53 43 100.5 83t82.5 76t54 68.5t19 59.5q0 31 -22.5 56.5t-69.5 25.5h-143v100q31 10 79 16.5t95 6.5q123 0 179.5 -52.5t56.5 -152.5q0 -70 -56.5 -137.5t-179.5 -159.5h236v-123h-431z" />
<glyph unicode="&#xb3;" horiz-adv-x="552" d="M61 831v101h164q47 0 69.5 20.5t22.5 51.5t-21.5 51t-59.5 20h-103v123h92q39 0 55.5 19.5t16.5 42.5t-18.5 42t-65.5 19h-152v100q29 10 75.5 16.5t99.5 6.5q109 0 172 -37t63 -137q0 -53 -30.5 -84t-61.5 -39q39 -8 76 -46t37 -108q0 -109 -68 -146.5t-199 -37.5 q-47 0 -90 6t-74 16z" />
<glyph unicode="&#xb4;" horiz-adv-x="389" d="M41 1147l72 266h235l-153 -266h-154z" />
<glyph unicode="&#xb5;" horiz-adv-x="1034" d="M133 -410v1434h246v-676q0 -109 51 -167t113 -58q39 0 67.5 12t44.5 29v860h246v-1024h-174l-31 61h-10q-39 -39 -81 -60t-103 -21q-47 0 -77 17t-46 34v-441h-246z" />
<glyph unicode="&#xb6;" horiz-adv-x="1157" d="M61 1055q0 74 27 141.5t77 120.5t125 85t171 32h655v-164h-123v-1680h-225v1680h-82v-1680h-225v1086q-193 0 -296.5 100.5t-103.5 278.5z" />
<glyph unicode="&#xb7;" horiz-adv-x="573" d="M164 594v246h246v-246h-246z" />
<glyph unicode="&#xb8;" horiz-adv-x="440" d="M41 -248h133q47 0 59.5 13.5t12.5 29.5t-11.5 29.5t-50.5 13.5h-112v193h112v-92h31q92 0 138 -41t46 -103q0 -61 -52 -102t-152 -41q-39 0 -68 4t-47 10q-23 8 -39 17v69z" />
<glyph unicode="&#xb9;" horiz-adv-x="409" d="M61 1311v98q31 10 87.5 17.5t117.5 7.5h82v-615h-174v492h-113z" />
<glyph unicode="&#xba;" horiz-adv-x="655" d="M61 1126q0 162 75 240t192 78t191.5 -78t74.5 -240t-75 -239.5t-191 -77.5q-117 0 -192 78t-75 239zM236 1126q0 -109 26.5 -151.5t65.5 -42.5t65.5 43t26.5 151q0 109 -26.5 152t-65.5 43t-65.5 -43t-26.5 -152z" />
<glyph unicode="&#xbb;" horiz-adv-x="1044" d="M61 154l267 352v12l-267 352l175 113l358 -471l-358 -471zM471 154l266 352v12l-266 352l174 113l359 -471l-359 -471z" />
<glyph unicode="&#xbc;" horiz-adv-x="1208" d="M82 0l799 1434h225l-799 -1434h-225zM102 1311v98q31 10 87.5 17.5t117.5 7.5h82v-615h-174v492h-113zM584 113v123l286 378h174v-378h52v-123h-52v-113h-174v113h-286zM737 236h133v174z" />
<glyph unicode="&#xbd;" horiz-adv-x="1269" d="M102 0l799 1434h225l-798 -1434h-226zM133 1311v98q31 10 87 17.5t118 7.5h82v-615h-174v492h-113zM717 0v133q53 43 100 83t82 76t54.5 68.5t19.5 59.5q0 31 -22.5 56.5t-69.5 25.5h-144v100q31 10 79 16.5t95 6.5q123 0 179.5 -52.5t56.5 -152.5q0 -70 -56.5 -137.5 t-179.5 -159.5h236v-123h-430z" />
<glyph unicode="&#xbe;" horiz-adv-x="1239" d="M82 831v101h164q47 0 69.5 20.5t22.5 51.5t-21.5 51t-60.5 20h-102v123h92q39 0 55 19.5t16 42.5t-18 42t-66 19h-151v100q29 10 75 16.5t99 6.5q109 0 172.5 -37t63.5 -137q0 -53 -31 -84t-62 -39q39 -8 76 -46t37 -108q0 -109 -67.5 -146.5t-198.5 -37.5q-47 0 -90 6 t-74 16zM113 0l798 1434h226l-799 -1434h-225zM614 113v123l287 378h174v-378h51v-123h-51v-113h-174v113h-287zM768 236h133v174z" />
<glyph unicode="&#xbf;" horiz-adv-x="808" d="M61 369q0 86 22.5 150.5t57.5 115.5t76 95t78 92t62.5 103.5t31.5 129.5h205q0 -94 -21.5 -162t-53.5 -121t-68.5 -95t-68.5 -87t-53.5 -97.5t-21.5 -123.5q0 -117 57.5 -176.5t157.5 -59.5h266v-113q-47 -16 -133 -28t-194 -12q-193 0 -296.5 101t-103.5 288zM369 1208 v246h245v-246h-245z" />
<glyph unicode="&#xc0;" horiz-adv-x="1105" d="M31 0l368 1434h308l368 -1434h-256l-90 358h-352l-90 -358h-256zM338 1802h235l72 -266h-153zM410 522h284l-137 584h-8z" />
<glyph unicode="&#xc1;" horiz-adv-x="1105" d="M31 0l368 1434h308l368 -1434h-256l-90 358h-352l-90 -358h-256zM410 522h284l-137 584h-8zM471 1536l72 266h235l-153 -266h-154z" />
<glyph unicode="&#xc2;" horiz-adv-x="1105" d="M31 0l368 1434h308l368 -1434h-256l-90 358h-352l-90 -358h-256zM283 1536l163 266h216l163 -266h-157l-115 143l-115 -143h-155zM410 522h284l-137 584h-8z" />
<glyph unicode="&#xc3;" horiz-adv-x="1105" d="M31 0l368 1434h308l368 -1434h-256l-90 358h-352l-90 -358h-256zM287 1772h123q0 -82 51 -82q18 0 36.5 16t40 34.5t47 35t60.5 16.5q70 0 112 -54.5t42 -191.5h-123q0 82 -51 82q-18 0 -37 -16.5t-40.5 -34.5t-47 -34.5t-60.5 -16.5t-63.5 12t-48 41t-30.5 76t-11 117z M410 522h284l-137 584h-8z" />
<glyph unicode="&#xc4;" horiz-adv-x="1105" d="M31 0l368 1434h308l368 -1434h-256l-90 358h-352l-90 -358h-256zM276 1536v246h226v-246h-226zM410 522h284l-137 584h-8zM604 1536v246h225v-246h-225z" />
<glyph unicode="&#xc5;" horiz-adv-x="1105" d="M31 0l368 1434h308l368 -1434h-256l-90 358h-352l-90 -358h-256zM358 1659q0 78 54.5 126t140.5 48t140.5 -48t54.5 -126t-54.5 -126t-140.5 -48t-140.5 48t-54.5 126zM410 522h284l-137 584h-8zM492 1659q0 -31 19 -46.5t42 -15.5t42 15.5t19 46.5t-19.5 46t-41.5 15 q-23 0 -42 -15t-19 -46z" />
<glyph unicode="&#xc6;" horiz-adv-x="1546" d="M0 0l492 1434h972v-164h-501v-441h440v-163h-440v-502h501v-164h-747v358h-348l-125 -358h-244zM424 522h293v748h-39z" />
<glyph unicode="&#xc7;" horiz-adv-x="931" d="M92 717q0 215 31 357.5t89 226t144 118.5t197 35q109 0 195 -12t133 -29v-113h-246q-66 0 -120 -26.5t-94 -92t-61.5 -179t-21.5 -285.5t22.5 -286t63.5 -179.5t99.5 -92t131.5 -26.5h246v-113q-47 -16 -128 -28t-189 -12h-21v-41h31q92 0 138 -41t46 -103 q0 -61 -52 -102t-153 -41q-39 0 -67.5 4t-46.5 10q-23 8 -39 17v69h133q47 0 59.5 13.5t12.5 29.5t-11.5 29.5t-50.5 13.5h-112v154q-88 16 -155 63t-112 133t-68.5 216.5t-23.5 312.5z" />
<glyph unicode="&#xc8;" d="M143 0v1434h748v-164h-502v-441h440v-163h-440v-502h502v-164h-748zM317 1802h236l72 -266h-154z" />
<glyph unicode="&#xc9;" d="M143 0v1434h748v-164h-502v-441h440v-163h-440v-502h502v-164h-748zM440 1536l72 266h236l-154 -266h-154z" />
<glyph unicode="&#xca;" d="M143 0v1434h748v-164h-502v-441h440v-163h-440v-502h502v-164h-748zM246 1536l164 266h215l163 -266h-157l-115 143l-115 -143h-155z" />
<glyph unicode="&#xcb;" d="M143 0v1434h748v-164h-502v-441h440v-163h-440v-502h502v-164h-748zM236 1556v246h225v-246h-225zM563 1556v246h225v-246h-225z" />
<glyph unicode="&#xcc;" horiz-adv-x="522" d="M31 1802h235l72 -266h-154zM133 0v1434h246v-1434h-246z" />
<glyph unicode="&#xcd;" horiz-adv-x="522" d="M143 0v1434h246v-1434h-246zM184 1536l72 266h236l-154 -266h-154z" />
<glyph unicode="&#xce;" horiz-adv-x="481" d="M-31 1536l164 266h215l164 -266h-158l-114 143l-115 -143h-156zM113 0v1434h245v-1434h-245z" />
<glyph unicode="&#xcf;" horiz-adv-x="512" d="M-20 1556v246h225v-246h-225zM133 0v1434h246v-1434h-246zM307 1556v246h225v-246h-225z" />
<glyph unicode="&#xd0;" horiz-adv-x="1146" d="M20 645v164h154v604q78 23 160 32t198 9q127 0 224.5 -38t164 -124t100.5 -227t34 -348t-34 -348.5t-100.5 -227.5t-164 -123.5t-224.5 -37.5q-117 0 -198.5 9t-159.5 31v625h-154zM420 133h112q61 0 112.5 26.5t87.5 92t56.5 179.5t20.5 286t-20.5 285.5t-56.5 179 t-87 92t-113 26.5h-112v-491h215v-164h-215v-512z" />
<glyph unicode="&#xd1;" horiz-adv-x="1167" d="M143 0v1434h246l389 -942h10v942h236v-1434h-246l-389 942h-10v-942h-236zM307 1772h123q0 -82 51 -82q18 0 37 16t40.5 34.5t47 35t60.5 16.5q70 0 111.5 -54.5t41.5 -191.5h-123q0 82 -51 82q-18 0 -36.5 -16.5t-40 -34.5t-47 -34.5t-60.5 -16.5t-63.5 12t-48 41 t-31 76t-11.5 117z" />
<glyph unicode="&#xd2;" horiz-adv-x="1126" d="M92 717q0 207 33 348t94.5 227t148 124t195.5 38q106 0 193.5 -38t149 -124t95 -227t33.5 -348t-33.5 -348.5t-95 -227.5t-148.5 -123.5t-194 -37.5q-109 0 -195.5 37.5t-148 123.5t-94.5 227.5t-33 348.5zM338 717q0 -176 19.5 -291t51 -182.5t71.5 -94t83 -26.5 t83 26.5t72 94t51 182.5t19 291t-19 290.5t-51 182t-72 94.5t-83 27t-83 -27t-71.5 -94.5t-51 -182t-19.5 -290.5zM338 1823h235l72 -267h-153z" />
<glyph unicode="&#xd3;" horiz-adv-x="1126" d="M92 717q0 207 33 348t94.5 227t148 124t195.5 38q106 0 193.5 -38t149 -124t95 -227t33.5 -348t-33.5 -348.5t-95 -227.5t-148.5 -123.5t-194 -37.5q-109 0 -195.5 37.5t-148 123.5t-94.5 227.5t-33 348.5zM338 717q0 -176 19.5 -291t51 -182.5t71.5 -94t83 -26.5 t83 26.5t72 94t51 182.5t19 291t-19 290.5t-51 182t-72 94.5t-83 27t-83 -27t-71.5 -94.5t-51 -182t-19.5 -290.5zM471 1556l72 267h235l-153 -267h-154z" />
<glyph unicode="&#xd4;" horiz-adv-x="1126" d="M92 717q0 207 33 348t94.5 227t148 124t195.5 38q106 0 193.5 -38t149 -124t95 -227t33.5 -348t-33.5 -348.5t-95 -227.5t-148.5 -123.5t-194 -37.5q-109 0 -195.5 37.5t-148 123.5t-94.5 227.5t-33 348.5zM297 1556l164 267h215l164 -267h-158l-115 144l-114 -144h-156z M338 717q0 -176 19.5 -291t51 -182.5t71.5 -94t83 -26.5t83 26.5t72 94t51 182.5t19 291t-19 290.5t-51 182t-72 94.5t-83 27t-83 -27t-71.5 -94.5t-51 -182t-19.5 -290.5z" />
<glyph unicode="&#xd5;" horiz-adv-x="1126" d="M92 717q0 207 33 348t94.5 227t148 124t195.5 38q106 0 193.5 -38t149 -124t95 -227t33.5 -348t-33.5 -348.5t-95 -227.5t-148.5 -123.5t-194 -37.5q-109 0 -195.5 37.5t-148 123.5t-94.5 227.5t-33 348.5zM297 1792h123q0 -82 51 -82q18 0 36.5 16.5t40 35t47.5 34.5 t60 16q70 0 112 -54t42 -191h-123q0 82 -51 82q-18 0 -36.5 -16.5t-40 -35t-47.5 -35t-60 -16.5q-35 0 -64 12.5t-48.5 41t-30.5 75.5t-11 117zM338 717q0 -176 19.5 -291t51 -182.5t71.5 -94t83 -26.5t83 26.5t72 94t51 182.5t19 291t-19 290.5t-51 182t-72 94.5t-83 27 t-83 -27t-71.5 -94.5t-51 -182t-19.5 -290.5z" />
<glyph unicode="&#xd6;" horiz-adv-x="1126" d="M92 717q0 207 33 348t94.5 227t148 124t195.5 38q106 0 193.5 -38t149 -124t95 -227t33.5 -348t-33.5 -348.5t-95 -227.5t-148.5 -123.5t-194 -37.5q-109 0 -195.5 37.5t-148 123.5t-94.5 227.5t-33 348.5zM287 1556v246h225v-246h-225zM338 717q0 -176 19.5 -291 t51 -182.5t71.5 -94t83 -26.5t83 26.5t72 94t51 182.5t19 291t-19 290.5t-51 182t-72 94.5t-83 27t-83 -27t-71.5 -94.5t-51 -182t-19.5 -290.5zM614 1556v246h226v-246h-226z" />
<glyph unicode="&#xd7;" horiz-adv-x="860" d="M82 451l225 225l-225 225l123 123l225 -225l225 225l123 -123l-225 -225l225 -225l-123 -123l-225 225l-225 -225z" />
<glyph unicode="&#xd8;" horiz-adv-x="1126" d="M51 102l109 154q-33 86 -50.5 198.5t-17.5 262.5q0 207 33 348t94.5 227t148.5 124t195 38q104 0 188.5 -35t145.5 -114l76 108l102 -82l-108 -153q33 -86 50 -199t17 -262q0 -207 -33.5 -348.5t-95 -227.5t-148.5 -123.5t-194 -37.5q-104 0 -188 34.5t-146 112.5 l-75 -107zM338 717q0 -55 2 -104.5t6 -92.5l404 576q-31 123 -82.5 169t-104.5 46q-43 0 -83 -27t-71.5 -94.5t-51 -182t-19.5 -290.5zM375 336q33 -121 83 -167t105 -46q43 0 83 26.5t72 94t51 182.5t19 291q0 55 -2 103t-6 91z" />
<glyph unicode="&#xd9;" horiz-adv-x="1126" d="M123 492v942h246v-942q0 -109 14 -179.5t41 -112.5t61.5 -59.5t77.5 -17.5t78 17.5t61.5 59.5t41 112.5t14.5 179.5v942h246v-942q0 -276 -109 -394t-332 -118t-331.5 117.5t-108.5 394.5zM348 1782h236l71 -266h-153z" />
<glyph unicode="&#xda;" horiz-adv-x="1126" d="M123 492v942h246v-942q0 -109 14 -179.5t41 -112.5t61.5 -59.5t77.5 -17.5t78 17.5t61.5 59.5t41 112.5t14.5 179.5v942h246v-942q0 -276 -109 -394t-332 -118t-331.5 117.5t-108.5 394.5zM471 1516l72 266h235l-153 -266h-154z" />
<glyph unicode="&#xdb;" horiz-adv-x="1126" d="M123 492v942h246v-942q0 -109 14 -179.5t41 -112.5t61.5 -59.5t77.5 -17.5t78 17.5t61.5 59.5t41 112.5t14.5 179.5v942h246v-942q0 -276 -109 -394t-332 -118t-331.5 117.5t-108.5 394.5zM293 1516l164 266h215l164 -266h-158l-115 143l-114 -143h-156z" />
<glyph unicode="&#xdc;" horiz-adv-x="1126" d="M123 492v942h246v-942q0 -109 14 -179.5t41 -112.5t61.5 -59.5t77.5 -17.5t78 17.5t61.5 59.5t41 112.5t14.5 179.5v942h246v-942q0 -276 -109 -394t-332 -118t-331.5 117.5t-108.5 394.5zM287 1516v245h225v-245h-225zM614 1516v245h226v-245h-226z" />
<glyph unicode="&#xdd;" horiz-adv-x="983" d="M10 1434h256l221 -686h9l221 686h256l-359 -1004v-430h-245v430zM408 1516l71 266h236l-154 -266h-153z" />
<glyph unicode="&#xde;" horiz-adv-x="1075" d="M143 -20v1474h246v-154q324 -16 469.5 -164.5t145.5 -418.5t-145.5 -418.5t-469.5 -165.5v-153h-246zM389 287q170 8 269.5 118.5t99.5 311.5t-99.5 311.5t-269.5 118.5v-860z" />
<glyph unicode="&#xdf;" horiz-adv-x="1126" d="M133 0v1014q0 440 420 440q96 0 171 -25.5t125 -69.5t76.5 -103.5t26.5 -129.5q0 -80 -33.5 -129t-73.5 -87t-74 -73.5t-34 -88.5q0 -35 24.5 -65t62.5 -58.5t82 -59t82 -70.5t62.5 -93.5t24.5 -125.5q0 -88 -25.5 -145t-74.5 -91t-120 -47t-159 -13q-47 0 -107.5 12 t-107.5 28v103h174q70 0 122 35t52 118q0 51 -24.5 87t-62 67t-82 59.5t-82 63.5t-62 81t-24.5 114q0 70 33.5 115.5t73.5 84.5t74 80t34 98q0 45 -14.5 79t-36 54.5t-49 30.5t-54.5 10q-70 0 -122 -66.5t-52 -219.5v-1014h-246z" />
<glyph unicode="&#xe0;" d="M82 307q0 100 25.5 164t70.5 100.5t106.5 50t135.5 13.5q47 0 91 -6t83 -15v82q0 123 -57.5 164t-157.5 41h-205v103q47 16 115.5 28t130.5 12q104 0 182 -14t131 -52t80 -106.5t27 -175.5v-696h-174l-31 61h-10q-33 -31 -86.5 -56t-139.5 -25q-66 0 -123 13t-100 50 t-68.5 100.5t-25.5 163.5zM289 1413h235l72 -266h-154zM328 307q0 -53 14 -89t35.5 -57.5t49.5 -29.5t54 -8q39 0 68 12t45 29v328h-113q-27 0 -54.5 -8.5t-49 -30t-35.5 -57.5t-14 -89z" />
<glyph unicode="&#xe1;" d="M82 307q0 100 25.5 164t70.5 100.5t106.5 50t135.5 13.5q47 0 91 -6t83 -15v82q0 123 -57.5 164t-157.5 41h-205v103q47 16 115.5 28t130.5 12q104 0 182 -14t131 -52t80 -106.5t27 -175.5v-696h-174l-31 61h-10q-33 -31 -86.5 -56t-139.5 -25q-66 0 -123 13t-100 50 t-68.5 100.5t-25.5 163.5zM328 307q0 -53 14 -89t35.5 -57.5t49.5 -29.5t54 -8q39 0 68 12t45 29v328h-113q-27 0 -54.5 -8.5t-49 -30t-35.5 -57.5t-14 -89zM399 1147l72 266h236l-154 -266h-154z" />
<glyph unicode="&#xe2;" d="M82 307q0 100 25.5 164t70.5 100.5t106.5 50t135.5 13.5q47 0 91 -6t83 -15v82q0 123 -57.5 164t-157.5 41h-205v103q47 16 115.5 28t130.5 12q104 0 182 -14t131 -52t80 -106.5t27 -175.5v-696h-174l-31 61h-10q-33 -31 -86.5 -56t-139.5 -25q-66 0 -123 13t-100 50 t-68.5 100.5t-25.5 163.5zM225 1126l164 267h215l164 -267h-158l-114 144l-115 -144h-156zM328 307q0 -53 14 -89t35.5 -57.5t49.5 -29.5t54 -8q39 0 68 12t45 29v328h-113q-27 0 -54.5 -8.5t-49 -30t-35.5 -57.5t-14 -89z" />
<glyph unicode="&#xe3;" d="M82 307q0 100 25.5 164t70.5 100.5t106.5 50t135.5 13.5q47 0 91 -6t83 -15v82q0 123 -57.5 164t-157.5 41h-205v103q47 16 115.5 28t130.5 12q104 0 182 -14t131 -52t80 -106.5t27 -175.5v-696h-174l-31 61h-10q-33 -31 -86.5 -56t-139.5 -25q-66 0 -123 13t-100 50 t-68.5 100.5t-25.5 163.5zM236 1393h122q0 -82 52 -82q18 0 36.5 16t40 34.5t47 35t60.5 16.5q70 0 112 -54t42 -192h-123q0 82 -52 82q-18 0 -36.5 -16t-40 -34.5t-47 -35t-60.5 -16.5t-63.5 12t-48 41t-30.5 76t-11 117zM328 307q0 -53 14 -89t35.5 -57.5t49.5 -29.5 t54 -8q39 0 68 12t45 29v328h-113q-27 0 -54.5 -8.5t-49 -30t-35.5 -57.5t-14 -89z" />
<glyph unicode="&#xe4;" d="M82 307q0 100 25.5 164t70.5 100.5t106.5 50t135.5 13.5q47 0 91 -6t83 -15v82q0 123 -57.5 164t-157.5 41h-205v103q47 16 115.5 28t130.5 12q104 0 182 -14t131 -52t80 -106.5t27 -175.5v-696h-174l-31 61h-10q-33 -31 -86.5 -56t-139.5 -25q-66 0 -123 13t-100 50 t-68.5 100.5t-25.5 163.5zM215 1147v246h225v-246h-225zM328 307q0 -53 14 -89t35.5 -57.5t49.5 -29.5t54 -8q39 0 68 12t45 29v328h-113q-27 0 -54.5 -8.5t-49 -30t-35.5 -57.5t-14 -89zM543 1147v246h225v-246h-225z" />
<glyph unicode="&#xe5;" d="M82 307q0 100 25.5 164t70.5 100.5t106.5 50t135.5 13.5q47 0 91 -6t83 -15v82q0 123 -57.5 164t-157.5 41h-205v103q47 16 115.5 28t130.5 12q104 0 182 -14t131 -52t80 -106.5t27 -175.5v-696h-174l-31 61h-10q-33 -31 -86.5 -56t-139.5 -25q-66 0 -123 13t-100 50 t-68.5 100.5t-25.5 163.5zM297 1270q0 78 54.5 126t140.5 48t140 -48t54 -126t-54 -126t-140 -48t-140.5 48t-54.5 126zM328 307q0 -53 14 -89t35.5 -57.5t49.5 -29.5t54 -8q39 0 68 12t45 29v328h-113q-27 0 -54.5 -8.5t-49 -30t-35.5 -57.5t-14 -89zM430 1270 q0 -31 19.5 -46.5t42.5 -15.5t42 15.5t19 46.5t-19.5 46t-41.5 15q-23 0 -42.5 -15.5t-19.5 -45.5z" />
<glyph unicode="&#xe6;" horiz-adv-x="1454" d="M82 287q0 92 25.5 151.5t70.5 94t106.5 48t135.5 13.5q47 0 91 -6t83 -15v123q0 123 -57.5 164t-157.5 41h-205v103q47 16 115.5 28t130.5 12q117 0 188.5 -34.5t118.5 -87.5q47 53 108.5 87.5t147.5 34.5q92 0 165 -29.5t122 -94t75.5 -166t26.5 -242.5v-61h-532 q0 -184 62.5 -256t193.5 -72h225v-103q-47 -16 -117.5 -28t-148.5 -12q-131 0 -206 34.5t-122 87.5q-23 -27 -50.5 -49t-64.5 -38.5t-84 -25.5t-108 -9q-74 0 -135.5 13t-106.5 48t-70.5 94.5t-25.5 151.5zM328 287q0 -47 14 -78t35.5 -50.5t49.5 -27.5t54 -8q39 0 68 12 t45 29v287h-113q-27 0 -54.5 -8.5t-49 -28t-35.5 -51t-14 -76.5zM840 594h286q0 96 -11 157.5t-29.5 97.5t-45 49t-57.5 13t-57.5 -13t-45 -49t-29.5 -97.5t-11 -157.5z" />
<glyph unicode="&#xe7;" horiz-adv-x="808" d="M82 512q0 145 26.5 246.5t79 165t128 92t176.5 28.5q78 0 148.5 -12t117.5 -28v-103h-226q-47 0 -83.5 -17.5t-64.5 -61.5t-42 -119.5t-14 -190.5t15 -190.5t44 -119.5t71 -61.5t95 -17.5h225v-103q-47 -16 -117.5 -28t-148.5 -12q-10 0 -17.5 1t-15.5 1l2 -2v-41h31 q92 0 138 -41t46 -103q0 -61 -52 -102t-152 -41q-39 0 -68 4t-47 10q-23 8 -39 17v69h133q47 0 59.5 13.5t12.5 29.5t-11.5 29.5t-50.5 13.5h-112v158q-143 35 -215 155.5t-72 360.5z" />
<glyph unicode="&#xe8;" horiz-adv-x="942" d="M82 512q0 145 26.5 246.5t75.5 165t122 92t165 28.5t165 -28.5t122 -92t75.5 -165t26.5 -246.5v-72h-532q0 -176 62.5 -246.5t193.5 -70.5h225v-103q-47 -16 -117.5 -28t-148.5 -12q-119 0 -206 28.5t-143.5 92t-84 165t-27.5 246.5zM246 1413h235l72 -266h-154zM328 584 h286q0 100 -11 163.5t-29.5 100.5t-45 50t-57.5 13t-57.5 -13t-45 -50t-29.5 -100.5t-11 -163.5z" />
<glyph unicode="&#xe9;" horiz-adv-x="942" d="M82 512q0 145 26.5 246.5t75.5 165t122 92t165 28.5t165 -28.5t122 -92t75.5 -165t26.5 -246.5v-72h-532q0 -176 62.5 -246.5t193.5 -70.5h225v-103q-47 -16 -117.5 -28t-148.5 -12q-119 0 -206 28.5t-143.5 92t-84 165t-27.5 246.5zM328 584h286q0 100 -11 163.5 t-29.5 100.5t-45 50t-57.5 13t-57.5 -13t-45 -50t-29.5 -100.5t-11 -163.5zM379 1147l72 266h235l-154 -266h-153z" />
<glyph unicode="&#xea;" horiz-adv-x="942" d="M82 512q0 145 26.5 246.5t75.5 165t122 92t165 28.5t165 -28.5t122 -92t75.5 -165t26.5 -246.5v-72h-532q0 -176 62.5 -246.5t193.5 -70.5h225v-103q-47 -16 -117.5 -28t-148.5 -12q-119 0 -206 28.5t-143.5 92t-84 165t-27.5 246.5zM205 1126l164 267h215l164 -267h-158 l-115 144l-115 -144h-155zM328 584h286q0 100 -11 163.5t-29.5 100.5t-45 50t-57.5 13t-57.5 -13t-45 -50t-29.5 -100.5t-11 -163.5z" />
<glyph unicode="&#xeb;" horiz-adv-x="942" d="M82 512q0 145 26.5 246.5t75.5 165t122 92t165 28.5t165 -28.5t122 -92t75.5 -165t26.5 -246.5v-72h-532q0 -176 62.5 -246.5t193.5 -70.5h225v-103q-47 -16 -117.5 -28t-148.5 -12q-119 0 -206 28.5t-143.5 92t-84 165t-27.5 246.5zM195 1147v246h225v-246h-225z M328 584h286q0 100 -11 163.5t-29.5 100.5t-45 50t-57.5 13t-57.5 -13t-45 -50t-29.5 -100.5t-11 -163.5zM522 1147v246h226v-246h-226z" />
<glyph unicode="&#xec;" horiz-adv-x="532" d="M41 1413h235l72 -266h-153zM143 0v1024h246v-1024h-246z" />
<glyph unicode="&#xed;" horiz-adv-x="532" d="M143 0v1024h246v-1024h-246zM184 1147l72 266h236l-154 -266h-154z" />
<glyph unicode="&#xee;" horiz-adv-x="501" d="M-20 1126l163 267h215l164 -267h-157l-115 144l-115 -144h-155zM133 0v1024h246v-1024h-246z" />
<glyph unicode="&#xef;" horiz-adv-x="512" d="M-20 1147v246h225v-246h-225zM133 0v1024h246v-1024h-246zM307 1147v246h225v-246h-225z" />
<glyph unicode="&#xf0;" horiz-adv-x="993" d="M82 440q0 240 101.5 350.5t287.5 110.5q61 0 107.5 -14.5t76.5 -36.5q0 78 -10 143.5t-41 110.5l-102 -123l-103 84l113 143q-53 47 -146.5 87t-203.5 57l12 102q139 -8 256 -39t195 -84l112 137l103 -84l-113 -133q78 -78 126 -216t48 -318v-277q0 -240 -104.5 -350 t-304.5 -110q-201 0 -305.5 110.5t-104.5 349.5zM328 440q0 -92 14 -154.5t36.5 -101.5t52.5 -55t61 -16t60.5 16t52 55t36.5 101.5t14 154.5v277q-16 16 -45.5 28.5t-77.5 12.5q-92 0 -148 -71t-56 -247z" />
<glyph unicode="&#xf1;" horiz-adv-x="1034" d="M133 0v1024h174l31 -61h10q33 31 88.5 56t147.5 25q66 0 123 -13t100 -50t68.5 -100.5t25.5 -163.5v-717h-246v717q0 53 -14 89t-36.5 57.5t-52.5 29.5t-60 8q-39 0 -68 -12t-45 -29v-860h-246zM266 1393h123q0 -82 51 -82q18 0 37 16t40.5 34.5t47 35t60.5 16.5 q70 0 111.5 -54t41.5 -192h-123q0 82 -51 82q-18 0 -36.5 -16t-40 -34.5t-47 -35t-60.5 -16.5t-63.5 12t-48 41t-31 76t-11.5 117z" />
<glyph unicode="&#xf2;" horiz-adv-x="983" d="M82 512q0 145 26.5 246.5t79 165t128.5 92t176 28.5t175.5 -28.5t128 -92t79 -165t26.5 -246.5t-26.5 -246.5t-79 -165t-128 -92t-175.5 -28.5t-176 28.5t-128.5 92t-79 165t-26.5 246.5zM266 1413h236l71 -266h-153zM328 512q0 -119 12 -196.5t34.5 -123t52.5 -62.5 t65 -17t64.5 17t52 62.5t34.5 123t12 196.5t-12 196.5t-34.5 123t-52 62.5t-64.5 17t-65 -17t-52.5 -62.5t-34.5 -123t-12 -196.5z" />
<glyph unicode="&#xf3;" horiz-adv-x="983" d="M82 512q0 145 26.5 246.5t79 165t128.5 92t176 28.5t175.5 -28.5t128 -92t79 -165t26.5 -246.5t-26.5 -246.5t-79 -165t-128 -92t-175.5 -28.5t-176 28.5t-128.5 92t-79 165t-26.5 246.5zM328 512q0 -119 12 -196.5t34.5 -123t52.5 -62.5t65 -17t64.5 17t52 62.5 t34.5 123t12 196.5t-12 196.5t-34.5 123t-52 62.5t-64.5 17t-65 -17t-52.5 -62.5t-34.5 -123t-12 -196.5zM399 1147l72 266h236l-154 -266h-154z" />
<glyph unicode="&#xf4;" horiz-adv-x="983" d="M82 512q0 145 26.5 246.5t79 165t128.5 92t176 28.5t175.5 -28.5t128 -92t79 -165t26.5 -246.5t-26.5 -246.5t-79 -165t-128 -92t-175.5 -28.5t-176 28.5t-128.5 92t-79 165t-26.5 246.5zM223 1126l164 267h215l164 -267h-158l-114 144l-115 -144h-156zM328 512 q0 -119 12 -196.5t34.5 -123t52.5 -62.5t65 -17t64.5 17t52 62.5t34.5 123t12 196.5t-12 196.5t-34.5 123t-52 62.5t-64.5 17t-65 -17t-52.5 -62.5t-34.5 -123t-12 -196.5z" />
<glyph unicode="&#xf5;" horiz-adv-x="983" d="M82 512q0 145 26.5 246.5t79 165t128.5 92t176 28.5t175.5 -28.5t128 -92t79 -165t26.5 -246.5t-26.5 -246.5t-79 -165t-128 -92t-175.5 -28.5t-176 28.5t-128.5 92t-79 165t-26.5 246.5zM236 1393h122q0 -82 52 -82q18 0 36.5 16t40 34.5t47 35t60.5 16.5q70 0 112 -54 t42 -192h-123q0 82 -52 82q-18 0 -36.5 -16t-40 -34.5t-47 -35t-60.5 -16.5t-63.5 12t-48 41t-30.5 76t-11 117zM328 512q0 -119 12 -196.5t34.5 -123t52.5 -62.5t65 -17t64.5 17t52 62.5t34.5 123t12 196.5t-12 196.5t-34.5 123t-52 62.5t-64.5 17t-65 -17t-52.5 -62.5 t-34.5 -123t-12 -196.5z" />
<glyph unicode="&#xf6;" horiz-adv-x="983" d="M82 512q0 145 26.5 246.5t79 165t128.5 92t176 28.5t175.5 -28.5t128 -92t79 -165t26.5 -246.5t-26.5 -246.5t-79 -165t-128 -92t-175.5 -28.5t-176 28.5t-128.5 92t-79 165t-26.5 246.5zM215 1147v246h225v-246h-225zM328 512q0 -119 12 -196.5t34.5 -123t52.5 -62.5 t65 -17t64.5 17t52 62.5t34.5 123t12 196.5t-12 196.5t-34.5 123t-52 62.5t-64.5 17t-65 -17t-52.5 -62.5t-34.5 -123t-12 -196.5zM543 1147v246h225v-246h-225z" />
<glyph unicode="&#xf7;" horiz-adv-x="921" d="M61 522v185h799v-185h-799zM358 174v225h205v-225h-205zM358 829v226h205v-226h-205z" />
<glyph unicode="&#xf8;" horiz-adv-x="1003" d="M51 123l82 90q-41 119 -41 299q0 145 26.5 246.5t79 165t128 92t176.5 28.5q96 0 169.5 -25.5t125.5 -84.5l63 70l92 -103l-84 -92q43 -115 43 -297q0 -145 -26.5 -246.5t-78.5 -165t-128 -92t-176 -28.5q-98 0 -171 25.5t-126 82.5l-62 -68zM338 436l303 330 q-23 84 -58.5 114.5t-80.5 30.5q-35 0 -64.5 -17t-52.5 -62.5t-35 -123t-12 -196.5v-76zM360 258q23 -84 59 -114.5t83 -30.5q35 0 64.5 17t52 62.5t35 123t12.5 196.5v38.5t-2 37.5z" />
<glyph unicode="&#xf9;" horiz-adv-x="1034" d="M133 307v717h246v-717q0 -53 14.5 -89t37 -57.5t52 -29.5t60.5 -8q39 0 67.5 12t44.5 29v860h246v-1024h-174l-31 61h-10q-33 -31 -88 -56t-147 -25q-66 0 -123.5 13t-100.5 50t-68.5 100.5t-25.5 163.5zM307 1413h236l71 -266h-153z" />
<glyph unicode="&#xfa;" horiz-adv-x="1034" d="M133 307v717h246v-717q0 -53 14.5 -89t37 -57.5t52 -29.5t60.5 -8q39 0 67.5 12t44.5 29v860h246v-1024h-174l-31 61h-10q-33 -31 -88 -56t-147 -25q-66 0 -123.5 13t-100.5 50t-68.5 100.5t-25.5 163.5zM430 1147l72 266h235l-153 -266h-154z" />
<glyph unicode="&#xfb;" horiz-adv-x="1034" d="M133 307v717h246v-717q0 -53 14.5 -89t37 -57.5t52 -29.5t60.5 -8q39 0 67.5 12t44.5 29v860h246v-1024h-174l-31 61h-10q-33 -31 -88 -56t-147 -25q-66 0 -123.5 13t-100.5 50t-68.5 100.5t-25.5 163.5zM252 1126l164 267h215l164 -267h-158l-115 144l-114 -144h-156z " />
<glyph unicode="&#xfc;" horiz-adv-x="1034" d="M133 307v717h246v-717q0 -53 14.5 -89t37 -57.5t52 -29.5t60.5 -8q39 0 67.5 12t44.5 29v860h246v-1024h-174l-31 61h-10q-33 -31 -88 -56t-147 -25q-66 0 -123.5 13t-100.5 50t-68.5 100.5t-25.5 163.5zM246 1147v246h225v-246h-225zM573 1147v246h226v-246h-226z" />
<glyph unicode="&#xfd;" horiz-adv-x="1034" d="M133 307v717h246v-717q0 -53 14.5 -89t37 -57.5t52 -29.5t60.5 -8q39 0 67.5 12t44.5 29v860h246v-942q0 -276 -108.5 -394t-331.5 -118q-78 0 -148.5 12t-117.5 29v102h225q115 0 175 72t60 256q-78 -61 -204 -61q-66 0 -123.5 13t-100.5 50t-68.5 100.5t-25.5 163.5z M430 1147l72 266h235l-153 -266h-154z" />
<glyph unicode="&#xfe;" horiz-adv-x="1013" d="M143 -410v1844h246v-441q33 23 77 37t97 14q84 0 152.5 -28.5t117 -92t74 -165t25.5 -246.5t-25.5 -246.5t-74 -165t-117 -92t-152.5 -28.5q-53 0 -97 14t-77 37v-441h-246zM389 164q16 -16 45 -28.5t68 -12.5t72.5 17.5t58 61.5t39 119.5t14.5 190.5t-14.5 190.5 t-39 119.5t-58 61.5t-72.5 17.5t-67.5 -12t-45.5 -29v-696z" />
<glyph unicode="&#xff;" horiz-adv-x="1034" d="M133 307v717h246v-717q0 -53 14.5 -89t37 -57.5t52 -29.5t60.5 -8q39 0 67.5 12t44.5 29v860h246v-942q0 -276 -108.5 -394t-331.5 -118q-78 0 -148.5 12t-117.5 29v102h225q115 0 175 72t60 256q-78 -61 -204 -61q-66 0 -123.5 13t-100.5 50t-68.5 100.5t-25.5 163.5z M246 1147v246h225v-246h-225zM573 1147v246h226v-246h-226z" />
<glyph unicode="&#x100;" horiz-adv-x="1105" d="M31 0l368 1434h308l368 -1434h-256l-90 358h-352l-90 -358h-256zM307 1556v144h492v-144h-492zM410 522h284l-137 584h-8z" />
<glyph unicode="&#x101;" d="M82 307q0 100 25.5 164t70.5 100.5t106.5 50t135.5 13.5q47 0 91 -6t83 -15v82q0 123 -57.5 164t-157.5 41h-205v103q47 16 115.5 28t130.5 12q104 0 182 -14t131 -52t80 -106.5t27 -175.5v-696h-174l-31 61h-10q-33 -31 -86.5 -56t-139.5 -25q-66 0 -123 13t-100 50 t-68.5 100.5t-25.5 163.5zM256 1167v144h492v-144h-492zM328 307q0 -53 14 -89t35.5 -57.5t49.5 -29.5t54 -8q39 0 68 12t45 29v328h-113q-27 0 -54.5 -8.5t-49 -30t-35.5 -57.5t-14 -89z" />
<glyph unicode="&#x104;" horiz-adv-x="1105" d="M29 0l368 1434h308l368 -1434h-112v-92q0 -113 110 -113h74v-92q-20 -8 -43 -16q-20 -6 -49 -10.5t-64 -4.5q-86 0 -135 47.5t-49 116.5q0 39 8 68.5t18 52.5q10 25 27 43h-41l-90 358h-352l-90 -358h-256zM408 522h284l-137 584h-8z" />
<glyph unicode="&#x105;" horiz-adv-x="964" d="M82 307q0 100 25.5 164t70.5 100.5t106.5 50t135.5 13.5q47 0 91 -6t83 -15v82q0 123 -57.5 164t-157.5 41h-205v103q47 16 115.5 28t130.5 12q104 0 182 -14t131 -52t80 -106.5t27 -175.5v-696h-49v-92q0 -113 110 -113h74v-92q-20 -8 -43 -16q-20 -6 -49 -10.5 t-64 -4.5q-86 0 -135 47.5t-49 116.5q0 39 8 68.5t19 52.5q10 25 26 43h-22l-31 61h-10q-33 -31 -86.5 -56t-139.5 -25q-66 0 -123 13t-100 50t-68.5 100.5t-25.5 163.5zM328 307q0 -53 14 -89t35.5 -57.5t49.5 -29.5t54 -8q39 0 68 12t45 29v328h-113q-27 0 -54.5 -8.5 t-49 -30t-35.5 -57.5t-14 -89z" />
<glyph unicode="&#x106;" horiz-adv-x="931" d="M92 717q0 215 31 357.5t89 226t144 118.5t197 35q109 0 195 -12t133 -29v-113h-246q-66 0 -120 -26.5t-94 -92t-61.5 -179t-21.5 -285.5t22.5 -286t63.5 -179.5t99.5 -92t131.5 -26.5h246v-113q-47 -16 -133 -28t-195 -12q-119 0 -209 34.5t-150 118.5t-91 226.5 t-31 357.5zM461 1536l71 266h236l-154 -266h-153z" />
<glyph unicode="&#x107;" horiz-adv-x="808" d="M82 512q0 145 26.5 246.5t79 165t128 92t176.5 28.5q78 0 148.5 -12t117.5 -28v-103h-226q-47 0 -83.5 -17.5t-64.5 -61.5t-42 -119.5t-14 -190.5t15 -190.5t44 -119.5t71 -61.5t95 -17.5h225v-103q-47 -16 -117.5 -28t-148.5 -12q-109 0 -188.5 28.5t-134 92t-81 165 t-26.5 246.5zM389 1147l72 266h235l-153 -266h-154z" />
<glyph unicode="&#x10c;" horiz-adv-x="931" d="M92 717q0 215 31 357.5t89 226t144 118.5t197 35q109 0 195 -12t133 -29v-113h-246q-66 0 -120 -26.5t-94 -92t-61.5 -179t-21.5 -285.5t22.5 -286t63.5 -179.5t99.5 -92t131.5 -26.5h246v-113q-47 -16 -133 -28t-195 -12q-119 0 -209 34.5t-150 118.5t-91 226.5 t-31 357.5zM272 1823h156l115 -144l114 144h158l-164 -267h-215z" />
<glyph unicode="&#x10d;" horiz-adv-x="808" d="M82 512q0 145 26.5 246.5t79 165t128 92t176.5 28.5q78 0 148.5 -12t117.5 -28v-103h-226q-47 0 -83.5 -17.5t-64.5 -61.5t-42 -119.5t-14 -190.5t15 -190.5t44 -119.5t71 -61.5t95 -17.5h225v-103q-47 -16 -117.5 -28t-148.5 -12q-109 0 -188.5 28.5t-134 92t-81 165 t-26.5 246.5zM184 1413h156l115 -143l114 143h158l-164 -266h-215z" />
<glyph unicode="&#x112;" d="M143 0v1434h748v-164h-502v-441h440v-163h-440v-502h502v-164h-748zM276 1556v144h492v-144h-492z" />
<glyph unicode="&#x113;" horiz-adv-x="942" d="M82 512q0 145 26.5 246.5t75.5 165t122 92t165 28.5t165 -28.5t122 -92t75.5 -165t26.5 -246.5v-72h-532q0 -176 62.5 -246.5t193.5 -70.5h225v-103q-47 -16 -117.5 -28t-148.5 -12q-119 0 -206 28.5t-143.5 92t-84 165t-27.5 246.5zM236 1167v144h491v-144h-491z M328 584h286q0 100 -11 163.5t-29.5 100.5t-45 50t-57.5 13t-57.5 -13t-45 -50t-29.5 -100.5t-11 -163.5z" />
<glyph unicode="&#x116;" d="M143 0v1434h748v-164h-502v-441h440v-163h-440v-502h502v-164h-748zM420 1556v246h225v-246h-225z" />
<glyph unicode="&#x117;" horiz-adv-x="942" d="M82 512q0 145 26.5 246.5t75.5 165t122 92t165 28.5t165 -28.5t122 -92t75.5 -165t26.5 -246.5v-72h-532q0 -176 62.5 -246.5t193.5 -70.5h225v-103q-47 -16 -117.5 -28t-148.5 -12q-119 0 -206 28.5t-143.5 92t-84 165t-27.5 246.5zM328 584h286q0 100 -11 163.5 t-29.5 100.5t-45 50t-57.5 13t-57.5 -13t-45 -50t-29.5 -100.5t-11 -163.5zM358 1147v246h226v-246h-226z" />
<glyph unicode="&#x118;" horiz-adv-x="952" d="M143 0v1434h748v-164h-502v-441h440v-163h-440v-502h502v-164h-103v-92q0 -113 111 -113h74v-92q-20 -8 -43 -16q-20 -6 -49 -10.5t-64 -4.5q-86 0 -135 47.5t-49 116.5q0 39 8 68.5t18 52.5q10 25 27 43h-543z" />
<glyph unicode="&#x119;" horiz-adv-x="942" d="M82 512q0 145 26.5 246.5t75.5 165t122 92t165 28.5t165 -28.5t122 -92t75.5 -165t26.5 -246.5v-72h-532q0 -176 62.5 -246.5t193.5 -70.5h225v-103q-45 -16 -113.5 -27t-142.5 -13v-72q0 -113 111 -113h73v-92q-20 -8 -43 -16q-20 -6 -49 -10.5t-63 -4.5 q-86 0 -135.5 47.5t-49.5 116.5q0 55 15.5 94t25.5 56q-182 23 -269 145.5t-87 380.5zM328 584h286q0 100 -11 163.5t-29.5 100.5t-45 50t-57.5 13t-57.5 -13t-45 -50t-29.5 -100.5t-11 -163.5z" />
<glyph unicode="&#x11e;" horiz-adv-x="1085" d="M92 717q0 215 31 357.5t91 226t150.5 118.5t208.5 35q109 0 195 -12t133 -29v-113h-266q-66 0 -120 -26.5t-94 -92t-61.5 -179t-21.5 -285.5t22.5 -286t63.5 -179.5t99.5 -92t131.5 -26.5h52v645h245v-758q-47 -16 -134 -28t-204 -12q-135 0 -233 34.5t-162.5 118.5 t-95.5 226.5t-31 357.5zM276 1710l103 102q31 -31 82 -61.5t112 -30.5t112.5 31t82.5 61l102 -102q-47 -78 -121.5 -121t-175.5 -43q-100 0 -174.5 43t-122.5 121z" />
<glyph unicode="&#x11f;" horiz-adv-x="1003" d="M82 512q0 145 27.5 246.5t83 165t140.5 92t199 28.5q109 0 185 -15t153 -46v-901q0 -276 -108.5 -394t-331.5 -118q-78 0 -148.5 12t-117.5 29v102h225q115 0 175.5 71t60.5 247q-31 -23 -76 -37t-98 -14q-84 0 -153 28.5t-117 92t-73.5 165t-25.5 246.5zM205 1311 l102 102q31 -31 77.5 -56.5t107.5 -25.5t107 25.5t77 56.5l102 -102q-47 -70 -116.5 -112t-169.5 -42t-170 42t-117 112zM328 512q0 -115 14 -190.5t39 -119.5t58.5 -61.5t72.5 -17.5t67.5 12t45.5 29v737h-93q-47 0 -83.5 -17.5t-64.5 -61.5t-42 -119.5t-14 -190.5z" />
<glyph unicode="&#x122;" horiz-adv-x="1075" d="M92 717q0 215 31 357.5t91 226t150.5 118.5t208.5 35q109 0 195 -12t133 -29v-113h-266q-66 0 -120 -26.5t-94 -92t-61.5 -179t-21.5 -285.5t22.5 -286t63.5 -179.5t99.5 -92t131.5 -26.5h52v645h245v-758q-47 -16 -134 -28t-204 -12q-135 0 -233 34.5t-162.5 118.5 t-95.5 226.5t-31 357.5zM471 -143h225l-71 -308h-154v308z" />
<glyph unicode="&#x123;" horiz-adv-x="1003" d="M82 512q0 145 27.5 246.5t83 165t140.5 92t199 28.5q109 0 185 -15t153 -46v-901q0 -276 -108.5 -394t-331.5 -118q-78 0 -148.5 12t-117.5 29v102h225q115 0 175.5 71t60.5 247q-31 -23 -76 -37t-98 -14q-84 0 -153 28.5t-117 92t-73.5 165t-25.5 246.5zM328 512 q0 -115 14 -190.5t39 -119.5t58.5 -61.5t72.5 -17.5t67.5 12t45.5 29v737h-93q-47 0 -83.5 -17.5t-64.5 -61.5t-42 -119.5t-14 -190.5zM389 1167l72 308h153v-308h-225z" />
<glyph unicode="&#x127;" horiz-adv-x="1054" d="M41 1098v151h113v185h245v-185h277v-110q-23 -8 -52.5 -15.5t-61.5 -13.5t-63.5 -9t-58.5 -3h-41v-176q39 31 91.5 46t113.5 15q66 0 123 -13.5t100 -50t69 -100t26 -164.5v-655h-246v655q0 53 -14.5 89t-37 57.5t-52 30t-60.5 8.5q-39 0 -67.5 -12.5t-45.5 -28.5v-799 h-245v1098h-113z" />
<glyph unicode="&#x128;" horiz-adv-x="491" d="M-10 1774h123q0 -82 51 -82q18 0 36.5 16t40 34.5t47 35t60.5 16.5q70 0 112 -54t42 -192h-123q0 82 -51 82q-18 0 -37 -16.5t-40.5 -34.5t-47 -34.5t-60.5 -16.5t-63.5 12t-48 41t-30.5 76t-11 117zM123 0v1434h246v-1434h-246z" />
<glyph unicode="&#x129;" horiz-adv-x="491" d="M-20 1393h122q0 -82 52 -82q18 0 36.5 16t40 34.5t47 35t60.5 16.5q70 0 112 -54t42 -192h-123q0 82 -52 82q-18 0 -36.5 -16t-40 -34.5t-47 -35t-60.5 -16.5t-63.5 12t-48 41t-30.5 76t-11 117zM123 0v1024h246v-1024h-246z" />
<glyph unicode="&#x12a;" horiz-adv-x="471" d="M-10 1536v143h491v-143h-491zM113 0v1434h245v-1434h-245z" />
<glyph unicode="&#x12b;" horiz-adv-x="491" d="M0 1167v144h492v-144h-492zM123 0v1024h246v-1024h-246z" />
<glyph unicode="&#x12e;" horiz-adv-x="462" d="M102 -164q0 39 8.5 68.5t18.5 52.5q10 25 27 43h-41v1434h245v-1434h-102v-92q0 -113 111 -113h73v-92q-20 -8 -43 -16q-20 -6 -48.5 -10.5t-63.5 -4.5q-86 0 -135.5 47.5t-49.5 116.5z" />
<glyph unicode="&#x12f;" horiz-adv-x="462" d="M102 -164q0 39 8.5 68.5t18.5 52.5q10 25 27 43h-41v1024h245v-1024h-102v-92q0 -113 111 -113h73v-92q-20 -8 -43 -16q-20 -6 -48.5 -10.5t-63.5 -4.5q-86 0 -135.5 47.5t-49.5 116.5zM115 1147v246h245v-246h-245z" />
<glyph unicode="&#x130;" horiz-adv-x="532" d="M143 0v1434h246v-1434h-246zM154 1556v246h225v-246h-225z" />
<glyph unicode="&#x131;" horiz-adv-x="532" d="M143 0v1024h246v-1024h-246z" />
<glyph unicode="&#x133;" horiz-adv-x="1003" d="M143 0v1024h717v-1106q0 -109 -25.5 -176.5t-68.5 -105t-100.5 -52t-122.5 -14.5q-61 0 -113.5 12t-91.5 29v102h143q53 0 93 48.5t40 156.5v952h-225v-870h-246zM143 1147v246h246v-246h-246zM614 1147v246h246v-246h-246z" />
<glyph unicode="&#x134;" horiz-adv-x="763" d="M0 20v113h205q43 0 77.5 17.5t61.5 58.5t41 109.5t14 173.5v942h246v-942q0 -276 -108.5 -394t-331.5 -118q-61 0 -113.5 12t-91.5 28zM252 1516l164 266h215l164 -266h-158l-115 143l-114 -143h-156z" />
<glyph unicode="&#x135;" horiz-adv-x="532" d="M-123 -287h143q53 0 93.5 48.5t40.5 156.5v1106h245v-1106q0 -109 -25.5 -176.5t-68.5 -105t-100.5 -52t-122.5 -14.5q-61 0 -113.5 12t-91.5 29v102zM0 1126l164 267h215l164 -267h-158l-115 144l-114 -144h-156z" />
<glyph unicode="&#x136;" horiz-adv-x="1064" d="M143 0v1434h246v-656l338 656h277l-379 -707l419 -727h-276l-379 676v-676h-246zM440 -102h226l-72 -308h-154v308z" />
<glyph unicode="&#x137;" horiz-adv-x="942" d="M143 0v1434h246v-850l246 440h266l-276 -481l297 -543h-267l-266 502v-502h-246zM399 -123h226l-72 -307h-154v307z" />
<glyph unicode="&#x138;" horiz-adv-x="942" d="M143 0v1024h246v-440l246 440h266l-276 -481l297 -543h-267l-266 502v-502h-246z" />
<glyph unicode="&#x13b;" horiz-adv-x="911" d="M143 0v1434h246v-1270h502v-164h-748zM420 -123h225l-72 -307h-153v307z" />
<glyph unicode="&#x13c;" horiz-adv-x="532" d="M143 0v1434h246v-1434h-246zM154 -123h225l-72 -307h-153v307z" />
<glyph unicode="&#x140;" horiz-adv-x="880" d="M143 0v1434h246v-1434h-246zM532 594v246h246v-246h-246z" />
<glyph unicode="&#x141;" horiz-adv-x="911" d="M-20 625l163 116v693h246v-516l92 65l92 -123l-184 -133v-563h502v-164h-748v553l-71 -51z" />
<glyph unicode="&#x142;" horiz-adv-x="593" d="M0 625l164 116v693h246v-516l92 65l92 -123l-184 -133v-727h-246v553l-72 -51z" />
<glyph unicode="&#x143;" horiz-adv-x="1167" d="M143 0v1434h246l389 -942h10v942h236v-1434h-246l-389 942h-10v-942h-236zM502 1536l71 266h236l-154 -266h-153z" />
<glyph unicode="&#x144;" horiz-adv-x="1034" d="M133 0v1024h174l31 -61h10q33 31 88.5 56t147.5 25q66 0 123 -13t100 -50t68.5 -100.5t25.5 -163.5v-717h-246v717q0 53 -14 89t-36.5 57.5t-52.5 29.5t-60 8q-39 0 -68 -12t-45 -29v-860h-246zM430 1147l72 266h235l-153 -266h-154z" />
<glyph unicode="&#x145;" horiz-adv-x="1167" d="M143 0v1434h246l389 -942h10v942h236v-1434h-246l-389 942h-10v-942h-236zM461 -102h225l-72 -308h-153v308z" />
<glyph unicode="&#x146;" horiz-adv-x="1034" d="M133 0v1024h174l31 -61h10q33 31 88.5 56t147.5 25q66 0 123 -13t100 -50t68.5 -100.5t25.5 -163.5v-717h-246v717q0 53 -14 89t-36.5 57.5t-52.5 29.5t-60 8q-39 0 -68 -12t-45 -29v-860h-246zM412 -123h225l-72 -307h-153v307z" />
<glyph unicode="&#x14c;" horiz-adv-x="1126" d="M92 717q0 207 33 348t94.5 227t148 124t195.5 38q106 0 193.5 -38t149 -124t95 -227t33.5 -348t-33.5 -348.5t-95 -227.5t-148.5 -123.5t-194 -37.5q-109 0 -195.5 37.5t-148 123.5t-94.5 227.5t-33 348.5zM317 1556v144h492v-144h-492zM338 717q0 -176 19.5 -291 t51 -182.5t71.5 -94t83 -26.5t83 26.5t72 94t51 182.5t19 291t-19 290.5t-51 182t-72 94.5t-83 27t-83 -27t-71.5 -94.5t-51 -182t-19.5 -290.5z" />
<glyph unicode="&#x14d;" horiz-adv-x="983" d="M82 512q0 145 26.5 246.5t79 165t128.5 92t176 28.5t175.5 -28.5t128 -92t79 -165t26.5 -246.5t-26.5 -246.5t-79 -165t-128 -92t-175.5 -28.5t-176 28.5t-128.5 92t-79 165t-26.5 246.5zM246 1167v144h491v-144h-491zM328 512q0 -119 12 -196.5t34.5 -123t52.5 -62.5 t65 -17t64.5 17t52 62.5t34.5 123t12 196.5t-12 196.5t-34.5 123t-52 62.5t-64.5 17t-65 -17t-52.5 -62.5t-34.5 -123t-12 -196.5z" />
<glyph unicode="&#x152;" horiz-adv-x="1566" d="M82 717q0 369 163 543t462 174h778v-164h-502v-441h440v-163h-440v-502h502v-164h-778q-299 0 -462 174t-163 543zM328 717q0 -154 25.5 -259.5t74.5 -171t119.5 -94t159.5 -28.5h30v1106h-30q-88 0 -159 -29t-120 -94.5t-74.5 -171t-25.5 -258.5z" />
<glyph unicode="&#x153;" horiz-adv-x="1515" d="M82 512q0 145 26.5 246.5t79 165t128 92t176.5 28.5q100 0 164.5 -34.5t111.5 -87.5q47 53 115.5 87.5t160.5 34.5t165 -28.5t122 -92t76 -165t27 -246.5v-72h-533q0 -176 62.5 -246.5t193.5 -70.5h225v-103q-47 -16 -117.5 -28t-148.5 -12q-145 0 -224 34.5t-124 87.5 q-47 -53 -111.5 -87.5t-164.5 -34.5t-176 28.5t-128.5 92t-79 165t-26.5 246.5zM328 512q0 -119 12 -196.5t34.5 -123t52.5 -62.5t65 -17t64.5 17t52 62.5t34.5 123t12 196.5t-12 196.5t-34.5 123t-52 62.5t-64.5 17t-65 -17t-52.5 -62.5t-34.5 -123t-12 -196.5zM901 584 h287q0 100 -11.5 163.5t-30 100.5t-45 50t-57.5 13t-57 -13t-44.5 -50t-30 -100.5t-11.5 -163.5z" />
<glyph unicode="&#x154;" horiz-adv-x="1095" d="M143 0v1413q78 23 160 32t199 9q127 0 218 -27.5t149.5 -87t86 -152.5t27.5 -224q0 -104 -16.5 -179t-46 -127.5t-71.5 -87t-91 -57.5l276 -512h-276l-236 461h-133v-461h-246zM389 625h113q57 0 101 16t74 56t45 104.5t15 161.5q0 96 -15 160.5t-45 104.5t-74 56 t-101 16h-113v-675zM420 1536l72 266h235l-154 -266h-153z" />
<glyph unicode="&#x156;" horiz-adv-x="1095" d="M143 0v1413q78 23 160 32t199 9q127 0 218 -27.5t149.5 -87t86 -152.5t27.5 -224q0 -104 -16.5 -179t-46 -127.5t-71.5 -87t-91 -57.5l276 -512h-276l-236 461h-133v-461h-246zM389 625h113q57 0 101 16t74 56t45 104.5t15 161.5q0 96 -15 160.5t-45 104.5t-74 56 t-101 16h-113v-675zM461 -102h225l-72 -308h-153v308z" />
<glyph unicode="&#x157;" horiz-adv-x="737" d="M133 0v1024h174l31 -82h10q33 31 88.5 56.5t147.5 25.5h133v-174h-225q-39 0 -68 -12.5t-45 -28.5v-809h-246zM145 -123h226l-72 -307h-154v307z" />
<glyph unicode="&#x158;" horiz-adv-x="1095" d="M143 0v1413q78 23 160 32t199 9q127 0 218 -27.5t149.5 -87t86 -152.5t27.5 -224q0 -104 -16.5 -179t-46 -127.5t-71.5 -87t-91 -57.5l276 -512h-276l-236 461h-133v-461h-246zM231 1802h156l115 -143l114 143h158l-164 -266h-215zM389 625h113q57 0 101 16t74 56 t45 104.5t15 161.5q0 96 -15 160.5t-45 104.5t-74 56t-101 16h-113v-675z" />
<glyph unicode="&#x159;" horiz-adv-x="737" d="M133 0v1024h174l31 -82h10q33 31 88.5 56.5t147.5 25.5h133v-174h-225q-39 0 -68 -12.5t-45 -28.5v-809h-246zM154 1393h155l115 -144l115 144h157l-164 -267h-215z" />
<glyph unicode="&#x15a;" horiz-adv-x="952" d="M61 1085q0 170 105.5 269.5t314.5 99.5q109 0 195 -12t133 -29v-113h-287q-100 0 -157.5 -57t-57.5 -158q0 -90 43 -143t108.5 -91t140.5 -70.5t140.5 -83t108.5 -127t43 -201.5q0 -184 -116 -286.5t-376 -102.5q-109 0 -194.5 12t-132.5 28v113h286q154 0 220.5 59.5 t66.5 176.5q0 84 -43 134t-108.5 86t-140 68.5t-140.5 85t-109 132t-43 210.5zM389 1556l72 267h235l-153 -267h-154z" />
<glyph unicode="&#x15b;" horiz-adv-x="849" d="M61 758q0 84 27 139t77 88t125 46t171 13q78 0 148.5 -12t117.5 -28v-103h-225q-86 0 -140.5 -31t-54.5 -92q0 -53 36 -87t89 -59.5t115.5 -50t116 -60.5t89 -92t35.5 -142q0 -92 -26.5 -151.5t-81.5 -94.5t-138 -48t-194 -13q-78 0 -148.5 12t-117.5 28v103h225 q117 0 176.5 32.5t59.5 110.5q0 53 -36 87t-89 59.5t-115.5 50t-116 60.5t-89.5 91.5t-36 143.5zM338 1147l72 266h235l-153 -266h-154z" />
<glyph unicode="&#x15e;" horiz-adv-x="952" d="M61 1085q0 170 105.5 269.5t314.5 99.5q109 0 195 -12t133 -29v-113h-287q-100 0 -157.5 -57t-57.5 -158q0 -90 43 -143t108.5 -91t140.5 -70.5t140.5 -83t108.5 -127t43 -201.5q0 -168 -94.5 -268.5t-304.5 -116.5v-45h30q92 0 138.5 -41t46.5 -103q0 -61 -52.5 -102 t-152.5 -41q-39 0 -67.5 4t-47.5 10q-23 8 -39 17v69h133q47 0 59.5 13.5t12.5 29.5t-11.5 29.5t-49.5 13.5h-113v142q-102 2 -183 13t-124 27v113h286q154 0 220.5 59.5t66.5 176.5q0 84 -43 134t-108.5 86t-140 68.5t-140.5 85t-109 132t-43 210.5z" />
<glyph unicode="&#x15f;" horiz-adv-x="849" d="M61 758q0 84 27 139t77 88t125 46t171 13q78 0 148.5 -12t117.5 -28v-103h-225q-86 0 -140.5 -30.5t-54.5 -92.5q0 -53 36 -87t89 -59.5t115.5 -50t116 -60.5t89 -92t35.5 -142q0 -82 -20 -137.5t-62 -90t-105.5 -52t-149.5 -23.5v-45h30q92 0 138.5 -41t46.5 -103 q0 -61 -52.5 -102t-152.5 -41q-39 0 -67.5 4t-47.5 10q-23 8 -39 17v69h133q47 0 59.5 13.5t12.5 29.5t-11.5 29.5t-49.5 13.5h-113v142q-76 2 -143.5 13t-112.5 27v103h225q117 0 176.5 32.5t59.5 110.5q0 53 -36 87t-89 59.5t-115.5 50t-116 60.5t-89.5 91.5t-36 143.5z " />
<glyph unicode="&#x160;" horiz-adv-x="952" d="M61 1085q0 170 105.5 269.5t314.5 99.5q109 0 195 -12t133 -29v-113h-287q-100 0 -157.5 -57t-57.5 -158q0 -90 43 -143t108.5 -91t140.5 -70.5t140.5 -83t108.5 -127t43 -201.5q0 -184 -116 -286.5t-376 -102.5q-109 0 -194.5 12t-132.5 28v113h286q154 0 220.5 59.5 t66.5 176.5q0 84 -43 134t-108.5 86t-140 68.5t-140.5 85t-109 132t-43 210.5zM190 1823h156l115 -144l114 144h158l-164 -267h-215z" />
<glyph unicode="&#x161;" horiz-adv-x="849" d="M61 758q0 84 27 139t77 88t125 46t171 13q78 0 148.5 -12t117.5 -28v-103h-225q-86 0 -140.5 -31t-54.5 -92q0 -53 36 -87t89 -59.5t115.5 -50t116 -60.5t89 -92t35.5 -142q0 -92 -26.5 -151.5t-81.5 -94.5t-138 -48t-194 -13q-78 0 -148.5 12t-117.5 28v103h225 q117 0 176.5 32.5t59.5 110.5q0 53 -36 87t-89 59.5t-115.5 50t-116 60.5t-89.5 91.5t-36 143.5zM139 1413h156l115 -143l114 143h158l-164 -266h-215z" />
<glyph unicode="&#x16a;" horiz-adv-x="1126" d="M123 492v942h246v-942q0 -109 14 -179.5t41 -112.5t61.5 -59.5t77.5 -17.5t78 17.5t61.5 59.5t41 112.5t14.5 179.5v942h246v-942q0 -276 -109 -394t-332 -118t-331.5 117.5t-108.5 394.5zM317 1556v144h492v-144h-492z" />
<glyph unicode="&#x16b;" horiz-adv-x="1034" d="M133 307v717h246v-717q0 -53 14.5 -89t37 -57.5t52 -29.5t60.5 -8q39 0 67.5 12t44.5 29v860h246v-1024h-174l-31 61h-10q-33 -31 -88 -56t-147 -25q-66 0 -123.5 13t-100.5 50t-68.5 100.5t-25.5 163.5zM274 1147v143h492v-143h-492z" />
<glyph unicode="&#x172;" horiz-adv-x="1126" d="M123 492v942h246v-942q0 -109 14 -179.5t41 -112.5t61.5 -59.5t77.5 -17.5t78 17.5t61.5 59.5t41 112.5t14.5 179.5v942h246v-942q0 -131 -24 -224.5t-73 -155t-121.5 -93t-171.5 -37.5v-74q0 -113 111 -113h74v-92q-20 -8 -43 -16q-20 -6 -49 -10.5t-64 -4.5 q-86 0 -135 47.5t-49 116.5q0 53 14 90t25 56q-188 14 -281.5 134t-93.5 376z" />
<glyph unicode="&#x173;" horiz-adv-x="1034" d="M133 307v717h246v-717q0 -53 14.5 -89t37 -57.5t52 -29.5t60.5 -8q39 0 67.5 12t44.5 29v860h246v-1024h-51v-92q0 -113 111 -113h73v-92q-20 -8 -43 -16q-20 -6 -49 -10.5t-63 -4.5q-86 0 -135.5 47.5t-49.5 116.5q0 39 8.5 68.5t18.5 52.5q10 25 27 43h-21l-31 61h-10 q-33 -31 -88 -56t-147 -25q-66 0 -123.5 13t-100.5 50t-68.5 100.5t-25.5 163.5z" />
<glyph unicode="&#x178;" horiz-adv-x="983" d="M10 1434h256l221 -686h9l221 686h256l-359 -1004v-430h-245v430zM215 1556v246h225v-246h-225zM543 1556v246h225v-246h-225z" />
<glyph unicode="&#x179;" horiz-adv-x="890" d="M41 0v154l532 1116h-522v164h799v-154l-533 -1116h523v-164h-799zM358 1536l72 266h236l-154 -266h-154z" />
<glyph unicode="&#x17a;" horiz-adv-x="819" d="M41 0v143l451 727h-431v154h717v-143l-450 -727h440v-154h-727zM317 1147l72 266h236l-154 -266h-154z" />
<glyph unicode="&#x17b;" horiz-adv-x="890" d="M41 0v154l532 1116h-522v164h799v-154l-533 -1116h523v-164h-799zM338 1556v246h225v-246h-225z" />
<glyph unicode="&#x17c;" horiz-adv-x="819" d="M41 0v143l451 727h-431v154h717v-143l-450 -727h440v-154h-727zM317 1147v246h226v-246h-226z" />
<glyph unicode="&#x17d;" horiz-adv-x="890" d="M41 0v154l532 1116h-522v164h799v-154l-533 -1116h523v-164h-799zM201 1823h155l115 -144l115 144h157l-163 -267h-215z" />
<glyph unicode="&#x17e;" horiz-adv-x="819" d="M41 0v143l451 727h-431v154h717v-143l-450 -727h440v-154h-727zM160 1413h155l115 -143l115 143h157l-163 -266h-215z" />
<glyph unicode="&#x192;" horiz-adv-x="696" d="M-143 -287h143q31 0 58.5 9.5t49 32t34 62.5t12.5 101v932h-113v154h113v81q0 106 25.5 175t68.5 107t100.5 52.5t122.5 14.5q31 0 65.5 -3.5t68.5 -9.5t63.5 -13t48.5 -15v-103h-164q-31 0 -58.5 -9t-49 -31.5t-34 -62.5t-12.5 -102v-81h277v-113q-47 -16 -118 -28.5 t-148 -12.5h-11v-932q0 -109 -25.5 -176.5t-68.5 -105t-100.5 -52t-122.5 -14.5q-61 0 -123.5 12t-101.5 29v102z" />
<glyph unicode="&#x2c6;" horiz-adv-x="624" d="M41 1126l164 267h215l164 -267h-158l-115 144l-114 -144h-156z" />
<glyph unicode="&#x2c7;" horiz-adv-x="624" d="M41 1413h156l114 -143l115 143h158l-164 -266h-215z" />
<glyph unicode="&#x2d9;" horiz-adv-x="307" d="M41 1147v246h225v-246h-225z" />
<glyph unicode="&#x2db;" horiz-adv-x="421" d="M41 -164q0 39 8 68.5t19 52.5q10 25 26 43h103v-92q0 -113 110 -113h74v-92q-20 -8 -43 -16q-20 -6 -49 -10.5t-64 -4.5q-86 0 -135 47.5t-49 116.5z" />
<glyph unicode="&#x2dc;" horiz-adv-x="593" d="M41 1393h123q0 -82 51 -82q18 0 36.5 16t40 34.5t47.5 35t60 16.5q70 0 112 -54t42 -192h-123q0 82 -51 82q-18 0 -36.5 -16t-40 -34.5t-47.5 -35t-60 -16.5q-35 0 -64 12t-48.5 41t-30.5 76t-11 117z" />
<glyph unicode="&#x401;" d="M143 0v1434h748v-164h-502v-441h440v-163h-440v-502h502v-164h-748zM236 1556v246h225v-246h-225zM563 1556v246h225v-246h-225z" />
<glyph unicode="&#x402;" horiz-adv-x="1177" d="M0 1270v164h778v-164h-286v-389q39 8 97 14t97 6q201 0 305.5 -103.5t104.5 -295.5v-174q0 -170 -85 -259t-233 -89q-47 0 -90 9t-74 31v103h103q53 0 93 48t40 157v174q0 236 -246 235h-112v-737h-246v1270h-246z" />
<glyph unicode="&#x403;" horiz-adv-x="890" d="M143 0v1434h707v-164h-461v-1270h-246zM399 1536l72 266h236l-154 -266h-154z" />
<glyph unicode="&#x404;" horiz-adv-x="931" d="M92 717q0 215 31 357.5t89 226t144 118.5t197 35q109 0 195 -12t133 -29v-113h-246q-61 0 -112.5 -21.5t-89.5 -76.5t-62.5 -148t-30.5 -235h418v-164h-418q2 -154 26.5 -254t65.5 -160.5t97.5 -84t125.5 -23.5h246v-113q-47 -16 -133 -28t-195 -12q-119 0 -209 34.5 t-150 118.5t-91 226.5t-31 357.5z" />
<glyph unicode="&#x405;" horiz-adv-x="952" d="M61 1085q0 170 105.5 269.5t314.5 99.5q109 0 195 -12t133 -29v-113h-287q-100 0 -157.5 -57t-57.5 -158q0 -90 43 -143t108.5 -91t140.5 -70.5t140.5 -83t108.5 -127t43 -201.5q0 -184 -116 -286.5t-376 -102.5q-109 0 -194.5 12t-132.5 28v113h286q154 0 220.5 59.5 t66.5 176.5q0 84 -43 134t-108.5 86t-140 68.5t-140.5 85t-109 132t-43 210.5z" />
<glyph unicode="&#x406;" horiz-adv-x="532" d="M143 0v1434h246v-1434h-246z" />
<glyph unicode="&#x407;" horiz-adv-x="512" d="M-20 1556v246h225v-246h-225zM133 0v1434h246v-1434h-246zM307 1556v246h225v-246h-225z" />
<glyph unicode="&#x408;" horiz-adv-x="768" d="M0 20v113h205q43 0 77.5 17.5t61.5 58.5t41 109.5t14 173.5v942h246v-942q0 -276 -108.5 -394t-331.5 -118q-61 0 -113.5 12t-91.5 28z" />
<glyph unicode="&#x409;" horiz-adv-x="1658" d="M0 0v113q39 0 71.5 16t59.5 54t43 98.5t21 148.5l51 1004h747v-574q18 4 44 7t50.5 6.5t46 5.5t33.5 2q209 0 314.5 -111t105.5 -350q0 -223 -113.5 -331.5t-367.5 -108.5q-117 0 -199 9t-159 31v1250h-265l-43 -840q-6 -123 -30.5 -209t-62.5 -139t-90 -77.5t-114 -24.5 q-66 0 -106 10q-23 4 -37 10zM993 133h113q117 0 176 66.5t59 220.5q0 84 -15 141t-45 92t-74 49.5t-101 14.5h-113v-584z" />
<glyph unicode="&#x40a;" horiz-adv-x="1669" d="M143 0v1434h246v-594h369v594h246v-615q18 4 43.5 7t50 6.5t46.5 5.5t34 2q420 0 419 -441q0 -207 -113.5 -313t-367.5 -106q-117 0 -198.5 9t-159.5 31v656h-369v-676h-246zM1004 133h112q117 0 176.5 63.5t59.5 202.5q0 154 -59.5 215.5t-176.5 61.5h-112v-543z" />
<glyph unicode="&#x40b;" horiz-adv-x="1187" d="M0 1270v164h778v-164h-286v-379q39 8 97 14t97 6q215 0 312.5 -97t97.5 -312v-502h-246v502q0 246 -246 246h-112v-748h-246v1270h-246z" />
<glyph unicode="&#x40c;" horiz-adv-x="1064" d="M143 0v1434h246v-605h41q39 0 72 37t61 138l62 204q37 123 94 184.5t172 61.5q35 0 61.5 -3t44.5 -7q23 -6 37 -10v-113q-70 0 -103.5 -29.5t-49.5 -83.5l-62 -204q-37 -123 -80 -177.5t-104 -74.5v-9q31 -10 61.5 -27.5t58 -47t49 -72.5t36.5 -104l61 -267 q10 -47 47 -79.5t107 -32.5v-113q-14 -6 -37 -10q-41 -10 -107 -10q-117 0 -177 61t-89 184l-61 267q-23 100 -62 137t-92 37h-41v-666h-246zM469 1516l72 266h235l-153 -266h-154z" />
<glyph unicode="&#x40e;" horiz-adv-x="1013" d="M0 1434h246l209 -758q12 -47 38.5 -75t59.5 -28l174 861h246l-225 -1106q-70 -348 -359 -348q-61 0 -119.5 12t-105.5 28v113h143q39 0 70 11.5t57.5 42t48 85t39.5 138.5q-123 0 -200.5 68.5t-106.5 176.5zM205 1690l102 102q31 -31 82.5 -61.5t112.5 -30.5t112.5 30.5 t81.5 61.5l103 -102q-47 -78 -122 -121t-175 -43t-175 43t-122 121z" />
<glyph unicode="&#x40f;" horiz-adv-x="1146" d="M143 0v1434h246v-1270h369v1270h246v-1434h-308l-41 -307h-163l-41 307h-308z" />
<glyph unicode="&#x410;" horiz-adv-x="1105" d="M31 0l368 1434h308l368 -1434h-256l-90 358h-352l-90 -358h-256zM410 522h284l-137 584h-8z" />
<glyph unicode="&#x411;" horiz-adv-x="1054" d="M143 20v1414h768v-164h-522v-389h113q254 0 367.5 -112t113.5 -349q0 -223 -113.5 -331.5t-367.5 -108.5q-117 0 -199 9t-160 31zM389 133h113q117 0 176 66.5t59 220.5q0 162 -59.5 229.5t-175.5 67.5h-113v-584z" />
<glyph unicode="&#x412;" horiz-adv-x="1085" d="M143 20v1393q78 23 160 32t199 9q231 0 340.5 -100.5t109.5 -278.5q0 -92 -51 -176t-143 -127v-8q123 -43 189.5 -139.5t66.5 -235.5q0 -201 -118 -305t-394 -104q-117 0 -199 9t-160 31zM389 133h113q131 0 193.5 63.5t62.5 202.5q0 147 -62.5 212t-193.5 65h-113v-543z M389 829h92q100 0 157.5 59.5t57.5 176.5t-57 176t-158 59h-92v-471z" />
<glyph unicode="&#x413;" horiz-adv-x="890" d="M143 0v1434h707v-164h-461v-1270h-246z" />
<glyph unicode="&#x414;" horiz-adv-x="1187" d="M20 164h103q25 39 47 96q18 49 34.5 124t20.5 179l41 871h738v-1270h133v-471h-154q-31 61 -52.5 138t-29.5 169h-645q-8 -92 -29.5 -169t-52.5 -138h-154v471zM369 164h389v1126h-252l-35 -727q-4 -104 -20.5 -179t-34.5 -124q-23 -57 -47 -96z" />
<glyph unicode="&#x415;" d="M143 0v1434h748v-164h-502v-441h440v-163h-440v-502h502v-164h-748z" />
<glyph unicode="&#x416;" horiz-adv-x="1576" d="M10 0v113q70 0 107 32.5t47 79.5l61 267q14 61 36 104t49.5 72.5t58 47t61.5 27.5v9q-61 20 -104 74.5t-80 177.5l-62 204q-16 53 -50 83t-103 30v113q14 4 37 10q18 4 44.5 7t61.5 3q115 0 172 -61.5t94 -184.5l62 -204q29 -100 61.5 -137.5t71.5 -37.5h31v605h245v-605 h31q39 0 72 37t61 138l62 204q37 123 94 184.5t172 61.5q35 0 61.5 -3t44.5 -7q23 -6 37 -10v-113q-70 0 -103.5 -29.5t-49.5 -83.5l-62 -204q-37 -123 -80 -177.5t-104 -74.5v-9q31 -10 61.5 -27.5t58 -47t49 -72.5t36.5 -104l61 -267q10 -47 47 -79.5t107 -32.5v-113 q-14 -6 -37 -10q-41 -10 -107 -10q-117 0 -177 61t-89 184l-61 267q-23 100 -62 137t-92 37h-31v-666h-245v666h-31q-53 0 -92 -37t-62 -137l-61 -267q-29 -123 -89.5 -184t-176.5 -61q-66 0 -107 10q-23 4 -37 10z" />
<glyph unicode="&#x417;" horiz-adv-x="921" d="M31 20v113h307q131 0 193.5 63.5t62.5 202.5t-62.5 203t-193.5 64h-164v163h143q236 0 236 256q0 100 -59.5 157.5t-176.5 57.5h-266v113q47 16 128 28.5t159 12.5q123 0 212 -25.5t146.5 -73.5t85 -117t27.5 -153q0 -131 -61.5 -205.5t-153.5 -117.5v-8 q123 -35 189.5 -133.5t66.5 -221.5q0 -207 -118 -313t-394 -106q-92 0 -176 12t-131 28z" />
<glyph unicode="&#x418;" horiz-adv-x="1167" d="M143 0v1434h236v-942h10l379 942h256v-1434h-236v963h-10l-389 -963h-246z" />
<glyph unicode="&#x419;" horiz-adv-x="1167" d="M143 0v1434h236v-942h10l379 942h256v-1434h-236v963h-10l-389 -963h-246zM287 1710l102 102q31 -31 82.5 -61.5t112.5 -30.5t112.5 31t81.5 61l103 -102q-47 -78 -122 -121t-175 -43t-175 43t-122 121z" />
<glyph unicode="&#x41a;" horiz-adv-x="1064" d="M143 0v1434h246v-605h41q39 0 72 37t61 138l62 204q37 123 94 184.5t172 61.5q35 0 61.5 -3t44.5 -7q23 -6 37 -10v-113q-70 0 -103.5 -29.5t-49.5 -83.5l-62 -204q-37 -123 -80 -177.5t-104 -74.5v-9q31 -10 61.5 -27.5t58 -47t49 -72.5t36.5 -104l61 -267 q10 -47 47 -79.5t107 -32.5v-113q-14 -6 -37 -10q-41 -10 -107 -10q-117 0 -177 61t-89 184l-61 267q-23 100 -62 137t-92 37h-41v-666h-246z" />
<glyph unicode="&#x41b;" horiz-adv-x="1146" d="M0 0v113q39 0 71.5 16t59.5 54t43 98.5t21 148.5l51 1004h758v-1434h-246v1270h-275l-43 -840q-6 -123 -30.5 -209t-62.5 -139t-90.5 -77.5t-113.5 -24.5q-66 0 -106 10q-23 4 -37 10z" />
<glyph unicode="&#x41c;" horiz-adv-x="1556" d="M102 0l82 1434h267l323 -973h8l324 973h266l82 -1434h-235l-56 971h-8l-264 -797h-225l-265 797h-8l-55 -971h-236z" />
<glyph unicode="&#x41d;" horiz-adv-x="1146" d="M143 0v1434h246v-625h369v625h246v-1434h-246v645h-369v-645h-246z" />
<glyph unicode="&#x41e;" horiz-adv-x="1126" d="M92 717q0 207 33 348t94.5 227t148 124t195.5 38q106 0 193.5 -38t149 -124t95 -227t33.5 -348t-33.5 -348.5t-95 -227.5t-148.5 -123.5t-194 -37.5q-109 0 -195.5 37.5t-148 123.5t-94.5 227.5t-33 348.5zM338 717q0 -176 19.5 -291t51 -182.5t71.5 -94t83 -26.5 t83 26.5t72 94t51 182.5t19 291t-19 290.5t-51 182t-72 94.5t-83 27t-83 -27t-71.5 -94.5t-51 -182t-19.5 -290.5z" />
<glyph unicode="&#x41f;" horiz-adv-x="1146" d="M143 0v1434h861v-1434h-246v1270h-369v-1270h-246z" />
<glyph unicode="&#x420;" horiz-adv-x="1054" d="M143 0v1413q78 23 160 32t199 9q127 0 218 -28.5t149.5 -90t86 -159t27.5 -234.5q0 -145 -26.5 -246.5t-80 -165t-131 -92t-182.5 -28.5q-12 0 -33.5 2t-46 5t-50 6t-44.5 7v-430h-246zM389 573h113q57 0 101 17.5t74 59.5t45 113t15 179q0 104 -15 173t-45 110t-74 58 t-101 17h-113v-727z" />
<glyph unicode="&#x421;" horiz-adv-x="931" d="M92 717q0 215 31 357.5t89 226t144 118.5t197 35q109 0 195 -12t133 -29v-113h-246q-66 0 -120 -26.5t-94 -92t-61.5 -179t-21.5 -285.5t22.5 -286t63.5 -179.5t99.5 -92t131.5 -26.5h246v-113q-47 -16 -133 -28t-195 -12q-119 0 -209 34.5t-150 118.5t-91 226.5 t-31 357.5z" />
<glyph unicode="&#x422;" horiz-adv-x="921" d="M20 1270v164h881v-164h-317v-1270h-246v1270h-318z" />
<glyph unicode="&#x423;" horiz-adv-x="1013" d="M0 1434h246l209 -758q12 -47 38.5 -75t59.5 -28l174 861h246l-225 -1106q-70 -348 -359 -348q-61 0 -119.5 12t-105.5 28v113h143q39 0 70 11.5t57.5 42t48 85t39.5 138.5q-123 0 -200.5 68.5t-106.5 176.5z" />
<glyph unicode="&#x424;" horiz-adv-x="1454" d="M51 717q0 137 39 246.5t110.5 188.5t174 126t229.5 63v134h246v-134q127 -16 229.5 -63t174 -126t110.5 -188.5t39 -246.5q0 -139 -39 -248t-110.5 -187.5t-174 -127t-229.5 -62.5v-133h-246v133q-127 14 -229.5 62.5t-174 127t-110.5 187.5t-39 248zM297 717 q0 -111 27.5 -197t71.5 -146.5t99.5 -92t108.5 -35.5v942q-53 -4 -108.5 -36t-99.5 -92.5t-71.5 -146t-27.5 -196.5zM850 246q53 4 108.5 35.5t99.5 92t71.5 146.5t27.5 197t-27.5 196.5t-71.5 146t-99.5 92.5t-108.5 36v-942z" />
<glyph unicode="&#x425;" horiz-adv-x="1024" d="M31 0l297 737l-267 697h256l195 -533l195 533h256l-267 -697l297 -737h-256l-225 584l-225 -584h-256z" />
<glyph unicode="&#x426;" horiz-adv-x="1167" d="M143 0v1434h246v-1270h348v1270h246v-1270h133v-471h-153q-31 61 -52.5 138t-29.5 169h-738z" />
<glyph unicode="&#x427;" horiz-adv-x="1095" d="M102 932v502h246v-502q0 -256 246 -256h113v758h245v-1434h-245v532q-39 -8 -97.5 -14t-97.5 -6q-201 0 -305.5 105.5t-104.5 314.5z" />
<glyph unicode="&#x428;" horiz-adv-x="1617" d="M143 0v1434h246v-1270h297v1270h246v-1270h297v1270h246v-1434h-1332z" />
<glyph unicode="&#x429;" horiz-adv-x="1658" d="M143 0v1434h246v-1270h297v1270h246v-1270h297v1270h246v-1270h133v-471h-154q-31 61 -52.5 138t-29.5 169h-1229z" />
<glyph unicode="&#x42a;" horiz-adv-x="1177" d="M41 1270v164h471v-574q18 4 44 7t50.5 6.5t46 5.5t33.5 2q209 0 314.5 -111t105.5 -350q0 -223 -113.5 -331.5t-367.5 -108.5q-117 0 -199 9t-160 31v1250h-225zM512 133h113q117 0 176 66.5t59 220.5q0 84 -15.5 141t-45 92t-73.5 49.5t-101 14.5h-113v-584z" />
<glyph unicode="&#x42b;" horiz-adv-x="1505" d="M143 20v1414h246v-574q18 4 44 7t50.5 6.5t46 5.5t33.5 2q201 0 305.5 -111t104.5 -350q0 -223 -111.5 -331.5t-359.5 -108.5q-117 0 -199 9t-160 31zM389 133h113q109 0 167 66.5t58 220.5q0 84 -15.5 141t-44 92t-70.5 49.5t-95 14.5h-113v-584zM1116 0v1434h246v-1434 h-246z" />
<glyph unicode="&#x42c;" horiz-adv-x="1054" d="M143 20v1414h246v-574q18 4 44 7t50.5 6.5t46 5.5t33.5 2q209 0 314.5 -111t105.5 -350q0 -223 -113.5 -331.5t-367.5 -108.5q-117 0 -199 9t-160 31zM389 133h113q117 0 176 66.5t59 220.5q0 84 -15 141t-45 92t-74 49.5t-101 14.5h-113v-584z" />
<glyph unicode="&#x42d;" horiz-adv-x="931" d="M31 20v113h245q70 0 126.5 23.5t97.5 84t64.5 161t27.5 253.5h-418v164h418q-6 141 -30.5 234.5t-62.5 148.5t-89.5 76.5t-112.5 21.5h-246v113q47 16 133 28.5t195 12.5q111 0 197 -35t144 -118.5t89 -226t31 -357.5t-31 -357.5t-91.5 -226.5t-150.5 -118.5t-209 -34.5 q-109 0 -194.5 12t-132.5 28z" />
<glyph unicode="&#x42e;" horiz-adv-x="1525" d="M143 0v1434h246v-625h125q6 180 43 304t97.5 200t141.5 108.5t177 32.5q104 0 189 -38t145.5 -124t93.5 -227t33 -348t-33 -348.5t-93.5 -227.5t-145.5 -123.5t-189 -37.5q-100 0 -181 33.5t-141.5 111.5t-95.5 205t-43 315h-123v-645h-246zM758 717q0 -176 19.5 -291 t50 -182.5t68.5 -94t77 -26.5t76.5 26.5t68.5 94t50.5 182.5t19.5 291t-19.5 290.5t-50.5 182t-68.5 94.5t-76.5 27t-77 -27t-68.5 -94.5t-50 -182t-19.5 -290.5z" />
<glyph unicode="&#x42f;" horiz-adv-x="1075" d="M20 0v113q61 0 98.5 25.5t55.5 86.5l51 174q29 100 72 155.5t82 72.5v8q-43 8 -93 34.5t-93 75t-72 118t-29 161.5q0 215 113.5 322.5t367.5 107.5q117 0 199 -9t160 -32v-1413h-246v573h-51q-16 0 -35.5 -8t-41 -28.5t-42 -54t-35.5 -83.5l-51 -174q-35 -123 -96.5 -184 t-169.5 -61q-61 0 -103 10q-23 4 -41 10zM338 1024q0 -154 59.5 -220.5t175.5 -66.5h113v563h-113q-117 0 -176 -64.5t-59 -211.5z" />
<glyph unicode="&#x430;" d="M82 307q0 100 25.5 164t70.5 100.5t106.5 50t135.5 13.5q47 0 91 -6t83 -15v82q0 123 -57.5 164t-157.5 41h-205v103q47 16 115.5 28t130.5 12q104 0 182 -14t131 -52t80 -106.5t27 -175.5v-696h-174l-31 61h-10q-33 -31 -86.5 -56t-139.5 -25q-66 0 -123 13t-100 50 t-68.5 100.5t-25.5 163.5zM328 307q0 -53 14 -89t35.5 -57.5t49.5 -29.5t54 -8q39 0 68 12t45 29v328h-113q-27 0 -54.5 -8.5t-49 -30t-35.5 -57.5t-14 -89z" />
<glyph unicode="&#x431;" horiz-adv-x="1013" d="M102 481v338q0 172 29 290t93.5 189.5t168 105.5t252.5 40l246 10l10 -102q-53 -23 -127 -42.5t-160 -29.5q-70 -8 -120 -28.5t-82.5 -60.5t-48 -103.5t-15.5 -155.5q31 23 77 37t107 14q184 0 287 -116.5t103 -385.5q0 -268 -105.5 -384.5t-304.5 -116.5 q-201 0 -305.5 116.5t-104.5 384.5zM348 481q0 -109 14.5 -179.5t37 -112.5t52 -59t60.5 -17t60.5 17t52 59t37 113t14.5 179q0 104 -14.5 173t-42 110t-65.5 58.5t-83 17.5q-47 0 -76.5 -12.5t-46.5 -28.5v-318z" />
<glyph unicode="&#x432;" horiz-adv-x="1003" d="M133 20v984q78 23 159 31.5t189 8.5q100 0 176 -13t128.5 -46t79 -88t26.5 -139q0 -49 -15.5 -85t-40 -60.5t-53 -40t-55.5 -25.5v-8q35 -10 71 -28.5t65.5 -49.5t49 -74t19.5 -100q0 -92 -26.5 -151.5t-81 -94.5t-135.5 -48t-187 -13q-123 0 -207 9t-162 31zM379 123 h123q35 0 66.5 8t55 28.5t38 54.5t14.5 83q0 92 -52.5 128t-121.5 36h-123v-338zM379 604h102q29 0 56.5 8.5t49 25.5t35 44t13.5 66q0 43 -14.5 71.5t-36 47t-49 26.5t-54.5 8h-102v-297z" />
<glyph unicode="&#x433;" horiz-adv-x="798" d="M133 0v1024h645v-154h-399v-870h-246z" />
<glyph unicode="&#x434;" horiz-adv-x="1085" d="M20 154h93q31 39 58.5 103.5t33.5 172.5l31 594h675v-870h123v-451h-153q-31 53 -52.5 129t-29.5 168h-543q-8 -92 -29.5 -168t-52.5 -129h-154v451zM358 154h308v716h-193l-22 -440q-6 -109 -34 -173t-59 -103z" />
<glyph unicode="&#x435;" horiz-adv-x="942" d="M82 512q0 145 26.5 246.5t75.5 165t122 92t165 28.5t165 -28.5t122 -92t75.5 -165t26.5 -246.5v-72h-532q0 -176 62.5 -246.5t193.5 -70.5h225v-103q-47 -16 -117.5 -28t-148.5 -12q-119 0 -206 28.5t-143.5 92t-84 165t-27.5 246.5zM328 584h286q0 100 -11 163.5 t-29.5 100.5t-45 50t-57.5 13t-57.5 -13t-45 -50t-29.5 -100.5t-11 -163.5z" />
<glyph unicode="&#x436;" horiz-adv-x="1372" d="M20 0v102q53 0 84 26t39 56l41 164q23 92 72 135t104 56v8q-47 12 -84.5 53t-70.5 127l-51 133q-10 23 -35 42.5t-78 19.5v102q16 4 39 10q18 4 41.5 7t52.5 3q92 0 143.5 -43t81.5 -120l62 -154q29 -70 49 -91.5t43 -21.5h10v410h246v-410h10q23 0 43.5 21.5t48.5 91.5 l62 154q31 78 82 120.5t143 42.5q27 0 51.5 -3t42.5 -7q23 -6 39 -10v-102q-53 0 -77.5 -19.5t-34.5 -42.5l-52 -133q-33 -86 -70.5 -127t-84.5 -53v-8q55 -12 104 -55.5t72 -135.5l41 -164q8 -31 38.5 -56.5t84.5 -25.5v-102q-16 -6 -39 -10q-41 -10 -94 -10 q-100 0 -157.5 48t-78.5 126l-51 194q-14 53 -44 83t-69 30h-10v-461h-246v461h-10q-39 0 -68.5 -30t-44.5 -83l-51 -194q-20 -78 -77.5 -126t-157.5 -48q-53 0 -95 10q-23 4 -39 10z" />
<glyph unicode="&#x437;" horiz-adv-x="829" d="M31 20v103h266q92 0 148.5 37t56.5 137q0 92 -51.5 128t-112.5 36h-174v143h153q61 0 112.5 35t51.5 119q0 78 -56 110.5t-149 32.5h-225v103q47 16 118 28t148 12q104 0 182.5 -13t131.5 -45t79.5 -85t26.5 -133q0 -53 -15 -91t-42 -63.5t-59.5 -41t-67.5 -25.5v-8 q35 -10 70.5 -28.5t65.5 -49.5t49.5 -74t19.5 -100q0 -92 -28 -151.5t-84 -94.5t-143 -48t-206 -13q-78 0 -148.5 12t-117.5 28z" />
<glyph unicode="&#x438;" horiz-adv-x="1044" d="M133 0v1024h236v-625h10l266 625h266v-1024h-235v645h-10l-287 -645h-246z" />
<glyph unicode="&#x439;" horiz-adv-x="1044" d="M133 0v1024h236v-625h10l266 625h266v-1024h-235v645h-10l-287 -645h-246zM225 1290l103 103q31 -31 77 -56.5t107 -25.5t107.5 25.5t76.5 56.5l103 -103q-47 -70 -117 -111.5t-170 -41.5t-170 42t-117 111z" />
<glyph unicode="&#x43a;" horiz-adv-x="962" d="M133 0v1024h246v-410h31q23 0 43 21.5t49 91.5l61 154q31 78 82 120.5t143 42.5q27 0 51.5 -3t43.5 -7q23 -6 39 -10v-102q-53 0 -78 -19.5t-35 -42.5l-51 -133q-33 -86 -71 -127t-85 -53v-8q55 -12 104.5 -55.5t71.5 -135.5l41 -164q8 -31 39 -56.5t84 -25.5v-102 q-16 -6 -39 -10q-41 -10 -94 -10q-100 0 -157.5 48t-78.5 126l-51 194q-14 53 -43.5 83t-68.5 30h-31v-461h-246z" />
<glyph unicode="&#x43b;" horiz-adv-x="1024" d="M0 0v102q53 0 99 51.5t55 174.5l41 696h696v-1024h-246v870h-213l-33 -542q-10 -176 -84.5 -262t-181.5 -86q-53 0 -92 10t-41 10z" />
<glyph unicode="&#x43c;" horiz-adv-x="1351" d="M102 0l72 1024h266l232 -625h8l231 625h267l71 -1024h-235l-45 645h-8l-183 -491h-205l-182 491h-8l-45 -645h-236z" />
<glyph unicode="&#x43d;" horiz-adv-x="1034" d="M133 0v1024h246v-430h276v430h246v-1024h-246v440h-276v-440h-246z" />
<glyph unicode="&#x43e;" horiz-adv-x="983" d="M82 512q0 145 26.5 246.5t79 165t128.5 92t176 28.5t175.5 -28.5t128 -92t79 -165t26.5 -246.5t-26.5 -246.5t-79 -165t-128 -92t-175.5 -28.5t-176 28.5t-128.5 92t-79 165t-26.5 246.5zM328 512q0 -119 12 -196.5t34.5 -123t52.5 -62.5t65 -17t64.5 17t52 62.5 t34.5 123t12 196.5t-12 196.5t-34.5 123t-52 62.5t-64.5 17t-65 -17t-52.5 -62.5t-34.5 -123t-12 -196.5z" />
<glyph unicode="&#x43f;" horiz-adv-x="1034" d="M133 0v1024h768v-1024h-246v870h-276v-870h-246z" />
<glyph unicode="&#x440;" horiz-adv-x="1003" d="M133 -410v1434h174l31 -61h10q33 31 86 56t139 25q76 0 140.5 -28.5t110.5 -92t72 -165t26 -246.5t-26 -246.5t-74 -165t-116.5 -92t-152.5 -28.5q-53 0 -97 14t-77 37v-441h-246zM379 164q16 -16 45 -28.5t68 -12.5t72.5 17.5t58 61.5t39 119.5t14.5 190.5t-14.5 190.5 t-39 119.5t-58.5 61.5t-72 17.5q-39 0 -65 -12t-48 -29v-696z" />
<glyph unicode="&#x441;" horiz-adv-x="808" d="M82 512q0 145 26.5 246.5t79 165t128 92t176.5 28.5q78 0 148.5 -12t117.5 -28v-103h-226q-47 0 -83.5 -17.5t-64.5 -61.5t-42 -119.5t-14 -190.5t15 -190.5t44 -119.5t71 -61.5t95 -17.5h225v-103q-47 -16 -117.5 -28t-148.5 -12q-109 0 -188.5 28.5t-134 92t-81 165 t-26.5 246.5z" />
<glyph unicode="&#x442;" horiz-adv-x="798" d="M20 870v154h758v-154h-256v-870h-246v870h-256z" />
<glyph unicode="&#x443;" d="M41 1024h235l185 -799q6 -27 14 -41t17 -20q8 -8 20 -10l164 870h235l-194 -1044q-41 -217 -131 -313.5t-238 -96.5q-61 0 -113.5 12t-91.5 29v102h133q39 0 70 11.5t55.5 41t44 82t35.5 132.5q-92 0 -161.5 68.5t-94.5 176.5z" />
<glyph unicode="&#x444;" horiz-adv-x="1269" d="M72 512q0 246 116.5 373t323.5 149v400h246v-400q207 -23 323.5 -149.5t116.5 -372.5t-116.5 -373t-323.5 -149v-400h-246v400q-207 23 -323.5 149.5t-116.5 372.5zM317 512q0 -104 14.5 -173t41 -112t61.5 -64.5t78 -29.5v758q-43 -8 -78 -29.5t-61.5 -64.5t-41 -112 t-14.5 -173zM758 133q43 8 77.5 29.5t61.5 64.5t41 112t14 173t-14 173t-41 112t-61.5 64.5t-77.5 29.5v-758z" />
<glyph unicode="&#x445;" horiz-adv-x="901" d="M31 0l245 522l-235 502h256l154 -358l153 358h256l-235 -502l245 -522h-256l-163 379l-164 -379h-256z" />
<glyph unicode="&#x446;" horiz-adv-x="1064" d="M133 0v1024h246v-870h266v870h246v-870h123v-451h-154q-31 53 -52.5 129t-29.5 168h-645z" />
<glyph unicode="&#x447;" horiz-adv-x="983" d="M82 666v358h246v-358q0 -49 14 -83t37.5 -54.5t55.5 -28.5t67 -8h102v532h246v-1024h-246v369q-39 -8 -95 -14.5t-110 -6.5q-66 0 -123 13.5t-100 49t-68.5 97t-25.5 158.5z" />
<glyph unicode="&#x448;" horiz-adv-x="1454" d="M133 0v1024h246v-870h225v870h246v-870h225v870h246v-1024h-1188z" />
<glyph unicode="&#x449;" horiz-adv-x="1495" d="M133 0v1024h246v-870h225v870h246v-870h225v870h246v-870h123v-451h-154q-31 53 -52 129t-30 168h-1075z" />
<glyph unicode="&#x44a;" horiz-adv-x="1085" d="M41 870v154h451v-389q39 8 87 14t87 6q76 0 140 -14t110.5 -51t72 -102.5t25.5 -170.5q0 -104 -26.5 -169.5t-79 -102.5t-128 -51t-176.5 -14q-117 0 -198.5 9t-159.5 31v850h-205zM492 123h112q31 0 60.5 9t52 30.5t37 59.5t14.5 95q0 53 -14.5 89t-37 57.5t-52 30 t-60.5 8.5h-112v-379z" />
<glyph unicode="&#x44b;" horiz-adv-x="1382" d="M133 20v1004h246v-389q39 8 87 14t87 6q74 0 135.5 -14t106.5 -51t70.5 -102.5t25.5 -170.5q0 -104 -26.5 -169.5t-77 -102.5t-125 -51t-170.5 -14q-117 0 -199 9t-160 31zM379 123h113q27 0 54 9t48.5 30.5t36 59.5t14.5 95q0 53 -14.5 89t-36 57.5t-49 30t-53.5 8.5 h-113v-379zM1004 0v1024h245v-1024h-245z" />
<glyph unicode="&#x44c;" d="M133 20v1004h246v-389q39 8 87 14t87 6q76 0 140.5 -14t110.5 -51t71.5 -102.5t25.5 -170.5q0 -104 -26.5 -169.5t-79 -102.5t-128 -51t-175.5 -14q-117 0 -199 9t-160 31zM379 123h113q31 0 60.5 9t52 30.5t36.5 59.5t14 95q0 53 -14 89t-36.5 57.5t-52.5 30t-60 8.5 h-113v-379z" />
<glyph unicode="&#x44d;" horiz-adv-x="808" d="M31 20v103h225q53 0 94 15.5t68.5 52t43 100t19.5 160.5h-307v153h307q-8 168 -60 232.5t-145 64.5h-225v103q47 16 118 28t148 12q100 0 176 -28.5t128.5 -92t79 -165t26.5 -246.5t-26.5 -246.5t-81 -165t-135.5 -92t-187 -28.5q-78 0 -148.5 12t-117.5 28z" />
<glyph unicode="&#x44e;" horiz-adv-x="1361" d="M133 0v1024h246v-420h104q16 240 119 340t279 100q96 0 170.5 -28.5t125 -92t77 -165t26.5 -246.5t-26.5 -246.5t-77 -165t-125 -92t-170.5 -28.5q-180 0 -282.5 104t-115.5 356h-104v-440h-246zM727 512q0 -119 12.5 -196.5t34 -123t49 -62.5t58.5 -17t58.5 17t49 62.5 t33.5 123t12 196.5t-12 196.5t-33.5 123t-49 62.5t-58.5 17t-58.5 -17t-49 -62.5t-34 -123t-12.5 -196.5z" />
<glyph unicode="&#x44f;" horiz-adv-x="962" d="M20 0v102q53 0 78 19.5t35 42.5l51 133q27 70 57.5 98.5t77.5 40.5v8q-51 2 -97 20.5t-82 52.5t-57.5 84t-21.5 116q0 100 30 163.5t83 100.5t129 50t168 13q117 0 199 -9t159 -31v-1004h-245v389h-39q-78 0 -115 -92l-61 -154q-31 -78 -80 -120.5t-135 -42.5 q-53 0 -95 10q-23 4 -39 10zM307 717q0 -49 14.5 -83t37 -54.5t52 -28.5t60.5 -8h113v358h-113q-31 0 -60.5 -8t-52 -29.5t-37 -57.5t-14.5 -89z" />
<glyph unicode="&#x451;" horiz-adv-x="942" d="M82 512q0 145 26.5 246.5t75.5 165t122 92t165 28.5t165 -28.5t122 -92t75.5 -165t26.5 -246.5v-72h-532q0 -176 62.5 -246.5t193.5 -70.5h225v-103q-47 -16 -117.5 -28t-148.5 -12q-119 0 -206 28.5t-143.5 92t-84 165t-27.5 246.5zM195 1147v246h225v-246h-225z M328 584h286q0 100 -11 163.5t-29.5 100.5t-45 50t-57.5 13t-57.5 -13t-45 -50t-29.5 -100.5t-11 -163.5zM522 1147v246h226v-246h-226z" />
<glyph unicode="&#x452;" horiz-adv-x="1024" d="M41 1098v151h113v185h245v-185h277v-110q-23 -8 -52.5 -15.5t-61.5 -13.5t-63.5 -9t-58.5 -3h-41v-176q39 31 91.5 46t113.5 15q66 0 123 -13.5t100 -50t69 -100t26 -164.5v-348q0 -170 -74 -248.5t-213 -78.5q-53 0 -88 9t-66 31v103h103q18 0 35.5 8t30 29.5t19.5 57.5 t7 89v348q0 53 -14.5 89t-37 57.5t-52 30t-60.5 8.5q-39 0 -67.5 -12.5t-45.5 -28.5v-799h-245v1098h-113z" />
<glyph unicode="&#x453;" horiz-adv-x="798" d="M133 0v1024h645v-154h-399v-870h-246zM369 1147l71 266h236l-154 -266h-153z" />
<glyph unicode="&#x454;" horiz-adv-x="808" d="M82 512q0 145 26.5 246.5t79 165t128 92t176.5 28.5q78 0 148.5 -12t117.5 -28v-103h-226q-92 0 -144 -64.5t-60 -232.5h307v-153h-307q4 -96 19 -160t43 -100.5t69 -52t94 -15.5h225v-103q-47 -16 -117.5 -28t-148.5 -12q-109 0 -188.5 28.5t-134 92t-81 165 t-26.5 246.5z" />
<glyph unicode="&#x455;" horiz-adv-x="849" d="M61 758q0 84 27 139t77 88t125 46t171 13q78 0 148.5 -12t117.5 -28v-103h-225q-86 0 -140.5 -31t-54.5 -92q0 -53 36 -87t89 -59.5t115.5 -50t116 -60.5t89 -92t35.5 -142q0 -92 -26.5 -151.5t-81.5 -94.5t-138 -48t-194 -13q-78 0 -148.5 12t-117.5 28v103h225 q117 0 176.5 32.5t59.5 110.5q0 53 -36 87t-89 59.5t-115.5 50t-116 60.5t-89.5 91.5t-36 143.5z" />
<glyph unicode="&#x456;" horiz-adv-x="512" d="M133 0v1024h246v-1024h-246zM133 1147v246h246v-246h-246z" />
<glyph unicode="&#x457;" horiz-adv-x="491" d="M-31 1147v246h226v-246h-226zM123 0v1024h246v-1024h-246zM297 1147v246h225v-246h-225z" />
<glyph unicode="&#x458;" horiz-adv-x="542" d="M-123 -287h143q53 0 93.5 48.5t40.5 156.5v1106h245v-1106q0 -109 -25.5 -176.5t-68.5 -105t-100.5 -52t-122.5 -14.5q-61 0 -113.5 12t-91.5 29v102zM154 1147v246h245v-246h-245z" />
<glyph unicode="&#x459;" horiz-adv-x="1474" d="M0 0v102q53 0 99 51.5t55 174.5l41 696h686v-389q39 8 87 14t87 6q76 0 140.5 -14t110.5 -51t71.5 -102.5t25.5 -170.5q0 -104 -26.5 -169.5t-79 -102.5t-128 -51t-176.5 -14q-117 0 -198.5 9t-159.5 31v850h-203l-33 -542q-10 -176 -84.5 -262t-181.5 -86q-53 0 -92 10 t-41 10zM881 123h112q31 0 60.5 9t52 30.5t37 59.5t14.5 95q0 53 -14.5 89t-37 57.5t-52 30t-60.5 8.5h-112v-379z" />
<glyph unicode="&#x45a;" horiz-adv-x="1495" d="M133 0v1024h246v-399h276v399h246v-420q39 8 87 14.5t87 6.5q76 0 140.5 -13.5t110.5 -50.5t71.5 -100.5t25.5 -163.5q0 -96 -26.5 -157.5t-78.5 -97.5t-128 -49t-176 -13q-117 0 -199 9t-160 31v451h-276v-471h-246zM901 123h113q31 0 60.5 8t52 28.5t37 54.5t14.5 83 t-14.5 83t-37 54.5t-52.5 28.5t-60 8h-113v-348z" />
<glyph unicode="&#x45b;" horiz-adv-x="1054" d="M41 1098v151h113v185h245v-185h277v-110q-23 -8 -52.5 -15.5t-61.5 -13.5t-63.5 -9t-58.5 -3h-41v-176q39 31 91.5 46t113.5 15q66 0 123 -13.5t100 -50t69 -100t26 -164.5v-655h-246v655q0 53 -14.5 89t-37 57.5t-52 30t-60.5 8.5q-39 0 -67.5 -12.5t-45.5 -28.5v-799 h-245v1098h-113z" />
<glyph unicode="&#x45c;" horiz-adv-x="962" d="M133 0v1024h246v-410h31q23 0 43 21.5t49 91.5l61 154q31 78 82 120.5t143 42.5q27 0 51.5 -3t43.5 -7q23 -6 39 -10v-102q-53 0 -78 -19.5t-35 -42.5l-51 -133q-33 -86 -71 -127t-85 -53v-8q55 -12 104.5 -55.5t71.5 -135.5l41 -164q8 -31 39 -56.5t84 -25.5v-102 q-16 -6 -39 -10q-41 -10 -94 -10q-100 0 -157.5 48t-78.5 126l-51 194q-14 53 -43.5 83t-68.5 30h-31v-461h-246zM410 1147l71 266h236l-154 -266h-153z" />
<glyph unicode="&#x45e;" d="M41 1024h235l185 -799q6 -27 14 -41t17 -20q8 -8 20 -10l164 870h235l-194 -1044q-41 -217 -131 -313.5t-238 -96.5q-61 0 -113.5 12t-91.5 29v102h133q39 0 70 11.5t55.5 41t44 82t35.5 132.5q-92 0 -161.5 68.5t-94.5 176.5zM205 1290l102 103q31 -31 77.5 -56.5 t107.5 -25.5t107 25.5t77 56.5l102 -103q-47 -70 -116.5 -111.5t-169.5 -41.5t-170 42t-117 111z" />
<glyph unicode="&#x45f;" horiz-adv-x="1034" d="M133 0v1024h246v-870h276v870h246v-1024h-262l-41 -287h-164l-41 287h-260z" />
<glyph unicode="&#x490;" horiz-adv-x="890" d="M143 0v1434h512l31 184h164v-348h-461v-1270h-246z" />
<glyph unicode="&#x491;" horiz-adv-x="798" d="M133 0v1024h451l30 195h164v-349h-399v-870h-246z" />
<glyph unicode="&#x2013;" horiz-adv-x="983" d="M61 492v163h861v-163h-861z" />
<glyph unicode="&#x2014;" horiz-adv-x="1351" d="M61 492v163h1229v-163h-1229z" />
<glyph unicode="&#x2018;" horiz-adv-x="399" d="M82 973l82 471h164v-471h-246z" />
<glyph unicode="&#x2019;" horiz-adv-x="399" d="M82 973v471h246l-82 -471h-164z" />
<glyph unicode="&#x201a;" horiz-adv-x="399" d="M82 225h246l-82 -471h-164v471z" />
<glyph unicode="&#x201c;" horiz-adv-x="747" d="M72 973l82 471h163v-471h-245zM420 973l82 471h164v-471h-246z" />
<glyph unicode="&#x201d;" horiz-adv-x="747" d="M82 973v471h246l-82 -471h-164zM430 973v471h246l-82 -471h-164z" />
<glyph unicode="&#x201e;" horiz-adv-x="747" d="M82 225h246l-82 -471h-164v471zM430 225h246l-82 -471h-164v471z" />
<glyph unicode="&#x2020;" horiz-adv-x="962" d="M41 788v164h317v482h246v-482h318v-164h-318v-1198h-246v1198h-317z" />
<glyph unicode="&#x2021;" horiz-adv-x="962" d="M41 72v164h317v552h-317v164h317v482h246v-482h318v-164h-318v-552h318v-164h-318v-482h-246v482h-317z" />
<glyph unicode="&#x2022;" horiz-adv-x="552" d="M92 532v367h369v-367h-369z" />
<glyph unicode="&#x2026;" horiz-adv-x="1208" d="M82 -20v245h246v-245h-246zM481 -20v245h246v-245h-246zM881 -20v245h245v-245h-245z" />
<glyph unicode="&#x2030;" horiz-adv-x="2150" d="M51 1147q0 139 85.5 223t232.5 84t232 -84t85 -223t-85 -223t-232 -84t-232.5 84t-85.5 223zM215 0l799 1434h246l-799 -1434h-246zM256 1147q0 -86 33 -125t80 -39t79.5 39t32.5 125t-32.5 125t-79.5 39t-80 -39t-33 -125zM788 287q0 139 85.5 223t232.5 84t232 -84 t85 -223t-85 -223t-232 -84t-232.5 83.5t-85.5 223.5zM993 287q0 -86 33 -125t80 -39t80 39t33 125t-33 125t-80 39t-80 -39t-33 -125zM1464 287q0 139 85.5 223t232.5 84t232 -84t85 -223t-85 -223t-232 -84t-232.5 83.5t-85.5 223.5zM1669 287q0 -86 33 -125t80 -39 t79.5 39t32.5 125t-32.5 125t-79.5 39t-80 -39t-33 -125z" />
<glyph unicode="&#x2039;" horiz-adv-x="665" d="M41 512l389 512l174 -113l-297 -393v-12l297 -393l-174 -113z" />
<glyph unicode="&#x203a;" horiz-adv-x="665" d="M61 113l297 393v12l-297 393l175 113l389 -512l-389 -512z" />
<glyph unicode="&#x20ac;" horiz-adv-x="983" d="M20 492l21 153h102v143h-123l21 154h113q14 147 51 245.5t93 158t133 84t173 24.5q109 0 195 -12t133 -29v-113h-246q-53 0 -99 -17t-83 -58t-62.5 -109.5t-40.5 -173.5h408l-31 -154h-389v-143h359l-31 -153h-316q14 -104 41 -173t66 -111t89 -58.5t110 -16.5h245v-113 q-47 -16 -132.5 -28t-194.5 -12q-102 0 -183.5 24.5t-139.5 83.5t-96 157.5t-52 246.5h-134z" />
<glyph unicode="&#x2116;" horiz-adv-x="1812" d="M143 0v1434h246l389 -942h10v942h236v-1434h-246l-389 942h-10v-942h-236zM1116 1147q0 139 85.5 223t232.5 84t232 -84t85 -223t-85 -223t-232 -84t-232.5 84t-85.5 223zM1167 573v164h533v-164h-533zM1321 1147q0 -86 32.5 -125t80.5 -39q47 0 79.5 39t32.5 125 t-32.5 125t-79.5 39t-80 -39t-33 -125z" />
<glyph unicode="&#x2122;" horiz-adv-x="1423" d="M20 1311v123h523v-123h-174v-492h-174v492h-175zM584 819l41 615h184l164 -361l164 361h184l41 -615h-174l-21 359l-123 -277h-143l-123 277l-20 -359h-174z" />
<glyph unicode="&#xe000;" horiz-adv-x="1024" d="M0 0v1024h1024v-1024h-1024z" />
<glyph horiz-adv-x="0" />
</font>
</defs>
</svg>
