<?xml version="1.0" standalone="no"?>
<!DOCTYPE svg PUBLIC "-//W3C//DTD SVG 1.1//EN" "http://www.w3.org/Graphics/SVG/1.1/DTD/svg11.dtd" >
<svg xmlns="http://www.w3.org/2000/svg">
<metadata></metadata>
<defs>
<font id="PTSansNarrowRegular" horiz-adv-x="921" >
<font-face units-per-em="2048" ascent="1577" descent="-471" />
<missing-glyph horiz-adv-x="434" />
<glyph unicode="&#xfb01;" horiz-adv-x="894" d="M33 891v133h125v57q0 193 77.5 280t227.5 87q100 0 175 -19.5t122 -44.5l-47 -122q-49 29 -109.5 41t-126.5 12q-57 0 -91 -19.5t-52.5 -57.5t-23.5 -92t-5 -122h465v-1024h-147v891h-318v-891h-147v891h-125z" />
<glyph unicode="&#xfb02;" horiz-adv-x="960" d="M33 891v133h125v57q0 193 68.5 285t230.5 92q33 0 77 -3t87 -8t80.5 -11t60.5 -15v-1188q0 -68 19.5 -96t54.5 -28q45 0 102 22l10 -119q-27 -16 -73 -26.5t-89 -10.5q-78 0 -125 49.5t-47 168.5v1116q-23 4 -66.5 10t-86.5 6q-53 0 -84 -20.5t-47.5 -58.5t-20.5 -94 t-4 -128h162v-133h-162v-891h-147v891h-125z" />
<glyph unicode=" "  horiz-adv-x="434" />
<glyph unicode="&#x09;" horiz-adv-x="434" />
<glyph unicode="&#xa0;" horiz-adv-x="434" />
<glyph unicode="!" horiz-adv-x="505" d="M180 92q0 57 28 86t75 29t74.5 -28.5t27.5 -86.5q0 -59 -27.5 -88t-74.5 -29t-75 29t-28 88zM207 723v711h153v-711l-30 -361h-92z" />
<glyph unicode="&#x22;" horiz-adv-x="585" d="M147 1038v396h142l-53 -396h-89zM362 1038v396h142l-53 -396h-89z" />
<glyph unicode="#" d="M49 461l27 123h125l55 286h-125l27 123h123l61 322h125l-61 -322h167l64 322h125l-62 -322h125l-28 -123h-121l-55 -286h122l-28 -123h-117l-66 -342h-126l65 342h-168l-65 -342h-125l65 342h-129zM326 584h170l55 286h-170z" />
<glyph unicode="$" d="M129 37l47 139q33 -23 90.5 -43t134.5 -24v581q-51 33 -99 70t-86 86t-61.5 113.5t-23.5 152.5q0 135 68.5 226.5t201.5 113.5v186h125v-182q80 -4 133.5 -15t100.5 -34l-47 -133q-35 18 -78 31.5t-109 17.5v-528q51 -35 102.5 -74t91.5 -89t64.5 -114.5t24.5 -150.5 q0 -147 -72.5 -250t-210.5 -131v-191h-125v180q-90 4 -158.5 18.5t-113.5 43.5zM285 1118q0 -90 42 -149.5t107 -108.5v459q-84 -16 -116.5 -75.5t-32.5 -125.5zM494 117q74 16 117.5 76.5t43.5 162.5q0 98 -47 160t-114 111v-510z" />
<glyph unicode="%" horiz-adv-x="1304" d="M113 1110q0 94 19 161t55 108q36 42 84 61q48 18 104 18q55 0 103 -17t84 -58q36 -40 55 -107q19 -68 20 -166q0 -98 -20 -166q-19 -68 -55 -107q-36 -40 -84 -58q-48 -17 -103 -17t-104 17q-48 17 -84 58q-36 40 -55 107q-19 68 -19 166zM188 37l873 1423l96 -61 l-872 -1424zM246 1110q0 -133 36 -184t93 -52q29 0 52 11q24 10 40 36t26 71q9 46 9 118q0 70 -9 116t-26 72q-16 27 -40 37t-52 11q-31 0 -54 -11q-24 -10 -40 -37t-26 -72q-9 -46 -9 -116zM715 350q0 94 19 161t56 109q36 42 83 60q48 18 104 18q55 0 103 -17t84 -57 t56 -108q19 -68 19 -166t-19 -166t-56 -107q-36 -40 -84 -58q-48 -17 -103 -17t-104 17q-48 17 -83 58q-36 40 -56 107q-19 68 -19 166zM848 350q0 -133 36 -184t93 -51q29 0 52 10q24 10 40 36t26 71q9 46 9 118q0 70 -9 116t-26 73q-16 27 -40 36q-24 10 -52 11 q-31 0 -54 -11q-24 -10 -40 -36q-16 -27 -26 -73q-9 -46 -9 -116z" />
<glyph unicode="&#x26;" horiz-adv-x="1343" d="M186 385q0 82 25 154.5t64.5 135t91 114t104.5 92.5q-41 74 -71.5 151.5t-30.5 163.5q0 49 13 96t44 84t78 59.5t114 22.5q70 0 118 -20.5t77 -53t42 -74.5t13 -87q0 -88 -55 -180.5t-168 -180.5q27 -57 60.5 -119.5t71.5 -125t78 -123t79 -111.5q37 51 69.5 137 t53.5 166l119 -47q-10 -35 -29 -84t-40.5 -99t-45 -96.5t-43.5 -76.5q68 -80 114 -124t93 -77l-92 -107q-92 53 -201 191q-29 -37 -65 -71t-80 -60.5t-98 -43t-118 -16.5q-80 0 -150.5 26t-122.5 77t-82 128t-30 179zM334 387q0 -68 20.5 -120t56 -87t82 -53t97.5 -18 q39 0 78 14t72.5 36.5t60.5 50t45 56.5q-47 59 -92 127t-86 135.5t-75 131t-56 116.5q-43 -41 -80 -82t-64.5 -87t-43 -100t-15.5 -120zM516 1196q0 -61 19.5 -120.5t50.5 -121.5q84 72 115.5 131.5t31.5 106.5q0 57 -23.5 99t-84.5 42q-57 0 -83 -39t-26 -98z" />
<glyph unicode="'" horiz-adv-x="370" d="M147 1038v396h142l-53 -396h-89z" />
<glyph unicode="(" horiz-adv-x="477" d="M98 498q0 113 14.5 237.5t47.5 250.5t87 247t132 225l92 -55q-66 -104 -109 -219t-68.5 -232.5t-36.5 -233.5t-11 -220q0 -98 12 -216t40 -237t71 -231.5t102 -202.5l-96 -62q-78 98 -130 216t-85 242t-47.5 250t-14.5 241z" />
<glyph unicode=")" horiz-adv-x="477" d="M98 -389q59 90 102.5 202.5t71 231.5t40 236.5t12.5 216.5q0 104 -11.5 220t-37 233.5t-69.5 232t-108 219.5l92 55q78 -104 132.5 -225t87 -247t47 -251t14.5 -237q0 -115 -14.5 -241t-47 -250t-86 -241.5t-128.5 -216.5z" />
<glyph unicode="*" horiz-adv-x="595" d="M61 1137v104h91l102 -22l-78 84l-45 83l90 54l41 -78l31 -107l33 107l43 76l90 -49l-47 -82l-78 -88l112 22h86v-104h-79l-111 22l80 -90l41 -72l-88 -51l-43 78l-39 113l-31 -109l-43 -76l-90 52l47 77l72 78l-96 -22h-91z" />
<glyph unicode="+" horiz-adv-x="849" d="M72 627v137h282v319h140v-319h282v-137h-282v-320h-140v320h-282z" />
<glyph unicode="," horiz-adv-x="380" d="M63 -231q27 14 50.5 37.5t39 52t23.5 60.5t8 63q-41 -12 -75.5 16.5t-34.5 89.5q0 51 29.5 82t76.5 31q53 0 87 -43t34 -135q0 -68 -17.5 -122.5t-45 -95.5t-60.5 -67.5t-63 -38.5z" />
<glyph unicode="-" horiz-adv-x="595" d="M96 514v141h404v-141h-404z" />
<glyph unicode="." horiz-adv-x="364" d="M80 92q0 57 27.5 86t74.5 29t75 -28.5t28 -86.5q0 -59 -28 -88t-75 -29t-74.5 29t-27.5 88z" />
<glyph unicode="/" horiz-adv-x="604" d="M-57 -244l602 1702l114 -45l-598 -1700z" />
<glyph unicode="0" d="M78 717q0 197 24.5 338t73.5 230t121 131t164 42q98 0 171 -42t120 -131t69.5 -230.5t22.5 -337.5q0 -199 -24.5 -339t-74 -229.5t-120 -131.5t-162.5 -42q-100 0 -173 43t-120 133.5t-69.5 230.5t-22.5 335zM231 717q0 -293 55.5 -450.5t178.5 -157.5q119 0 173 144 t54 464q0 291 -52 449.5t-179 158.5q-119 0 -174.5 -143t-55.5 -465z" />
<glyph unicode="1" d="M123 1110l373 348h75v-1321h224v-137h-602v137h231v998l18 120l-69 -98l-172 -139z" />
<glyph unicode="2" d="M113 0v66q39 47 90 118.5t105 156.5t106.5 180t93.5 193.5t66.5 195t25.5 184.5q0 104 -48 165.5t-140 61.5q-59 0 -115.5 -21.5t-97.5 -54.5l-58 109q55 49 135 76.5t168 27.5q152 0 231 -93t79 -245q0 -113 -34 -235.5t-86 -242.5t-116.5 -230.5t-126.5 -196.5l-82 -90 v-6l109 18h358v-137h-663z" />
<glyph unicode="3" d="M150 23l40 133q39 -23 89.5 -35t115.5 -12q55 0 101.5 22.5t80 63.5t52 97t18.5 124q0 152 -66.5 221.5t-185.5 69.5h-123v59l238 459l80 86l-113 -15h-321v138h594v-60l-263 -489l-61 -60v-4l59 13q63 0 121 -26t98.5 -76t65.5 -123.5t25 -172.5q0 -111 -32 -196.5 t-86 -144t-127 -89.5t-155 -31q-72 0 -135 12.5t-110 35.5z" />
<glyph unicode="4" d="M41 440v70l543 946h108v-883h191v-133h-191v-440h-147v440h-504zM199 559l112 14h234v459l24 176h-6l-61 -157l-226 -392z" />
<glyph unicode="5" d="M131 14l37 131q37 -18 82 -25t104 -7q117 0 189.5 85t74.5 238q-2 158 -74.5 233.5t-201.5 75.5l-135 -10v699h524v-144h-389v-418l70 7q164 -2 258 -113t96 -317q-2 -115 -34 -203t-87 -148.5t-129 -91.5t-158 -31q-141 0 -227 39z" />
<glyph unicode="6" d="M104 481q0 217 44.5 387t120 293t178 198t219.5 99l41 -119q-92 -25 -168 -82t-133.5 -139t-95.5 -184.5t-52 -218.5q27 55 89.5 96t154.5 41q147 0 236 -104.5t91 -315.5q-2 -102 -25.5 -187t-69.5 -144.5t-112.5 -92.5t-150.5 -33q-172 0 -269.5 125t-97.5 381z M248 506.5q0 -25.5 2 -47.5q-2 -68 11 -130.5t41 -111.5t70 -78.5t99 -29.5q92 0 150.5 82t58.5 227q0 301 -217 301q-78 0 -133.5 -49t-77.5 -111q-4 -27 -4 -52.5z" />
<glyph unicode="7" d="M115 1292v142h698v-56l-471 -1378h-147l413 1210l74 101l-98 -19h-469z" />
<glyph unicode="8" d="M119 332q0 137 56 233.5t167 173.5q-41 31 -77 65t-62.5 77t-42 96t-15.5 123q0 166 87 262t239 96q141 0 224 -87t83 -238q0 -117 -45 -207t-141 -176q43 -31 82 -68t68.5 -83t46 -104.5t16.5 -134.5q0 -174 -93.5 -279.5t-258.5 -105.5q-80 0 -141.5 27t-104.5 74 t-65.5 112.5t-22.5 143.5zM260 354q0 -104 51 -174.5t150 -70.5q80 0 138 58t58 185q0 63 -18 112.5t-49 87.5t-70 69.5t-82 60.5q-94 -70 -136 -156t-42 -172zM289 1104q0 -55 16.5 -99t45 -80t65.5 -65.5t78 -56.5q70 70 106.5 140.5t36.5 156.5q0 113 -50 169t-118 56 q-43 0 -77 -17.5t-56.5 -48t-34.5 -70.5t-12 -85z" />
<glyph unicode="9" d="M94 999q0 213 91 336t272 123q172 0 267 -127t95 -389q0 -231 -43 -402t-118.5 -289t-178 -185.5t-221.5 -90.5l-39 121q197 51 305.5 206t137.5 388q-43 -59 -95.5 -83.5t-138.5 -24.5q-66 0 -126 25.5t-106 77.5t-74 131t-28 183zM244 1016q0 -145 59 -223t158 -78 q78 0 132 33.5t79 87.5q4 27 4 51v47q0 78 -13.5 148.5t-41 125t-70.5 86t-102 31.5q-96 0 -150.5 -84t-54.5 -225z" />
<glyph unicode=":" horiz-adv-x="421" d="M156 92q0 57 27 86q28 29 75 29t75 -29t27 -86q0 -59 -27 -88q-28 -29 -75 -29t-75 29q-27 29 -27 88zM156 918q0 57 27 86q28 29 75 28q47 0 75 -28q28 -29 27 -86q0 -59 -27 -89q-28 -29 -75 -28q-47 0 -75 28q-27 30 -27 89z" />
<glyph unicode=";" horiz-adv-x="442" d="M143 -231q27 14 51 37q24 24 38 53q15 29 24 60q8 32 8 63q-41 -12 -76 16q-34 29 -34 90q0 51 29 82q30 31 77 31q53 0 87 -43t34 -135q0 -68 -17 -122t-46 -96q-28 -41 -60 -67q-33 -27 -63 -39zM174 918q0 57 28 86t74 28q47 0 75 -28q28 -29 28 -86q0 -59 -28 -89 q-28 -29 -75 -28q-47 0 -74 28q-28 30 -28 89z" />
<glyph unicode="&#x3c;" horiz-adv-x="849" d="M74 625v59l614 457l80 -111l-391 -297l-152 -78l150 -65l401 -295l-78 -111z" />
<glyph unicode="=" horiz-adv-x="849" d="M72 459v137h704v-137h-704zM72 797v137h704v-137h-704z" />
<glyph unicode="&#x3e;" horiz-adv-x="849" d="M74 1032l82 109l620 -436v-60l-610 -457l-84 109l393 297l150 78l-148 65z" />
<glyph unicode="?" horiz-adv-x="733" d="M66 1364q61 41 133.5 67.5t177.5 26.5q147 0 223 -86t76 -235q0 -88 -22.5 -158t-55.5 -128t-72 -111.5t-72.5 -110t-56 -121t-22.5 -146.5h-123q-6 90 11.5 160t48 128.5t66.5 109.5t68.5 105.5t54 114.5t21.5 136q0 94 -41 151.5t-139 57.5q-59 0 -116.5 -21.5 t-102.5 -54.5zM221 92q0 57 27.5 86t75.5 29q47 0 74.5 -28.5t27.5 -86.5q0 -59 -27.5 -88t-74.5 -29t-75 29t-28 88z" />
<glyph unicode="@" horiz-adv-x="1755" d="M139 483q0 211 62.5 378t168 281.5t247 176t298.5 61.5q152 0 280 -45t222 -135t146.5 -223t52.5 -309q0 -141 -37 -262t-99.5 -209t-145.5 -138.5t-177 -50.5q-39 0 -70.5 10.5t-51 35t-28 65.5t0.5 100h-9q-23 -41 -53.5 -79t-66 -67.5t-77.5 -47t-87 -17.5 q-86 0 -146.5 77t-60.5 222q0 152 33.5 283t92 227t136.5 150.5t166 54.5q59 0 97 -20.5t73 -55.5l51 60h68l-84 -596q-18 -137 -11 -204t60 -67t106.5 35t95.5 102.5t67.5 166t25.5 225.5q0 145 -42 254.5t-117 183.5t-181.5 111.5t-235.5 37.5q-133 0 -249.5 -54 t-202.5 -154.5t-136.5 -239.5t-50.5 -311q0 -178 46 -309.5t130 -219.5t199 -131t254 -43q49 0 113.5 12.5t111.5 36.5l37 -114q-70 -33 -138.5 -46.5t-143.5 -13.5q-150 0 -284 47t-235.5 146.5t-161 254t-59.5 367.5zM649 342q0 -92 28 -146.5t93 -54.5q31 0 63.5 22.5 t64.5 58.5t60.5 81t49.5 90l55 426q-27 37 -54.5 53.5t-68.5 16.5q-61 0 -114.5 -46t-92.5 -123t-61.5 -175.5t-22.5 -202.5z" />
<glyph unicode="A" horiz-adv-x="968" d="M10 0l432 1456h84l432 -1456h-159l-117 401h-406l-114 -401h-152zM317 539h328l-125 442l-39 215h-4l-39 -219z" />
<glyph unicode="B" horiz-adv-x="964" d="M131 10v1411q61 12 144 20.5t180 8.5q70 0 139.5 -13.5t124.5 -50t89 -103t34 -175.5q0 -53 -12.5 -106.5t-39 -100.5t-66.5 -84t-97 -55v-8q49 -10 94 -34t80 -66t55.5 -102t20.5 -144q0 -111 -35 -192t-95.5 -132t-139.5 -75.5t-167 -24.5h-66.5t-80.5 3t-85 8t-77 15z M285 139q12 -4 31.5 -6t43 -4t48.5 -3t45 -1q55 0 102 17.5t83 52t56.5 85t20.5 117.5q0 84 -25.5 136.5t-66.5 81t-93.5 39t-107.5 10.5h-137v-525zM285 797h84q29 0 65.5 2t61.5 6q76 31 130 99.5t54 168.5q0 68 -18.5 114t-50 72.5t-74.5 38t-91 11.5q-53 0 -96 -3 t-65 -8v-501z" />
<glyph unicode="C" horiz-adv-x="937" d="M88 717q0 205 42 346t111.5 229t161 127t187.5 39q98 0 162.5 -14t111.5 -35l-37 -139q-41 23 -96 35t-127 12t-135 -32t-112.5 -102.5t-78 -185t-28.5 -280.5q0 -299 102.5 -449.5t272.5 -150.5q70 0 125 19.5t94 45.5l37 -127q-51 -43 -129 -61.5t-164 -18.5 q-109 0 -201 41t-158.5 130.5t-103.5 230.5t-37 340z" />
<glyph unicode="D" horiz-adv-x="1075" d="M131 -2v1436q33 6 73 9t81 4t81 2t74 1q150 0 254.5 -51t170 -146.5t94 -228.5t28.5 -297q0 -147 -27.5 -282.5t-93 -238t-173 -163.5t-269.5 -61q-27 0 -68 1t-85 4t-81.5 5t-58.5 6zM285 131q8 -2 29.5 -3t45 -2t45 -2t31.5 -1q113 0 188.5 49t119.5 132t62.5 192.5 t18.5 232.5q0 109 -16 213.5t-58 185t-114.5 131t-187.5 50.5h-44t-46.5 -2t-42 -4.5t-31.5 -4.5v-1167z" />
<glyph unicode="E" horiz-adv-x="878" d="M131 0v1434h637v-142h-483v-485h444v-141h-444v-525h493v-141h-647z" />
<glyph unicode="F" horiz-adv-x="845" d="M131 0v1434h637v-142h-483v-506h450v-141h-450v-645h-154z" />
<glyph unicode="G" horiz-adv-x="1007" d="M88 717q0 201 43 341t115.5 229t166 130t191.5 41t165 -13t114 -36l-37 -139q-41 23 -97.5 35t-130.5 12q-72 0 -137 -31t-117.5 -101.5t-83 -185t-30.5 -282.5q0 -307 97 -453.5t267 -146.5q106 0 177 51v418l-265 39v90h396v-631q-57 -53 -147.5 -81t-182.5 -28 q-115 0 -208 43t-158.5 134.5t-101.5 230.5t-36 334z" />
<glyph unicode="H" horiz-adv-x="1097" d="M131 0v1434h154v-631h528v631h154v-1434h-154v662h-528v-662h-154z" />
<glyph unicode="I" horiz-adv-x="477" d="M162 0v1434h153v-1434h-153z" />
<glyph unicode="J" horiz-adv-x="493" d="M-53 12l33 133q20 -12 45.5 -18t52.5 -6q37 0 59.5 16.5t34.5 46t15 71.5t3 95v1084h154v-1112q0 -168 -54 -255t-190 -87q-33 0 -79 8t-74 24z" />
<glyph unicode="K" horiz-adv-x="1009" d="M131 0v1434h154v-668l71 29l373 639h176l-375 -619l-71 -65l84 -82l415 -668h-194l-406 664h-73v-664h-154z" />
<glyph unicode="L" horiz-adv-x="849" d="M131 0v1434h154v-1293h536v-141h-690z" />
<glyph unicode="M" horiz-adv-x="1304" d="M131 0v1434h129l346 -705l51 -168h5l49 170l327 703h136v-1434h-154v942l18 217h-8l-65 -203l-289 -622h-51l-303 622l-64 203h-8l29 -217v-942h-148z" />
<glyph unicode="N" horiz-adv-x="1101" d="M131 0v1456h92l531 -930l84 -215h8l-23 215v908h148v-1457h-94l-527 932l-88 226h-6l23 -226v-909h-148z" />
<glyph unicode="O" horiz-adv-x="1124" d="M88 717q0 365 117 553t356 188q129 0 219 -52t146.5 -148.5t83 -233.5t26.5 -307q0 -365 -117.5 -553.5t-357.5 -188.5q-127 0 -217 52.5t-147.5 148.5t-83 233.5t-25.5 307.5zM250 717q0 -121 17.5 -229.5t54 -190.5t96 -131t143.5 -49q154 0 233.5 147.5t79.5 452.5 q0 119 -17 227.5t-54 191.5t-96.5 132t-145.5 49q-152 0 -231.5 -147.5t-79.5 -452.5z" />
<glyph unicode="P" horiz-adv-x="923" d="M131 0v1419q66 18 139.5 24.5t145.5 6.5q82 0 161.5 -18.5t144 -67.5t104.5 -135t40 -219q0 -129 -37.5 -219.5t-100 -146.5t-143.5 -81.5t-167 -25.5h-26.5t-39 1t-40 3t-27.5 4v-545h-154zM285 686q8 -4 25.5 -5t36 -2t35.5 -1h26q57 0 110 14.5t94 52t67 102t26 163.5 q0 86 -24 143t-61.5 92t-89 49.5t-106.5 14.5q-41 0 -79 -3t-60 -10v-610z" />
<glyph unicode="Q" horiz-adv-x="1124" d="M88 717q0 365 117 553t356 188q129 0 219 -52t146.5 -148.5t83 -233.5t26.5 -307q0 -365 -117.5 -553.5t-357.5 -188.5q-127 0 -217 52.5t-147.5 148.5t-83 233.5t-25.5 307.5zM250 717q0 -121 17.5 -229.5t54 -190.5t96 -131t143.5 -49q154 0 233.5 147.5t79.5 452.5 q0 119 -17 227.5t-54 191.5t-96.5 132t-145.5 49q-152 0 -231.5 -147.5t-79.5 -452.5zM348 -102q45 12 90 12q68 0 136.5 -20.5t138 -45t144.5 -45t155 -20.5q74 0 147 20v-139q-41 -14 -79 -19.5t-76 -5.5q-82 0 -161 21.5t-152 46.5t-140.5 46.5t-128.5 21.5 q-37 0 -74 -13v140z" />
<glyph unicode="R" horiz-adv-x="983" d="M131 0v1419q68 16 148.5 23.5t148.5 7.5q80 0 151.5 -19.5t125 -65.5t85 -121t31.5 -187q0 -170 -70.5 -272.5t-187.5 -137.5l78 -76l283 -571h-179l-307 625l-153 30v-655h-154zM285 758h123q117 0 184 71.5t67 219.5q0 113 -56 186.5t-167 73.5q-41 0 -85 -3t-66 -10 v-538z" />
<glyph unicode="S" horiz-adv-x="876" d="M68 49l53 141q39 -27 109.5 -50t160.5 -23q115 0 186.5 56t71.5 177q0 80 -41 139.5t-102.5 109.5t-132 98t-132 106.5t-102.5 134.5t-41 182q0 172 103.5 255t269.5 83q102 0 182 -18.5t129 -46.5l-49 -136q-37 23 -105.5 41.5t-158.5 18.5q-111 0 -164 -54.5 t-53 -136.5q0 -72 41 -127t102.5 -104t132 -99.5t132 -111.5t102.5 -139t41 -185q0 -180 -106.5 -282.5t-301.5 -102.5q-123 0 -201.5 22.5t-125.5 51.5z" />
<glyph unicode="T" horiz-adv-x="915" d="M29 1292v142h858v-142h-352v-1292h-154v1292h-352z" />
<glyph unicode="U" horiz-adv-x="1067" d="M131 440v994h154v-914q0 -111 14 -186.5t47 -122.5t82 -67.5t121 -20.5q135 0 187 94t52 303v914h148v-961q0 -260 -101.5 -375.5t-287.5 -115.5q-217 0 -316.5 112.5t-99.5 345.5z" />
<glyph unicode="V" horiz-adv-x="948" d="M-4 1434h170l280 -981l37 -220h4l41 224l267 977h157l-434 -1457h-82z" />
<glyph unicode="W" horiz-adv-x="1376" d="M10 1434h166l197 -949l24 -239h4l25 243l229 945h88l230 -947l24 -241h2l29 243l182 945h154l-320 -1457h-94l-227 945l-29 219h-6l-29 -221l-227 -943h-96z" />
<glyph unicode="X" horiz-adv-x="1024" d="M39 0l377 729l-344 705h184l223 -486l41 -121l41 121l236 486h170l-357 -691l373 -743h-180l-248 514l-47 127l-43 -127l-254 -514h-172z" />
<glyph unicode="Y" horiz-adv-x="931" d="M10 1434h180l259 -625l26 -125h4l27 129l250 621h166l-377 -863v-571h-154v569z" />
<glyph unicode="Z" horiz-adv-x="899" d="M59 0v141l570 1069l67 82h-637v142h781v-142l-572 -1075l-65 -76h637v-141h-781z" />
<glyph unicode="[" horiz-adv-x="507" d="M131 -471v1905h320v-134h-172v-1638h172v-133h-320z" />
<glyph unicode="\" horiz-adv-x="647" d="M-57 1411l125 47l608 -1698l-123 -47z" />
<glyph unicode="]" horiz-adv-x="507" d="M59 -338h170v1638h-170v134h318v-1905h-318v133z" />
<glyph unicode="^" horiz-adv-x="843" d="M82 891l309 565h62l284 -565h-153l-127 276l-37 142l-49 -144l-148 -274h-141z" />
<glyph unicode="_" horiz-adv-x="684" d="M0 -287h684v-133h-684v133z" />
<glyph unicode="`" horiz-adv-x="522" d="M123 1432v43h170l106 -306h-84z" />
<glyph unicode="a" horiz-adv-x="819" d="M59 274q0 88 30 147.5t84 96.5t129 52.5t167 15.5h40.5t43.5 -2q6 63 6 112q0 117 -35 164t-127 47q-57 0 -124.5 -17.5t-112.5 -43.5l-49 117q59 37 144 57t179 20q86 0 138.5 -25.5t82 -69.5t38.5 -100.5t9 -117.5q0 -123 -5 -239.5t-5 -221.5q0 -78 5 -144.5 t20 -125.5h-113l-35 121h-8q-31 -53 -90 -92t-160 -39q-111 0 -181.5 76.5t-70.5 211.5zM213 291q0 -82 40 -127t103 -45q86 0 133.5 41t65.5 90v217q-20 2 -40.5 3t-41.5 1q-49 0 -96 -8t-84 -28.5t-58.5 -55.5t-21.5 -88z" />
<glyph unicode="b" horiz-adv-x="888" d="M121 53v1381h147v-488h6q84 102 224 103q158 0 236.5 -125t78.5 -396q0 -276 -105.5 -411t-297.5 -135q-94 0 -172 21.5t-117 49.5zM268 150q29 -16 71 -25.5t89 -9.5q106 0 168.5 101t62.5 312q0 88 -11 159t-34.5 122t-61.5 78.5t-91 27.5q-74 0 -122 -44t-71 -119 v-602z" />
<glyph unicode="c" horiz-adv-x="729" d="M76 512q0 262 93 399.5t267 137.5q80 0 137.5 -14.5t98.5 -37.5l-41 -129q-82 47 -178 47q-111 0 -167.5 -97t-56.5 -306q0 -84 12.5 -157.5t41 -128t73.5 -86t113 -31.5q53 0 99 18t75 43l43 -119q-51 -39 -116.5 -57.5t-137.5 -18.5q-98 0 -165.5 38t-109.5 109 t-61.5 170t-19.5 220z" />
<glyph unicode="d" horiz-adv-x="886" d="M76 510q0 262 99 397t274 135q59 0 94 -7t75 -23v422h148v-1082q0 -104 2 -189t14 -167h-100l-33 123h-8q-29 -61 -90.5 -102.5t-147.5 -41.5q-166 0 -246.5 129t-80.5 406zM229 508q0 -90 11.5 -163t35 -126t61.5 -81.5t93 -28.5q147 0 188 174v579q-29 25 -64.5 36 t-94.5 11q-109 0 -169.5 -98t-60.5 -303z" />
<glyph unicode="e" horiz-adv-x="845" d="M76 512q0 262 96 399.5t272 137.5q57 0 113.5 -14.5t102 -57.5t73 -121t27.5 -203q0 -35 -3 -74.5t-7 -82.5h-521q0 -88 14.5 -160t45 -122t79 -77.5t119.5 -27.5q55 0 109.5 20.5t83.5 48.5l53 -108q-49 -45 -125 -70t-159 -25q-96 0 -167 38t-117 109t-67.5 169 t-21.5 221zM231 618h387v24q0 136 -43 202q-47 72 -129 71q-94 0 -149 -71.5t-66 -225.5z" />
<glyph unicode="f" horiz-adv-x="526" d="M33 891v133h125v57q0 193 55 279t188 86q53 0 96.5 -6t88.5 -27l-37 -127q-37 16 -68.5 21.5t-60.5 5.5q-41 0 -63.5 -16.5t-34 -51.5t-14.5 -89t-3 -132h213v-133h-213v-891h-147v891h-125z" />
<glyph unicode="g" horiz-adv-x="884" d="M76 508q0 264 101.5 399t299.5 135q96 0 166 -18t123 -43v-1028q0 -199 -88 -293t-256 -94q-102 0 -168 17.5t-107 39.5l43 127q41 -18 90.5 -34.5t120.5 -16.5q125 0 171 69.5t46 233.5v76h-6q-33 -47 -84 -74t-131 -27q-166 0 -243.5 128t-77.5 403zM229 510 q0 -86 10.5 -158.5t35 -127t62.5 -84t93 -29.5q78 0 123 41t65 122v603q-59 32 -151 32h-6q-104 0 -168 -95t-64 -304z" />
<glyph unicode="h" horiz-adv-x="901" d="M121 0v1434h147v-506h6q41 53 101.5 87t150.5 34q68 0 118 -18.5t83 -63.5t49.5 -120t16.5 -185v-662h-148v623q0 143 -33.5 217.5t-134.5 74.5q-72 0 -130 -51t-79 -129v-735h-147z" />
<glyph unicode="i" horiz-adv-x="444" d="M119 1335q0 49 27.5 80t72.5 31t75 -30t30 -81q0 -49 -30 -76.5t-75 -27.5t-72.5 28.5t-27.5 75.5zM145 0v1024h148v-1024h-148z" />
<glyph unicode="j" horiz-adv-x="440" d="M8 -297q45 0 73 18.5t43 56.5t19 94t4 132v1020h148v-1079q0 -211 -67 -305q-55 -75 -163 -75q-27 0 -57 5v133zM119 1335q0 49 27.5 80t72.5 31t75 -30t30 -81q0 -49 -30 -76.5t-75 -27.5t-72.5 28.5t-27.5 75.5z" />
<glyph unicode="k" horiz-adv-x="794" d="M121 0v1434h147v-873l68 29l239 434h170l-241 -414l-72 -65l84 -80l264 -465h-178l-258 461h-76v-461h-147z" />
<glyph unicode="l" horiz-adv-x="477" d="M131 195v1239h148v-1190q0 -72 19 -102.5t54 -30.5q43 0 101 22l14 -119q-27 -16 -75 -26.5t-87 -10.5q-78 0 -126 48.5t-48 169.5z" />
<glyph unicode="m" horiz-adv-x="1333" d="M121 0v1024h104l27 -109h6q43 59 102.5 96.5t151.5 37.5q78 0 128 -34t79 -120q37 72 105.5 113t150.5 41q68 0 116 -17.5t77.5 -61.5t44 -117t14.5 -183v-670h-148v651q0 133 -25.5 198.5t-117.5 65.5q-78 0 -124 -48t-64 -130v-737h-148v608q0 82 -5 140.5t-21.5 95.5 t-45 54t-75.5 17q-70 0 -118 -54t-67 -124v-737h-147z" />
<glyph unicode="n" horiz-adv-x="899" d="M121 0v1024h106l27 -109h6q39 55 105.5 94.5t158.5 39.5q66 0 116 -18.5t84 -62.5t51.5 -118t17.5 -186v-664h-148v625q0 154 -36 222t-128 68q-82 0 -135 -49t-78 -121v-745h-147z" />
<glyph unicode="o" horiz-adv-x="884" d="M76 512q0 276 95 406.5t271 130.5q188 0 277.5 -133.5t89.5 -403.5q0 -279 -96.5 -408t-270.5 -129q-188 0 -277 133.5t-89 403.5zM229 512q0 -90 11.5 -164t37 -127t66.5 -82.5t98 -29.5q106 0 159.5 95t53.5 308q0 88 -11 163t-36.5 128t-66.5 82.5t-99 29.5 q-104 0 -158.5 -96t-54.5 -307z" />
<glyph unicode="p" horiz-adv-x="890" d="M121 -410v1434h104l23 -111h8q76 135 238 136q162 0 242.5 -121t80.5 -396q0 -129 -26.5 -232t-75.5 -176t-120 -111t-157 -38q-59 0 -94 7.5t-76 29.5v-422h-147zM268 162q29 -25 65 -39t95 -14q109 0 172.5 110.5t63.5 315.5q0 86 -11.5 155.5t-36 119.5t-62.5 77.5 t-93 27.5q-150 0 -193 -182v-571z" />
<glyph unicode="q" horiz-adv-x="884" d="M76 508q0 264 104.5 399t302.5 135q86 0 164 -20.5t119 -42.5v-1389h-148v494h-8q-33 -51 -83 -80t-130 -29q-162 0 -241.5 130.5t-79.5 402.5zM229 510q0 -86 10.5 -160t34 -128t61.5 -83.5t93 -29.5q78 0 123 45t67 131v589q-57 35 -161 35q-106 0 -167 -98t-61 -301z " />
<glyph unicode="r" horiz-adv-x="561" d="M121 0v1024h104l27 -109h6q29 59 75 93t111 34q47 0 107 -18l-29 -150q-53 18 -94 19q-66 0 -106.5 -38t-53.5 -101v-754h-147z" />
<glyph unicode="s" horiz-adv-x="692" d="M59 39l45 129q41 -25 97.5 -42t115.5 -17q68 0 115 33.5t47 109.5q0 63 -28.5 104t-72.5 74t-95.5 60.5t-95.5 66.5t-72.5 92t-28.5 135q0 131 70.5 198t199.5 67q84 0 145.5 -15.5t106.5 -42.5l-39 -123q-39 20 -90 33.5t-104 13.5q-74 0 -108 -30.5t-34 -96.5 q0 -51 29 -86.5t73 -65.5t95 -60.5t95 -72.5t73 -100.5t29 -146.5q0 -57 -18.5 -108.5t-56.5 -89.5t-94.5 -60.5t-131.5 -22.5q-90 0 -156 17.5t-111 46.5z" />
<glyph unicode="t" horiz-adv-x="563" d="M18 891v133h125v203l148 47v-250h221v-133h-221v-610q0 -90 21.5 -130t70.5 -40q41 0 70.5 9t64.5 23l29 -116q-45 -23 -99.5 -36.5t-113.5 -13.5q-102 0 -146.5 67t-44.5 216v631h-125z" />
<glyph unicode="u" horiz-adv-x="888" d="M106 360v664h148v-627q0 -156 31.5 -222t115.5 -66q43 0 77 17t60.5 46t47 65.5t32.5 75.5v711h148v-733q0 -74 5 -153t15 -138h-104l-37 143h-6q-35 -68 -100.5 -118t-163.5 -50q-66 0 -115 16.5t-84 59.5t-52.5 118t-17.5 191z" />
<glyph unicode="v" horiz-adv-x="794" d="M8 1024h168l193 -600l41 -203h4l37 207l180 596h155l-350 -1047h-71z" />
<glyph unicode="w" horiz-adv-x="1208" d="M10 1024h158l158 -596l24 -199h4l37 203l168 592h109l182 -598l37 -197h4l31 201l139 594h139l-272 -1047h-84l-207 672l-29 172h-4l-29 -174l-200 -670h-84z" />
<glyph unicode="x" horiz-adv-x="843" d="M39 0l291 524l-271 500h177l151 -293l41 -115l43 115l156 293h161l-272 -492l289 -532h-168l-172 322l-45 122l-47 -122l-172 -322h-162z" />
<glyph unicode="y" horiz-adv-x="770" d="M14 1024h168l193 -662l43 -198h10l31 198l155 662h150l-244 -920q-29 -111 -57.5 -207t-62 -166.5t-75.5 -110.5t-100 -40q-57 0 -100 19l25 139q29 -10 57.5 -4t54 34.5t47 85t37.5 146.5z" />
<glyph unicode="z" horiz-adv-x="737" d="M66 0v133l380 670l72 88h-452v133h598v-133l-383 -676l-70 -82h453v-133h-598z" />
<glyph unicode="{" horiz-adv-x="577" d="M88 416v133q63 0 97 41t34 131v506q0 96 38 152.5t124 56.5h151v-133h-79q-47 0 -66.5 -26t-19.5 -91v-500q0 -90 -34 -137t-81 -57v-13q47 -8 81 -62.5t34 -140.5v-497q0 -63 19.5 -90t68.5 -27h77v-133h-151q-162 0 -162 207v497q0 104 -33.5 143.5t-97.5 39.5z" />
<glyph unicode="|" horiz-adv-x="389" d="M133 -266v1700h125v-1700h-125z" />
<glyph unicode="}" horiz-adv-x="577" d="M45 -338h78q49 0 68.5 26.5t19.5 90.5v497q0 86 34 140.5t81 62.5v13q-47 10 -81 57t-34 137v500q0 66 -19.5 91.5t-66.5 25.5h-80v133h152q86 0 123.5 -56.5t37.5 -152.5v-506q0 -90 34 -131t97 -41v-133q-63 0 -97 -39t-34 -144v-497q0 -207 -161 -207h-152v133z" />
<glyph unicode="~" horiz-adv-x="849" d="M47 739q74 68 133.5 94.5t110.5 26.5q47 0 88 -17.5t78 -37t72.5 -36.5t72.5 -17q29 0 61.5 14t67.5 53l70 -123q-66 -55 -117 -76.5t-94 -21.5q-45 0 -83 17.5t-74 39t-71.5 39t-74.5 17.5q-37 0 -79 -20.5t-93 -72.5z" />
<glyph unicode="&#xa1;" horiz-adv-x="505" d="M123 932q0 59 28 88t74 29q47 0 75 -29t28 -88q0 -57 -28 -86t-75 -29t-74 29q-28 29 -28 86zM147 301l31 360h92l31 -360v-711h-154v711z" />
<glyph unicode="&#xa2;" d="M156 512q0 233 77.5 368.5t225.5 161.5v187h133v-182q55 -4 98 -16.5t78 -33.5l-41 -129q-31 18 -68.5 29.5t-78.5 15.5v-804q51 4 92 22.5t67 40.5l43 -117q-37 -31 -87 -49t-103 -24v-187h-133v185q-84 12 -141.5 55t-93.5 111.5t-52 161.5t-16 204zM303 512 q6 -74 15.5 -138.5t30 -115.5t53 -88t79.5 -51v788q-88 -23 -130 -119t-48 -276z" />
<glyph unicode="&#xa3;" d="M86 0v137q51 2 89 26.5t62.5 64.5t37 90.5t12.5 99.5q0 70 -12.5 125t-28.5 106h-160v133h111q-20 59 -35 127t-15 160q0 199 94.5 294t254.5 95q100 0 173.5 -16.5t125.5 -40.5l-50 -131q-39 20 -99 35.5t-146 15.5q-94 0 -146.5 -65.5t-52.5 -192.5q0 -86 18.5 -151.5 t40.5 -129.5h261v-133h-213q14 -47 23 -100t9 -119q0 -59 -17 -129t-48 -113l-80 -71v-8l121 28h411v-137h-741z" />
<glyph unicode="&#xa4;" d="M6 367l139 141l62 39q-57 76 -57 186q0 53 15 99.5t42 85.5l-62 38l-139 142l88 88l142 -137l38 -64q76 59 187 59q53 0 101 -15t85 -44l39 64l143 137l86 -88l-137 -142l-63 -38q57 -80 57 -185q0 -115 -57 -186l63 -39l137 -141l-86 -88l-143 139l-37 61 q-80 -57 -188 -57q-111 0 -187 57l-38 -61l-142 -139zM276 733q0 -84 51.5 -138t133.5 -54t134 54t52 138q0 80 -52 135.5t-134 55.5t-133.5 -55.5t-51.5 -135.5z" />
<glyph unicode="&#xa5;" d="M6 1434h180l258 -625l27 -125h4l27 129l250 621h166l-336 -766h163v-119h-204v-146h204v-118h-204v-285h-154v285h-205v118h205v146h-205v119h162z" />
<glyph unicode="&#xa6;" horiz-adv-x="387" d="M131 -266v688h125v-688h-125zM131 745v689h125v-689h-125z" />
<glyph unicode="&#xa7;" horiz-adv-x="829" d="M92 723q0 63 26.5 125.5t74.5 109.5l69 31q-45 35 -76.5 84t-31.5 135q0 109 68.5 179.5t203.5 70.5q86 0 149.5 -16.5t108.5 -38.5l-37 -127q-43 20 -95 34.5t-110 14.5q-74 0 -107.5 -35t-33.5 -86q0 -53 33 -86t81 -58.5t104 -50t104.5 -61.5t81 -93t32.5 -144 q0 -63 -24.5 -128t-71.5 -112l-74 -29q43 -33 76 -83t33 -134q0 -123 -77 -186.5t-202 -63.5q-86 0 -147.5 15.5t-106.5 44.5l39 125q39 -23 90.5 -37t108.5 -14q147 0 147 124q0 49 -32.5 81t-80.5 57.5t-104.5 50t-104.5 62.5t-81 94.5t-33 144.5zM240 727q0 -47 19.5 -81 t52 -59.5t74.5 -45t87 -39.5q45 29 81 84t36 121q0 49 -19.5 81.5t-52.5 56t-75 43t-87 40.5q-49 -29 -82.5 -78t-33.5 -123z" />
<glyph unicode="&#xa8;" horiz-adv-x="747" d="M123 1337q0 47 23.5 74t64.5 27t64.5 -27t23.5 -74q0 -43 -23.5 -69.5t-64.5 -26.5t-64.5 26.5t-23.5 69.5zM449 1337q0 47 23.5 74t64.5 27t64.5 -27t23.5 -74q0 -43 -23.5 -69.5t-64.5 -26.5t-64.5 26.5t-23.5 69.5z" />
<glyph unicode="&#xa9;" horiz-adv-x="1419" d="M102 600q0 143 48.5 256t131.5 190.5t193.5 119.5t235.5 42t235.5 -42t193.5 -119.5t131 -190.5t48 -256t-48 -256t-131 -191.5t-193.5 -119.5t-235.5 -41q-139 0 -251 41t-192 119.5t-123 191.5t-43 256zM225 600q0 -119 38 -211t103.5 -154.5t153.5 -95.5t191 -33 q100 0 189 33t154.5 95.5t103.5 154.5t38 211t-38 211t-103.5 154.5t-154.5 95.5t-189 33q-102 0 -190.5 -33t-154 -95.5t-103.5 -154.5t-38 -211zM422 600q0 158 79 243t208 85q63 0 102 -12.5t90 -34.5l-45 -113q-39 18 -72.5 26.5t-58.5 8.5q-72 0 -114 -46t-42 -157 q0 -203 170 -203q78 0 138 33l36 -113q-41 -23 -90 -35t-114 -12q-139 0 -213 89.5t-74 240.5z" />
<glyph unicode="&#xaa;" horiz-adv-x="647" d="M74 965q0 68 28.5 112.5t77.5 71.5t113.5 36t140.5 5q4 82 -13.5 116.5t-82.5 34.5q-59 0 -111.5 -13t-87.5 -30l-33 97q43 23 112 39t155 16q109 0 147.5 -53.5t40.5 -153.5q-2 -141 -8 -258t16 -207h-102l-25 86h-6q-20 -35 -60 -64.5t-108 -29.5q-92 0 -143 52 t-51 143zM203 977q0 -41 22.5 -68.5t67.5 -27.5q61 0 93 29.5t48 60.5v116q-43 2 -84 1t-73.5 -11t-53 -33.5t-20.5 -66.5z" />
<glyph unicode="&#xab;" horiz-adv-x="790" d="M59 530l265 471l102 -69l-168 -316l-78 -84l78 -73l180 -309l-104 -72zM365 530l260 467l98 -67l-164 -314l-78 -84l78 -73l174 -307l-98 -70z" />
<glyph unicode="&#xac;" horiz-adv-x="849" d="M74 659v142h702v-391h-133v249h-569z" />
<glyph unicode="&#xad;" horiz-adv-x="595" d="M96 514v141h404v-141h-404z" />
<glyph unicode="&#xae;" horiz-adv-x="1210" d="M147 1004q0 111 37 195.5t99.5 143t145.5 88t175 29.5q96 0 180 -29.5t145.5 -88t97.5 -143.5t36 -195q0 -111 -37 -197t-99.5 -144.5t-145.5 -88t-177 -29.5q-96 0 -179 29.5t-144.5 88t-97.5 144.5t-36 197zM258 1004q0 -90 27.5 -157t75 -112t109.5 -66.5t134 -21.5 q76 0 139.5 21.5t109.5 65.5t72.5 110.5t26.5 159.5q0 88 -27.5 154.5t-74.5 111.5t-110.5 66.5t-135.5 21.5q-76 0 -139.5 -21.5t-109.5 -66.5t-71.5 -111.5t-25.5 -154.5zM426 778v449q29 8 79 13t95 5q72 0 124 -30.5t52 -104.5q0 -55 -34.5 -85t-88.5 -34l49 -22 l127 -191h-106l-123 180l-84 27v-207h-90zM516 1036h59q104 0 105 70q0 61 -100 61q-16 0 -35 -1t-29 -7v-123z" />
<glyph unicode="&#xaf;" horiz-adv-x="743" d="M123 1196v121h498v-121h-498z" />
<glyph unicode="&#xb0;" horiz-adv-x="700" d="M127 1169q0 129 65.5 209t174.5 80q106 0 173.5 -74.5t67.5 -214.5q0 -139 -67.5 -213.5t-173.5 -74.5q-109 0 -174.5 74.5t-65.5 213.5zM244 1169q0 -80 33.5 -130t89.5 -50q55 0 90 50.5t35 129.5q0 80 -35 130.5t-90 50.5t-89 -50.5t-34 -130.5z" />
<glyph unicode="&#xb1;" horiz-adv-x="849" d="M72 369v137h706v-137h-706zM72 823v138h284v317h138v-317h284v-138h-284v-215h-138v215h-284z" />
<glyph unicode="&#xb2;" horiz-adv-x="675" d="M90 778v66q43 43 99 109q56 67 108 143q51 76 86 155q35 80 35 152q0 61 -32 94t-79 33q-45 0 -87 -14t-70 -35l-41 106q41 33 101 49t120 17q104 0 160 -60q57 -59 57 -170q0 -66 -18 -128q-17 -62 -47 -123q-30 -60 -69 -118q-40 -58 -83 -116l-76 -66v-4l94 31h230 v-121h-488z" />
<glyph unicode="&#xb3;" horiz-adv-x="675" d="M117 801l26 114q31 -16 67 -25t79 -9q78 0 118 42t37 117q2 66 -33 107q-36 41 -120 41h-90v47l157 244l60 55l-84 -12h-215v116h432v-65l-168 -258l-43 -35v-6l41 6q92 0 144 -65t50 -175q2 -125 -74 -200q-77 -76 -200 -76q-59 0 -104 10t-80 27z" />
<glyph unicode="&#xb4;" horiz-adv-x="501" d="M123 1169l96 306h160v-43l-168 -263h-88z" />
<glyph unicode="&#xb5;" d="M109 -410v1434h147v-618q0 -147 42 -222t138 -75q86 0 143.5 51t84.5 137v727h147v-690q0 -84 4 -169t21 -165h-105l-47 127h-6q-33 -66 -98.5 -109t-159.5 -43q-76 0 -118 27t-71 68h-10l37 -207v-273h-149z" />
<glyph unicode="&#x3bc;" d="M109 -410v1434h147v-618q0 -147 42 -222t138 -75q86 0 143.5 51t84.5 137v727h147v-690q0 -84 4 -169t21 -165h-105l-47 127h-6q-33 -66 -98.5 -109t-159.5 -43q-76 0 -118 27t-71 68h-10l37 -207v-273h-149z" />
<glyph unicode="&#xb6;" horiz-adv-x="825" d="M59 1036q0 80 19.5 153t56.5 127t89 86t120 32h84v-1700h-125v901q-55 0 -99 31.5t-77 87t-50.5 128t-17.5 154.5zM569 -266v1700h125v-1700h-125z" />
<glyph unicode="&#xb7;" horiz-adv-x="436" d="M117 604q0 57 27 86q28 29 75 29t75 -29t28 -86q0 -59 -28 -88t-75 -29t-75 29q-27 29 -27 88z" />
<glyph unicode="&#xb8;" horiz-adv-x="536" d="M123 -418l14 80q47 -4 75 2t42 18.5t18 28t4 29.5q0 57 -141 76l82 184h102l-38 -88q133 -31 133 -154q0 -80 -58.5 -132t-156.5 -52q-41 0 -76 8z" />
<glyph unicode="&#xb9;" horiz-adv-x="675" d="M92 1442l256 211h84v-758h154v-117h-457v117h172v526l12 74l-45 -57l-123 -82z" />
<glyph unicode="&#xba;" horiz-adv-x="661" d="M70 1110q0 94 19.5 160.5t55 108.5t83.5 60.5t104 18.5q55 0 103 -17.5t84 -57.5t55.5 -107.5t19.5 -165.5t-19.5 -165.5t-55.5 -107.5t-84 -57.5t-103 -17.5t-103.5 17.5t-84 57.5t-55 107.5t-19.5 165.5zM203 1110q0 -133 35.5 -184.5t93.5 -51.5q29 0 52.5 10.5 t39.5 36t25.5 71.5t9.5 118q0 70 -9.5 116t-25.5 72.5t-40 37t-52 10.5q-31 0 -54.5 -10.5t-40 -37t-25.5 -72.5t-9 -116z" />
<glyph unicode="&#xbb;" horiz-adv-x="790" d="M57 930l99 67l270 -448l-260 -467l-100 65l165 316l78 84l-78 74zM352 932l105 69l274 -452l-264 -471l-105 67l170 318l78 84l-78 74z" />
<glyph unicode="&#xbc;" horiz-adv-x="1398" d="M70 1239l254 209h84v-875h-132v646l13 73l-45 -59l-121 -84zM246 33l788 1427l101 -55l-787 -1430zM707 193v69l370 615h92v-570h134v-114h-134v-197h-125v197h-337zM838 299l84 8h122v256l15 109h-8l-37 -103l-121 -209z" />
<glyph unicode="&#xbd;" horiz-adv-x="1435" d="M70 1239l254 209h84v-875h-132v646l13 73l-45 -59l-121 -84zM246 33l788 1427l101 -55l-787 -1430zM854 0v66q43 43 99 109q56 67 108 142q51 76 86 156t35 152q0 61 -32 94t-79 33q-45 0 -87 -15q-42 -14 -71 -35l-41 107q41 33 102 49q60 16 120 16q104 0 160 -59 q57 -59 57 -170q0 -66 -18 -128q-17 -62 -47 -123q-30 -60 -69 -119q-40 -58 -83 -115l-76 -66v-4l94 31h229v-121h-487z" />
<glyph unicode="&#xbe;" horiz-adv-x="1454" d="M96 596l27 115q31 -16 66 -26q36 -9 79 -9q78 0 118 42t38 118q2 66 -34 106q-36 41 -120 41h-90v47l158 244l59 55l-84 -12h-215v117h432v-66l-168 -258l-43 -35v-6l41 6q92 0 145 -64q52 -65 50 -175q2 -125 -75 -201t-199 -76q-59 0 -105 10q-45 10 -80 27zM303 33 l789 1427l100 -55l-786 -1430zM764 193v69l371 615h92v-570h133v-114h-133v-197h-125v197h-338zM895 299l84 8h123v256l14 109h-8l-37 -103l-121 -209z" />
<glyph unicode="&#xbf;" horiz-adv-x="733" d="M66 -113q0 88 22 158q23 70 55 128q33 58 72 112q39 53 73 109t56 121q23 65 23 146h122q6 -90 -11 -159q-17 -70 -48 -128t-67 -110q-36 -51 -68 -105q-33 -54 -54 -115q-22 -60 -22 -136q0 -94 41 -152q41 -57 139 -57q59 0 117 21q57 22 102 55l58 -115 q-61 -41 -134 -68t-177 -26q-147 0 -224 86q-76 86 -75 235zM315 932q0 59 28 88t75 29t75 -29q27 -29 27 -88q0 -57 -27 -86q-28 -29 -75 -29t-75 29t-28 86z" />
<glyph unicode="&#xc0;" horiz-adv-x="968" d="M10 0l432 1456h84l432 -1456h-159l-117 401h-406l-114 -401h-152zM225 1739v43h203l190 -242h-133zM317 539h328l-125 442l-39 215h-4l-39 -219z" />
<glyph unicode="&#xc1;" horiz-adv-x="968" d="M10 0l432 1456h84l432 -1456h-159l-117 401h-406l-114 -401h-152zM317 539h328l-125 442l-39 215h-4l-39 -219zM346 1540l191 242h202v-43l-268 -199h-125z" />
<glyph unicode="&#xc2;" horiz-adv-x="968" d="M10 0l432 1456h84l432 -1456h-159l-117 401h-406l-114 -401h-152zM217 1530v45l219 207h103l209 -209v-43h-136l-96 100l-31 72l-30 -70l-107 -102h-131zM317 539h328l-125 442l-39 215h-4l-39 -219z" />
<glyph unicode="&#xc3;" horiz-adv-x="968" d="M10 0l432 1456h84l432 -1456h-159l-117 401h-406l-114 -401h-152zM205 1597q57 70 105 96t91 25q33 0 63 -10t57 -21q28 -11 53 -22q26 -10 53 -10q23 0 44 8q22 8 44 33l53 -76q-49 -57 -92 -78q-43 -20 -80 -20q-31 0 -59 10q-29 10 -57 21t-54 22q-27 10 -55 10 q-29 0 -57 -12t-60 -47zM317 539h328l-125 442l-39 215h-4l-39 -219z" />
<glyph unicode="&#xc4;" horiz-adv-x="968" d="M10 0l432 1456h84l432 -1456h-159l-117 401h-406l-114 -401h-152zM227 1626q0 43 26 70t71 26q43 0 68 -26q26 -27 26 -70t-26 -68q-26 -26 -68 -26q-45 0 -71 26q-26 25 -26 68zM317 539h328l-125 442l-39 215h-4l-39 -219zM551 1626q0 43 26 70t68 26q45 0 71 -26 q26 -27 25 -70q0 -43 -25 -68q-26 -26 -71 -26q-43 0 -68 26q-26 25 -26 68z" />
<glyph unicode="&#xc5;" horiz-adv-x="968" d="M10 0l418 1407q-61 16 -93 58t-32 108q0 76 43 125t141 47q88 2 136.5 -42t48.5 -130q0 -63 -33 -107.5t-98 -58.5l417 -1407h-159l-117 401h-406l-114 -401h-152zM317 539h328l-125 442l-39 215h-4l-39 -219zM414 1573q0 -37 17.5 -60.5t55.5 -23.5q74 0 74 84 q0 88 -74 90q-73 -2 -73 -90z" />
<glyph unicode="&#xc6;" horiz-adv-x="1398" d="M-37 0l686 1434h641v-142h-485v-485h444v-141h-444v-525h493v-141h-647v408h-338l-184 -408h-166zM381 545h270v661h-6l-53 -200z" />
<glyph unicode="&#xc7;" horiz-adv-x="937" d="M88 717q0 205 42 346t111.5 229t161 127t187.5 39q98 0 162.5 -14t111.5 -35l-37 -139q-41 23 -96 35t-127 12t-135 -32t-112.5 -102.5t-78 -185t-28.5 -280.5q0 -299 102.5 -448.5t272.5 -149.5q70 0 125 19.5t94 45.5l37 -129q-43 -37 -106.5 -55t-135.5 -23l-29 -65 q133 -31 133 -154q0 -80 -58 -132t-157 -52q-41 0 -75 8l14 80q47 -4 74.5 2t42 18.5t18.5 28t4 29.5q0 57 -141 76l72 164q-98 8 -181.5 54t-142.5 135t-92 224t-33 324z" />
<glyph unicode="&#xc8;" horiz-adv-x="878" d="M131 0v1434h637v-142h-483v-485h444v-141h-444v-525h493v-141h-647zM154 1739v43h202l191 -242h-133z" />
<glyph unicode="&#xc9;" horiz-adv-x="878" d="M131 0v1434h637v-142h-483v-485h444v-141h-444v-525h493v-141h-647zM338 1540l190 242h203v-43l-268 -199h-125z" />
<glyph unicode="&#xca;" horiz-adv-x="878" d="M131 0v1434h637v-142h-483v-485h444v-141h-444v-525h493v-141h-647zM174 1530v45l219 207h103l209 -209v-43h-136l-96 100l-31 72l-30 -70l-107 -102h-131z" />
<glyph unicode="&#xcb;" horiz-adv-x="878" d="M131 0v1434h637v-142h-483v-485h444v-141h-444v-525h493v-141h-647zM184 1626q0 43 26 70t71 26q43 0 68 -26q26 -27 26 -70t-26 -68q-26 -26 -68 -26q-45 0 -71 26q-26 25 -26 68zM508 1626q0 43 26 70t68 26q45 0 71 -26q26 -27 25 -70q0 -43 -25 -68q-26 -26 -71 -26 q-43 0 -68 26q-26 25 -26 68z" />
<glyph unicode="&#xcc;" horiz-adv-x="477" d="M-2 1739v43h203l190 -242h-133zM162 0v1434h153v-1434h-153z" />
<glyph unicode="&#xcd;" horiz-adv-x="477" d="M98 1540l191 242h203v-43l-269 -199h-125zM162 0v1434h153v-1434h-153z" />
<glyph unicode="&#xce;" horiz-adv-x="477" d="M-27 1530v45l220 207h102l209 -209v-43h-135l-97 100l-30 72l-31 -70l-107 -102h-131zM162 0v1434h153v-1434h-153z" />
<glyph unicode="&#xcf;" horiz-adv-x="477" d="M-16 1626q0 43 25 70q26 27 71 26q43 0 68 -26q26 -27 26 -70t-26 -68q-26 -26 -68 -26q-45 0 -71 26q-25 25 -25 68zM162 0v1434h153v-1434h-153zM307 1626q0 43 26 70t68 26q45 0 71 -26q26 -27 26 -70t-26 -68q-26 -26 -71 -26q-43 0 -68 26q-26 25 -26 68z" />
<glyph unicode="&#xd0;" horiz-adv-x="1087" d="M-2 684v121h145v629q33 6 73 9t81 4t81 2t75 1q150 0 254 -51t169.5 -146.5t94 -228.5t28.5 -297q0 -147 -27.5 -282.5t-93 -238t-173 -163.5t-269.5 -61q-27 0 -67.5 1t-84.5 4t-82 5t-59 6v686h-145zM297 131q8 -2 29.5 -3t45 -2t45 -2t32.5 -1q113 0 188.5 49 t119.5 132t62.5 192.5t18.5 232.5q0 109 -16.5 213.5t-58.5 185t-114.5 131t-187.5 50.5h-44t-46.5 -2t-42 -4.5t-31.5 -4.5v-493h240v-121h-240v-553z" />
<glyph unicode="&#xd1;" horiz-adv-x="1101" d="M131 0v1456h92l531 -930l84 -215h8l-23 215v908h148v-1457h-94l-527 932l-88 226h-6l23 -226v-909h-148zM276 1597q57 70 106 96q48 26 91 25q33 0 63 -10t57 -21q28 -11 53 -22q26 -10 52 -10q23 0 44 8q22 8 44 33l54 -76q-49 -57 -92 -78q-43 -20 -80 -20 q-31 0 -60 10t-56 21q-28 11 -54 22q-27 10 -56 10t-56 -12q-28 -12 -60 -47z" />
<glyph unicode="&#xd2;" horiz-adv-x="1124" d="M88 717q0 365 117 553t356 188q129 0 219 -52t147 -149q56 -96 83 -233t26 -307q0 -365 -117 -553q-118 -188 -358 -189q-127 0 -217 53q-90 52 -147 148t-83 234q-26 137 -26 307zM250 717q0 -121 17 -230t55 -190q37 -82 96 -131t143 -49q154 0 234 147t79 453 q0 119 -17 227q-17 109 -54 192t-96 132t-146 49q-152 0 -231 -148q-80 -147 -80 -452zM289 1739v43h203l190 -242h-133z" />
<glyph unicode="&#xd3;" horiz-adv-x="1124" d="M88 717q0 365 117 553t356 188q129 0 219 -52t147 -149q56 -96 83 -233t26 -307q0 -365 -117 -553q-118 -188 -358 -189q-127 0 -217 53q-90 52 -147 148t-83 234q-26 137 -26 307zM250 717q0 -121 17 -230t55 -190q37 -82 96 -131t143 -49q154 0 234 147t79 453 q0 119 -17 227q-17 109 -54 192t-96 132t-146 49q-152 0 -231 -148q-80 -147 -80 -452zM496 1540l190 242h203v-43l-268 -199h-125z" />
<glyph unicode="&#xd4;" horiz-adv-x="1124" d="M88 717q0 365 117 553t356 188q129 0 219 -52t147 -149q56 -96 83 -233t26 -307q0 -365 -117 -553q-118 -188 -358 -189q-127 0 -217 53q-90 52 -147 148t-83 234q-26 137 -26 307zM250 717q0 -121 17 -230t55 -190q37 -82 96 -131t143 -49q154 0 234 147t79 453 q0 119 -17 227q-17 109 -54 192t-96 132t-146 49q-152 0 -231 -148q-80 -147 -80 -452zM293 1530v45l219 207h102l209 -209v-43h-135l-96 100l-31 72l-31 -70l-106 -102h-131z" />
<glyph unicode="&#xd5;" horiz-adv-x="1124" d="M88 717q0 365 117 553t356 188q129 0 219 -52t147 -149q56 -96 83 -233t26 -307q0 -365 -117 -553q-118 -188 -358 -189q-127 0 -217 53q-90 52 -147 148t-83 234q-26 137 -26 307zM250 717q0 -121 17 -230t55 -190q37 -82 96 -131t143 -49q154 0 234 147t79 453 q0 119 -17 227q-17 109 -54 192t-96 132t-146 49q-152 0 -231 -148q-80 -147 -80 -452zM285 1597q57 70 105 96t91 25q33 0 63 -10t57 -21q28 -11 53 -22q26 -10 53 -10q23 0 44 8q22 8 44 33l53 -76q-49 -57 -92 -78q-43 -20 -80 -20q-31 0 -60 10t-56 21q-28 11 -54 22 q-27 10 -55 10q-29 0 -57 -12t-60 -47z" />
<glyph unicode="&#xd6;" horiz-adv-x="1124" d="M88 717q0 365 117 553t356 188q129 0 219 -52t147 -149q56 -96 83 -233t26 -307q0 -365 -117 -553q-118 -188 -358 -189q-127 0 -217 53q-90 52 -147 148t-83 234q-26 137 -26 307zM250 717q0 -121 17 -230t55 -190q37 -82 96 -131t143 -49q154 0 234 147t79 453 q0 119 -17 227q-17 109 -54 192t-96 132t-146 49q-152 0 -231 -148q-80 -147 -80 -452zM305 1626q0 43 26 70t70 26q43 0 69 -26q26 -27 26 -70t-26 -68q-26 -26 -69 -26q-45 0 -70 26q-26 25 -26 68zM629 1626q0 43 25 70q26 27 69 26q45 0 71 -26q26 -27 25 -70 q0 -43 -25 -68q-26 -26 -71 -26q-43 0 -69 26q-25 25 -25 68z" />
<glyph unicode="&#xd7;" horiz-adv-x="849" d="M109 426l227 268l-225 262l102 95l213 -250l215 250l100 -95l-223 -262l223 -266l-100 -92l-215 250l-215 -252z" />
<glyph unicode="&#xd8;" horiz-adv-x="1124" d="M88 717q0 365 117 553t356 188q92 0 165 -27.5t126 -78.5l61 108l99 -55l-84 -150q57 -98 82.5 -233t25.5 -305q0 -365 -117.5 -553.5t-357.5 -188.5q-178 0 -287 103l-55 -103l-100 58l78 141q-57 98 -83 234.5t-26 308.5zM250 717q0 -100 11 -191.5t36 -169.5l471 844 q-37 55 -88 86t-119 31q-152 0 -231.5 -147.5t-79.5 -452.5zM358 227q37 -53 87.5 -81.5t115.5 -28.5q154 0 233.5 147.5t79.5 452.5q0 98 -11 188t-36 166z" />
<glyph unicode="&#xd9;" horiz-adv-x="1067" d="M131 440v994h154v-914q0 -111 14 -186q14 -76 47 -123t82 -68q49 -20 121 -20q135 0 187 94t52 303v914h148v-961q0 -260 -101 -376t-288 -115q-217 0 -317 112q-99 113 -99 346zM274 1739v43h203l191 -242h-133z" />
<glyph unicode="&#xda;" horiz-adv-x="1067" d="M131 440v994h154v-914q0 -111 14 -186q14 -76 47 -123t82 -68q49 -20 121 -20q135 0 187 94t52 303v914h148v-961q0 -260 -101 -376t-288 -115q-217 0 -317 112q-99 113 -99 346zM446 1540l191 242h203v-43l-269 -199h-125z" />
<glyph unicode="&#xdb;" horiz-adv-x="1067" d="M131 440v994h154v-914q0 -111 14 -186q14 -76 47 -123t82 -68q49 -20 121 -20q135 0 187 94t52 303v914h148v-961q0 -260 -101 -376t-288 -115q-217 0 -317 112q-99 113 -99 346zM272 1530v45l220 207h102l209 -209v-43h-135l-97 100l-30 72l-31 -70l-107 -102h-131z" />
<glyph unicode="&#xdc;" horiz-adv-x="1067" d="M131 440v994h154v-914q0 -111 14 -186q14 -76 47 -123t82 -68q49 -20 121 -20q135 0 187 94t52 303v914h148v-961q0 -260 -101 -376t-288 -115q-217 0 -317 112q-99 113 -99 346zM276 1626q0 43 26 70t71 26q43 0 68 -26q26 -27 26 -70t-26 -68q-26 -26 -68 -26 q-45 0 -71 26q-26 25 -26 68zM600 1626q0 43 26 70t68 26q45 0 71 -26q26 -27 26 -70t-26 -68q-26 -26 -71 -26q-43 0 -68 26q-26 25 -26 68z" />
<glyph unicode="&#xdd;" horiz-adv-x="931" d="M10 1434h180l259 -625l26 -125h4l27 129l250 621h166l-377 -863v-571h-154v569zM387 1540l191 242h202v-43l-268 -199h-125z" />
<glyph unicode="&#xde;" horiz-adv-x="925" d="M133 0v1434h154v-160q63 6 131 6q82 0 161.5 -19.5t144 -68.5t104.5 -135t40 -219q0 -129 -37.5 -219.5t-100 -145.5t-143.5 -80.5t-167 -25.5h-26.5t-39 1t-40 3t-27.5 4v-375h-154zM287 516q8 -4 25.5 -5t36 -3t35.5 -2h26q57 0 110 14.5t94 52t67 102t26 165.5 q0 84 -24 141t-61.5 93t-89 51.5t-106.5 15.5q-41 0 -79 -2t-60 -9v-614z" />
<glyph unicode="&#xdf;" horiz-adv-x="999" d="M33 891v133h125v51q0 203 85 287t230 84q68 0 126 -18.5t102 -54.5t69 -88t25 -120t-33 -116t-71 -86.5t-70.5 -77.5t-32.5 -88q0 -47 25.5 -80t63.5 -61.5t83 -58.5t83 -71t63.5 -99t25.5 -144q0 -57 -20.5 -112.5t-59.5 -98.5t-96.5 -70t-132.5 -27q-76 0 -124 12.5 t-93 41.5l40 125q43 -25 75 -36.5t89 -11.5q70 0 122 47.5t52 125.5q0 63 -25.5 105t-64.5 73.5t-83 59.5t-83 63.5t-64.5 85t-25.5 125.5q0 68 33 114.5t72 86.5t71.5 79t32.5 88q0 35 -15.5 63.5t-40 48t-54 31t-60.5 11.5q-45 0 -77.5 -13.5t-53 -46t-31 -89 t-10.5 -142.5v-1022h-147v891h-125z" />
<glyph unicode="&#xe0;" horiz-adv-x="819" d="M59 274q0 88 30 148q30 59 84 96t129 52t167 16h41q20 0 43 -2q6 63 6 112q0 117 -35 164t-127 47q-57 0 -125 -17t-112 -44l-49 117q59 37 144 57t179 20q86 0 138 -25q52 -26 82 -70t39 -100t9 -118q0 -123 -5 -240t-5 -221q0 -78 5 -144q5 -67 20 -126h-113l-35 121 h-8q-31 -53 -90 -92t-160 -39q-111 0 -181 76q-71 77 -71 212zM213 291q0 -82 40 -127t103 -45q86 0 133 41t66 90v217q-20 2 -41 3q-20 1 -41 1q-49 0 -96 -8t-84 -29q-37 -20 -59 -55t-21 -88zM223 1432v43h170l107 -306h-84z" />
<glyph unicode="&#xe1;" horiz-adv-x="819" d="M59 274q0 88 30 148q30 59 84 96t129 52t167 16h41q20 0 43 -2q6 63 6 112q0 117 -35 164t-127 47q-57 0 -125 -17t-112 -44l-49 117q59 37 144 57t179 20q86 0 138 -25q52 -26 82 -70t39 -100t9 -118q0 -123 -5 -240t-5 -221q0 -78 5 -144q5 -67 20 -126h-113l-35 121 h-8q-31 -53 -90 -92t-160 -39q-111 0 -181 76q-71 77 -71 212zM213 291q0 -82 40 -127t103 -45q86 0 133 41t66 90v217q-20 2 -41 3q-20 1 -41 1q-49 0 -96 -8t-84 -29q-37 -20 -59 -55t-21 -88zM301 1169l96 306h160v-43l-168 -263h-88z" />
<glyph unicode="&#xe2;" horiz-adv-x="819" d="M59 274q0 88 30 148q30 59 84 96t129 52t167 16h41q20 0 43 -2q6 63 6 112q0 117 -35 164t-127 47q-57 0 -125 -17t-112 -44l-49 117q59 37 144 57t179 20q86 0 138 -25q52 -26 82 -70t39 -100t9 -118q0 -123 -5 -240t-5 -221q0 -78 5 -144q5 -67 20 -126h-113l-35 121 h-8q-31 -53 -90 -92t-160 -39q-111 0 -181 76q-71 77 -71 212zM186 1126l203 373h72l182 -373h-129l-65 136l-33 118l-35 -118l-74 -136h-121zM213 291q0 -82 40 -127t103 -45q86 0 133 41t66 90v217q-20 2 -41 3q-20 1 -41 1q-49 0 -96 -8t-84 -29q-37 -20 -59 -55t-21 -88 z" />
<glyph unicode="&#xe3;" horiz-adv-x="819" d="M59 274q0 88 30 148q30 59 84 96t129 52t167 16h41q20 0 43 -2q6 63 6 112q0 117 -35 164t-127 47q-57 0 -125 -17t-112 -44l-49 117q59 37 144 57t179 20q86 0 138 -25q52 -26 82 -70t39 -100t9 -118q0 -123 -5 -240t-5 -221q0 -78 5 -144q5 -67 20 -126h-113l-35 121 h-8q-31 -53 -90 -92t-160 -39q-111 0 -181 76q-71 77 -71 212zM164 1337q55 70 98 96t78 25q29 0 53 -12q25 -12 48 -26q24 -13 45 -25q22 -12 46 -13q18 0 38 10q19 9 42 33l47 -77q-49 -59 -87 -82t-70 -23q-29 0 -53 11q-25 11 -49 26q-24 14 -46 26q-23 11 -47 11 q-23 0 -45 -11q-23 -11 -49 -40zM213 291q0 -82 40 -127t103 -45q86 0 133 41t66 90v217q-20 2 -41 3q-20 1 -41 1q-49 0 -96 -8t-84 -29q-37 -20 -59 -55t-21 -88z" />
<glyph unicode="&#xe4;" horiz-adv-x="819" d="M59 274q0 88 30 148q30 59 84 96t129 52t167 16h41q20 0 43 -2q6 63 6 112q0 117 -35 164t-127 47q-57 0 -125 -17t-112 -44l-49 117q59 37 144 57t179 20q86 0 138 -25q52 -26 82 -70t39 -100t9 -118q0 -123 -5 -240t-5 -221q0 -78 5 -144q5 -67 20 -126h-113l-35 121 h-8q-31 -53 -90 -92t-160 -39q-111 0 -181 76q-71 77 -71 212zM160 1337q0 47 23 74q24 27 65 27t64 -27q24 -27 24 -74q0 -43 -24 -69q-24 -27 -64 -27q-41 0 -65 27q-23 26 -23 69zM213 291q0 -82 40 -127t103 -45q86 0 133 41t66 90v217q-20 2 -41 3q-20 1 -41 1 q-49 0 -96 -8t-84 -29q-37 -20 -59 -55t-21 -88zM485 1337q0 47 24 74t64 27q41 0 65 -27t24 -74q0 -43 -24 -69q-24 -27 -65 -27t-64 27q-24 26 -24 69z" />
<glyph unicode="&#xe5;" horiz-adv-x="819" d="M59 274q0 88 30 148q30 59 84 96t129 52t167 16h41q20 0 43 -2q6 63 6 112q0 117 -35 164t-127 47q-57 0 -125 -17t-112 -44l-49 117q59 37 144 57t179 20q86 0 138 -25q52 -26 82 -70t39 -100t9 -118q0 -123 -5 -240t-5 -221q0 -78 5 -144q5 -67 20 -126h-113l-35 121 h-8q-31 -53 -90 -92t-160 -39q-111 0 -181 76q-71 77 -71 212zM213 291q0 -82 40 -127t103 -45q86 0 133 41t66 90v217q-20 2 -41 3q-20 1 -41 1q-49 0 -96 -8t-84 -29q-37 -20 -59 -55t-21 -88zM242 1317q0 86 45 134t123 48q74 0 121 -43q48 -43 49 -139q0 -82 -46 -131 t-124 -49t-123 46t-45 134zM340 1317q0 -47 20 -71t50 -23q33 0 52 22q19 23 19 72t-21 73q-22 24 -50 23q-29 0 -50 -22q-20 -23 -20 -74z" />
<glyph unicode="&#xe6;" horiz-adv-x="1314" d="M59 279q0 90 30 150t83 96t127 52q74 15 164 15q23 0 45 -1q23 -1 45 -3q6 63 6 112q0 117 -35 163t-127 46q-57 0 -127 -20t-116 -53l-45 114q63 47 148 69t177 21q172 0 223 -131q41 74 114 107t144 33q57 0 114 -16q56 -15 101 -59t73 -123t28 -204q0 -35 -3 -74 t-7 -81h-519q2 -188 58 -286q55 -97 194 -97q57 0 113 20q55 20 84 45l53 -108q-51 -41 -125 -66t-164 -25q-102 0 -182 44t-119 131h-12q-41 -72 -112 -119t-175 -47q-115 0 -185 79q-71 80 -71 216zM213 295q0 -72 39 -125t102 -53q43 0 77 13t58 35q25 22 41 47 q16 26 25 52v207q-20 2 -41 3q-20 1 -41 1q-49 0 -96 -8t-84 -29q-37 -20 -59 -55t-21 -88zM702 612h385q4 154 -41 229q-47 74 -131 74q-92 0 -147 -73q-55 -74 -66 -230z" />
<glyph unicode="&#xe7;" horiz-adv-x="729" d="M76 512q0 262 93 399.5t267 137.5q80 0 137.5 -14.5t98.5 -37.5l-41 -127q-78 45 -178 45q-111 0 -167.5 -97t-56.5 -306q0 -84 12.5 -156.5t41 -127t73.5 -85t113 -30.5q53 0 99 17t75 42l43 -121q-41 -31 -90 -48t-102 -23l-29 -68q133 -31 133 -154q0 -80 -58.5 -132 t-156.5 -52q-41 0 -76 8l15 80q47 -4 74.5 2t42 18.5t18.5 28t4 29.5q0 57 -142 76l72 161q-86 8 -146.5 50.5t-97 111t-54 163.5t-17.5 210z" />
<glyph unicode="&#xe8;" horiz-adv-x="845" d="M76 512q0 262 96 399t272 138q57 0 114 -15q56 -14 101 -57t73 -121t28 -203q0 -35 -3 -74q-3 -40 -7 -83h-521q0 -88 15 -160q14 -72 45 -122t79 -78t119 -27q55 0 110 20q54 20 83 49l53 -108q-49 -45 -125 -70t-159 -25q-96 0 -167 38t-117 109t-68 169t-21 221z M231 618h387q4 154 -43 226t-129 71q-94 0 -149 -71q-55 -72 -66 -226zM258 1432v43h170l107 -306h-84z" />
<glyph unicode="&#xe9;" horiz-adv-x="845" d="M76 512q0 262 96 399t272 138q57 0 114 -15q56 -14 101 -57t73 -121t28 -203q0 -35 -3 -74q-3 -40 -7 -83h-521q0 -88 15 -160q14 -72 45 -122t79 -78t119 -27q55 0 110 20q54 20 83 49l53 -108q-49 -45 -125 -70t-159 -25q-96 0 -167 38t-117 109t-68 169t-21 221z M231 618h387q4 154 -43 226t-129 71q-94 0 -149 -71q-55 -72 -66 -226zM379 1169l96 306h160v-43l-168 -263h-88z" />
<glyph unicode="&#xea;" horiz-adv-x="845" d="M76 512q0 262 96 399t272 138q57 0 114 -15q56 -14 101 -57t73 -121t28 -203q0 -35 -3 -74q-3 -40 -7 -83h-521q0 -88 15 -160q14 -72 45 -122t79 -78t119 -27q55 0 110 20q54 20 83 49l53 -108q-49 -45 -125 -70t-159 -25q-96 0 -167 38t-117 109t-68 169t-21 221z M201 1126l202 373h72l182 -373h-129l-65 136l-33 118l-35 -118l-73 -136h-121zM231 618h387q4 154 -43 226t-129 71q-94 0 -149 -71q-55 -72 -66 -226z" />
<glyph unicode="&#xeb;" horiz-adv-x="845" d="M76 512q0 262 96 399t272 138q57 0 114 -15q56 -14 101 -57t73 -121t28 -203q0 -35 -3 -74q-3 -40 -7 -83h-521q0 -88 15 -160q14 -72 45 -122t79 -78t119 -27q55 0 110 20q54 20 83 49l53 -108q-49 -45 -125 -70t-159 -25q-96 0 -167 38t-117 109t-68 169t-21 221z M190 1337q0 47 24 74t65 27t64 -27q24 -27 24 -74q0 -43 -24 -69q-24 -27 -64 -27q-41 0 -65 27q-24 26 -24 69zM231 618h387q4 154 -43 226t-129 71q-94 0 -149 -71q-55 -72 -66 -226zM516 1337q0 47 24 74t64 27q41 0 65 -27t23 -74q0 -43 -23 -69q-24 -27 -65 -27t-64 27 q-24 26 -24 69z" />
<glyph unicode="&#xec;" horiz-adv-x="444" d="M10 1432v43h170l107 -306h-84zM147 0v1024h148v-1024h-148z" />
<glyph unicode="&#xed;" horiz-adv-x="444" d="M147 0v1024h148v-1024h-148zM156 1169l96 306h160v-43l-168 -263h-88z" />
<glyph unicode="&#xee;" horiz-adv-x="444" d="M-10 1126l203 373h71l182 -373h-129l-65 136l-33 118l-35 -118l-73 -136h-121zM147 0v1024h148v-1024h-148z" />
<glyph unicode="&#xef;" horiz-adv-x="444" d="M-27 1337q0 47 24 74t64 27q41 0 65 -27t24 -74q0 -43 -24 -69q-24 -27 -65 -27t-64 27q-24 26 -24 69zM147 0v1024h148v-1024h-148zM299 1337q0 47 24 74t64 27q41 0 65 -27t23 -74q0 -43 -23 -69q-24 -27 -65 -27t-64 27q-24 26 -24 69z" />
<glyph unicode="&#xf0;" d="M84 514q0 117 24.5 214t72.5 168t117 109.5t157 38.5q72 0 127 -24.5t84 -61.5q-23 78 -57 142.5t-77 116.5l-135 -89l-51 78l117 78q-66 53 -137 84l65 90q33 -16 78 -40.5t94 -67.5l123 82l49 -80l-102 -68q41 -47 78 -110.5t65.5 -146.5t45 -187.5t16.5 -233.5 q0 -176 -30 -296t-81 -194.5t-119.5 -107.5t-148.5 -33q-98 0 -170 39t-117 110t-66.5 170t-21.5 220zM236 514q0 -215 65.5 -309t167.5 -94q47 0 88 26.5t70.5 84t47 149.5t17.5 223q0 20 -1 50t-3 59.5t-5 56t-5 43.5q-29 53 -88.5 79.5t-118.5 26.5q-61 0 -105 -28.5 t-74 -80.5t-43 -125t-13 -161z" />
<glyph unicode="&#xf1;" horiz-adv-x="899" d="M121 0v1024h106l27 -109h6q39 55 106 95q67 39 158 39q66 0 116 -19q50 -18 84 -62t51 -118t18 -186v-664h-148v625q0 154 -36 222q-36 69 -128 68q-82 0 -135 -49t-78 -121v-745h-147zM205 1337q55 70 98 96t78 25q29 0 53 -12q25 -12 48 -26q24 -13 45 -25 q22 -12 46 -13q18 0 38 10q19 9 42 33l47 -77q-49 -59 -87 -82t-70 -23q-29 0 -54 11t-48 26q-24 14 -46 26q-23 11 -47 11q-23 0 -45 -11q-23 -11 -49 -40z" />
<glyph unicode="&#xf2;" horiz-adv-x="884" d="M76 512q0 276 95 407q95 130 271 130q188 0 278 -134q89 -133 89 -403q0 -279 -96 -408t-271 -129q-188 0 -277 134q-89 133 -89 403zM229 512q0 -90 12 -164q11 -74 37 -127t66 -83q41 -30 98 -29q106 0 160 95q53 95 53 308q0 88 -11 163t-37 128t-66 83q-41 30 -99 29 q-104 0 -158 -96q-55 -96 -55 -307zM244 1432v43h170l106 -306h-84z" />
<glyph unicode="&#xf3;" horiz-adv-x="884" d="M76 512q0 276 95 407q95 130 271 130q188 0 278 -134q89 -133 89 -403q0 -279 -96 -408t-271 -129q-188 0 -277 134q-89 133 -89 403zM229 512q0 -90 12 -164q11 -74 37 -127t66 -83q41 -30 98 -29q106 0 160 95q53 95 53 308q0 88 -11 163t-37 128t-66 83q-41 30 -99 29 q-104 0 -158 -96q-55 -96 -55 -307zM369 1169l96 306h160v-43l-168 -263h-88z" />
<glyph unicode="&#xf4;" horiz-adv-x="884" d="M76 512q0 276 95 407q95 130 271 130q188 0 278 -134q89 -133 89 -403q0 -279 -96 -408t-271 -129q-188 0 -277 134q-89 133 -89 403zM219 1126l203 373h72l182 -373h-129l-66 136l-32 118l-35 -118l-74 -136h-121zM229 512q0 -90 12 -164q11 -74 37 -127t66 -83 q41 -30 98 -29q106 0 160 95q53 95 53 308q0 88 -11 163t-37 128t-66 83q-41 30 -99 29q-104 0 -158 -96q-55 -96 -55 -307z" />
<glyph unicode="&#xf5;" horiz-adv-x="884" d="M76 512q0 276 95 407q95 130 271 130q188 0 278 -134q89 -133 89 -403q0 -279 -96 -408t-271 -129q-188 0 -277 134q-89 133 -89 403zM197 1337q55 70 98 96t78 25q29 0 53 -12q25 -12 48 -26q24 -13 45 -25q22 -12 46 -13q18 0 38 10q19 9 42 33l47 -77q-49 -59 -87 -82 t-70 -23q-29 0 -54 11t-48 26q-24 14 -46 26q-23 11 -47 11q-23 0 -45 -11q-23 -11 -49 -40zM229 512q0 -90 12 -164q11 -74 37 -127t66 -83q41 -30 98 -29q106 0 160 95q53 95 53 308q0 88 -11 163t-37 128t-66 83q-41 30 -99 29q-104 0 -158 -96q-55 -96 -55 -307z" />
<glyph unicode="&#xf6;" horiz-adv-x="884" d="M76 512q0 276 95 407q95 130 271 130q188 0 278 -134q89 -133 89 -403q0 -279 -96 -408t-271 -129q-188 0 -277 134q-89 133 -89 403zM193 1337q0 47 23 74q24 27 65 27t64 -27q24 -27 24 -74q0 -43 -24 -69q-24 -27 -64 -27q-41 0 -65 27q-23 26 -23 69zM229 512 q0 -90 12 -164q11 -74 37 -127t66 -83q41 -30 98 -29q106 0 160 95q53 95 53 308q0 88 -11 163t-37 128t-66 83q-41 30 -99 29q-104 0 -158 -96q-55 -96 -55 -307zM518 1337q0 47 24 74t64 27q41 0 65 -27t23 -74q0 -43 -23 -69q-24 -27 -65 -27t-64 27q-24 26 -24 69z" />
<glyph unicode="&#xf7;" horiz-adv-x="849" d="M72 627v137h704v-137h-704zM322 350q0 57 27.5 86t74.5 29t74.5 -28.5t27.5 -86.5q0 -59 -27.5 -88t-74.5 -29t-74.5 29t-27.5 88zM322 1040q0 57 27.5 86t74.5 29t74.5 -28.5t27.5 -86.5q0 -59 -27.5 -87.5t-74.5 -28.5t-74.5 28.5t-27.5 87.5z" />
<glyph unicode="&#xf8;" horiz-adv-x="892" d="M82 512q0 268 95 402.5t272 134.5q119 0 200 -60l39 66l100 -62l-55 -98q41 -68 61.5 -164t20.5 -219q0 -272 -95 -404.5t-271 -132.5q-127 0 -211 66l-43 -70l-101 66l62 104q-74 135 -74 371zM236 512q0 -61 4 -116.5t16 -102.5l322 563q-25 29 -57 44t-72 15 q-104 0 -158.5 -96t-54.5 -307zM309 178q53 -70 140 -69q106 0 159.5 96t53.5 307q0 66 -5.5 124t-19.5 105z" />
<glyph unicode="&#xf9;" horiz-adv-x="888" d="M106 360v664h148v-627q0 -156 32 -222q32 -67 115 -66q43 0 77 17t61 46t47 66t32 75v711h148v-733q0 -74 5 -153t15 -138h-104l-37 143h-6q-35 -68 -100 -117q-66 -50 -164 -51q-66 0 -115 17q-49 16 -84 59t-52 118t-18 191zM233 1432v43h170l107 -306h-84z" />
<glyph unicode="&#xfa;" horiz-adv-x="888" d="M106 360v664h148v-627q0 -156 32 -222q32 -67 115 -66q43 0 77 17t61 46t47 66t32 75v711h148v-733q0 -74 5 -153t15 -138h-104l-37 143h-6q-35 -68 -100 -117q-66 -50 -164 -51q-66 0 -115 17q-49 16 -84 59t-52 118t-18 191zM367 1169l96 306h160v-43l-168 -263h-88z " />
<glyph unicode="&#xfb;" horiz-adv-x="888" d="M106 360v664h148v-627q0 -156 32 -222q32 -67 115 -66q43 0 77 17t61 46t47 66t32 75v711h148v-733q0 -74 5 -153t15 -138h-104l-37 143h-6q-35 -68 -100 -117q-66 -50 -164 -51q-66 0 -115 17q-49 16 -84 59t-52 118t-18 191zM213 1126l203 373h71l183 -373h-129 l-66 136l-33 118l-34 -118l-74 -136h-121z" />
<glyph unicode="&#xfc;" horiz-adv-x="888" d="M106 360v664h148v-627q0 -156 32 -222q32 -67 115 -66q43 0 77 17t61 46t47 66t32 75v711h148v-733q0 -74 5 -153t15 -138h-104l-37 143h-6q-35 -68 -100 -117q-66 -50 -164 -51q-66 0 -115 17q-49 16 -84 59t-52 118t-18 191zM195 1337q0 47 23 74q24 27 65 27t64 -27 q24 -27 24 -74q0 -43 -24 -69q-24 -27 -64 -27q-41 0 -65 27q-23 26 -23 69zM520 1337q0 47 24 74t64 27q41 0 65 -27t23 -74q0 -43 -23 -69q-24 -27 -65 -27t-64 27q-24 26 -24 69z" />
<glyph unicode="&#xfd;" horiz-adv-x="770" d="M14 1024h168l193 -662l43 -198h10l31 198l155 662h150l-244 -920q-29 -111 -57 -206q-29 -96 -63 -167t-75 -111q-42 -40 -100 -40q-57 0 -100 19l25 139q29 -10 57 -4q29 6 54 35q26 29 47 85q22 56 38 146zM352 1169l97 306h159v-43l-168 -263h-88z" />
<glyph unicode="&#xfe;" horiz-adv-x="890" d="M121 -410v1844h147v-492h6q33 49 87.5 78t132.5 29q162 0 241.5 -121t79.5 -396q0 -129 -26.5 -232t-75.5 -175t-119 -111t-156 -39q-59 0 -97 8.5t-73 26.5v-420h-147zM268 160q29 -25 65 -38t95 -13q109 0 171.5 110.5t62.5 315.5q0 86 -11.5 155.5t-35 119.5 t-62.5 77.5t-94 27.5q-72 0 -121 -46t-70 -128v-581z" />
<glyph unicode="&#xff;" horiz-adv-x="770" d="M14 1024h168l193 -662l43 -198h10l31 198l155 662h150l-244 -920q-29 -111 -57 -206q-29 -96 -63 -167t-75 -111q-42 -40 -100 -40q-57 0 -100 19l25 139q29 -10 57 -4q29 6 54 35q26 29 47 85q22 56 38 146zM135 1337q0 47 24 74t64 27q41 0 65 -27t23 -74 q0 -43 -23 -69q-24 -27 -65 -27t-64 27q-24 26 -24 69zM461 1337q0 47 23 74q24 27 65 27t64 -27q24 -27 24 -74q0 -43 -24 -69q-24 -27 -64 -27q-41 0 -65 27q-23 26 -23 69z" />
<glyph unicode="&#x100;" horiz-adv-x="968" d="M10 0l432 1456h84l432 -1456h-159l-117 401h-406l-114 -401h-152zM219 1599v127h531v-127h-531zM317 539h328l-125 442l-39 215h-4l-39 -219z" />
<glyph unicode="&#x101;" horiz-adv-x="819" d="M59 274q0 88 30 148q30 59 84 96t129 52t167 16h41q20 0 43 -2q6 63 6 112q0 117 -35 164t-127 47q-57 0 -125 -17t-112 -44l-49 117q59 37 144 57t179 20q86 0 138 -25q52 -26 82 -70t39 -100t9 -118q0 -123 -5 -240t-5 -221q0 -78 5 -144q5 -67 20 -126h-113l-35 121 h-8q-31 -53 -90 -92t-160 -39q-111 0 -181 76q-71 77 -71 212zM156 1196v121h497v-121h-497zM213 291q0 -82 40 -127t103 -45q86 0 133 41t66 90v217q-20 2 -41 3q-20 1 -41 1q-49 0 -96 -8t-84 -29q-37 -20 -59 -55t-21 -88z" />
<glyph unicode="&#x102;" horiz-adv-x="968" d="M10 0l432 1456h84l432 -1456h-159l-117 401h-406l-114 -401h-152zM195 1743l77 41q29 -70 86 -113t136 -43q80 0 132 46t79 110l73 -33q-31 -129 -111 -192q-81 -63 -175 -64q-88 0 -174 59q-85 59 -123 189zM317 539h328l-125 442l-39 215h-4l-39 -219z" />
<glyph unicode="&#x103;" horiz-adv-x="819" d="M59 274q0 88 30 148q30 59 84 96t129 52t167 16h41q20 0 43 -2q6 63 6 112q0 117 -35 164t-127 47q-57 0 -125 -17t-112 -44l-49 117q59 37 144 57t179 20q86 0 138 -25q52 -26 82 -70t39 -100t9 -118q0 -123 -5 -240t-5 -221q0 -78 5 -144q5 -67 20 -126h-113l-35 121 h-8q-31 -53 -90 -92t-160 -39q-111 0 -181 76q-71 77 -71 212zM154 1432l79 36q29 -74 78 -117q49 -44 109 -44q57 0 101 43t71 118l76 -30q-4 -53 -26 -102q-22 -48 -54 -84q-33 -36 -77 -57q-44 -22 -93 -21q-96 0 -169 67q-73 68 -95 191zM213 291q0 -82 40 -127t103 -45 q86 0 133 41t66 90v217q-20 2 -41 3q-20 1 -41 1q-49 0 -96 -8t-84 -29q-37 -20 -59 -55t-21 -88z" />
<glyph unicode="&#x104;" horiz-adv-x="968" d="M10 0l432 1456h84l432 -1456h-43q-45 -33 -70.5 -78t-25.5 -102q2 -59 40 -91t114 -1l20 -82q-23 -23 -64.5 -35t-80.5 -12q-82 0 -129 49t-49 127q2 78 38.5 134t100.5 91h-10l-117 401h-406l-114 -401h-152zM317 539h328l-125 442l-39 215h-4l-39 -219z" />
<glyph unicode="&#x105;" horiz-adv-x="819" d="M59 274q0 88 30 147.5t84 96.5t129 52.5t167 15.5h40.5t43.5 -2q6 63 6 114q0 117 -35 163t-127 46q-57 0 -124.5 -17.5t-112.5 -43.5l-49 117q59 37 144 57t179 20q86 0 138.5 -25.5t82 -69.5t38.5 -100.5t9 -117.5q0 -123 -5 -239.5t-5 -221.5q0 -78 5 -144.5 t20 -125.5h-39q-43 -33 -67.5 -77t-24.5 -99q2 -59 40 -91t113 -1l21 -82q-23 -23 -65 -35t-81 -12q-82 0 -130 49t-48 127q0 86 45 144t117 93l-29 105h-8q-31 -53 -90 -92t-160 -39q-111 0 -181.5 76.5t-70.5 211.5zM213 291q0 -82 39 -127t102 -45q86 0 134.5 41t66.5 90 v217q-20 2 -41.5 3t-42.5 1q-49 0 -96 -8t-83 -28.5t-57.5 -55.5t-21.5 -88z" />
<glyph unicode="&#x106;" horiz-adv-x="937" d="M88 717q0 205 42 346t112 229t160 127q91 39 188 39q98 0 163 -14t111 -35l-37 -139q-41 23 -96 35t-127 12t-135 -32t-113 -102q-49 -71 -77 -186q-29 -115 -29 -280q0 -299 102 -450t273 -150q70 0 125 19t94 46l37 -127q-51 -43 -129 -61t-164 -19q-109 0 -201 41 t-159 130t-103 231q-37 141 -37 340zM487 1540l191 242h203v-43l-269 -199h-125z" />
<glyph unicode="&#x107;" horiz-adv-x="729" d="M76 512q0 262 93 399t267 138q80 0 137 -15q57 -14 99 -37l-41 -129q-82 47 -178 47q-111 0 -167 -97t-57 -306q0 -84 13 -158q12 -74 41 -128t73 -86q45 -32 113 -31q53 0 99 18t75 43l43 -119q-51 -39 -117 -57t-137 -19q-98 0 -166 38t-109 109q-42 71 -62 170 q-19 99 -19 220zM379 1169l96 306h160v-43l-168 -263h-88z" />
<glyph unicode="&#x108;" horiz-adv-x="937" d="M88 717q0 205 42 346t112 229t160 127q91 39 188 39q98 0 163 -14t111 -35l-37 -139q-41 23 -96 35t-127 12t-135 -32t-113 -102q-49 -71 -77 -186q-29 -115 -29 -280q0 -299 102 -450t273 -150q70 0 125 19t94 46l37 -127q-51 -43 -129 -61t-164 -19q-109 0 -201 41 t-159 130t-103 231q-37 141 -37 340zM303 1530v45l219 207h103l209 -209v-43h-136l-96 100l-31 72l-30 -70l-107 -102h-131z" />
<glyph unicode="&#x109;" horiz-adv-x="729" d="M76 512q0 262 93 399t267 138q80 0 137 -15q57 -14 99 -37l-41 -129q-82 47 -178 47q-111 0 -167 -97t-57 -306q0 -84 13 -158q12 -74 41 -128t73 -86q45 -32 113 -31q53 0 99 18t75 43l43 -119q-51 -39 -117 -57t-137 -19q-98 0 -166 38t-109 109q-42 71 -62 170 q-19 99 -19 220zM180 1126l203 373h72l182 -373h-129l-66 136l-32 118l-35 -118l-74 -136h-121z" />
<glyph unicode="&#x10c;" horiz-adv-x="937" d="M88 717q0 205 42 346t112 229t160 127q91 39 188 39q98 0 163 -14t111 -35l-37 -139q-41 23 -96 35t-127 12t-135 -32t-113 -102q-49 -71 -77 -186q-29 -115 -29 -280q0 -299 102 -450t273 -150q70 0 125 19t94 46l37 -127q-51 -43 -129 -61t-164 -19q-109 0 -201 41 t-159 130t-103 231q-37 141 -37 340zM313 1739v43h142l96 -103l29 -69l30 67l103 105h135v-45l-217 -209h-109z" />
<glyph unicode="&#x10d;" horiz-adv-x="729" d="M76 512q0 262 93 399t267 138q80 0 137 -15q57 -14 99 -37l-41 -129q-82 47 -178 47q-111 0 -167 -97t-57 -306q0 -84 13 -158q12 -74 41 -128t73 -86q45 -32 113 -31q53 0 99 18t75 43l43 -119q-51 -39 -117 -57t-137 -19q-98 0 -166 38t-109 109q-42 71 -62 170 q-19 99 -19 220zM186 1499h140l63 -135l35 -119l35 119l73 135h125l-202 -373h-78z" />
<glyph unicode="&#x10e;" horiz-adv-x="1075" d="M131 -2v1436q33 6 73 9t81 4t81 2t74 1q150 0 254 -51t170 -147q66 -95 94 -228q29 -133 29 -297q0 -147 -28 -283q-28 -135 -93 -237q-66 -102 -173 -164q-108 -61 -269 -61q-27 0 -68 1t-85 4t-82 5t-58 6zM182 1739v43h142l96 -103l29 -69l30 67l103 105h135v-45 l-217 -209h-109zM285 131q8 -2 29 -3q22 -1 45 -2q24 -1 45 -2q22 -1 32 -1q113 0 189 49t119 132q44 83 63 193q18 110 18 232q0 109 -16 213t-58 185t-115 131q-72 51 -187 51h-45q-24 0 -46 -2q-23 -2 -42 -4t-31 -5v-1167z" />
<glyph unicode="&#x10f;" horiz-adv-x="886" d="M76 510q0 262 99 397t274 135q59 0 94 -7t75 -23v422h148v-1082q0 -104 2 -189t14 -167h-100l-33 123h-8q-29 -61 -90 -103q-61 -41 -148 -41q-166 0 -246 129q-81 129 -81 406zM229 508q0 -90 12 -163q11 -73 34 -126q24 -53 62 -82t93 -28q147 0 188 174v579 q-29 25 -64 36q-36 11 -95 11q-109 0 -169 -98t-61 -303zM827 1077q29 74 43 168t15 189h147q-4 -59 -20 -121q-16 -61 -39 -115q-23 -53 -46 -93q-24 -40 -38 -58z" />
<glyph unicode="&#x110;" horiz-adv-x="1087" d="M-2 684v121h145v629q33 6 73 9t81 4t81 2t75 1q150 0 254 -51t170 -147q66 -95 94 -228q29 -133 28 -297q0 -147 -27 -283q-28 -135 -93 -237q-66 -102 -173 -164q-108 -61 -270 -61q-27 0 -67 1q-41 1 -85 4t-82 5t-59 6v686h-145zM297 131q8 -2 30 -3t45 -2 q24 -1 45 -2q22 -1 32 -1q113 0 188 49q76 49 120 132t62 193t19 232q0 109 -17 213q-16 104 -58 185t-115 131q-72 51 -187 51h-44t-46 -2q-23 -2 -42 -4t-32 -5v-493h240v-121h-240v-553z" />
<glyph unicode="&#x111;" horiz-adv-x="888" d="M76 510q0 262 99 397t274 135q59 0 94 -7t75 -23v164h-256v120h256v138h148v-138h131v-120h-131v-824q0 -104 2 -189t14 -167h-100l-33 123h-8q-29 -61 -90.5 -102.5t-147.5 -41.5q-166 0 -246.5 129t-80.5 406zM229 508q0 -90 11.5 -163t35 -126t61.5 -81.5t93 -28.5 q147 0 188 174v579q-29 25 -64.5 36t-94.5 11q-109 0 -169.5 -98t-60.5 -303z" />
<glyph unicode="&#x112;" horiz-adv-x="878" d="M131 0v1434h637v-142h-483v-485h444v-141h-444v-525h493v-141h-647zM172 1599v127h530v-127h-530z" />
<glyph unicode="&#x113;" horiz-adv-x="845" d="M76 512q0 262 96 399t272 138q57 0 114 -15q56 -14 101 -57t73 -121t28 -203q0 -35 -3 -74q-3 -40 -7 -83h-521q0 -88 15 -160q14 -72 45 -122t79 -78t119 -27q55 0 110 20q54 20 83 49l53 -108q-49 -45 -125 -70t-159 -25q-96 0 -167 38t-117 109t-68 169t-21 221z M174 1196v121h498v-121h-498zM231 618h387q4 154 -43 226t-129 71q-94 0 -149 -71q-55 -72 -66 -226z" />
<glyph unicode="&#x116;" horiz-adv-x="878" d="M131 0v1434h637v-142h-483v-485h444v-141h-444v-525h493v-141h-647zM340 1632q0 43 29 75t82 32t83 -32t29 -75q0 -47 -29 -78q-30 -31 -83 -30q-53 0 -82 30q-29 31 -29 78z" />
<glyph unicode="&#x117;" horiz-adv-x="845" d="M76 512q0 262 96 399t272 138q57 0 114 -15q56 -14 101 -57t73 -121t28 -203q0 -35 -3 -74q-3 -40 -7 -83h-521q0 -88 15 -160q14 -72 45 -122t79 -78t119 -27q55 0 110 20q54 20 83 49l53 -108q-49 -45 -125 -70t-159 -25q-96 0 -167 38t-117 109t-68 169t-21 221z M231 618h387q4 154 -43 226t-129 71q-94 0 -149 -71q-55 -72 -66 -226zM342 1335q0 49 28 80t72 31q45 0 75 -30t30 -81q0 -49 -30 -77t-75 -27q-45 0 -72 29q-28 28 -28 75z" />
<glyph unicode="&#x118;" horiz-adv-x="878" d="M131 0v1434h637v-142h-483v-485h444v-141h-444v-525h493v-141h-63q-45 -33 -71 -78t-26 -102q2 -59 40 -91t114 -1l21 -82q-23 -23 -65 -35t-81 -12q-82 0 -130 49t-48 127t38 134t101 91h-477z" />
<glyph unicode="&#x119;" horiz-adv-x="837" d="M76 512q0 262 96 399.5t272 137.5q66 0 129.5 -19.5t109.5 -79t66.5 -168t0.5 -286.5h-523q0 -88 14.5 -160t45 -123t80 -79t120.5 -28q55 0 109.5 22t83.5 50l53 -108q-39 -37 -96 -60q-45 -31 -74 -71q-37 -51 -35 -119q0 -57 38 -89t116 3l20 -88q-25 -25 -67.5 -36 t-83.5 -11q-78 0 -123 49t-45 133q0 88 51 149q20 25 49 47q-18 -2 -34 -2q-96 0 -167 38t-117 109t-67.5 169t-21.5 221zM231 618h387q4 154 -43 227t-129 73q-94 0 -149 -73t-66 -227z" />
<glyph unicode="&#x11a;" horiz-adv-x="878" d="M131 0v1434h637v-142h-483v-485h444v-141h-444v-525h493v-141h-647zM178 1739v43h141l97 -103l28 -69l31 67l103 105h135v-45l-217 -209h-109z" />
<glyph unicode="&#x11b;" horiz-adv-x="845" d="M76 512q0 262 96 399t272 138q57 0 114 -15q56 -14 101 -57t73 -121t28 -203q0 -35 -3 -74q-3 -40 -7 -83h-521q0 -88 15 -160q14 -72 45 -122t79 -78t119 -27q55 0 110 20q54 20 83 49l53 -108q-49 -45 -125 -70t-159 -25q-96 0 -167 38t-117 109t-68 169t-21 221z M201 1499h139l63 -135l35 -119l35 119l74 135h125l-203 -373h-78zM231 618h387q4 154 -43 226t-129 71q-94 0 -149 -71q-55 -72 -66 -226z" />
<glyph unicode="&#x11c;" horiz-adv-x="1007" d="M88 717q0 201 43 341t116 229t166 130t191 41t165 -13t114 -36l-37 -139q-41 23 -97 35t-131 12q-72 0 -137 -31q-66 -31 -117 -101q-52 -71 -83 -186t-31 -282q0 -307 97 -454q97 -146 267 -146q106 0 177 51v418l-265 39v90h396v-631q-57 -53 -148 -81 q-90 -28 -182 -28q-115 0 -208 43t-159 135q-66 91 -101 230q-36 139 -36 334zM328 1530v45l219 207h102l209 -209v-43h-135l-96 100l-31 72l-31 -70l-106 -102h-131z" />
<glyph unicode="&#x11d;" horiz-adv-x="884" d="M76 508q0 264 101 399t300 135q96 0 166 -18t123 -43v-1028q0 -199 -88 -293t-256 -94q-102 0 -168 17t-107 40l43 127q41 -18 91 -35q49 -16 120 -16q125 0 171 70t46 233v76h-6q-33 -47 -84 -74t-131 -27q-166 0 -243 128q-78 128 -78 403zM223 1126l203 373h72 l182 -373h-129l-66 136l-32 118l-35 -118l-74 -136h-121zM229 510q0 -86 11 -159q10 -73 34 -127q25 -54 63 -84t93 -29q78 0 123 41t65 122v603q-61 33 -157 32q-104 0 -168 -95q-63 -95 -64 -304z" />
<glyph unicode="&#x11e;" horiz-adv-x="1007" d="M88 717q0 201 43 341t116 229t166 130t191 41t165 -13t114 -36l-37 -139q-41 23 -97 35t-131 12q-72 0 -137 -31q-66 -31 -117 -101q-52 -71 -83 -186t-31 -282q0 -307 97 -454q97 -146 267 -146q106 0 177 51v418l-265 39v90h396v-631q-57 -53 -148 -81 q-90 -28 -182 -28q-115 0 -208 43t-159 135q-66 91 -101 230q-36 139 -36 334zM287 1743l78 41q29 -70 86 -113t135 -43q80 0 132 46t79 110l73 -33q-31 -129 -111 -192q-81 -63 -175 -64q-88 0 -173 59t-124 189z" />
<glyph unicode="&#x11f;" horiz-adv-x="884" d="M76 508q0 264 101 399t300 135q96 0 166 -18t123 -43v-1028q0 -199 -88 -293t-256 -94q-102 0 -168 17t-107 40l43 127q41 -18 91 -35q49 -16 120 -16q125 0 171 70t46 233v76h-6q-33 -47 -84 -74t-131 -27q-166 0 -243 128q-78 128 -78 403zM193 1432l79 36 q29 -74 78 -117q49 -44 109 -44q57 0 101 43t71 118l76 -30q-4 -53 -26 -102q-22 -48 -54 -84q-33 -36 -77 -57q-44 -22 -93 -21q-96 0 -169 67q-73 68 -95 191zM229 510q0 -86 11 -159q10 -73 34 -127q25 -54 63 -84t93 -29q78 0 123 41t65 122v603q-61 33 -157 32 q-104 0 -168 -95q-63 -95 -64 -304z" />
<glyph unicode="&#x122;" horiz-adv-x="1007" d="M88 717q0 201 43 341t116 229t166 130t191 41t165 -13t114 -36l-37 -139q-41 23 -97 35t-131 12q-72 0 -137 -31q-66 -31 -117 -101q-52 -71 -83 -186t-31 -282q0 -307 97 -454q97 -146 267 -146q106 0 177 51v418l-265 39v90h396v-631q-57 -53 -148 -81 q-90 -28 -182 -28q-115 0 -208 43t-159 135q-66 91 -101 230q-36 139 -36 334zM487 -209q0 43 27 70t64 26q45 0 77 -34q33 -35 33 -119q0 -53 -15 -93t-37 -70t-45 -47q-24 -17 -42 -26l-55 56q35 27 58 64q24 38 21 87q-35 -4 -60 19q-26 22 -26 67z" />
<glyph unicode="&#x123;" horiz-adv-x="884" d="M76 508q0 264 101.5 399t299.5 135q96 0 166 -18t123 -43v-1028q0 -199 -88 -293t-256 -94q-102 0 -168 17.5t-107 39.5l43 127q41 -18 90.5 -34.5t120.5 -16.5q125 0 171 69.5t46 233.5v76h-6q-33 -47 -84 -74t-131 -27q-166 0 -243.5 128t-77.5 403zM229 510 q0 -86 10.5 -158.5t35 -127t62.5 -84t93 -29.5q78 0 123 41t65 122v603q-61 33 -157 32q-104 0 -168 -95t-64 -304zM375 1305q0 49 15.5 89t37 69.5t45 49t41.5 27.5l53 -61q-33 -18 -56.5 -58.5t-23.5 -89.5q35 10 60.5 -14.5t25.5 -69.5q0 -43 -25.5 -69.5t-62.5 -26.5 q-45 0 -77.5 35t-32.5 119z" />
<glyph unicode="&#x124;" horiz-adv-x="1097" d="M131 0v1434h154v-631h528v631h154v-1434h-154v662h-528v-662h-154zM281 1530v45l219 207h102l209 -209v-43h-135l-96 100l-31 72l-31 -70l-106 -102h-131z" />
<glyph unicode="&#x125;" horiz-adv-x="901" d="M-63 1530v45l219 207h102l209 -209v-43h-135l-96 100l-31 72l-31 -70l-106 -102h-131zM121 0v1434h147v-506h6q41 53 102 87q60 34 150 34q68 0 118 -19q50 -18 83 -63t49 -120t17 -185v-662h-148v623q0 143 -34 218t-134 74q-72 0 -130 -51t-79 -129v-735h-147z" />
<glyph unicode="&#x126;" horiz-adv-x="1124" d="M16 1077v121h129v236h154v-236h528v236h154v-236h129v-121h-129v-1077h-154v662h-528v-662h-154v1077h-129zM299 803h528v274h-528v-274z" />
<glyph unicode="&#x127;" horiz-adv-x="903" d="M-8 1176v120h131v138h147v-138h265v-120h-265v-248h6q41 53 101.5 87t150.5 34q68 0 118 -18.5t83 -63.5t49.5 -120t16.5 -185v-662h-148v623q0 143 -33.5 217.5t-134.5 74.5q-72 0 -130 -51t-79 -129v-735h-147v1176h-131z" />
<glyph unicode="&#x12a;" horiz-adv-x="477" d="M-25 1599v127h531v-127h-531zM162 0v1434h153v-1434h-153z" />
<glyph unicode="&#x12b;" horiz-adv-x="444" d="M-25 1196v121h498v-121h-498zM147 0v1024h148v-1024h-148z" />
<glyph unicode="&#x12e;" horiz-adv-x="479" d="M47 -223q0 72 38 130t101 93h-24v1434h153v-1434h-26q-41 -31 -66.5 -75t-23.5 -107q0 -57 36.5 -90t114.5 -2l21 -80q-25 -25 -67 -36t-81 -11q-78 0 -127 47t-49 131z" />
<glyph unicode="&#x12f;" horiz-adv-x="444" d="M29 -221q0 72 35.5 129t97.5 92h-15v1024h148v-1024h-29q-41 -33 -67.5 -79t-24.5 -103q0 -29 11.5 -52.5t31 -38t48 -14.5t65.5 21l18 -88q-25 -25 -67.5 -36t-83.5 -11q-78 0 -123 48t-45 132zM119 1335q0 49 27.5 80t72.5 31t75 -30t30 -81q0 -49 -30 -76.5t-75 -27.5 t-72.5 28.5t-27.5 75.5z" />
<glyph unicode="&#x130;" horiz-adv-x="477" d="M127 1632q0 43 29 75t82 32t83 -32t29 -75q0 -47 -29 -78q-30 -31 -83 -30q-53 0 -82 30q-29 31 -29 78zM162 0v1434h153v-1434h-153z" />
<glyph unicode="&#x131;" horiz-adv-x="444" d="M147 0v1024h148v-1024h-148z" />
<glyph unicode="&#x134;" horiz-adv-x="493" d="M-53 12l33 133q20 -12 46 -18t52 -6q37 0 59 16q23 16 35 46t15 72t3 95v1084h154v-1112q0 -168 -54 -255t-190 -87q-33 0 -78 8q-46 8 -75 24zM0 1530v45l219 207h103l208 -209v-43h-135l-96 100l-31 72l-30 -70l-107 -102h-131z" />
<glyph unicode="&#x135;" horiz-adv-x="440" d="M2 1126l203 373h71l183 -373h-129l-66 136l-33 118l-34 -118l-74 -136h-121zM8 -297q45 0 73 18t43 57q15 38 19 94t4 132v1020h148v-1079q0 -211 -68 -304t-219 -71v133z" />
<glyph unicode="&#x136;" horiz-adv-x="1009" d="M131 0v1434h154v-668l71 29l373 639h176l-375 -619l-71 -65l84 -82l415 -668h-194l-406 664h-73v-664h-154zM385 -209q0 43 27 70t63 26q45 0 78 -34q33 -35 33 -119q0 -53 -16 -93q-15 -40 -36 -70q-22 -30 -46 -47t-42 -26l-55 56q35 27 59 64q24 38 21 87 q-35 -4 -60 19q-26 22 -26 67z" />
<glyph unicode="&#x137;" horiz-adv-x="794" d="M121 0v1434h147v-873l68 29l239 434h170l-241 -414l-72 -65l84 -80l264 -465h-178l-258 461h-76v-461h-147zM299 -209q0 43 27 70t63 26q45 0 78 -34q33 -35 33 -119q0 -53 -16 -93q-15 -40 -37 -70t-45 -47q-24 -17 -42 -26l-55 56q35 27 59 64q24 38 21 87 q-35 -4 -60 19q-26 22 -26 67z" />
<glyph unicode="&#x139;" horiz-adv-x="849" d="M131 0v1434h154v-1293h536v-141h-690zM164 1540l190 242h203v-43l-268 -199h-125z" />
<glyph unicode="&#x13a;" horiz-adv-x="477" d="M131 195v1239h148v-1190q0 -72 19 -103t54 -30q43 0 101 22l14 -119q-27 -16 -75 -26t-87 -11q-78 0 -126 49q-48 48 -48 169zM141 1540l191 242h203v-43l-269 -199h-125z" />
<glyph unicode="&#x13b;" horiz-adv-x="849" d="M131 0v1434h154v-1293h536v-141h-690zM315 -209q0 43 27 70t64 26q45 0 77 -34q33 -35 33 -119q0 -53 -15 -93t-37 -70t-45 -47q-24 -17 -42 -26l-55 56q35 27 58 64q24 38 21 87q-35 -4 -60 19q-26 22 -26 67z" />
<glyph unicode="&#x13c;" horiz-adv-x="477" d="M131 195v1239h148v-1190q0 -72 19 -103t54 -30q43 0 101 22l14 -119q-27 -16 -75 -26t-87 -11q-78 0 -126 49q-48 48 -48 169zM188 -209q0 43 27 70t64 26q45 0 77 -34q33 -35 33 -119q0 -53 -15 -93t-37 -70t-45 -47q-24 -17 -42 -26l-55 56q35 27 58 64q24 38 21 87 q-35 -4 -60 19q-26 22 -26 67z" />
<glyph unicode="&#x13d;" horiz-adv-x="849" d="M131 0v1434h154v-1293h536v-141h-690zM522 1077q29 74 43 168t15 189h147q-4 -59 -20 -121q-16 -61 -39 -115q-23 -53 -46 -93q-24 -40 -38 -58z" />
<glyph unicode="&#x13e;" horiz-adv-x="477" d="M131 195v1239h148v-1190q0 -72 19 -103t54 -30q43 0 101 22l14 -119q-27 -16 -75 -26t-87 -11q-78 0 -126 49q-48 48 -48 169zM340 1077q29 74 43 168t14 189h148q-4 -59 -21 -121q-16 -61 -39 -115q-23 -53 -46 -93q-24 -40 -38 -58z" />
<glyph unicode="&#x141;" horiz-adv-x="856" d="M31 432v162l106 98v742h154v-600l184 172v-170l-184 -168v-527h536v-141h-690v528z" />
<glyph unicode="&#x142;" horiz-adv-x="479" d="M16 428v162l123 112v732h148v-594l174 161v-170l-174 -157v-430q0 -72 19.5 -102.5t53.5 -30.5q43 0 101 22l14 -119q-27 -16 -75 -26.5t-87 -10.5q-78 0 -126 48.5t-48 169.5v344z" />
<glyph unicode="&#x143;" horiz-adv-x="1101" d="M131 0v1456h92l531 -930l84 -215h8l-23 215v908h148v-1457h-94l-527 932l-88 226h-6l23 -226v-909h-148zM479 1540l191 242h202v-43l-268 -199h-125z" />
<glyph unicode="&#x144;" horiz-adv-x="899" d="M121 0v1024h106l27 -109h6q39 55 106 95q67 39 158 39q66 0 116 -19q50 -18 84 -62t51 -118t18 -186v-664h-148v625q0 154 -36 222q-36 69 -128 68q-82 0 -135 -49t-78 -121v-745h-147zM397 1169l97 306h159v-43l-168 -263h-88z" />
<glyph unicode="&#x145;" horiz-adv-x="1101" d="M131 0v1456h92l531 -930l84 -215h8l-23 215v908h148v-1457h-94l-527 932l-88 226h-6l23 -226v-909h-148zM457 -209q0 43 26 70q27 27 64 26q45 0 78 -34q33 -35 32 -119q0 -53 -15 -93t-37 -70t-45 -47q-24 -17 -42 -26l-55 56q35 27 58 64q24 38 22 87q-35 -4 -61 19 q-25 22 -25 67z" />
<glyph unicode="&#x146;" horiz-adv-x="899" d="M121 0v1024h106l27 -109h6q39 55 106 95q67 39 158 39q66 0 116 -19q50 -18 84 -62t51 -118t18 -186v-664h-148v625q0 154 -36 222q-36 69 -128 68q-82 0 -135 -49t-78 -121v-745h-147zM350 -209q0 43 27 70t63 26q45 0 78 -34q33 -35 33 -119q0 -53 -15 -93t-37 -70 t-45 -47q-24 -17 -42 -26l-56 56q35 27 59 64q24 38 21 87q-35 -4 -60 19q-26 22 -26 67z" />
<glyph unicode="&#x147;" horiz-adv-x="1101" d="M131 0v1456h92l531 -930l84 -215h8l-23 215v908h148v-1457h-94l-527 932l-88 226h-6l23 -226v-909h-148zM287 1739v43h141l96 -103l29 -69l31 67l102 105h135v-45l-217 -209h-108z" />
<glyph unicode="&#x148;" horiz-adv-x="899" d="M121 0v1024h106l27 -109h6q39 55 106 95q67 39 158 39q66 0 116 -19q50 -18 84 -62t51 -118t18 -186v-664h-148v625q0 154 -36 222q-36 69 -128 68q-82 0 -135 -49t-78 -121v-745h-147zM217 1499h139l64 -135l35 -119l34 119l74 135h125l-203 -373h-77z" />
<glyph unicode="&#x14c;" horiz-adv-x="1124" d="M88 717q0 365 117 553t356 188q129 0 219 -52t147 -149q56 -96 83 -233t26 -307q0 -365 -117 -553q-118 -188 -358 -189q-127 0 -217 53q-90 52 -147 148t-83 234q-26 137 -26 307zM250 717q0 -121 17 -230t55 -190q37 -82 96 -131t143 -49q154 0 234 147t79 453 q0 119 -17 227q-17 109 -54 192t-96 132t-146 49q-152 0 -231 -148q-80 -147 -80 -452zM305 1599v127h531v-127h-531z" />
<glyph unicode="&#x14d;" horiz-adv-x="884" d="M76 512q0 276 95 407q95 130 271 130q188 0 278 -134q89 -133 89 -403q0 -279 -96 -408t-271 -129q-188 0 -277 134q-89 133 -89 403zM193 1196v121h497v-121h-497zM229 512q0 -90 12 -164q11 -74 37 -127t66 -83q41 -30 98 -29q106 0 160 95q53 95 53 308q0 88 -11 163 t-37 128t-66 83q-41 30 -99 29q-104 0 -158 -96q-55 -96 -55 -307z" />
<glyph unicode="&#x150;" horiz-adv-x="1124" d="M88 717q0 365 117 553t356 188q129 0 219 -52t147 -149q56 -96 83 -233t26 -307q0 -365 -117 -553q-118 -188 -358 -189q-127 0 -217 53q-90 52 -147 148t-83 234q-26 137 -26 307zM250 717q0 -121 17 -230t55 -190q37 -82 96 -131t143 -49q154 0 234 147t79 453 q0 119 -17 227q-17 109 -54 192t-96 132t-146 49q-152 0 -231 -148q-80 -147 -80 -452zM385 1518l104 223h166v-33l-163 -190h-107zM602 1518l166 223h176v-33l-235 -190h-107z" />
<glyph unicode="&#x151;" horiz-adv-x="884" d="M76 512q0 276 95 407q95 130 271 130q188 0 278 -134q89 -133 89 -403q0 -279 -96 -408t-271 -129q-188 0 -277 134q-89 133 -89 403zM229 512q0 -90 12 -164q11 -74 37 -127t66 -83q41 -30 98 -29q106 0 160 95q53 95 53 308q0 88 -11 163t-37 128t-66 83q-41 30 -99 29 q-104 0 -158 -96q-55 -96 -55 -307zM279 1169l57 265h141v-33l-119 -232h-79zM467 1169l121 265h153v-33l-188 -232h-86z" />
<glyph unicode="&#x152;" horiz-adv-x="1531" d="M88 717q0 362 120 551.5t351 189.5q74 0 124 -7t101 -17h637v-142h-483v-485h442v-141h-442v-525h494v-141h-648q-41 -10 -98 -17.5t-127 -7.5q-123 0 -212 52.5t-146.5 149.5t-85 233.5t-27.5 306.5zM250 717q0 -121 17.5 -229.5t56 -190.5t100 -131t149.5 -49 q47 0 96.5 4t114.5 29v1126q-45 23 -102 32t-119 9q-150 0 -231.5 -147.5t-81.5 -452.5z" />
<glyph unicode="&#x153;" horiz-adv-x="1417" d="M76 512q0 262 95 399.5t271 137.5q104 0 175 -46.5t112 -130.5q41 78 113.5 127.5t173.5 49.5q57 0 113.5 -15.5t101.5 -58.5t72.5 -121t27.5 -203q0 -35 -3 -73.5t-7 -81.5h-524q2 -178 62.5 -284t199.5 -106q55 0 112.5 23t85.5 51l54 -108q-49 -47 -128 -72t-165 -25 q-102 0 -176 49.5t-115 129.5q-88 -178 -287 -179q-186 0 -275 139.5t-89 397.5zM229 512q0 -80 11.5 -152.5t37 -128t66.5 -89t98 -33.5q211 0 211 403q0 80 -11 152.5t-35.5 129t-65.5 89t-99 32.5q-213 0 -213 -403zM801 616h389q4 154 -43 228t-131 74q-92 0 -148.5 -74 t-66.5 -228z" />
<glyph unicode="&#x154;" horiz-adv-x="983" d="M131 0v1419q68 16 149 24q81 7 148 7q80 0 152 -19t125 -66q53 -46 85 -121t31 -187q0 -170 -70 -273q-71 -102 -188 -137l78 -76l283 -571h-179l-307 625l-153 30v-655h-154zM285 758h123q117 0 184 71q68 72 67 220q0 113 -56 186q-56 74 -167 74q-41 0 -85 -3t-66 -10 v-538zM332 1540l190 242h203v-43l-268 -199h-125z" />
<glyph unicode="&#x155;" horiz-adv-x="561" d="M121 0v1024h104l27 -109h6q29 59 75 94q46 34 111 33q47 0 107 -18l-29 -150q-53 18 -94 19q-66 0 -106 -38q-41 -38 -54 -101v-754h-147zM225 1169l97 306h159v-43l-168 -263h-88z" />
<glyph unicode="&#x156;" horiz-adv-x="983" d="M131 0v1419q68 16 149 24q81 7 148 7q80 0 152 -19t125 -66q53 -46 85 -121t31 -187q0 -170 -70 -273q-71 -102 -188 -137l78 -76l283 -571h-179l-307 625l-153 30v-655h-154zM285 758h123q117 0 184 71q68 72 67 220q0 113 -56 186q-56 74 -167 74q-41 0 -85 -3t-66 -10 v-538zM393 -209q0 43 27 70t63 26q45 0 78 -34q33 -35 33 -119q0 -53 -15 -93t-37 -70t-45 -47q-24 -17 -42 -26l-56 56q35 27 59 64q24 38 21 87q-35 -4 -60 19q-26 22 -26 67z" />
<glyph unicode="&#x157;" horiz-adv-x="561" d="M121 0v1024h104l27 -109h6q29 59 75 94q46 34 111 33q47 0 107 -18l-29 -150q-53 18 -94 19q-66 0 -106 -38q-41 -38 -54 -101v-754h-147zM129 -209q0 43 27 70t63 26q45 0 78 -34q33 -35 33 -119q0 -53 -16 -93q-15 -40 -36 -70q-22 -30 -46 -47t-42 -26l-55 56 q35 27 59 64q24 38 21 87q-35 -4 -60 19q-26 22 -26 67z" />
<glyph unicode="&#x158;" horiz-adv-x="983" d="M131 0v1419q68 16 149 24q81 7 148 7q80 0 152 -19t125 -66q53 -46 85 -121t31 -187q0 -170 -70 -273q-71 -102 -188 -137l78 -76l283 -571h-179l-307 625l-153 30v-655h-154zM150 1739v43h141l96 -103l29 -69l30 67l103 105h135v-45l-217 -209h-109zM285 758h123 q117 0 184 71q68 72 67 220q0 113 -56 186q-56 74 -167 74q-41 0 -85 -3t-66 -10v-538z" />
<glyph unicode="&#x159;" horiz-adv-x="561" d="M80 1499h139l64 -135l34 -119l35 119l74 135h125l-203 -373h-78zM121 0v1024h104l27 -109h6q29 59 75 94q46 34 111 33q47 0 107 -18l-29 -150q-53 18 -94 19q-66 0 -106 -38q-41 -38 -54 -101v-754h-147z" />
<glyph unicode="&#x15a;" horiz-adv-x="876" d="M68 49l53 141q39 -27 109 -50q71 -24 161 -23q115 0 187 56t71 177q0 80 -41 139t-102 110q-61 50 -132 98t-132 107q-61 58 -103 134q-41 76 -41 182q0 172 104 255q103 83 269 83q102 0 182 -18t129 -47l-49 -136q-37 23 -105 41q-69 18 -159 19q-111 0 -164 -54 t-53 -137q0 -72 41 -127t102 -104t132 -99t132 -112q61 -61 103 -139q41 -78 41 -185q0 -180 -107 -282q-106 -102 -301 -103q-123 0 -201 23q-79 23 -126 51zM381 1540l190 242h203v-43l-268 -199h-125z" />
<glyph unicode="&#x15b;" horiz-adv-x="692" d="M59 39l45 129q41 -25 98 -42q56 -17 115 -17q68 0 115 33q47 34 47 110q0 63 -28 104q-29 41 -73 74t-95 60q-51 28 -96 67q-44 39 -72 92q-29 53 -29 135q0 131 71 198t199 67q84 0 146 -16q61 -15 106 -42l-39 -123q-39 20 -90 34q-51 13 -104 13q-74 0 -108 -30 q-34 -31 -34 -97q0 -51 29 -87t73 -65q44 -30 95 -61t95 -72q44 -42 73 -101q29 -58 29 -146q0 -57 -19 -109q-18 -51 -56 -89t-94 -60q-56 -23 -132 -23q-90 0 -156 18q-66 17 -111 46zM293 1169l96 306h160v-43l-168 -263h-88z" />
<glyph unicode="&#x15c;" horiz-adv-x="876" d="M68 49l53 141q39 -27 109 -50q71 -24 161 -23q115 0 187 56t71 177q0 80 -41 139t-102 110q-61 50 -132 98t-132 107q-61 58 -103 134q-41 76 -41 182q0 172 104 255q103 83 269 83q102 0 182 -18t129 -47l-49 -136q-37 23 -105 41q-69 18 -159 19q-111 0 -164 -54 t-53 -137q0 -72 41 -127t102 -104t132 -99t132 -112q61 -61 103 -139q41 -78 41 -185q0 -180 -107 -282q-106 -102 -301 -103q-123 0 -201 23q-79 23 -126 51zM201 1530v45l219 207h102l209 -209v-43h-135l-96 100l-31 72l-31 -70l-106 -102h-131z" />
<glyph unicode="&#x15d;" horiz-adv-x="692" d="M59 39l45 129q41 -25 98 -42q56 -17 115 -17q68 0 115 33q47 34 47 110q0 63 -28 104q-29 41 -73 74t-95 60q-51 28 -96 67q-44 39 -72 92q-29 53 -29 135q0 131 71 198t199 67q84 0 146 -16q61 -15 106 -42l-39 -123q-39 20 -90 34q-51 13 -104 13q-74 0 -108 -30 q-34 -31 -34 -97q0 -51 29 -87t73 -65q44 -30 95 -61t95 -72q44 -42 73 -101q29 -58 29 -146q0 -57 -19 -109q-18 -51 -56 -89t-94 -60q-56 -23 -132 -23q-90 0 -156 18q-66 17 -111 46zM127 1126l203 373h71l183 -373h-129l-66 136l-33 118l-34 -118l-74 -136h-121z" />
<glyph unicode="&#x15e;" horiz-adv-x="876" d="M68 49l53 141q39 -27 109.5 -50t160.5 -23q115 0 186.5 56t71.5 177q0 80 -41 139.5t-102.5 109.5t-132 98t-132 106.5t-102.5 134.5t-41 182q0 172 103.5 255t269.5 83q102 0 182 -18.5t129 -46.5l-49 -136q-37 23 -105.5 41.5t-158.5 18.5q-111 0 -164 -54.5 t-53 -136.5q0 -72 41 -127t102.5 -104t132 -99.5t132 -111.5t102.5 -139t41 -185q0 -160 -85 -258t-239 -120l-30 -70q133 -31 133 -154q0 -80 -58.5 -132t-156.5 -52q-41 0 -76 8l14 80q47 -4 75 2t42 18.5t18 28t4 29.5q0 57 -141 76l70 159q-115 4 -188.5 24.5 t-116.5 49.5z" />
<glyph unicode="&#x15f;" horiz-adv-x="692" d="M59 39l45 129q41 -25 97.5 -41t115.5 -16q68 0 115 32.5t47 108.5q0 63 -28.5 104t-72.5 74t-95.5 60.5t-95.5 66.5t-72.5 92t-28.5 135q0 131 70.5 198t199.5 67q84 0 145.5 -15.5t106.5 -42.5l-39 -123q-39 20 -90 33.5t-104 13.5q-74 0 -108 -30.5t-34 -96.5 q0 -51 29 -86.5t73 -65.5t95 -60.5t95 -72.5t73 -100.5t29 -146.5q0 -102 -59.5 -180t-178.5 -94l-31 -70q133 -31 134 -154q0 -80 -58.5 -132t-157.5 -52q-41 0 -75 8l14 80q47 -4 74.5 2t42 18.5t18.5 28t4 29.5q0 57 -141 76l72 161q-74 4 -130.5 20.5t-95.5 41.5z" />
<glyph unicode="&#x160;" horiz-adv-x="876" d="M68 49l53 141q39 -27 109 -50q71 -24 161 -23q115 0 187 56t71 177q0 80 -41 139t-102 110q-61 50 -132 98t-132 107q-61 58 -103 134q-41 76 -41 182q0 172 104 255q103 83 269 83q102 0 182 -18t129 -47l-49 -136q-37 23 -105 41q-69 18 -159 19q-111 0 -164 -54 t-53 -137q0 -72 41 -127t102 -104t132 -99t132 -112q61 -61 103 -139q41 -78 41 -185q0 -180 -107 -282q-106 -102 -301 -103q-123 0 -201 23q-79 23 -126 51zM213 1739v43h141l97 -103l28 -69l31 67l102 105h136v-45l-218 -209h-108z" />
<glyph unicode="&#x161;" horiz-adv-x="692" d="M59 39l45 129q41 -25 98 -42q56 -17 115 -17q68 0 115 33q47 34 47 110q0 63 -28 104q-29 41 -73 74t-95 60q-51 28 -96 67q-44 39 -72 92q-29 53 -29 135q0 131 71 198t199 67q84 0 146 -16q61 -15 106 -42l-39 -123q-39 20 -90 34q-51 13 -104 13q-74 0 -108 -30 q-34 -31 -34 -97q0 -51 29 -87t73 -65q44 -30 95 -61t95 -72q44 -42 73 -101q29 -58 29 -146q0 -57 -19 -109q-18 -51 -56 -89t-94 -60q-56 -23 -132 -23q-90 0 -156 18q-66 17 -111 46zM113 1499h139l63 -135l35 -119l35 119l74 135h125l-203 -373h-78z" />
<glyph unicode="&#x162;" horiz-adv-x="915" d="M29 1292v142h858v-142h-352v-1292h-25l-39 -88q133 -31 133 -154q0 -80 -58.5 -132t-156.5 -52q-41 0 -76 8l15 80q47 -4 74.5 2t42 18.5t18.5 28t4 29.5q0 57 -141 76l82 184h-27v1292h-352z" />
<glyph unicode="&#x163;" horiz-adv-x="563" d="M18 891v133h125v203l148 47v-250h221v-133h-221v-610q0 -90 21.5 -129t70.5 -39q41 0 70.5 9t64.5 23l29 -118q-61 -29 -129 -41h-2l-33 -74q133 -31 133 -154q0 -80 -58.5 -132t-156.5 -52q-41 0 -76 8l15 80q47 -4 74.5 2t42 18.5t18.5 28t4 29.5q0 57 -141 76l71 164 q-88 6 -127 72.5t-39 207.5v631h-125z" />
<glyph unicode="&#x164;" horiz-adv-x="915" d="M29 1292v142h858v-142h-352v-1292h-154v1292h-352zM193 1739v43h141l96 -103l29 -69l30 67l103 105h135v-45l-217 -209h-109z" />
<glyph unicode="&#x165;" horiz-adv-x="563" d="M18 891v133h125v203l148 47v-250h221v-133h-221v-610q0 -90 21 -130q22 -40 71 -40q41 0 71 9t64 23l29 -116q-45 -23 -100 -36q-54 -13 -113 -14q-102 0 -147 67q-44 67 -44 216v631h-125zM344 1106q29 74 43 168t14 188h148q-4 -59 -21 -121q-16 -61 -39 -114t-46 -93 q-24 -40 -37 -59z" />
<glyph unicode="&#x16a;" horiz-adv-x="1067" d="M131 440v994h154v-914q0 -111 14 -186q14 -76 47 -123t82 -68q49 -20 121 -20q135 0 187 94t52 303v914h148v-961q0 -260 -101 -376t-288 -115q-217 0 -317 112q-99 113 -99 346zM272 1599v127h531v-127h-531z" />
<glyph unicode="&#x16b;" horiz-adv-x="888" d="M106 360v664h148v-627q0 -156 32 -222q32 -67 115 -66q43 0 77 17t61 46t47 66t32 75v711h148v-733q0 -74 5 -153t15 -138h-104l-37 143h-6q-35 -68 -100 -117q-66 -50 -164 -51q-66 0 -115 17q-49 16 -84 59t-52 118t-18 191zM193 1196v121h497v-121h-497z" />
<glyph unicode="&#x16c;" horiz-adv-x="1067" d="M131 440v994h154v-914q0 -111 14 -186q14 -76 47 -123t82 -68q49 -20 121 -20q135 0 187 94t52 303v914h148v-961q0 -260 -101 -376t-288 -115q-217 0 -317 112q-99 113 -99 346zM244 1743l78 41q29 -70 86 -113t135 -43q80 0 132 46t79 110l73 -33q-31 -129 -111 -192 q-81 -63 -175 -64q-88 0 -173 59t-124 189z" />
<glyph unicode="&#x16d;" horiz-adv-x="888" d="M106 360v664h148v-627q0 -156 32 -222q32 -67 115 -66q43 0 77 17t61 46t47 66t32 75v711h148v-733q0 -74 5 -153t15 -138h-104l-37 143h-6q-35 -68 -100 -117q-66 -50 -164 -51q-66 0 -115 17q-49 16 -84 59t-52 118t-18 191zM178 1432l80 36q29 -74 78 -117 q49 -44 108 -44q57 0 102 43q44 43 70 118l76 -30q-4 -53 -25 -102q-22 -48 -55 -84t-76 -57q-44 -22 -94 -21q-96 0 -169 67q-73 68 -95 191z" />
<glyph unicode="&#x16e;" horiz-adv-x="1067" d="M131 440v994h154v-914q0 -111 14 -186q14 -76 47 -123t82 -68q49 -20 121 -20q135 0 187 94t52 303v914h148v-961q0 -260 -101 -376t-288 -115q-217 0 -317 112q-99 113 -99 346zM356 1573q0 76 43 125t142 49q88 0 136 -44t48 -130q0 -74 -46 -122t-138 -48t-139 46 q-46 46 -46 124zM467 1573q0 -37 17 -61t57 -23q74 0 73 84q0 88 -73 88q-74 0 -74 -88z" />
<glyph unicode="&#x16f;" horiz-adv-x="888" d="M106 360v664h148v-627q0 -156 32 -222q32 -67 115 -66q43 0 77 17t61 46t47 66t32 75v711h148v-733q0 -74 5 -153t15 -138h-104l-37 143h-6q-35 -68 -100 -117q-66 -50 -164 -51q-66 0 -115 17q-49 16 -84 59t-52 118t-18 191zM268 1317q0 86 45 134t123 48q74 0 122 -43 t48 -139q0 -82 -46 -131t-124 -49t-123 46t-45 134zM367 1317q0 -47 20 -71t49 -23q33 0 52 22q19 23 20 72q0 49 -22 73t-50 23q-29 0 -49 -22q-20 -23 -20 -74z" />
<glyph unicode="&#x170;" horiz-adv-x="1067" d="M131 440v994h154v-914q0 -111 14 -186q14 -76 47 -123t82 -68q49 -20 121 -20q135 0 187 94t52 303v914h148v-961q0 -260 -101 -376t-288 -115q-217 0 -317 112q-99 113 -99 346zM340 1518l104 223h166v-33l-164 -190h-106zM557 1518l166 223h176v-33l-235 -190h-107z " />
<glyph unicode="&#x171;" horiz-adv-x="888" d="M106 360v664h148v-627q0 -156 32 -222q32 -67 115 -66q43 0 77 17t61 46t47 66t32 75v711h148v-733q0 -74 5 -153t15 -138h-104l-37 143h-6q-35 -68 -100 -117q-66 -50 -164 -51q-66 0 -115 17q-49 16 -84 59t-52 118t-18 191zM276 1169l58 265h141v-33l-119 -232h-80z M465 1169l121 265h153v-33l-188 -232h-86z" />
<glyph unicode="&#x172;" horiz-adv-x="1067" d="M131 440v994h154v-914q0 -111 14 -186.5t47 -122.5t82 -67.5t121 -20.5q135 0 187 94t52 303v914h148v-961q0 -199 -60.5 -312.5t-170.5 -154.5q-47 -35 -73 -80t-26 -106q0 -29 10.5 -52.5t29 -38t46 -16.5t64.5 13l22 -82q-23 -20 -66.5 -32.5t-80.5 -12.5 q-80 0 -127 50t-49 130q2 61 29.5 113.5t78.5 89.5h-16q-217 0 -316.5 112.5t-99.5 345.5z" />
<glyph unicode="&#x173;" horiz-adv-x="888" d="M106 360v664h148v-627q0 -156 31.5 -222t115.5 -66q43 0 77 17t60.5 46t47 65.5t32.5 75.5v711h148v-733q0 -74 5 -153t15 -138h-26q-47 -33 -78 -76t-29 -104q0 -29 10.5 -52.5t31 -38t49 -14.5t63.5 21l22 -88q-25 -25 -68.5 -37t-82.5 -12q-78 0 -124 49t-46 133 q0 86 46 141t124 90l-33 131h-6q-35 -68 -100.5 -118t-163.5 -50q-66 0 -115 16.5t-84 59.5t-52.5 118t-17.5 191z" />
<glyph unicode="&#x178;" horiz-adv-x="931" d="M10 1434h180l259 -625l26 -125h4l27 129l250 621h166l-377 -863v-571h-154v569zM215 1626q0 43 26 70t70 26q43 0 69 -26q26 -27 26 -70t-26 -68q-26 -26 -69 -26q-45 0 -70 26q-26 25 -26 68zM539 1626q0 43 25 70q26 27 69 26q45 0 70 -26q26 -27 26 -70t-26 -68 q-26 -26 -70 -26q-43 0 -69 26q-25 25 -25 68z" />
<glyph unicode="&#x179;" horiz-adv-x="899" d="M59 0v141l570 1069l67 82h-637v142h781v-142l-572 -1075l-65 -76h637v-141h-781zM354 1540l191 242h203v-43l-269 -199h-125z" />
<glyph unicode="&#x17a;" horiz-adv-x="737" d="M66 0v133l380 670l72 88h-452v133h598v-133l-383 -676l-70 -82h453v-133h-598zM299 1169l96 306h160v-43l-168 -263h-88z" />
<glyph unicode="&#x17b;" horiz-adv-x="899" d="M59 0v141l570 1069l67 82h-637v142h781v-142l-572 -1075l-65 -76h637v-141h-781zM342 1632q0 43 29 75t82 32t83 -32t29 -75q0 -47 -29 -78q-30 -31 -83 -30q-53 0 -82 30q-29 31 -29 78z" />
<glyph unicode="&#x17c;" horiz-adv-x="737" d="M66 0v133l380 670l72 88h-452v133h598v-133l-383 -676l-70 -82h453v-133h-598zM274 1335q0 49 28 80t73 31t75 -30t29 -81q0 -49 -29 -77q-30 -28 -75 -27q-45 0 -73 29q-28 28 -28 75z" />
<glyph unicode="&#x17d;" horiz-adv-x="899" d="M59 0v141l570 1069l67 82h-637v142h781v-142l-572 -1075l-65 -76h637v-141h-781zM168 1739v43h141l97 -103l28 -69l31 67l102 105h135v-45l-217 -209h-108z" />
<glyph unicode="&#x17e;" horiz-adv-x="737" d="M66 0v133l380 670l72 88h-452v133h598v-133l-383 -676l-70 -82h453v-133h-598zM131 1499h139l64 -135l35 -119l34 119l74 135h125l-203 -373h-77z" />
<glyph unicode="&#x17f;" horiz-adv-x="421" d="M33 891v133h125v57q0 193 55 279t186 86q57 0 100.5 -7t88.5 -28l-37 -123q-39 16 -68.5 20.5t-58.5 4.5q-41 0 -64.5 -16.5t-36 -51.5t-15.5 -89t-3 -132v-1024h-147v891h-125z" />
<glyph unicode="&#x192;" d="M-66 -383l41 125q37 -16 71 -25.5t75 -9.5q61 0 94 74t53 235l109 875h-137v133h157l19 137q20 150 72.5 223.5t175.5 73.5q55 0 111 -11t99 -32l-40 -123q-74 33 -148 33q-61 0 -86 -52t-39 -165l-10 -84h199v-133h-220l-127 -961q-10 -76 -28.5 -140t-49 -112.5 t-75.5 -76t-109 -27.5q-49 0 -107.5 11.5t-99.5 31.5z" />
<glyph unicode="&#x1f4;" horiz-adv-x="1007" d="M88 717q0 201 43 341t116 229t166 130t191 41t165 -13t114 -36l-37 -139q-41 23 -97 35t-131 12q-72 0 -137 -31q-66 -31 -117 -101q-52 -71 -83 -186t-31 -282q0 -307 97 -454q97 -146 267 -146q106 0 177 51v418l-265 39v90h396v-631q-57 -53 -148 -81 q-90 -28 -182 -28q-115 0 -208 43t-159 135q-66 91 -101 230q-36 139 -36 334zM508 1540l190 242h203v-43l-268 -199h-125z" />
<glyph unicode="&#x1f5;" horiz-adv-x="884" d="M76 508q0 264 101 399t300 135q96 0 166 -18t123 -43v-1028q0 -199 -88 -293t-256 -94q-102 0 -168 17t-107 40l43 127q41 -18 91 -35q49 -16 120 -16q125 0 171 70t46 233v76h-6q-33 -47 -84 -74t-131 -27q-166 0 -243 128q-78 128 -78 403zM229 510q0 -86 11 -159 q10 -73 34 -127q25 -54 63 -84t93 -29q78 0 123 41t65 122v603q-61 33 -157 32q-104 0 -168 -95q-63 -95 -64 -304zM408 1169l96 306h160v-43l-168 -263h-88z" />
<glyph unicode="&#x218;" horiz-adv-x="876" d="M68 49l53 141q39 -27 109 -50q71 -24 161 -23q115 0 187 56t71 177q0 80 -41 139t-102 110q-61 50 -132 98t-132 107q-61 58 -103 134q-41 76 -41 182q0 172 104 255q103 83 269 83q102 0 182 -18t129 -47l-49 -136q-37 23 -105 41q-69 18 -159 19q-111 0 -164 -54 t-53 -137q0 -72 41 -127t102 -104t132 -99t132 -112q61 -61 103 -139q41 -78 41 -185q0 -180 -107 -282q-106 -102 -301 -103q-123 0 -201 23q-79 23 -126 51zM322 -209q0 43 26 70q27 27 64 26q45 0 77 -34q33 -35 33 -119q0 -53 -15 -93t-37 -70t-45 -47q-24 -17 -42 -26 l-55 56q35 27 58 64q24 38 22 87q-35 -4 -61 19q-25 22 -25 67z" />
<glyph unicode="&#x219;" horiz-adv-x="692" d="M59 39l45 129q41 -25 98 -42q56 -17 115 -17q68 0 115 33q47 34 47 110q0 63 -28 104q-29 41 -73 74t-95 60q-51 28 -96 67q-44 39 -72 92q-29 53 -29 135q0 131 71 198t199 67q84 0 146 -16q61 -15 106 -42l-39 -123q-39 20 -90 34q-51 13 -104 13q-74 0 -108 -30 q-34 -31 -34 -97q0 -51 29 -87t73 -65q44 -30 95 -61t95 -72q44 -42 73 -101q29 -58 29 -146q0 -57 -19 -109q-18 -51 -56 -89t-94 -60q-56 -23 -132 -23q-90 0 -156 18q-66 17 -111 46zM240 -209q0 43 26 70q27 27 64 26q45 0 78 -34q33 -35 32 -119q0 -53 -15 -93t-37 -70 t-45 -47q-24 -17 -42 -26l-55 56q35 27 58 64q24 38 22 87q-35 -4 -61 19q-25 22 -25 67z" />
<glyph unicode="&#x21a;" horiz-adv-x="915" d="M29 1292v142h858v-142h-352v-1292h-154v1292h-352zM358 -209q0 43 27 70t64 26q45 0 77 -34q33 -35 33 -119q0 -53 -15 -93t-37 -70t-45 -47q-24 -17 -42 -26l-55 56q35 27 58 64q24 38 21 87q-35 -4 -60 19q-26 22 -26 67z" />
<glyph unicode="&#x21b;" horiz-adv-x="563" d="M18 891v133h125v203l148 47v-250h221v-133h-221v-610q0 -90 21 -130q22 -40 71 -40q41 0 71 9t64 23l29 -116q-45 -23 -100 -36q-54 -13 -113 -14q-102 0 -147 67q-44 67 -44 216v631h-125zM213 -209q0 43 27 70t63 26q45 0 78 -34q33 -35 33 -119q0 -53 -16 -93 q-15 -40 -37 -70t-45 -47q-24 -17 -42 -26l-55 56q35 27 59 64q24 38 21 87q-35 -4 -60 19q-26 22 -26 67z" />
<glyph unicode="&#x237;" horiz-adv-x="440" d="M8 -297q45 0 73 18.5t43 56.5t19 94t4 132v1020h148v-1079q0 -211 -67.5 -304.5t-219.5 -70.5v133z" />
<glyph unicode="&#x2bc;" horiz-adv-x="331" d="M63 1350q0 47 27 73q27 27 68 27q49 0 80 -34t30 -103q0 -66 -16 -115t-40 -83t-50 -55q-27 -22 -45 -32l-47 62q35 23 60 64q26 42 24 97q-37 -6 -64 21t-27 78z" />
<glyph unicode="&#x2c6;" horiz-adv-x="702" d="M123 1126l203 373h71l183 -373h-129l-66 136l-33 118l-35 -118l-73 -136h-121z" />
<glyph unicode="&#x2c7;" horiz-adv-x="716" d="M123 1499h139l64 -135l34 -119l35 119l74 135h125l-203 -373h-78z" />
<glyph unicode="&#x2d8;" horiz-adv-x="759" d="M123 1432l80 36q29 -74 78 -117.5t108 -43.5q57 0 101.5 43t70.5 118l76 -30q-4 -53 -25.5 -101.5t-54.5 -84t-77 -57t-93 -21.5q-96 0 -169 67.5t-95 190.5z" />
<glyph unicode="&#x2d9;" horiz-adv-x="450" d="M123 1335q0 49 27.5 80t72.5 31t75 -30t30 -81q0 -49 -30 -76.5t-75 -27.5t-72.5 28.5t-27.5 75.5z" />
<glyph unicode="&#x2da;" horiz-adv-x="583" d="M123 1317q0 86 45 134t123 48q74 0 122 -43t48 -139q0 -82 -46 -131t-124 -49t-123 46t-45 134zM221 1317q0 -47 20.5 -70.5t49.5 -23.5q33 0 52 22.5t19 71.5t-21.5 72.5t-49.5 23.5q-29 0 -49.5 -22.5t-20.5 -73.5z" />
<glyph unicode="&#x2db;" horiz-adv-x="569" d="M123 -223q0 88 50 148.5t128 94.5h98q-59 -33 -94 -83t-35 -115q2 -59 41 -91t115 -1l20 -82q-23 -23 -64.5 -35t-80.5 -12q-82 0 -130 49t-48 127z" />
<glyph unicode="&#x2dc;" horiz-adv-x="741" d="M123 1337q55 70 98 95.5t78 25.5q29 0 53.5 -12t48 -25.5t45 -26t46.5 -12.5q18 0 37.5 9.5t41.5 33.5l47 -77q-49 -59 -86.5 -82t-70.5 -23q-29 0 -53.5 11.5t-48 25.5t-46 25.5t-47.5 11.5q-23 0 -45 -11.5t-49 -39.5z" />
<glyph unicode="&#x2dd;" horiz-adv-x="708" d="M123 1169l57 265h142v-33l-119 -232h-80zM311 1169l121 265h154v-33l-189 -232h-86z" />
<glyph unicode="&#x301;" horiz-adv-x="4" d="M-690 1169l96 306h160v-43l-168 -263h-88z" />
<glyph unicode="&#x394;" horiz-adv-x="940" d="M23 0v76l411 1380h72l418 -1380v-76h-901zM186 133h568l-248 823l-37 234h-6l-43 -238z" />
<glyph unicode="&#x2206;" horiz-adv-x="940" d="M23 0v76l411 1380h72l418 -1380v-76h-901zM186 133h568l-248 823l-37 234h-6l-43 -238z" />
<glyph unicode="&#x3a9;" horiz-adv-x="1310" d="M119 0v133h186l154 -20v55l-88 20q-51 31 -97.5 86.5t-80 130t-54 167t-20.5 198.5q0 162 38 289t107.5 216t167.5 136t221 47q129 0 229.5 -51t169 -143.5t104.5 -220.5t36 -281q0 -111 -22.5 -202t-58.5 -163.5t-81 -124t-88 -82.5l-92 -22v-55l156 20h186v-133h-477 v238q47 12 102 46.5t102.5 99.5t79 161t31.5 227q0 98 -21.5 196.5t-67.5 175.5t-116.5 125t-171.5 48q-180 0 -276 -140.5t-96 -410.5q0 -129 29.5 -223t74.5 -159t100.5 -100.5t108.5 -45.5v-238h-475z" />
<glyph unicode="&#x2126;" horiz-adv-x="1310" d="M119 0v133h186l154 -20v55l-88 20q-51 31 -97.5 86.5t-80 130t-54 167t-20.5 198.5q0 162 38 289t107.5 216t167.5 136t221 47q129 0 229.5 -51t169 -143.5t104.5 -220.5t36 -281q0 -111 -22.5 -202t-58.5 -163.5t-81 -124t-88 -82.5l-92 -22v-55l156 20h186v-133h-477 v238q47 12 102 46.5t102.5 99.5t79 161t31.5 227q0 98 -21.5 196.5t-67.5 175.5t-116.5 125t-171.5 48q-180 0 -276 -140.5t-96 -410.5q0 -129 29.5 -223t74.5 -159t100.5 -100.5t108.5 -45.5v-238h-475z" />
<glyph unicode="&#x3c0;" horiz-adv-x="1095" d="M49 877q33 74 84 110.5t139 36.5h727v-133h-137v-662q0 -57 15.5 -80.5t37.5 -23.5q16 0 37 5t35 9l33 -108q-29 -12 -70 -25.5t-94 -13.5q-84 0 -112.5 59.5t-28.5 165.5v674h-297v-891h-148v891h-26q-61 0 -107 -84z" />
<glyph unicode="&#x401;" horiz-adv-x="878" d="M131 0v1434h637v-142h-483v-485h444v-141h-444v-525h493v-141h-647zM184 1626q0 43 26 70t71 26q43 0 68 -26q26 -27 26 -70t-26 -68q-26 -26 -68 -26q-45 0 -71 26q-26 25 -26 68zM508 1626q0 43 26 70t68 26q45 0 71 -26q26 -27 25 -70q0 -43 -25 -68q-26 -26 -71 -26 q-43 0 -68 26q-26 25 -26 68z" />
<glyph unicode="&#x402;" horiz-adv-x="1204" d="M29 1292v142h862v-142h-354v-442q20 8 79.5 26.5t151.5 18.5q68 0 130.5 -19.5t111.5 -68.5t78.5 -132t29.5 -212q0 -246 -95 -362.5t-290 -116.5q-53 0 -78.5 1t-38.5 5v141q23 -4 47.5 -5t69.5 -1q223 0 223 324q0 88 -17 147t-50 94t-77 49.5t-95 14.5 q-29 0 -57.5 -5.5t-53 -13.5t-43 -15t-26.5 -11v-709h-154v1292h-354z" />
<glyph unicode="&#x403;" horiz-adv-x="731" d="M131 0v1434h627v-142h-473v-1292h-154zM322 1540l190 242h203v-43l-269 -199h-124z" />
<glyph unicode="&#x404;" horiz-adv-x="960" d="M88 717q0 205 42 346t111.5 229t161 127t187.5 39q98 0 165.5 -14t114.5 -35l-39 -139q-39 23 -97 35t-130 12q-66 0 -126 -26.5t-107 -87t-79 -157t-40 -235.5h496v-141h-498q10 -276 112.5 -414.5t266.5 -138.5q72 0 127 19.5t92 45.5l37 -127q-51 -43 -131 -61.5 t-166 -18.5q-109 0 -201 41t-158.5 130.5t-103.5 230.5t-37 340z" />
<glyph unicode="&#x405;" horiz-adv-x="876" d="M68 49l53 141q39 -27 109 -50q71 -24 161 -23q115 0 187 56t71 177q0 80 -41 139t-102 110q-61 50 -132 98t-132 107q-61 58 -103 134q-41 76 -41 182q0 172 104 255q103 83 269 83q102 0 182 -18t129 -47l-49 -136q-37 23 -105 41q-69 18 -159 19q-111 0 -164 -54 t-53 -137q0 -72 41 -127t102 -104t132 -99t132 -112q61 -61 103 -139q41 -78 41 -185q0 -180 -107 -282q-106 -102 -301 -103q-123 0 -201 23q-79 23 -126 51z" />
<glyph unicode="&#x406;" horiz-adv-x="477" d="M162 0v1434h153v-1434h-153z" />
<glyph unicode="&#x407;" horiz-adv-x="483" d="M39 1624q0 45 24.5 71.5t65.5 26.5t64.5 -26.5t23.5 -71.5t-23.5 -70.5t-64.5 -25.5t-65.5 25.5t-24.5 70.5zM164 0v1434h153v-1434h-153zM266 1624q0 45 23.5 71.5t64.5 26.5t65.5 -26.5t24.5 -71.5t-24.5 -70.5t-65.5 -25.5t-64.5 25.5t-23.5 70.5z" />
<glyph unicode="&#x408;" horiz-adv-x="493" d="M-53 12l33 133q20 -12 46 -18t52 -6q37 0 59 16q23 16 35 46t15 72t3 95v1084h154v-1112q0 -168 -54 -255t-190 -87q-33 0 -78 8q-46 8 -75 24z" />
<glyph unicode="&#x409;" horiz-adv-x="1529" d="M-8 10l22 140q41 -12 76 5t66 95q23 55 42 148.5t34.5 236.5t25.5 339.5t14 459.5h625v-557q27 6 77 12t89 6q82 0 156.5 -19.5t132 -68.5t91.5 -132t34 -210q0 -125 -32 -215t-91.5 -149.5t-143.5 -88t-188 -28.5q-23 0 -56.5 1t-71.5 4t-78 8t-73 15v1280h-323 q-16 -412 -43 -688t-82 -426q-35 -98 -86 -143t-117 -45q-59 0 -100 20zM897 135q25 -6 63.5 -8t77.5 -2q125 0 201 80t76 246q0 88 -21.5 146t-59.5 93t-89 49.5t-109 14.5q-14 0 -34.5 -2t-40 -4.5t-38 -6.5t-26.5 -6v-600z" />
<glyph unicode="&#x40a;" horiz-adv-x="1599" d="M131 0v1434h154v-600h528v600h154v-600q8 2 27.5 5t44 5t50 4t44.5 2q80 0 154.5 -16.5t132 -61.5t92 -125t34.5 -205q0 -123 -32.5 -210t-92 -142t-142.5 -80.5t-185 -25.5q-23 0 -58 1t-72.5 4t-77.5 9t-73 14v680h-528v-692h-154zM967 137q23 -8 63.5 -10t81.5 -2 q123 0 197.5 72.5t74.5 232.5q0 86 -21.5 140.5t-59 85t-88 42t-105.5 11.5q-14 0 -35.5 -2t-43 -4.5t-39 -6.5t-25.5 -6v-553z" />
<glyph unicode="&#x40b;" horiz-adv-x="1239" d="M29 1292v142h858v-142h-352v-479q43 31 116.5 59.5t167.5 28.5q72 0 130.5 -19.5t99.5 -65.5t63.5 -123t22.5 -191v-502h-154v477q0 154 -47 218.5t-150 64.5q-74 0 -141.5 -25.5t-107.5 -66.5v-668h-154v1292h-352z" />
<glyph unicode="&#x40c;" horiz-adv-x="1009" d="M131 0v1434h154v-668l71 29l373 639h176l-375 -619l-71 -65l84 -82l415 -668h-194l-406 664h-73v-664h-154zM375 1540l190 242h203v-43l-268 -199h-125z" />
<glyph unicode="&#x40e;" horiz-adv-x="917" d="M6 1434h180l281 -736l39 -182h10l33 189l213 729h158l-293 -932q-45 -143 -79 -242q-34 -98 -68 -158q-34 -59 -74 -86q-41 -27 -101 -26q-53 0 -88 10t-65 33l45 131q33 -23 59 -28q27 -5 49 -5q45 0 76 63q31 62 53 177zM201 1747l147 35q4 -76 42 -121t104 -45t101 45 q36 45 42 119l131 -31q-16 -117 -84 -180t-192 -64q-121 0 -200 58q-79 57 -91 184z" />
<glyph unicode="&#x40f;" horiz-adv-x="1077" d="M131 0v1434h154v-1293h508v1293h153v-1434h-332l-26 -367h-96l-33 367h-328z" />
<glyph unicode="&#x410;" horiz-adv-x="968" d="M10 0l432 1456h84l432 -1456h-159l-117 401h-406l-114 -401h-152zM317 539h328l-125 442l-39 215h-4l-39 -219z" />
<glyph unicode="&#x411;" horiz-adv-x="911" d="M131 12v1422h641v-142h-487v-440q29 6 70.5 12t80.5 6q86 0 162 -19.5t132 -66.5t89 -128t33 -203q0 -123 -32 -212t-88 -145.5t-134 -84t-172 -27.5q-29 0 -66.5 1t-77.5 4t-80 9t-71 14zM285 137q23 -8 68.5 -10t86.5 -2q111 0 180.5 71.5t69.5 227.5q0 98 -21.5 158.5 t-58.5 93.5t-87 43t-107 10q-14 0 -32.5 -2t-38 -4t-36 -6t-24.5 -6v-574z" />
<glyph unicode="&#x412;" horiz-adv-x="964" d="M131 10v1411q61 12 144 21q83 8 180 8q70 0 139 -13q70 -13 125 -51q55 -37 89 -103t34 -175q0 -53 -13 -107q-12 -53 -38 -100q-27 -47 -67 -84t-97 -55v-8q49 -10 94 -34t80 -66t55 -102t21 -144q0 -111 -35 -192t-96 -132q-60 -51 -139 -76t-167 -24h-66q-38 0 -81 3 t-85 8t-77 15zM285 139q12 -4 31 -6t43 -4t49 -3t45 -1q55 0 102 17t83 53q36 35 56 85t21 117q0 84 -26 137q-26 52 -66 80q-41 29 -94 39q-52 10 -107 11h-137v-525zM285 797h84q29 0 65 2q37 2 62 6q76 31 130 99q54 69 54 169q0 68 -18 114t-51 73q-32 27 -74 37 q-43 11 -91 12q-53 0 -96 -3t-65 -8v-501z" />
<glyph unicode="&#x413;" horiz-adv-x="731" d="M131 0v1434h627v-142h-473v-1292h-154z" />
<glyph unicode="&#x414;" horiz-adv-x="1110" d="M6 141h119q12 23 40 107t55.5 240.5t48 391t18.5 554.5h631v-1293h149v-405h-109l-24 264h-795l-24 -264h-109v405zM287 141h477v1151h-330q-10 -453 -53 -733t-94 -418z" />
<glyph unicode="&#x415;" horiz-adv-x="878" d="M131 0v1434h637v-142h-483v-485h444v-141h-444v-525h493v-141h-647z" />
<glyph unicode="&#x416;" horiz-adv-x="1339" d="M-4 0l352 643l80 76l-76 72l-332 643h181l315 -643h72v643h147v-668l70 29l315 639h172l-321 -623l-68 -66l84 -81l356 -664h-190l-344 666h-74v-666h-147v690l-68 -28l-344 -662h-180z" />
<glyph unicode="&#x417;" horiz-adv-x="888" d="M63 29l41 139q41 -23 106.5 -37t160.5 -14q55 0 104 19.5t86 56t58.5 93t21.5 130.5q0 133 -70.5 193.5t-189.5 70.5q-20 2 -35.5 2h-38.5h-84v133h37q31 0 76 2t72 8q82 20 140 85t58 163q0 135 -65.5 189.5t-165.5 54.5q-80 0 -141.5 -14.5t-100.5 -36.5l-41 125 q37 23 122 45t192 22q70 0 135 -16.5t115.5 -56t81 -108.5t30.5 -171q0 -104 -52 -195.5t-161 -136.5v-8q115 -23 181.5 -110t66.5 -234q0 -119 -36 -203t-96.5 -138t-140 -80t-165.5 -26q-109 0 -181.5 14.5t-120.5 39.5z" />
<glyph unicode="&#x418;" horiz-adv-x="1114" d="M131 0v1434h154v-953l-15 -184h9l71 192l533 945h100v-1434h-154v938l13 188h-6l-72 -192l-531 -934h-102z" />
<glyph unicode="&#x419;" horiz-adv-x="1114" d="M131 0v1434h154v-953l-15 -184h9l71 192l533 945h100v-1434h-154v938l13 188h-6l-72 -192l-531 -934h-102zM281 1747l147 35q4 -76 42 -121t103 -45q66 0 102 45t42 119l131 -31q-16 -117 -84 -180t-193 -64q-121 0 -199 58q-79 57 -91 184z" />
<glyph unicode="&#x41a;" horiz-adv-x="1009" d="M131 0v1434h154v-668l71 29l373 639h176l-375 -619l-71 -65l84 -82l415 -668h-194l-406 664h-73v-664h-154z" />
<glyph unicode="&#x41b;" horiz-adv-x="1028" d="M-8 10l22 142q41 -12 76 4t66 94q23 55 42 148.5t34.5 236.5t25.5 339.5t14 459.5h625v-1434h-154v1292h-323q-16 -412 -43 -688t-82 -426q-35 -98 -86 -143t-117 -45q-59 0 -100 20z" />
<glyph unicode="&#x41c;" horiz-adv-x="1304" d="M131 0v1434h129l346 -705l51 -168h5l49 170l327 703h136v-1434h-154v942l18 217h-8l-65 -203l-289 -622h-51l-303 622l-64 203h-8l29 -217v-942h-148z" />
<glyph unicode="&#x41d;" horiz-adv-x="1097" d="M131 0v1434h154v-631h528v631h154v-1434h-154v662h-528v-662h-154z" />
<glyph unicode="&#x41e;" horiz-adv-x="1124" d="M88 717q0 365 117 553t356 188q129 0 219 -52t147 -149q56 -96 83 -233t26 -307q0 -365 -117 -553q-118 -188 -358 -189q-127 0 -217 53q-90 52 -147 148t-83 234q-26 137 -26 307zM250 717q0 -121 17 -230t55 -190q37 -82 96 -131t143 -49q154 0 234 147t79 453 q0 119 -17 227q-17 109 -54 192t-96 132t-146 49q-152 0 -231 -148q-80 -147 -80 -452z" />
<glyph unicode="&#x41f;" horiz-adv-x="1077" d="M131 0v1434h815v-1434h-153v1292h-508v-1292h-154z" />
<glyph unicode="&#x420;" horiz-adv-x="923" d="M131 0v1419q66 18 139 25q74 6 146 6q82 0 162 -18t144 -68q65 -49 104 -135q40 -86 40 -219q0 -129 -38 -219t-100 -147q-62 -56 -143 -82t-167 -25h-27q-18 0 -39 1q-20 1 -40 3q-19 2 -27 4v-545h-154zM285 686q8 -4 25 -5t36 -2q18 -1 36 -1h26q57 0 110 14t94 52 t67 103t26 163q0 86 -24 143t-61 92q-38 35 -90 49q-51 15 -106 15q-41 0 -79 -3t-60 -10v-610z" />
<glyph unicode="&#x421;" horiz-adv-x="937" d="M88 717q0 205 42 346t112 229t160 127q91 39 188 39q98 0 163 -14t111 -35l-37 -139q-41 23 -96 35t-127 12t-135 -32t-113 -102q-49 -71 -77 -186q-29 -115 -29 -280q0 -299 102 -450t273 -150q70 0 125 19t94 46l37 -127q-51 -43 -129 -61t-164 -19q-109 0 -201 41 t-159 130t-103 231q-37 141 -37 340z" />
<glyph unicode="&#x422;" horiz-adv-x="915" d="M29 1292v142h858v-142h-352v-1292h-154v1292h-352z" />
<glyph unicode="&#x423;" horiz-adv-x="917" d="M6 1434h180l281 -736l39 -182h10l33 189l213 729h158l-293 -932q-45 -143 -79 -241.5t-68 -158t-74.5 -86t-100.5 -26.5q-53 0 -88 10t-65 33l45 131q33 -23 59.5 -28t48.5 -5q45 0 76 62.5t53 177.5z" />
<glyph unicode="&#x424;" horiz-adv-x="1296" d="M63 717q0 289 108 439.5t292 150.5q23 0 56.5 -2t51.5 -7v177h154v-183q29 10 72 12.5t69 2.5q80 0 147.5 -34t117 -103.5t76 -177t26.5 -255.5q0 -152 -31 -262t-84 -182t-125.5 -107.5t-154.5 -35.5q-18 0 -55.5 3t-57.5 11v-205h-154v201q-29 -6 -67.5 -8t-73.5 -2 q-80 0 -146.5 30.5t-115.5 99t-77 176t-28 261.5zM221 717q0 -203 62.5 -318.5t179.5 -115.5q18 0 54 1t58 11v870q-20 4 -48.5 6.5t-51.5 2.5q-113 0 -183.5 -113t-70.5 -344zM721 289q16 -4 45 -5t51 -1q115 0 186.5 111.5t71.5 342.5q0 98 -15.5 178t-45 137.5 t-73.5 89.5t-101 32q-23 0 -60 -2.5t-59 -12.5v-870z" />
<glyph unicode="&#x425;" horiz-adv-x="1024" d="M39 0l377 729l-344 705h184l223 -486l41 -121l41 121l236 486h170l-357 -691l373 -743h-180l-248 514l-47 127l-43 -127l-254 -514h-172z" />
<glyph unicode="&#x426;" horiz-adv-x="1128" d="M131 0v1434h154v-1293h495v1293h154v-1293h151v-405h-106l-27 264h-821z" />
<glyph unicode="&#x427;" horiz-adv-x="997" d="M113 899v535h153v-500q0 -150 51.5 -208t149.5 -58q72 0 138.5 26.5t107.5 69.5v670h153v-1434h-153v614q-41 -31 -115 -59.5t-164 -28.5q-66 0 -124 16.5t-102 58.5t-69.5 113.5t-25.5 184.5z" />
<glyph unicode="&#x428;" horiz-adv-x="1431" d="M131 0v1434h154v-1293h354v1293h154v-1293h354v1293h153v-1434h-1169z" />
<glyph unicode="&#x429;" horiz-adv-x="1497" d="M131 0v1434h154v-1293h354v1293h154v-1293h354v1293h153v-1293h154v-405h-108l-25 264h-1190z" />
<glyph unicode="&#x42a;" horiz-adv-x="1050" d="M-2 1292v142h418v-557q12 2 32.5 6t44 6t48 4t43.5 2q80 0 154.5 -19.5t132 -68.5t92 -132t34.5 -212q0 -127 -32.5 -217t-92 -148.5t-143.5 -86t-186 -27.5q-23 0 -57.5 1t-72.5 4t-78 8t-73 15v1280h-264zM416 137q23 -6 63.5 -9t79.5 -3q123 0 200 78t77 248 q0 90 -22.5 149t-60.5 93t-89.5 47.5t-106.5 13.5q-14 0 -35.5 -2t-42 -4.5t-38 -6.5t-25.5 -6v-598z" />
<glyph unicode="&#x42b;" horiz-adv-x="1273" d="M131 12v1422h154v-557q18 4 61 11t84 7q80 0 152.5 -18.5t128 -66.5t88 -132t32.5 -213q0 -250 -115.5 -365.5t-322.5 -115.5q-47 0 -121.5 5t-140.5 23zM285 139q41 -14 123 -14q123 0 192.5 80t69.5 246q0 90 -20.5 148t-56.5 93t-85 48.5t-107 13.5q-29 0 -64.5 -6.5 t-51.5 -12.5v-596zM989 0v1434h154v-1434h-154z" />
<glyph unicode="&#x42c;" horiz-adv-x="919" d="M131 12v1422h154v-557q25 6 77 12t91 6q82 0 156.5 -19.5t132 -68.5t91 -132t33.5 -210q0 -125 -31.5 -215t-91 -149.5t-143.5 -88t-188 -28.5q-23 0 -58 1t-72.5 4t-77.5 8t-73 15zM285 137q25 -6 64.5 -9t78.5 -3q125 0 201 80t76 246q0 88 -21.5 146t-59.5 93 t-89.5 49.5t-108.5 14.5q-14 0 -34.5 -2t-42 -4.5t-39 -6.5t-25.5 -6v-598z" />
<glyph unicode="&#x42d;" horiz-adv-x="952" d="M61 1380q57 37 136 57.5t165 20.5q113 0 205 -40t158 -128t102.5 -229t36.5 -342q0 -203 -41 -345.5t-112.5 -230.5t-168 -128t-208.5 -40q-84 0 -152.5 14.5t-115.5 37.5l43 139q39 -20 102 -34.5t131 -14.5q70 0 134.5 29.5t115.5 94t83 168t36 253.5h-469v137h469 q-10 260 -109.5 389t-255.5 129q-78 0 -137 -18.5t-103 -45.5z" />
<glyph unicode="&#x42e;" horiz-adv-x="1472" d="M131 0v1434h154v-631h194q10 317 121 486t334 169q125 0 212 -52t139 -148.5t75.5 -233.5t23.5 -307q0 -362 -107.5 -552t-344.5 -190q-121 0 -205 48.5t-139.5 138.5t-82 216t-28.5 284h-192v-662h-154zM635 717q0 -121 15.5 -229.5t50 -191.5t92 -131t141.5 -48 q154 0 221.5 146.5t67.5 453.5q0 119 -13.5 228.5t-46.5 191.5t-88 131t-141 49q-154 0 -226.5 -147.5t-72.5 -452.5z" />
<glyph unicode="&#x42f;" horiz-adv-x="944" d="M39 0l252 518l98 86q-119 31 -193.5 132.5t-74.5 279.5q0 127 34.5 211t94 134t139.5 69.5t170 19.5q55 0 124 -6t130 -25v-1419h-154v629l-163 -43l-279 -586h-178zM283 1016q0 -158 75.5 -227.5t190.5 -69.5h110v577q-23 8 -49 10.5t-63 2.5q-53 0 -100.5 -13.5 t-84 -47.5t-58 -90t-21.5 -142z" />
<glyph unicode="&#x430;" horiz-adv-x="819" d="M59 274q0 88 30 148q30 59 84 96t129 52t167 16h41q20 0 43 -2q6 63 6 112q0 117 -35 164t-127 47q-57 0 -125 -17t-112 -44l-49 117q59 37 144 57t179 20q86 0 138 -25q52 -26 82 -70t39 -100t9 -118q0 -123 -5 -240t-5 -221q0 -78 5 -144q5 -67 20 -126h-113l-35 121 h-8q-31 -53 -90 -92t-160 -39q-111 0 -181 76q-71 77 -71 212zM213 291q0 -82 40 -127t103 -45q86 0 133 41t66 90v217q-20 2 -41 3q-20 1 -41 1q-49 0 -96 -8t-84 -29q-37 -20 -59 -55t-21 -88z" />
<glyph unicode="&#x431;" horiz-adv-x="884" d="M76 621q0 176 15 301t43 211t67 137t88 80.5t107.5 42t123.5 20.5q86 10 137.5 24.5t81.5 49.5l11 -146q-16 -16 -37 -27t-49.5 -19.5t-66.5 -13.5t-89 -9q-70 -6 -122 -26.5t-90 -66.5t-60.5 -126t-30.5 -203h4q53 96 118.5 133t164.5 37q152 0 234.5 -119t82.5 -366 q0 -285 -96.5 -422.5t-268.5 -137.5q-92 0 -160.5 36t-114.5 113t-69.5 199.5t-23.5 297.5zM229 510q0 -84 12.5 -156.5t39 -127t66.5 -86t95 -31.5q106 0 159.5 100t53.5 311q0 168 -45 267.5t-147 99.5q-121 0 -177.5 -98.5t-56.5 -278.5z" />
<glyph unicode="&#x432;" horiz-adv-x="825" d="M121 2v1020q57 4 124.5 10t162.5 6q166 0 237.5 -62.5t71.5 -189.5q0 -72 -34 -139t-114 -102v-8q98 -23 139.5 -83.5t41.5 -164.5q0 -160 -94.5 -231.5t-280.5 -71.5q-70 0 -133.5 5t-120.5 11zM268 127q31 -4 58.5 -6t68.5 -2q104 0 152.5 43t48.5 139q0 74 -41 122 t-149 48h-138v-344zM268 588h152q29 0 55.5 13t48 35.5t33.5 52.5t12 63q0 80 -37.5 116.5t-130.5 36.5q-49 0 -77.5 -2t-55.5 -4v-311z" />
<glyph unicode="&#x433;" horiz-adv-x="606" d="M121 0v1024h487v-133h-340v-891h-147z" />
<glyph unicode="&#x434;" horiz-adv-x="899" d="M6 133h96q12 23 34 83t42.5 168t35.5 265.5t17 374.5h514v-891h121v-393h-102l-25 260h-606l-27 -260h-100v393zM252 133h346v758h-231q-4 -88 -11.5 -192.5t-22 -208t-34.5 -197.5t-47 -160z" />
<glyph unicode="&#x435;" horiz-adv-x="845" d="M76 512q0 262 96 399t272 138q57 0 114 -15q56 -14 101 -57t73 -121t28 -203q0 -35 -3 -74q-3 -40 -7 -83h-521q0 -88 15 -160q14 -72 45 -122t79 -78t119 -27q55 0 110 20q54 20 83 49l53 -108q-49 -45 -125 -70t-159 -25q-96 0 -167 38t-117 109t-68 169t-21 221z M231 618h387q4 154 -43 226t-129 71q-94 0 -149 -71q-55 -72 -66 -226z" />
<glyph unicode="&#x436;" horiz-adv-x="1099" d="M0 0l252 469l55 61l-84 78l-205 416h156l213 -442h84v442h147v-463l76 29l213 434h154l-215 -416l-66 -65l84 -82l236 -461h-170l-230 461h-82v-461h-147v481l-76 -28l-229 -453h-166z" />
<glyph unicode="&#x437;" horiz-adv-x="718" d="M53 39l39 127q39 -25 92.5 -37t110.5 -12q100 0 150.5 47t50.5 135q0 74 -47.5 117t-157.5 43h-92v127h112q29 0 56.5 13t49 35.5t35 52.5t13.5 63q0 80 -42 116.5t-128 36.5q-63 0 -115.5 -18.5t-81.5 -38.5l-43 117q51 33 120 53t157 20q135 0 207.5 -62.5t72.5 -187.5 q0 -78 -38.5 -143t-106.5 -94v-8q94 -23 135 -86.5t41 -167.5q0 -129 -86 -216t-264 -87q-82 0 -138.5 15t-101.5 40z" />
<glyph unicode="&#x438;" horiz-adv-x="899" d="M121 0v1024h147v-608l-12 -150h8l68 168l350 590h96v-1024h-147v590l12 155h-8l-72 -172l-346 -573h-96z" />
<glyph unicode="&#x439;" horiz-adv-x="899" d="M121 0v1024h147v-608l-12 -150h8l68 168l350 590h96v-1024h-147v590l12 155h-8l-72 -172l-346 -573h-96zM197 1399l125 39q10 -94 50 -134t93 -40t93 43t50 129l113 -33q-16 -123 -89 -188t-171 -64q-47 0 -91 13t-80 43t-61 77t-32 115z" />
<glyph unicode="&#x43a;" horiz-adv-x="792" d="M121 0v1024h147v-463l70 29l250 434h157l-243 -412l-72 -67l88 -82l262 -463h-176l-260 461h-76v-461h-147z" />
<glyph unicode="&#x43b;" horiz-adv-x="833" d="M-12 10l22 129q43 -12 77 5.5t58.5 106.5t40 272.5t21.5 500.5h506v-1024h-148v891h-223q-6 -174 -16.5 -337t-36 -288t-72.5 -199.5t-125 -74.5q-35 0 -59.5 4t-44.5 14z" />
<glyph unicode="&#x43c;" horiz-adv-x="1069" d="M121 0v1024h147l224 -444l45 -134h4l49 138l207 440h151v-1024h-147v608l14 195h-8l-62 -174l-190 -393h-53l-199 393l-55 174h-10l16 -193v-610h-133z" />
<glyph unicode="&#x43d;" horiz-adv-x="888" d="M121 0v1024h147v-434h355v434h147v-1024h-147v457h-355v-457h-147z" />
<glyph unicode="&#x43e;" horiz-adv-x="884" d="M76 512q0 276 95 407q95 130 271 130q188 0 278 -134q89 -133 89 -403q0 -279 -96 -408t-271 -129q-188 0 -277 134q-89 133 -89 403zM229 512q0 -90 12 -164q11 -74 37 -127t66 -83q41 -30 98 -29q106 0 160 95q53 95 53 308q0 88 -11 163t-37 128t-66 83q-41 30 -99 29 q-104 0 -158 -96q-55 -96 -55 -307z" />
<glyph unicode="&#x43f;" horiz-adv-x="880" d="M121 0v1024h639v-1024h-148v891h-344v-891h-147z" />
<glyph unicode="&#x440;" horiz-adv-x="890" d="M121 -410v1434h104l23 -111h8q76 135 238 136q162 0 242 -121q81 -121 81 -396q0 -129 -26 -232q-27 -103 -76 -176t-120 -111t-157 -38q-59 0 -94 8q-35 7 -76 29v-422h-147zM268 162q29 -25 65 -39t95 -14q109 0 172 110q63 111 64 316q0 86 -12 155q-11 70 -36 120 t-62 78q-38 28 -93 27q-150 0 -193 -182v-571z" />
<glyph unicode="&#x441;" horiz-adv-x="729" d="M76 512q0 262 93 399t267 138q80 0 137 -15q57 -14 99 -37l-41 -129q-82 47 -178 47q-111 0 -167 -97t-57 -306q0 -84 13 -158q12 -74 41 -128t73 -86q45 -32 113 -31q53 0 99 18t75 43l43 -119q-51 -39 -117 -57t-137 -19q-98 0 -166 38t-109 109q-42 71 -62 170 q-19 99 -19 220z" />
<glyph unicode="&#x442;" horiz-adv-x="655" d="M2 891v133h651v-133h-252v-891h-147v891h-252z" />
<glyph unicode="&#x443;" horiz-adv-x="770" d="M14 1024h168l193 -662l43 -198h10l31 198l155 662h150l-244 -920q-29 -111 -57 -206q-29 -96 -63 -167t-75 -111q-42 -40 -100 -40q-57 0 -100 19l25 139q29 -10 57 -4q29 6 54 35q26 29 47 85q22 56 38 146z" />
<glyph unicode="&#x444;" horiz-adv-x="1126" d="M68 512q0 272 89 400t255 128q47 0 80 -8v402h143v-404q29 6 52.5 8t43.5 2q82 0 143.5 -26.5t102.5 -86t61.5 -156.5t20.5 -239q0 -276 -87 -416.5t-247 -140.5q-16 0 -45 3.5t-45 11.5v-400h-143v402q-29 -12 -59 -14.5t-54 -2.5q-152 0 -231.5 128t-79.5 409zM215 512 q0 -188 48.5 -299t152.5 -111q20 0 38.5 2t41.5 9v792q-35 8 -76 8q-96 0 -150.5 -93t-54.5 -308zM631 109q16 -4 35.5 -5.5t44.5 -1.5q201 0 200 430q0 188 -46 284.5t-163 96.5q-20 0 -34.5 -1t-36.5 -9v-794z" />
<glyph unicode="&#x445;" horiz-adv-x="843" d="M39 0l291 524l-271 500h177l151 -293l41 -115l43 115l156 293h161l-272 -492l289 -532h-168l-172 322l-45 122l-47 -122l-172 -322h-162z" />
<glyph unicode="&#x446;" horiz-adv-x="905" d="M121 0v1024h147v-891h338v891h148v-891h118v-393h-102l-25 260h-624z" />
<glyph unicode="&#x447;" horiz-adv-x="811" d="M74 678v346h147v-299q0 -51 5 -92t19.5 -71t41 -45t69.5 -15q72 0 117 18.5t70 40.5v463h147v-1024h-147v430q-25 -18 -77 -39.5t-140 -21.5q-59 0 -106.5 15t-79 50t-49 94.5t-17.5 149.5z" />
<glyph unicode="&#x448;" horiz-adv-x="1216" d="M121 0v1024h147v-891h267v891h147v-891h266v891h148v-1024h-975z" />
<glyph unicode="&#x449;" horiz-adv-x="1247" d="M121 0v1024h147v-891h267v891h147v-891h266v891h148v-891h118v-393h-102l-25 260h-966z" />
<glyph unicode="&#x44a;" horiz-adv-x="833" d="M0 891v133h328v-391q39 8 76.5 11t70.5 3q86 0 145.5 -23.5t96.5 -64.5t53 -97t16 -120q0 -186 -89 -270t-287 -84q-117 0 -230 12v891h-180zM328 133q29 -6 58.5 -9t53.5 -3q100 0 146.5 50t46.5 153q0 92 -45 144t-144 52q-27 0 -57.5 -3t-58.5 -11v-373z" />
<glyph unicode="&#x44b;" horiz-adv-x="1101" d="M121 0v1024h147v-391q41 8 78 11t70 3q84 0 141 -23.5t91 -64.5t48.5 -97t14.5 -120q0 -186 -83 -270t-276 -84q-119 0 -231 12zM268 133q61 -12 113 -12q98 0 137 52t39 151q0 92 -38 144t-134 52q-27 0 -57.5 -3t-59.5 -11v-373zM834 0v1024h147v-1024h-147z" />
<glyph unicode="&#x44c;" horiz-adv-x="772" d="M121 0v1024h147v-391q41 8 78 11t70 3q86 0 145.5 -23.5t96 -64.5t53 -97t16.5 -120q0 -186 -90 -270t-283 -84q-121 0 -233 12zM268 133q61 -12 113 -12q193 0 192 203q0 92 -45 144t-143 52q-27 0 -57.5 -3t-59.5 -11v-373z" />
<glyph unicode="&#x44d;" horiz-adv-x="761" d="M57 25l41 131q39 -23 92.5 -35t102.5 -12q227 0 239 344h-339v127h339q-6 160 -64 247.5t-165 87.5q-66 0 -115 -18t-79 -41l-52 117q47 35 115 55.5t156 20.5q184 0 271 -133.5t87 -403.5q0 -268 -99.5 -402.5t-279.5 -134.5q-158 0 -250 50z" />
<glyph unicode="&#x44e;" horiz-adv-x="1189" d="M121 0v1024h147v-430h160q14 227 97 340t249 113q182 0 261 -140.5t79 -394.5q0 -272 -84 -403.5t-258 -131.5q-180 0 -258 125t-88 359h-158v-461h-147zM571 512q0 -82 9.5 -154.5t33 -128t62.5 -87t98 -31.5q100 0 143.5 93t43.5 308q0 88 -9.5 162t-31 127t-57.5 82.5 t-91 29.5q-106 0 -153.5 -99t-47.5 -302z" />
<glyph unicode="&#x44f;" horiz-adv-x="792" d="M31 0l190 352l66 74q-84 16 -142.5 86t-58.5 188q0 184 99.5 266.5t271.5 82.5q63 0 119.5 -9.5t107.5 -21.5v-1018h-147v424l-125 -25l-207 -399h-174zM240 709q0 -94 59 -146.5t158 -48.5l80 4v379q-20 10 -47 14t-48 4q-98 0 -150 -51t-52 -155z" />
<glyph unicode="&#x451;" horiz-adv-x="845" d="M76 512q0 262 96 399t272 138q57 0 114 -15q56 -14 101 -57t73 -121t28 -203q0 -35 -3 -74q-3 -40 -7 -83h-521q0 -88 15 -160q14 -72 45 -122t79 -78t119 -27q55 0 110 20q54 20 83 49l53 -108q-49 -45 -125 -70t-159 -25q-96 0 -167 38t-117 109t-68 169t-21 221z M184 1298q0 47 24 74t64 27q41 0 65 -27t23 -74q0 -43 -23 -69q-24 -27 -65 -27t-64 27q-24 26 -24 69zM231 618h387q4 154 -43 226t-129 71q-94 0 -149 -71q-55 -72 -66 -226zM510 1298q0 47 24 74t64 27q41 0 65 -27t23 -74q0 -43 -23 -69q-24 -27 -65 -27t-64 27 q-24 26 -24 69z" />
<glyph unicode="&#x452;" horiz-adv-x="907" d="M-4 1108v121h133v205h147v-205h263v-121h-263v-287h7q41 55 101 88t151 33q68 0 117.5 -18.5t82.5 -61.5t49.5 -114.5t16.5 -178.5v-628q0 -207 -67.5 -296t-219.5 -67v133q45 0 72.5 16.5t43 52.5t19.5 91t4 129v512q0 160 -33.5 228.5t-136.5 68.5q-72 0 -128 -47 t-79 -123v-639h-147v1108h-133z" />
<glyph unicode="&#x453;" horiz-adv-x="606" d="M121 0v1024h487v-133h-340v-891h-147zM289 1169l96 306h160v-43l-168 -263h-88z" />
<glyph unicode="&#x454;" horiz-adv-x="770" d="M76 512q0 260 107.5 397.5t287.5 137.5q78 0 134.5 -12.5t99.5 -37.5l-39 -129q-41 23 -88.5 34t-96.5 11q-111 0 -175 -81.5t-77 -247.5h373v-127h-373q4 -70 21.5 -132.5t49.5 -110.5t79 -75.5t115 -27.5q55 0 104 17t78 40l43 -119q-47 -35 -118 -53.5t-140 -18.5 q-98 0 -171 38t-121 108t-70.5 169t-22.5 220z" />
<glyph unicode="&#x455;" horiz-adv-x="692" d="M59 39l45 129q41 -25 98 -42q56 -17 115 -17q68 0 115 33q47 34 47 110q0 63 -28 104q-29 41 -73 74t-95 60q-51 28 -96 67q-44 39 -72 92q-29 53 -29 135q0 131 71 198t199 67q84 0 146 -16q61 -15 106 -42l-39 -123q-39 20 -90 34q-51 13 -104 13q-74 0 -108 -30 q-34 -31 -34 -97q0 -51 29 -87t73 -65q44 -30 95 -61t95 -72q44 -42 73 -101q29 -58 29 -146q0 -57 -19 -109q-18 -51 -56 -89t-94 -60q-56 -23 -132 -23q-90 0 -156 18q-66 17 -111 46z" />
<glyph unicode="&#x456;" horiz-adv-x="444" d="M119 1335q0 49 27 80q28 31 73 31t75 -30t30 -81q0 -49 -30 -77t-75 -27q-45 0 -73 29q-27 28 -27 75zM145 0v1024h148v-1024h-148z" />
<glyph unicode="&#x457;" horiz-adv-x="473" d="M45 1337q0 47 21.5 73t62.5 26t62.5 -26t21.5 -73q0 -43 -21.5 -69.5t-62.5 -26.5t-62.5 26.5t-21.5 69.5zM156 0v1024h147v-1024h-147zM260 1337q0 47 21.5 73t62.5 26t62.5 -26t21.5 -73q0 -43 -21.5 -69.5t-62.5 -26.5t-62.5 26.5t-21.5 69.5z" />
<glyph unicode="&#x458;" horiz-adv-x="440" d="M8 -297q45 0 73 18t43 57q15 38 19 94t4 132v1020h148v-1079q0 -211 -68 -304t-219 -71v133zM119 1335q0 49 27 80q28 31 73 31t75 -30t30 -81q0 -49 -30 -77t-75 -27q-45 0 -73 29q-27 28 -27 75z" />
<glyph unicode="&#x459;" horiz-adv-x="1216" d="M-12 10l22 129q43 -12 77 5.5t58.5 106.5t40 272.5t21.5 500.5h506v-391q41 8 77.5 11t69.5 3q86 0 145.5 -23.5t96.5 -64.5t53 -97t16 -120q0 -186 -90 -270t-282 -84q-121 0 -234 12v891h-223q-6 -174 -16.5 -337t-36 -288t-72.5 -199.5t-125 -74.5q-35 0 -59.5 4 t-44.5 14zM713 133q61 -12 112 -12q193 0 193 203q0 92 -45 144t-144 52q-27 0 -57.5 -3t-58.5 -11v-373z" />
<glyph unicode="&#x45a;" horiz-adv-x="1271" d="M121 0v1024h147v-428h353v428h147v-399q41 8 78 10t69 2q86 0 145.5 -21.5t96.5 -61.5t53.5 -94t16.5 -118q0 -186 -89 -270t-284 -84q-121 0 -233 12v463h-353v-463h-147zM768 131q31 -6 59.5 -8t53.5 -2q193 0 192 198q0 190 -188 191q-27 0 -57.5 -2t-59.5 -10v-367z " />
<glyph unicode="&#x45b;" horiz-adv-x="907" d="M-4 1108v121h133v205h147v-205h263v-121h-263v-287h7q41 55 101 88t151 33q68 0 117.5 -19.5t82.5 -64.5t49.5 -119.5t16.5 -185.5v-553h-148v524q0 143 -33.5 214t-136.5 71q-72 0 -129 -48t-78 -126v-635h-147v1108h-133z" />
<glyph unicode="&#x45c;" horiz-adv-x="792" d="M121 0v1024h147v-463l70 29l250 434h157l-243 -412l-72 -67l88 -82l262 -463h-176l-260 461h-76v-461h-147zM324 1169l96 306h160v-43l-168 -263h-88z" />
<glyph unicode="&#x45e;" horiz-adv-x="770" d="M14 1024h168l193 -662l43 -198h10l31 198l155 662h150l-244 -920q-29 -111 -57 -206q-29 -96 -63 -167t-75 -111q-42 -40 -100 -40q-57 0 -100 19l25 139q29 -10 57 -4q29 6 54 35q26 29 47 85q22 56 38 146zM139 1399l125 39q10 -94 50 -134t94 -40q53 0 93 43t50 129 l113 -33q-16 -123 -90 -188q-73 -65 -171 -64q-47 0 -91 13t-80 43t-60 77q-25 47 -33 115z" />
<glyph unicode="&#x45f;" horiz-adv-x="880" d="M121 0v1024h147v-883h344v883h148v-1024h-242l-26 -367h-97l-33 367h-241z" />
<glyph unicode="&#x462;" horiz-adv-x="1032" d="M0 1130v134h244v213h153v-213h340v-134h-340v-256q8 2 28.5 5.5t44.5 5.5t48.5 4t44.5 2q82 0 157 -19.5t132 -67.5t92 -131t35 -210q0 -246 -123 -362.5t-332 -116.5q-23 0 -57.5 1t-72.5 4t-78 8t-72 15v1118h-244zM397 137q23 -6 63 -9t81 -3q121 0 198.5 78t77.5 248 q0 90 -22.5 148t-60.5 92t-89 46.5t-106 12.5q-14 0 -35 -2.5t-42.5 -4.5t-38.5 -6t-26 -6v-594z" />
<glyph unicode="&#x463;" horiz-adv-x="833" d="M0 897v127h180v410h148v-410h264v-127h-264v-264q39 8 76.5 11t70.5 3q86 0 145.5 -23.5t96.5 -64.5t53 -97t16 -120q0 -186 -89 -270t-285 -84q-119 0 -232 12v897h-180zM328 131q29 -6 57.5 -8t54.5 -2q100 0 146.5 55t46.5 148q0 82 -45 139t-144 57q-27 0 -57.5 -3 t-58.5 -11v-375z" />
<glyph unicode="&#x472;" horiz-adv-x="1124" d="M88 717q0 365 117 553t356 188q129 0 219 -52t146.5 -148.5t83 -233.5t26.5 -307q0 -365 -117.5 -553.5t-357.5 -188.5q-127 0 -217 52.5t-147.5 148.5t-83 233.5t-25.5 307.5zM250 659q4 -111 23.5 -209t57.5 -172.5t94 -117.5t136 -43q145 0 225 133t88 409h-624z M250 797h624q-6 106 -26.5 200.5t-58 165t-94 112.5t-134.5 42q-141 0 -221 -129t-90 -391z" />
<glyph unicode="&#x473;" horiz-adv-x="884" d="M76 512q0 268 95 402.5t271 134.5q188 0 277.5 -140.5t89.5 -396.5q0 -272 -95.5 -404.5t-271.5 -132.5q-188 0 -277 140.5t-89 396.5zM229 451q6 -176 66.5 -259t146.5 -83q39 0 77 16t66.5 56t47 104.5t22.5 165.5h-426zM229 571h426q-10 186 -67.5 265t-145.5 79 q-41 0 -77.5 -17t-65.5 -57t-47.5 -105.5t-22.5 -164.5z" />
<glyph unicode="&#x474;" horiz-adv-x="997" d="M-6 1434h172l278 -981l39 -220h2l27 224l123 518q35 152 65.5 245t64.5 143t76 67.5t99 17.5q55 0 90 -11.5t64 -29.5l-43 -133q-31 18 -56.5 25.5t-48.5 7.5q-47 0 -78.5 -64.5t-62.5 -177.5l-289 -1088h-80z" />
<glyph unicode="&#x475;" horiz-adv-x="839" d="M10 1024h170l191 -592l41 -203h4l37 207l51 178q29 100 54.5 179t55 133.5t67.5 83t91 28.5q33 0 58.5 -4t46.5 -14l-21 -137q-23 8 -43 13t-40.5 -8.5t-42 -50t-46.5 -108.5l-246 -752h-69z" />
<glyph unicode="&#x48a;" horiz-adv-x="1142" d="M131 0v1434h154v-953l-15 -184h9l71 192l533 945h100v-1301h170v-43l-152 -356h-102l74 266h-144v938l13 188h-6l-72 -192l-531 -934h-102zM276 1747l148 35q4 -76 42 -121t103 -45q66 0 102 45t42 119l131 -31q-16 -117 -84 -180.5t-193 -63.5q-121 0 -199.5 57.5 t-91.5 184.5z" />
<glyph unicode="&#x48b;" horiz-adv-x="933" d="M121 0v1024h147v-608l-12 -150h8l68 168l350 590h96v-891h164v-43l-151 -350h-103l74 260h-131v590l12 155h-8l-72 -172l-346 -573h-96zM199 1399l125 39q10 -94 50 -134t93 -40t93 43t50 129l113 -33q-16 -123 -89 -187.5t-171 -64.5q-47 0 -91 13.5t-80 43t-60.5 76.5 t-32.5 115z" />
<glyph unicode="&#x48c;" horiz-adv-x="1032" d="M0 1130v134h244v213h153v-213h340v-134h-340v-256q8 2 29 6q20 3 44 5l48 4q25 2 45 2q82 0 157 -20q75 -19 132 -67t92 -131t35 -210q0 -246 -123 -363t-332 -116q-23 0 -57 1q-35 1 -73 4t-78 8t-72 15v1118h-244zM397 137q23 -6 63 -9t81 -3q121 0 198 78 q78 78 78 248q0 90 -22 148q-23 58 -61 92t-89 46t-106 13q-14 0 -35 -2q-20 -2 -42 -5q-22 -2 -39 -6t-26 -6v-594z" />
<glyph unicode="&#x48d;" horiz-adv-x="833" d="M0 897v127h180v410h148v-410h264v-127h-264v-264q39 8 76 11q38 3 71 3q86 0 146 -23q59 -24 96 -65t53 -97t16 -120q0 -186 -89 -270t-285 -84q-119 0 -232 12v897h-180zM328 131q29 -6 57 -8q29 -2 55 -2q100 0 147 55q46 55 46 148q0 82 -45 139t-144 57q-27 0 -57 -3 q-31 -3 -59 -11v-375z" />
<glyph unicode="&#x48e;" horiz-adv-x="923" d="M131 0v1419q66 18 139.5 24.5t145.5 6.5q82 0 161.5 -18.5t144 -67.5t104.5 -135t40 -219q0 -147 -49 -244.5t-127 -151.5l121 -190l-96 -66l-131 203q-78 -25 -166 -24h-26.5t-39 1t-40 3t-27.5 4v-545h-154zM285 688q8 -4 25.5 -5t36 -3t35.5 -2h26q29 0 57.5 2 t54.5 12l-121 197l74 57l129 -211q47 37 75 102.5t28 172.5q0 86 -24 143t-61.5 92t-89 49.5t-106.5 14.5q-41 0 -79 -3t-60 -10v-608z" />
<glyph unicode="&#x48f;" horiz-adv-x="890" d="M121 -410v1434h104l23 -111h8q76 135 238 136q162 0 242.5 -121t80.5 -396q0 -154 -38 -269.5t-105 -186.5l94 -129l-90 -72l-96 131q-66 -31 -144 -31q-59 0 -94 7.5t-76 29.5v-422h-147zM268 162q29 -25 65 -39t95 -14q45 0 82 18l-100 143l69 58l101 -140 q41 53 62.5 140.5t21.5 206.5q0 86 -11.5 155.5t-36 119.5t-62.5 77.5t-93 27.5q-150 0 -193 -182v-571z" />
<glyph unicode="&#x490;" horiz-adv-x="731" d="M131 0v1434h496l28 274h103v-416h-473v-1292h-154z" />
<glyph unicode="&#x491;" horiz-adv-x="606" d="M121 0v1024h356l29 274h102v-407h-340v-891h-147z" />
<glyph unicode="&#x492;" horiz-adv-x="798" d="M14 655v129h162v650h627v-142h-473v-508h352v-129h-352v-655h-154v655h-162z" />
<glyph unicode="&#x493;" horiz-adv-x="626" d="M0 453v120h139v451h488v-133h-340v-318h282v-120h-282v-453h-148v453h-139z" />
<glyph unicode="&#x494;" horiz-adv-x="952" d="M131 0v1434h627v-142h-473v-565q20 8 80.5 25.5t146.5 17.5q70 0 133.5 -21.5t112.5 -77t78.5 -149.5t29.5 -239q0 -283 -96 -414t-291 -131q-53 0 -77.5 2t-36.5 4v141q23 -4 48 -5t70 -1q115 0 168.5 98.5t53.5 290.5q0 104 -17.5 174t-48.5 111t-75 58.5t-97 17.5 q-55 0 -107.5 -15.5t-74.5 -25.5v-588h-154z" />
<glyph unicode="&#x495;" horiz-adv-x="880" d="M121 0v1024h487v-133h-340v-375q20 8 70.5 25.5t136.5 17.5q63 0 121.5 -20.5t103.5 -72.5t71 -143.5t26 -230.5q0 -268 -85 -394t-274 -126q-53 0 -77.5 2t-36.5 6v133q20 -4 42.5 -6t67.5 -2q111 0 160 93t49 276q0 100 -15.5 168.5t-44 108.5t-68.5 57.5t-89 17.5 q-55 0 -98 -15.5t-60 -23.5v-387h-147z" />
<glyph unicode="&#x496;" horiz-adv-x="1388" d="M-4 0l352 643l80 76l-76 72l-332 643h181l315 -643h72v643h147v-668l70 29l315 639h172l-321 -623l-68 -66l84 -81l281 -523h110v-405h-108l-25 264h-92l-344 666h-74v-666h-147v690l-68 -28l-344 -662h-180z" />
<glyph unicode="&#x497;" horiz-adv-x="1161" d="M0 0l252 469l55 61l-84 78l-205 416h156l213 -442h84v442h147v-463l74 29l215 434h154l-215 -416l-66 -65l84 -82l166 -328h125v-393h-100l-27 260h-98l-230 461h-82v-461h-147v481l-76 -28l-229 -453h-166z" />
<glyph unicode="&#x498;" horiz-adv-x="888" d="M63 29l41 139q41 -23 106.5 -37t160.5 -14q55 0 104 19.5t86 56t58.5 93t21.5 130.5q0 133 -70.5 193.5t-189.5 70.5q-20 2 -35.5 2h-38.5h-84v133h37q31 0 76 2t72 8q82 20 140 85t58 163q0 135 -65.5 189.5t-165.5 54.5q-80 0 -141.5 -15.5t-100.5 -37.5l-41 127 q37 23 122 45t192 22q70 0 135 -16.5t115.5 -56t81 -108.5t30.5 -171q0 -104 -52 -195.5t-161 -136.5v-8q115 -23 181.5 -110t66.5 -234q0 -104 -29 -184t-78 -134.5t-115.5 -86t-142.5 -40.5l-24 -344h-97l-30 342q-76 4 -130.5 18.5t-93.5 35.5z" />
<glyph unicode="&#x499;" horiz-adv-x="718" d="M53 39l39 127q39 -25 89 -36t108 -11q201 0 200 180q0 74 -47 117t-157 43h-88v127h108q29 0 56.5 13t49 35.5t35 52.5t13.5 63q0 80 -42 116.5t-128 36.5q-63 0 -112.5 -18.5t-78.5 -38.5l-43 117q51 33 120 53t157 20q135 0 207.5 -62.5t72.5 -187.5q0 -78 -38.5 -143 t-106.5 -94v-8q94 -23 135 -86.5t41 -167.5q0 -111 -61.5 -192t-190.5 -103l-24 -359h-97l-32 353q-59 4 -103.5 18t-81.5 35z" />
<glyph unicode="&#x49a;" horiz-adv-x="1034" d="M131 0v1434h154v-668l71 29l373 639h176l-375 -619l-71 -65l84 -82l327 -527h148v-405h-109l-24 264h-121l-406 664h-73v-664h-154z" />
<glyph unicode="&#x49b;" horiz-adv-x="839" d="M121 0v1024h147v-463l70 29l250 434h157l-243 -412l-72 -67l88 -82l184 -330h121v-393h-100l-27 260h-92l-260 461h-76v-461h-147z" />
<glyph unicode="&#x49c;" horiz-adv-x="1142" d="M133 0v1434h154v-668l90 8v260h119v-246l36 7l334 639h174l-340 -617l-71 -67l84 -82l379 -668h-191l-364 664h-41v-265h-119v265h-90v-664h-154z" />
<glyph unicode="&#x49d;" horiz-adv-x="903" d="M121 0v1024h147v-463l80 6v256h107v-239l41 6l202 434h156l-199 -412l-73 -67l86 -82l217 -463h-170l-215 461h-45v-260h-107v260h-80v-461h-147z" />
<glyph unicode="&#x49e;" horiz-adv-x="1103" d="M0 1167v129h225v138h154v-138h194v-125h-194v-405l80 29l366 639h176l-368 -617l-76 -67l86 -82l410 -668h-193l-401 664h-80v-664h-154v1167h-225z" />
<glyph unicode="&#x49f;" horiz-adv-x="794" d="M-10 1137v120h133v177h147v-177h262v-120h-262v-576l68 29l240 434h170l-242 -414l-72 -65l84 -80l264 -465h-178l-258 461h-76v-461h-147v1137h-133z" />
<glyph unicode="&#x4a0;" horiz-adv-x="1142" d="M0 1292v142h418v-668l71 29l373 639h176l-374 -619l-72 -65l84 -82l416 -668h-195l-405 664h-74v-664h-154v1284v8h-264z" />
<glyph unicode="&#x4a1;" horiz-adv-x="851" d="M0 891v133h328v-463l71 29l248 434h158l-244 -412l-72 -67l89 -80l264 -465h-176l-260 461h-78v-461h-148v891h-180z" />
<glyph unicode="&#x4a2;" horiz-adv-x="1163" d="M131 0v1434h154v-631h528v631h154v-1293h151v-405h-106l-25 264h-174v662h-528v-662h-154z" />
<glyph unicode="&#x4a3;" horiz-adv-x="909" d="M121 0v1024h147v-434h355v434h147v-891h123v-393h-100l-27 260h-143v457h-355v-457h-147z" />
<glyph unicode="&#x4a4;" horiz-adv-x="1413" d="M131 0v1434h154v-631h528v631h627v-142h-473v-1292h-154v662h-528v-662h-154z" />
<glyph unicode="&#x4a5;" horiz-adv-x="1107" d="M121 0v1024h147v-434h355v434h487v-133h-340v-891h-147v457h-355v-457h-147z" />
<glyph unicode="&#x4a6;" horiz-adv-x="1611" d="M131 0v1434h815v-707q20 10 79.5 26.5t145.5 16.5q70 0 134.5 -21.5t113.5 -77t78 -149.5t29 -239q0 -281 -95.5 -413t-289.5 -132q-53 0 -78 1t-37 5v141q20 -4 46 -5t73 -1q113 0 166 98.5t53 288.5q0 104 -17.5 174t-48 112t-74.5 59.5t-96 17.5q-55 0 -109 -15.5 t-73 -25.5v-588h-153v1292h-508v-1292h-154z" />
<glyph unicode="&#x4a7;" horiz-adv-x="1368" d="M121 0v1024h639v-504q20 8 70.5 23.5t136.5 15.5q63 0 121.5 -21.5t102.5 -74.5t70.5 -142.5t26.5 -226.5q0 -270 -85 -396t-275 -126q-53 0 -77 2t-36 6v133q20 -4 45 -6t70 -2q111 0 161 97.5t50 271.5q0 98 -16.5 165.5t-45 108.5t-68.5 59.5t-89 18.5 q-55 0 -100.5 -15.5t-61.5 -23.5v-387h-148v891h-344v-891h-147z" />
<glyph unicode="&#x4a8;" horiz-adv-x="1355" d="M88 717q0 371 127 556t367 185v-141q-152 0 -242 -144.5t-90 -453.5q0 -127 26.5 -237.5t74.5 -191.5t116 -127t151 -46q16 0 40 1t40 7q-51 41 -91 105.5t-67.5 145.5t-43 174t-15.5 191q0 324 108.5 488t280.5 164q193 0 285 -151.5t92 -426.5q0 -127 -20.5 -236.5 t-55 -199.5t-82 -156.5t-100.5 -105.5q12 -4 23.5 -2t21.5 2q55 0 101.5 15t76.5 40l48 -125q-33 -31 -83.5 -51.5t-136.5 -20.5q-53 0 -108 16.5t-96 45.5q-92 -61 -220 -62q-127 0 -225 51.5t-165.5 147.5t-102.5 233.5t-35 309.5zM643 725q0 -74 12.5 -155t39 -155.5 t66.5 -138t93 -102.5q43 31 85 87t73.5 136t52 182.5t20.5 223.5q0 94 -11 176t-35.5 142.5t-64.5 95t-100 34.5q-96 0 -163.5 -127t-67.5 -399z" />
<glyph unicode="&#x4a9;" horiz-adv-x="1105" d="M76 512q0 256 91 395.5t277 141.5v-134q-215 -4 -215 -401q0 -86 15.5 -160.5t47.5 -129t80 -85t111 -30.5q18 0 41 5t37 17q-55 45 -96 152.5t-41 246.5q0 96 15.5 185.5t50 158t94 109.5t147.5 41q80 0 134.5 -35t89 -94t50 -139t15.5 -170q0 -82 -16.5 -158 t-43 -137.5t-60.5 -106.5t-69 -67q41 -23 93.5 -9.5t89.5 54.5l47 -111q-29 -35 -80 -55.5t-111 -20.5q-51 0 -98 17.5t-80 54.5q-49 -43 -109.5 -57.5t-117.5 -14.5q-188 0 -288.5 140.5t-100.5 396.5zM578 524q0 -117 34.5 -219t94.5 -153q66 43 112.5 159.5t46.5 272.5 q0 61 -8 116.5t-25.5 98.5t-43 67.5t-60.5 24.5q-47 0 -76.5 -28.5t-46 -78t-22.5 -117t-6 -143.5z" />
<glyph unicode="&#x4aa;" horiz-adv-x="937" d="M88 717q0 205 42 346t111.5 229t161 127t187.5 39q98 0 162.5 -14t111.5 -35l-37 -139q-41 23 -96 35t-127 12t-135 -32t-112.5 -102.5t-78 -185t-28.5 -280.5q0 -299 102.5 -446.5t272.5 -147.5q70 0 125 16.5t94 42.5l37 -127q-41 -35 -100.5 -53t-127.5 -25l-24 -344 h-97l-30 349q-92 14 -168 64t-131.5 139t-85 221.5t-29.5 310.5z" />
<glyph unicode="&#x4ab;" horiz-adv-x="729" d="M76 512q0 262 93 399.5t267 137.5q80 0 137.5 -14.5t98.5 -37.5l-41 -127q-78 45 -178 45q-111 0 -167.5 -97t-56.5 -306q0 -84 12.5 -156.5t41 -127t73.5 -86t113 -31.5q53 0 99 17t75 42l43 -119q-35 -29 -79 -45t-91 -24l-24 -349h-97l-30 349q-78 12 -133.5 55 t-90.5 111.5t-50 160.5t-15 203z" />
<glyph unicode="&#x4ac;" horiz-adv-x="915" d="M29 1292v142h858v-142h-352v-1151h155v-405h-106l-25 264h-178v1292h-352z" />
<glyph unicode="&#x4ad;" horiz-adv-x="655" d="M2 891v133h651v-133h-252v-758h123v-393h-100l-27 260h-143v891h-252z" />
<glyph unicode="&#x4ae;" horiz-adv-x="931" d="M10 1434h180l259 -625l26 -125h4l27 129l250 621h166l-377 -863v-571h-154v569z" />
<glyph unicode="&#x4af;" horiz-adv-x="800" d="M10 1024h172l191 -655l43 -226h4l37 230l172 651h159l-307 -1024v-410h-147v410z" />
<glyph unicode="&#x4b0;" horiz-adv-x="931" d="M10 1434h180l259 -625l26 -125h4l27 129l250 621h166l-373 -850h246v-121h-250v-463h-154v463h-250v121h244z" />
<glyph unicode="&#x4b1;" horiz-adv-x="800" d="M10 1024h172l191 -655l43 -226h4l37 230l172 651h159l-307 -1024h195v-121h-195v-289h-147v289h-201v121h201z" />
<glyph unicode="&#x4b2;" horiz-adv-x="1085" d="M39 0l377 729l-344 705h184l223 -486l41 -121l41 121l236 486h170l-357 -691l301 -602h158v-405h-108l-25 264h-133l-248 514l-47 127l-43 -127l-254 -514h-172z" />
<glyph unicode="&#x4b3;" horiz-adv-x="872" d="M39 0l291 524l-271 500h177l151 -293l41 -115l43 115l156 293h161l-272 -492l215 -399h127v-393h-100l-27 260h-94l-172 322l-45 122l-47 -122l-172 -322h-162z" />
<glyph unicode="&#x4b4;" horiz-adv-x="1378" d="M29 1292v142h792v-142h-286v-1151h495v1293h154v-1293h151v-405h-106l-27 264h-821v1292h-352z" />
<glyph unicode="&#x4b5;" horiz-adv-x="1040" d="M2 891v133h625v-133h-226v-758h338v891h148v-891h121v-393h-103l-24 260h-627v891h-252z" />
<glyph unicode="&#x4b6;" horiz-adv-x="1060" d="M113 899v535h153v-500q0 -150 51.5 -208t149.5 -58q72 0 138.5 26.5t107.5 69.5v670h153v-1293h152v-405h-107l-24 264h-174v614q-41 -31 -115 -59.5t-164 -28.5q-66 0 -124 16.5t-102 58.5t-69.5 113.5t-25.5 184.5z" />
<glyph unicode="&#x4b7;" horiz-adv-x="847" d="M74 678v346h147v-299q0 -51 5 -92t19.5 -71t41 -45t69.5 -15q72 0 117 18.5t70 40.5v463h147v-891h125v-393h-100l-27 260h-145v430q-25 -18 -77 -39.5t-140 -21.5q-59 0 -106.5 15t-79 50t-49 94.5t-17.5 149.5z" />
<glyph unicode="&#x4b8;" horiz-adv-x="1019" d="M113 905v529h153v-496q0 -135 44 -199.5t139 -70.5v264h116v-254q51 10 96.5 33.5t73.5 52.5v670h154v-1434h-154v614q-29 -20 -73 -39.5t-97 -33.5v-244h-116v229h-9q-74 0 -134 18.5t-103 62.5t-66.5 117t-23.5 181z" />
<glyph unicode="&#x4b9;" horiz-adv-x="829" d="M74 713v311h147v-289q0 -51 4 -93t17.5 -73.5t37 -51t62.5 -23.5v270h107v-264q39 8 68.5 24.5t45.5 32.5v467h148v-1024h-148v430q-16 -14 -45 -29.5t-69 -25.5v-236h-107v221h-10q-63 0 -111.5 16.5t-81.5 57.5t-49 108.5t-16 170.5z" />
<glyph unicode="&#x4ba;" horiz-adv-x="997" d="M131 0v1434h154v-615q43 29 116.5 58.5t167.5 29.5q72 0 130.5 -18.5t99.5 -64.5t63.5 -121.5t22.5 -192.5v-510h-154v483q0 145 -47 214t-152 69q-74 0 -140 -25.5t-107 -66.5v-674h-154z" />
<glyph unicode="&#x4bb;" horiz-adv-x="901" d="M121 0v1434h147v-506h6q41 53 102 87q60 34 150 34q68 0 118 -19q50 -18 83 -63t49 -120t17 -185v-662h-148v623q0 143 -34 218t-134 74q-72 0 -130 -51t-79 -129v-735h-147z" />
<glyph unicode="&#x4bc;" horiz-adv-x="1294" d="M2 893q0 59 14.5 100t36.5 70h142q-29 -29 -41.5 -72t-12.5 -80q0 -29 6.5 -52t24.5 -39.5t53 -25t92 -3.5q10 319 126 493t333 174q211 0 314.5 -150.5t103.5 -426.5q0 -53 -3 -109.5t-11 -118.5h-701q12 -272 98.5 -404t262.5 -132q74 0 137 27.5t106 56.5l45 -129 q-57 -41 -135 -69t-182 -28q-221 0 -352 162t-142 516h-57q-141 0 -201.5 62.5t-56.5 177.5zM477 791h559q4 29 4 56v56q0 82 -14 157t-46 132t-82 91t-120 34q-152 0 -223.5 -140.5t-77.5 -385.5z" />
<glyph unicode="&#x4bd;" horiz-adv-x="1028" d="M10 731q2 76 25.5 122t54.5 77h141q-37 -29 -63.5 -76t-26.5 -117q0 -49 26 -86t101 -30q20 211 113.5 319.5t251.5 108.5q57 0 113.5 -14.5t101.5 -57.5t72.5 -121t27.5 -203q0 -35 -3 -74.5t-7 -82.5h-520q0 -88 14 -160t45 -122t79 -77.5t120 -27.5q55 0 109.5 20.5 t82.5 48.5l54 -108q-49 -45 -125 -70t-160 -25q-96 0 -165 37t-115 104.5t-68.5 163t-24.5 214.5h-18q-123 0 -180.5 63.5t-55.5 173.5zM420 618h387q4 154 -43 225.5t-129 71.5q-94 0 -149.5 -71.5t-65.5 -225.5z" />
<glyph unicode="&#x4be;" horiz-adv-x="1294" d="M2 893q0 59 14.5 100t36.5 70h142q-29 -29 -41.5 -72t-12.5 -80q0 -29 6.5 -52t24.5 -39.5t53 -25t92 -3.5q10 319 126 493t333 174q211 0 314.5 -150.5t103.5 -426.5q0 -53 -3 -109.5t-11 -118.5h-701q12 -272 98.5 -403t262.5 -131q74 0 137 26.5t106 55.5l45 -129 q-49 -35 -112.5 -60.5t-145.5 -34.5l-24 -344h-96l-31 344q-182 29 -286.5 194t-115.5 482h-57q-141 0 -200.5 61.5t-57.5 178.5zM477 791h559q4 29 4 56v56q0 82 -14 157t-46 132t-82 91t-120 34q-152 0 -223.5 -140.5t-77.5 -385.5z" />
<glyph unicode="&#x4bf;" horiz-adv-x="1028" d="M12 731q2 76 25.5 122t54.5 77h141q-37 -29 -63.5 -76t-26.5 -117q0 -25 6.5 -47t20.5 -39.5t38.5 -26t61.5 -3.5q20 211 113.5 319.5t251.5 108.5q57 0 113.5 -14.5t101.5 -57.5t72.5 -121t27.5 -203q0 -35 -3 -74.5t-7 -82.5h-520q2 -178 59.5 -281.5t198.5 -103.5 q55 0 109.5 19.5t82.5 47.5l54 -108q-39 -35 -93.5 -58.5t-115.5 -34.5l-25 -344h-96l-31 347q-152 29 -222.5 166t-74.5 350h-18q-123 0 -180.5 62.5t-55.5 172.5zM422 618h387q4 154 -43 225.5t-129 71.5q-94 0 -149.5 -71.5t-65.5 -225.5z" />
<glyph unicode="&#x4c0;" horiz-adv-x="477" d="M162 0v1434h153v-1434h-153z" />
<glyph unicode="&#x4c3;" horiz-adv-x="991" d="M131 0v1434h154v-668l71 29l373 639h176l-360 -586l-94 -78h98q86 -25 147.5 -68t100.5 -114.5t57 -177t18 -256.5v-39q0 -160 -26.5 -268.5t-75.5 -173t-120.5 -89t-160.5 -14.5v141q66 0 110 22.5t70.5 75t38 135t11.5 201.5q0 143 -20.5 242.5t-64.5 161t-111.5 88.5 t-162.5 27h-75v-664h-154z" />
<glyph unicode="&#x4c4;" horiz-adv-x="798" d="M121 0v1024h147v-481l70 28l248 453h159l-245 -430l-62 -55l70 -11q72 -20 116 -67t68.5 -109.5t33.5 -136.5t9 -147v-35q0 -139 -26.5 -233.5t-74.5 -148.5t-113.5 -71.5t-143.5 -5.5v133q100 -16 155.5 69t55.5 257q0 221 -63.5 317t-182.5 101h-74v-451h-147z" />
<glyph unicode="&#x4c5;" horiz-adv-x="1042" d="M-8 10l22 140q41 -12 76 5t66 95q23 55 42 148.5t34.5 236.5t25.5 339.5t14 459.5h625v-1301h156v-43l-152 -356h-102l73 266h-129v1292h-323q-16 -412 -43 -688t-82 -426q-35 -98 -86 -143t-117 -45q-59 0 -100 20z" />
<glyph unicode="&#x4c6;" horiz-adv-x="866" d="M-12 10l22 129q43 -12 77 5.5t58.5 106.5t40 272.5t21.5 500.5h506v-891h161v-43l-151 -350h-102l73 260h-129v891h-223q-6 -174 -16.5 -337t-36 -288t-72.5 -199.5t-125 -74.5q-35 0 -59.5 4t-44.5 14z" />
<glyph unicode="&#x4c7;" horiz-adv-x="1097" d="M131 0v1434h154v-631h528v631h154v-1434v-57q0 -211 -66.5 -302.5t-220.5 -70.5v133q47 0 73.5 18.5t40 55.5t16.5 93t3 130v662h-528v-662h-154z" />
<glyph unicode="&#x4c8;" horiz-adv-x="888" d="M121 0v1024h147v-434h355v434h147v-1083q0 -188 -56.5 -278.5t-178.5 -88.5q-12 0 -24.5 1t-27.5 3v129q92 -2 116 70.5t24 222.5v457h-355v-457h-147z" />
<glyph unicode="&#x4c9;" horiz-adv-x="1126" d="M131 0v1434h154v-631h528v631h154v-1301h168v-43l-152 -356h-102l73 266h-141v662h-528v-662h-154z" />
<glyph unicode="&#x4ca;" horiz-adv-x="923" d="M121 0v1024h147v-434h355v434h147v-891h162v-43l-152 -350h-102l74 260h-129v457h-355v-457h-147z" />
<glyph unicode="&#x4cb;" horiz-adv-x="997" d="M113 899v535h153v-500q0 -150 51.5 -208t149.5 -58q72 0 138.5 26.5t107.5 69.5v670h153v-1434h-176l-26 -264h-107v405h156v473q-41 -31 -115 -59.5t-164 -28.5q-66 0 -124 16.5t-102 58.5t-69.5 113.5t-25.5 184.5z" />
<glyph unicode="&#x4cc;" horiz-adv-x="811" d="M74 717v307h147v-276q0 -53 5 -97.5t19.5 -76t41 -49t69.5 -17.5q72 0 118 17.5t69 39.5v459h147v-1024h-153l-25 -260h-102v393h133v303q-27 -18 -78 -39.5t-143 -21.5q-61 0 -107.5 15.5t-77.5 54t-47 105t-16 167.5z" />
<glyph unicode="&#x4cd;" horiz-adv-x="1333" d="M131 0v1434h129l346 -705l51 -168h5l49 170l327 703h136v-1301h169v-43l-151 -356h-102l73 266h-143v942l18 217h-8l-65 -203l-289 -622h-51l-303 622l-64 203h-8l29 -217v-942h-148z" />
<glyph unicode="&#x4ce;" horiz-adv-x="1101" d="M121 0v1024h147l224 -444l45 -134h4l49 138l207 440h151v-891h162v-43l-152 -350h-102l74 260h-129v608l14 195h-8l-62 -174l-190 -393h-53l-199 393l-55 174h-10l16 -193v-610h-133z" />
<glyph unicode="&#x4cf;" horiz-adv-x="419" d="M135 0v1434h148v-1434h-148z" />
<glyph unicode="&#x4d0;" horiz-adv-x="968" d="M10 0l432 1456h84l432 -1456h-159l-117 401h-406l-114 -401h-152zM197 1747l147 35q4 -76 42 -121t103 -45q66 0 102 45t42 119l131 -31q-16 -117 -84 -180t-193 -64q-121 0 -199 58q-79 57 -91 184zM317 539h328l-125 442l-39 215h-4l-39 -219z" />
<glyph unicode="&#x4d1;" horiz-adv-x="819" d="M59 274q0 88 30 148q30 59 84 96t129 52t167 16h41q20 0 43 -2q6 63 6 112q0 117 -35 164t-127 47q-57 0 -125 -17t-112 -44l-49 117q59 37 144 57t179 20q86 0 138 -25q52 -26 82 -70t39 -100t9 -118q0 -123 -5 -240t-5 -221q0 -78 5 -144q5 -67 20 -126h-113l-35 121 h-8q-31 -53 -90 -92t-160 -39q-111 0 -181 76q-71 77 -71 212zM143 1399l125 39q10 -94 50 -134t94 -40q53 0 93 43t50 129l113 -33q-16 -123 -89 -188t-171 -64q-47 0 -92 13q-44 13 -79 43q-36 30 -61 77t-33 115zM213 291q0 -82 40 -127t103 -45q86 0 133 41t66 90v217 q-20 2 -41 3q-20 1 -41 1q-49 0 -96 -8t-84 -29q-37 -20 -59 -55t-21 -88z" />
<glyph unicode="&#x4d2;" horiz-adv-x="968" d="M10 0l432 1456h84l432 -1456h-159l-117 401h-406l-114 -401h-152zM227 1626q0 43 26 70t71 26q43 0 68 -26q26 -27 26 -70t-26 -68q-26 -26 -68 -26q-45 0 -71 26q-26 25 -26 68zM317 539h328l-125 442l-39 215h-4l-39 -219zM551 1626q0 43 26 70t68 26q45 0 71 -26 q26 -27 25 -70q0 -43 -25 -68q-26 -26 -71 -26q-43 0 -68 26q-26 25 -26 68z" />
<glyph unicode="&#x4d3;" horiz-adv-x="819" d="M59 274q0 88 30 148q30 59 84 96t129 52t167 16h41q20 0 43 -2q6 63 6 112q0 117 -35 164t-127 47q-57 0 -125 -17t-112 -44l-49 117q59 37 144 57t179 20q86 0 138 -25q52 -26 82 -70t39 -100t9 -118q0 -123 -5 -240t-5 -221q0 -78 5 -144q5 -67 20 -126h-113l-35 121 h-8q-31 -53 -90 -92t-160 -39q-111 0 -181 76q-71 77 -71 212zM154 1298q0 47 23 74q24 27 65 27t64 -27q24 -27 24 -74q0 -43 -24 -69q-24 -27 -64 -27q-41 0 -65 27q-23 26 -23 69zM213 291q0 -82 40 -127t103 -45q86 0 133 41t66 90v217q-20 2 -41 3q-20 1 -41 1 q-49 0 -96 -8t-84 -29q-37 -20 -59 -55t-21 -88zM479 1298q0 47 24 74t64 27q41 0 65 -27t23 -74q0 -43 -23 -69q-24 -27 -65 -27t-64 27q-24 26 -24 69z" />
<glyph unicode="&#x4d4;" horiz-adv-x="1398" d="M-37 0l686 1434h641v-142h-485v-485h444v-141h-444v-525h493v-141h-647v408h-338l-184 -408h-166zM381 545h270v661h-6l-53 -200z" />
<glyph unicode="&#x4d5;" horiz-adv-x="1314" d="M59 279q0 90 30 150t83 96t127 51.5t164 15.5q23 0 45 -1t45 -3q6 63 6 112q0 117 -35 163t-127 46q-57 0 -126.5 -20.5t-116.5 -52.5l-45 114q63 47 148 68.5t177 21.5q172 0 223 -131q41 74 114 107t144 33q57 0 113.5 -15.5t102 -59.5t73 -123t27.5 -204 q0 -35 -3 -73.5t-7 -81.5h-519q2 -188 57.5 -285.5t194.5 -97.5q57 0 112.5 20.5t84.5 44.5l53 -108q-51 -41 -124.5 -66t-164.5 -25q-102 0 -182 44t-119 131h-12q-41 -72 -111.5 -119t-175.5 -47q-115 0 -185.5 79.5t-70.5 215.5zM213 295q0 -72 39 -125t102 -53 q43 0 77 13t58.5 34.5t41 47.5t24.5 52v207q-20 2 -40.5 3t-41.5 1q-49 0 -96 -8t-84 -28.5t-58.5 -55.5t-21.5 -88zM702 612h385q4 154 -42 228.5t-130 74.5q-92 0 -147 -73.5t-66 -229.5z" />
<glyph unicode="&#x4d6;" horiz-adv-x="878" d="M131 0v1434h637v-142h-483v-485h444v-141h-444v-525h493v-141h-647zM162 1747l147 35q4 -76 42 -121t104 -45t101 45q36 45 42 119l131 -31q-16 -117 -84 -180t-192 -64q-121 0 -200 58q-79 57 -91 184z" />
<glyph unicode="&#x4d7;" horiz-adv-x="845" d="M76 512q0 262 96 399t272 138q57 0 114 -15q56 -14 101 -57t73 -121t28 -203q0 -35 -3 -74q-3 -40 -7 -83h-521q0 -88 15 -160q14 -72 45 -122t79 -78t119 -27q55 0 110 20q54 20 83 49l53 -108q-49 -45 -125 -70t-159 -25q-96 0 -167 38t-117 109t-68 169t-21 221z M172 1399l125 39q10 -94 50 -134t93 -40t94 43q40 43 50 129l112 -33q-16 -123 -89 -188t-171 -64q-47 0 -91 13t-80 43t-60 77q-25 47 -33 115zM231 618h387q4 154 -43 226t-129 71q-94 0 -149 -71q-55 -72 -66 -226z" />
<glyph unicode="&#x4d8;" horiz-adv-x="1052" d="M84 563q0 55 3 113.5t13 122.5h711q-14 262 -94 390t-248 128q-76 0 -146.5 -27.5t-109.5 -54.5l-45 129q53 35 137 64.5t189 29.5q117 0 204.5 -42t147 -131t89.5 -230.5t30 -337.5q0 -354 -112 -548t-349 -194q-104 0 -183 41t-131.5 117t-79 185.5t-26.5 244.5z M238 537q0 -84 15 -161t49 -134.5t84 -91t122 -33.5q150 0 225.5 138t77.5 407h-565q-4 -31 -6 -63t-2 -62z" />
<glyph unicode="&#x4d9;" horiz-adv-x="835" d="M76 416q0 35 3 71.5t7 77.5h524q-6 180 -62 265t-196 85q-57 0 -111.5 -19t-82.5 -48l-56 110q51 41 128 66t163 25q190 0 278.5 -142.5t88.5 -394.5q0 -272 -94.5 -404.5t-259.5 -132.5q-57 0 -116 19.5t-107 70t-77.5 135.5t-29.5 216zM219 442q-8 -160 46.5 -246.5 t142.5 -86.5q92 0 147 85t51 248h-387z" />
<glyph unicode="&#x4da;" horiz-adv-x="1052" d="M84 563q0 55 3 114q3 58 13 122h711q-14 262 -94 390t-248 128q-76 0 -146 -28q-71 -28 -110 -54l-45 129q53 35 137 64q84 30 189 30q117 0 204 -42q88 -42 148 -131q59 -89 89 -230t30 -338q0 -354 -112 -548t-349 -194q-104 0 -183 41t-132 117q-52 76 -78 185 q-27 110 -27 245zM238 537q0 -84 15 -161t49 -134t84 -91t122 -34q150 0 225 138q76 138 78 407h-565q-4 -31 -6 -63t-2 -62zM252 1626q0 43 26 70t70 26q43 0 69 -26q26 -27 25 -70q0 -43 -25 -68q-26 -26 -69 -26q-45 0 -70 26q-26 25 -26 68zM575 1626q0 43 26 70t69 26 q45 0 70 -26q26 -27 26 -70t-26 -68q-26 -26 -70 -26q-43 0 -69 26q-26 25 -26 68z" />
<glyph unicode="&#x4db;" horiz-adv-x="835" d="M76 416q0 35 3 71q3 37 7 78h524q-6 180 -62 265t-196 85q-57 0 -111 -19t-83 -48l-56 110q51 41 128 66t163 25q190 0 279 -143q88 -142 88 -394q0 -272 -94 -404t-260 -133q-57 0 -116 20q-58 19 -107 70q-48 50 -78 135t-29 216zM154 1298q0 47 23 74q24 27 65 27 t64 -27q24 -27 24 -74q0 -43 -24 -69q-24 -27 -64 -27q-41 0 -65 27q-23 26 -23 69zM219 442q-8 -160 46 -246q55 -87 143 -87q92 0 147 85t51 248h-387zM479 1298q0 47 24 74t64 27q41 0 65 -27t23 -74q0 -43 -23 -69q-24 -27 -65 -27t-64 27q-24 26 -24 69z" />
<glyph unicode="&#x4dc;" horiz-adv-x="1339" d="M-4 0l352 643l80 76l-76 72l-332 643h181l315 -643h72v643h147v-668l70 29l315 639h172l-321 -623l-68 -66l84 -81l356 -664h-190l-344 666h-74v-666h-147v690l-68 -28l-344 -662h-180zM408 1626q0 43 25 70q26 27 71 26q43 0 68 -26q26 -27 26 -70t-26 -68 q-26 -26 -68 -26q-45 0 -71 26q-25 25 -25 68zM731 1626q0 43 26 70t68 26q45 0 71 -26q26 -27 26 -70t-26 -68q-26 -26 -71 -26q-43 0 -68 26q-26 25 -26 68z" />
<glyph unicode="&#x4dd;" horiz-adv-x="1099" d="M0 0l252 469l55 61l-84 78l-205 416h156l213 -442h84v442h147v-463l76 29l213 434h154l-215 -416l-66 -65l84 -82l236 -461h-170l-230 461h-82v-461h-147v481l-76 -28l-229 -453h-166zM297 1298q0 47 24 74t64 27q41 0 65 -27t23 -74q0 -43 -23 -69q-24 -27 -65 -27 t-64 27q-24 26 -24 69zM623 1298q0 47 23 74q24 27 65 27t64 -27q24 -27 24 -74q0 -43 -24 -69q-24 -27 -64 -27q-41 0 -65 27q-23 26 -23 69z" />
<glyph unicode="&#x4de;" horiz-adv-x="888" d="M63 29l41 139q41 -23 107 -37t160 -14q55 0 104 19t86 57q37 37 59 93t21 130q0 133 -71 193t-189 71q-20 2 -36 2h-38h-84v133h37q31 0 76 2t72 8q82 20 140 85t58 163q0 135 -65 190q-66 54 -166 54q-80 0 -142 -14q-61 -14 -100 -37l-41 125q37 23 122 45 q85 23 192 22q70 0 135 -16q66 -16 115 -57q50 -40 81 -108q31 -69 31 -171q0 -104 -52 -196q-52 -91 -161 -136v-8q115 -23 181 -110q67 -87 67 -234q0 -119 -36 -203t-96 -138t-141 -80q-80 -26 -165 -26q-109 0 -182 15q-73 14 -120 39zM143 1626q0 43 26 70t71 26 q43 0 68 -26q26 -27 26 -70t-26 -68q-26 -26 -68 -26q-45 0 -71 26q-26 25 -26 68zM467 1626q0 43 26 70t68 26q45 0 71 -26q26 -27 25 -70q0 -43 -25 -68q-26 -26 -71 -26q-43 0 -68 26q-26 25 -26 68z" />
<glyph unicode="&#x4df;" horiz-adv-x="718" d="M53 39l39 127q39 -25 92 -37t111 -12q100 0 150 47t51 135q0 74 -47 117t-158 43h-92v127h112q29 0 57 13t49 36q22 23 35 52q13 30 13 63q0 80 -42 116q-42 37 -128 37q-63 0 -116 -18q-52 -18 -81 -39l-43 117q51 33 120 53t157 20q135 0 208 -62t72 -188 q0 -78 -39 -143q-39 -66 -106 -94v-8q94 -23 135 -86t41 -168q0 -129 -86 -216t-264 -87q-82 0 -138 15t-102 40zM78 1298q0 47 23 74q24 27 65 27t64 -27q24 -27 24 -74q0 -43 -24 -69q-24 -27 -64 -27q-41 0 -65 27q-23 26 -23 69zM403 1298q0 47 24 74t65 27t64 -27 q24 -27 24 -74q0 -43 -24 -69q-24 -27 -64 -27q-41 0 -65 27q-24 26 -24 69z" />
<glyph unicode="&#x4e0;" horiz-adv-x="923" d="M84 41l39 141q41 -27 111.5 -46t142.5 -19q137 0 215 84t78 219q0 141 -81 210.5t-237 69.5h-143v56l301 467l72 88l-101 -19h-389v142h688v-60l-325 -495l-62 -62v-6l60 16q80 0 148.5 -26.5t117.5 -75.5t76.5 -122t27.5 -167q0 -111 -31.5 -195.5t-89 -144 t-140.5 -90.5t-183 -31q-82 0 -165 18.5t-130 47.5z" />
<glyph unicode="&#x4e1;" horiz-adv-x="786" d="M57 -381l43 131q39 -23 90.5 -35t110.5 -12q57 0 105.5 21.5t84 61.5t55 96.5t19.5 123.5q0 147 -69.5 219t-194.5 72h-117v53l238 463l76 90l-107 -12h-328v133h605v-59l-258 -488l-60 -59v-4l56 12q63 -4 119.5 -31.5t97.5 -78t65.5 -122t24.5 -165.5q0 -111 -32 -197 t-87 -144.5t-131 -88t-164 -29.5q-72 0 -133.5 13.5t-108.5 35.5z" />
<glyph unicode="&#x4e2;" horiz-adv-x="1114" d="M131 0v1434h154v-953l-15 -184h9l71 192l533 945h100v-1434h-154v938l13 188h-6l-72 -192l-531 -934h-102zM301 1599v127h530v-127h-530z" />
<glyph unicode="&#x4e3;" horiz-adv-x="899" d="M121 0v1024h147v-608l-12 -150h8l68 168l350 590h96v-1024h-147v590l12 155h-8l-72 -172l-346 -573h-96zM205 1196v121h497v-121h-497z" />
<glyph unicode="&#x4e4;" horiz-adv-x="1114" d="M131 0v1434h154v-953l-15 -184h9l71 192l533 945h100v-1434h-154v938l13 188h-6l-72 -192l-531 -934h-102zM305 1626q0 43 26 70t70 26q43 0 69 -26q26 -27 26 -70t-26 -68q-26 -26 -69 -26q-45 0 -70 26q-26 25 -26 68zM629 1626q0 43 25 70q26 27 69 26q45 0 71 -26 q26 -27 25 -70q0 -43 -25 -68q-26 -26 -71 -26q-43 0 -69 26q-25 25 -25 68z" />
<glyph unicode="&#x4e5;" horiz-adv-x="899" d="M121 0v1024h147v-608l-12 -150h8l68 168l350 590h96v-1024h-147v590l12 155h-8l-72 -172l-346 -573h-96zM207 1298q0 47 23 74q24 27 65 27t64 -27q24 -27 24 -74q0 -43 -24 -69q-24 -27 -64 -27q-41 0 -65 27q-23 26 -23 69zM532 1298q0 47 24 74t65 27t64 -27 q24 -27 24 -74q0 -43 -24 -69q-24 -27 -64 -27q-41 0 -65 27q-24 26 -24 69z" />
<glyph unicode="&#x4e6;" horiz-adv-x="1124" d="M88 717q0 365 117 553t356 188q129 0 219 -52t147 -149q56 -96 83 -233t26 -307q0 -365 -117 -553q-118 -188 -358 -189q-127 0 -217 53q-90 52 -147 148t-83 234q-26 137 -26 307zM250 717q0 -121 17 -230t55 -190q37 -82 96 -131t143 -49q154 0 234 147t79 453 q0 119 -17 227q-17 109 -54 192t-96 132t-146 49q-152 0 -231 -148q-80 -147 -80 -452zM305 1626q0 43 26 70t70 26q43 0 69 -26q26 -27 26 -70t-26 -68q-26 -26 -69 -26q-45 0 -70 26q-26 25 -26 68zM629 1626q0 43 25 70q26 27 69 26q45 0 71 -26q26 -27 25 -70 q0 -43 -25 -68q-26 -26 -71 -26q-43 0 -69 26q-25 25 -25 68z" />
<glyph unicode="&#x4e7;" horiz-adv-x="884" d="M76 512q0 276 95 407q95 130 271 130q188 0 278 -134q89 -133 89 -403q0 -279 -96 -408t-271 -129q-188 0 -277 134q-89 133 -89 403zM193 1298q0 47 23 74q24 27 65 27t64 -27q24 -27 24 -74q0 -43 -24 -69q-24 -27 -64 -27q-41 0 -65 27q-23 26 -23 69zM229 512 q0 -90 12 -164q11 -74 37 -127t66 -83q41 -30 98 -29q106 0 160 95q53 95 53 308q0 88 -11 163t-37 128t-66 83q-41 30 -99 29q-104 0 -158 -96q-55 -96 -55 -307zM518 1298q0 47 24 74t64 27q41 0 65 -27t23 -74q0 -43 -23 -69q-24 -27 -65 -27t-64 27q-24 26 -24 69z" />
<glyph unicode="&#x4e8;" horiz-adv-x="1124" d="M88 717q0 365 117 553t356 188q129 0 219 -52t147 -149q56 -96 83 -233t26 -307q0 -365 -117 -553q-118 -188 -358 -189q-127 0 -217 53q-90 52 -147 148t-83 234q-26 137 -26 307zM250 659q4 -111 23 -208q19 -98 58 -173q38 -75 94 -118t136 -43q145 0 225 133t88 409 h-624zM250 797h624q-6 106 -26 200t-58 165t-95 113q-56 42 -134 42q-141 0 -221 -129t-90 -391z" />
<glyph unicode="&#x4e9;" horiz-adv-x="884" d="M76 512q0 268 95 402t271 135q188 0 278 -141q89 -140 89 -396q0 -272 -95 -404t-272 -133q-188 0 -277 141q-89 140 -89 396zM229 451q6 -176 67 -260q60 -83 146 -82q39 0 77 16t67 56t47 105t22 165h-426zM229 571h426q-10 186 -67 266q-57 79 -146 78q-41 0 -77 -17 q-37 -17 -66 -57t-47 -106t-23 -164z" />
<glyph unicode="&#x4ea;" horiz-adv-x="1124" d="M88 717q0 365 117 553t356 188q129 0 219 -52t147 -149q56 -96 83 -233t26 -307q0 -365 -117 -553q-118 -188 -358 -189q-127 0 -217 53q-90 52 -147 148t-83 234q-26 137 -26 307zM250 659q4 -111 23 -208q19 -98 58 -173q38 -75 94 -118t136 -43q145 0 225 133t88 409 h-624zM250 797h624q-6 106 -26 200t-58 165t-95 113q-56 42 -134 42q-141 0 -221 -129t-90 -391zM305 1626q0 43 26 70t70 26q43 0 69 -26q26 -27 26 -70t-26 -68q-26 -26 -69 -26q-45 0 -70 26q-26 25 -26 68zM629 1626q0 43 25 70q26 27 69 26q45 0 71 -26q26 -27 25 -70 q0 -43 -25 -68q-26 -26 -71 -26q-43 0 -69 26q-25 25 -25 68z" />
<glyph unicode="&#x4eb;" horiz-adv-x="884" d="M76 512q0 268 95 402t271 135q188 0 278 -141q89 -140 89 -396q0 -272 -95 -404t-272 -133q-188 0 -277 141q-89 140 -89 396zM193 1298q0 47 23 74q24 27 65 27t64 -27q24 -27 24 -74q0 -43 -24 -69q-24 -27 -64 -27q-41 0 -65 27q-23 26 -23 69zM229 451 q6 -176 67 -260q60 -83 146 -82q39 0 77 16t67 56t47 105t22 165h-426zM229 571h426q-10 186 -67 266q-57 79 -146 78q-41 0 -77 -17q-37 -17 -66 -57t-47 -106t-23 -164zM518 1298q0 47 24 74t64 27q41 0 65 -27t23 -74q0 -43 -23 -69q-24 -27 -65 -27t-64 27 q-24 26 -24 69z" />
<glyph unicode="&#x4ec;" horiz-adv-x="952" d="M61 1380q57 37 137 58q79 20 164 20q113 0 205 -40t158 -128t102 -229q37 -141 37 -342q0 -203 -41 -345t-112 -231q-72 -88 -168 -128t-209 -40q-84 0 -153 15q-69 14 -115 37l43 139q39 -20 102 -35q63 -14 131 -14q70 0 134 29q65 30 116 95t83 168t36 253h-469v137 h469q-10 260 -110 389q-99 129 -255 129q-78 0 -137 -19q-59 -18 -103 -45zM123 1626q0 43 25 70q26 27 71 26q43 0 69 -26q26 -27 25 -70q0 -43 -25 -68q-26 -26 -69 -26q-45 0 -71 26q-25 25 -25 68zM446 1626q0 43 26 70t69 26q45 0 70 -26q26 -27 26 -70t-26 -68 q-26 -26 -70 -26q-43 0 -69 26q-26 25 -26 68z" />
<glyph unicode="&#x4ed;" horiz-adv-x="761" d="M57 25l41 131q39 -23 92 -35t103 -12q227 0 239 344h-339v127h339q-6 160 -64 247q-58 88 -165 88q-66 0 -115 -18t-79 -41l-52 117q47 35 115 55t156 21q184 0 271 -134q87 -133 87 -403q0 -268 -99 -402t-280 -135q-158 0 -250 50zM78 1298q0 47 23 74q24 27 65 27 t64 -27q24 -27 24 -74q0 -43 -24 -69q-24 -27 -64 -27q-41 0 -65 27q-23 26 -23 69zM403 1298q0 47 24 74t65 27t64 -27q24 -27 24 -74q0 -43 -24 -69q-24 -27 -64 -27q-41 0 -65 27q-24 26 -24 69z" />
<glyph unicode="&#x4ee;" horiz-adv-x="917" d="M6 1434h180l281 -736l39 -182h10l33 189l213 729h158l-293 -932q-45 -143 -79 -242q-34 -98 -68 -158q-34 -59 -74 -86q-41 -27 -101 -26q-53 0 -88 10t-65 33l45 131q33 -23 59 -28q27 -5 49 -5q45 0 76 63q31 62 53 177zM223 1599v127h531v-127h-531z" />
<glyph unicode="&#x4ef;" horiz-adv-x="770" d="M14 1024h168l193 -662l43 -198h10l31 198l155 662h150l-244 -920q-29 -111 -57 -206q-29 -96 -63 -167t-75 -111q-42 -40 -100 -40q-57 0 -100 19l25 139q29 -10 57 -4q29 6 54 35q26 29 47 85q22 56 38 146zM152 1196v121h497v-121h-497z" />
<glyph unicode="&#x4f0;" horiz-adv-x="917" d="M6 1434h180l281 -736l39 -182h10l33 189l213 729h158l-293 -932q-45 -143 -79 -242q-34 -98 -68 -158q-34 -59 -74 -86q-41 -27 -101 -26q-53 0 -88 10t-65 33l45 131q33 -23 59 -28q27 -5 49 -5q45 0 76 63q31 62 53 177zM227 1626q0 43 26 70t71 26q43 0 68 -26 q26 -27 26 -70t-26 -68q-26 -26 -68 -26q-45 0 -71 26q-26 25 -26 68zM551 1626q0 43 26 70t68 26q45 0 71 -26q26 -27 25 -70q0 -43 -25 -68q-26 -26 -71 -26q-43 0 -68 26q-26 25 -26 68z" />
<glyph unicode="&#x4f1;" horiz-adv-x="770" d="M14 1024h168l193 -662l43 -198h10l31 198l155 662h150l-244 -920q-29 -111 -57 -206q-29 -96 -63 -167t-75 -111q-42 -40 -100 -40q-57 0 -100 19l25 139q29 -10 57 -4q29 6 54 35q26 29 47 85q22 56 38 146zM154 1298q0 47 23 74q24 27 65 27t64 -27q24 -27 24 -74 q0 -43 -24 -69q-24 -27 -64 -27q-41 0 -65 27q-23 26 -23 69zM479 1298q0 47 24 74t64 27q41 0 65 -27t23 -74q0 -43 -23 -69q-24 -27 -65 -27t-64 27q-24 26 -24 69z" />
<glyph unicode="&#x4f2;" horiz-adv-x="917" d="M6 1434h180l281 -736l39 -182h10l33 189l213 729h158l-293 -932q-45 -143 -79 -242q-34 -98 -68 -158q-34 -59 -74 -86q-41 -27 -101 -26q-53 0 -88 10t-65 33l45 131q33 -23 59 -28q27 -5 49 -5q45 0 76 63q31 62 53 177zM285 1518l104 223h166v-33l-164 -190h-106z M502 1518l166 223h176v-33l-236 -190h-106z" />
<glyph unicode="&#x4f3;" horiz-adv-x="770" d="M14 1024h168l193 -662l43 -198h10l31 198l155 662h150l-244 -920q-29 -111 -57 -206q-29 -96 -63 -167t-75 -111q-42 -40 -100 -40q-57 0 -100 19l25 139q29 -10 57 -4q29 6 54 35q26 29 47 85q22 56 38 146zM254 1169l57 265h142v-33l-119 -232h-80zM442 1169l121 265 h154v-33l-189 -232h-86z" />
<glyph unicode="&#x4f4;" horiz-adv-x="997" d="M113 899v535h153v-500q0 -150 51 -208t150 -58q72 0 138 26q67 27 108 70v670h153v-1434h-153v614q-41 -31 -115 -59q-74 -29 -164 -29q-66 0 -124 17q-58 16 -102 58t-70 114t-25 184zM244 1626q0 43 25 70q26 27 71 26q43 0 69 -26q26 -27 25 -70q0 -43 -25 -68 q-26 -26 -69 -26q-45 0 -71 26q-25 25 -25 68zM567 1626q0 43 26 70t69 26q45 0 70 -26q26 -27 26 -70t-26 -68q-26 -26 -70 -26q-43 0 -69 26q-26 25 -26 68z" />
<glyph unicode="&#x4f5;" horiz-adv-x="811" d="M74 678v346h147v-299q0 -51 5 -92t20 -71q14 -30 41 -45t69 -15q72 0 117 18t70 41v463h147v-1024h-147v430q-25 -18 -77 -40t-140 -21q-59 0 -107 15q-47 15 -79 50t-49 94t-17 150zM131 1298q0 47 24 74t64 27q41 0 65 -27t23 -74q0 -43 -23 -69q-24 -27 -65 -27 t-64 27q-24 26 -24 69zM457 1298q0 47 23 74q24 27 65 27t64 -27q24 -27 24 -74q0 -43 -24 -69q-24 -27 -64 -27q-41 0 -65 27q-23 26 -23 69z" />
<glyph unicode="&#x4f6;" horiz-adv-x="731" d="M131 0v1434h627v-142h-473v-1151h155v-405h-106l-25 264h-178z" />
<glyph unicode="&#x4f7;" horiz-adv-x="606" d="M121 0v1024h487v-133h-340v-758h127v-393h-100l-27 260h-147z" />
<glyph unicode="&#x4f8;" horiz-adv-x="1273" d="M131 12v1422h154v-557q18 4 61 11t84 7q80 0 153 -18t128 -67q55 -48 88 -132t32 -213q0 -250 -115 -366q-116 -116 -323 -115q-47 0 -122 5t-140 23zM285 139q41 -14 123 -14q123 0 192 80q70 80 70 246q0 90 -21 148q-20 58 -56 93t-85 48t-107 14q-29 0 -64 -6 q-36 -6 -52 -13v-596zM381 1626q0 43 26 70t70 26q43 0 69 -26q26 -27 25 -70q0 -43 -25 -68q-26 -26 -69 -26q-45 0 -70 26q-26 25 -26 68zM705 1626q0 43 25 70q26 27 69 26q45 0 70 -26q26 -27 26 -70t-26 -68q-26 -26 -70 -26q-43 0 -69 26q-25 25 -25 68zM989 0v1434 h154v-1434h-154z" />
<glyph unicode="&#x4f9;" horiz-adv-x="1101" d="M121 0v1024h147v-391q41 8 78 11t70 3q84 0 141 -23q57 -24 91 -65t48 -97t15 -120q0 -186 -83 -270t-276 -84q-119 0 -231 12zM268 133q61 -12 113 -12q98 0 137 52t39 151q0 92 -38 144t-134 52q-27 0 -57 -3q-31 -3 -60 -11v-373zM301 1298q0 47 24 74t64 27 q41 0 65 -27t23 -74q0 -43 -23 -69q-24 -27 -65 -27t-64 27q-24 26 -24 69zM627 1298q0 47 23 74q24 27 65 27t64 -27q24 -27 24 -74q0 -43 -24 -69q-24 -27 -64 -27q-41 0 -65 27q-23 26 -23 69zM834 0v1024h147v-1024h-147z" />
<glyph unicode="&#x4fc;" horiz-adv-x="1019" d="M39 0l377 729l-344 705h184l223 -486l41 -121l41 121l236 486h170l-357 -691l224 -440q102 -201 102 -366q0 -209 -72.5 -295t-226.5 -68v133q49 0 77.5 16.5t44 44t19.5 64.5t4 76q0 102 -25.5 179t-58.5 142l-141 285l-49 127l-43 -127l-254 -514h-172z" />
<glyph unicode="&#x4fd;" horiz-adv-x="847" d="M39 0l291 524l-271 500h181l147 -283l45 -127l47 127l152 283h166l-275 -492l156 -274q47 -86 74.5 -170t27.5 -162q0 -197 -77.5 -283.5t-229.5 -64.5v133q92 -2 126 43t34 137q0 84 -26.5 158t-59.5 133l-74 129l-51 121l-49 -121l-168 -311h-166z" />
<glyph unicode="&#x510;" horiz-adv-x="915" d="M100 403q0 154 64.5 242t177.5 113v8q-53 20 -92 57t-64.5 83t-38 97.5t-12.5 102.5q0 94 30 160.5t82 109.5t121.5 62.5t147.5 19.5q92 0 172 -21.5t119 -50.5l-43 -131q-45 25 -108.5 43.5t-123.5 18.5q-111 0 -173 -51.5t-62 -173.5q0 -59 18.5 -104.5t49 -79.5 t70.5 -55.5t81 -29.5q27 -4 66 -6t67 -2h29v-133h-84h-35.5t-34.5 -2q-121 -10 -191.5 -69.5t-70.5 -198.5q0 -145 75 -220t202 -75q70 0 136 21.5t101 43.5l47 -125q-43 -29 -121.5 -55.5t-187.5 -26.5q-188 0 -301 104.5t-113 323.5z" />
<glyph unicode="&#x511;" horiz-adv-x="722" d="M76 287q0 104 40 163.5t132 90.5v8q-68 29 -105 90t-37 145q0 127 75 190.5t202 63.5q96 0 162.5 -19.5t118.5 -51.5l-46 -119q-35 23 -83 40t-109 17q-172 0 -172 -155q0 -33 13.5 -63t36 -52.5t50 -35.5t56.5 -13h112v-125h-92q-111 0 -159 -44t-48 -118 q0 -78 51.5 -131t151.5 -53q61 0 113.5 15t87.5 38l39 -123q-39 -25 -99.5 -44t-146.5 -19q-174 0 -259 81.5t-85 223.5z" />
<glyph unicode="&#x512;" horiz-adv-x="1030" d="M-8 10l24 140q18 -6 37 -6.5t37.5 10t35.5 33t34 63.5q23 55 42 148.5t34.5 236.5t24.5 339.5t13 459.5h625v-1491q0 -211 -66.5 -302.5t-220.5 -70.5v133q45 0 72 16.5t41 52t17 92t3 136.5v1292h-323q-16 -412 -43 -688t-82 -426q-37 -98 -87 -143t-116 -45 q-61 0 -102 20z" />
<glyph unicode="&#x513;" horiz-adv-x="833" d="M-12 10l22 129q43 -12 77 5.5t58.5 106.5t40 272.5t21.5 500.5h506v-1083q0 -188 -56.5 -278.5t-179.5 -88.5q-12 0 -24.5 1t-26.5 3v129q92 -2 115.5 70.5t23.5 220.5v893h-223q-6 -174 -16.5 -337t-36 -288t-72.5 -199.5t-125 -74.5q-35 0 -59.5 4t-44.5 14z" />
<glyph unicode="&#x51c;" horiz-adv-x="1376" d="M10 1434h166l197 -949l24 -239h4l25 243l229 945h88l230 -947l24 -241h2l29 243l182 945h154l-320 -1457h-94l-227 945l-29 219h-6l-29 -221l-227 -943h-96z" />
<glyph unicode="&#x51d;" horiz-adv-x="1208" d="M10 1024h158l158 -596l24 -199h4l37 203l168 592h109l182 -598l37 -197h4l31 201l139 594h139l-272 -1047h-84l-207 672l-29 172h-4l-29 -174l-200 -670h-84z" />
<glyph unicode="&#x524;" horiz-adv-x="1142" d="M131 0v1434h815v-1293h154v-405h-107l-24 264h-176v1292h-508v-1292h-154z" />
<glyph unicode="&#x525;" horiz-adv-x="917" d="M121 0v1024h639v-891h125v-393h-101l-26 260h-146v891h-344v-891h-147z" />
<glyph unicode="&#x526;" horiz-adv-x="1067" d="M131 0v1434h154v-615q43 29 116.5 58.5t167.5 29.5q72 0 130.5 -18.5t99.5 -64.5t63.5 -121.5t22.5 -192.5v-369h149v-405h-106l-25 264h-172v483q0 145 -47 214t-152 69q-74 0 -140 -25.5t-107 -66.5v-674h-154z" />
<glyph unicode="&#x527;" horiz-adv-x="956" d="M121 0v1434h147v-506h6q41 53 102 87q60 34 150 34q68 0 118 -19q50 -18 83 -63t49 -120t17 -185v-529h122v-393h-100l-27 260h-143v623q0 143 -34 218t-134 74q-72 0 -130 -51t-79 -129v-735h-147z" />
<glyph unicode="&#x1e30;" horiz-adv-x="1009" d="M131 0v1434h154v-668l71 29l373 639h176l-375 -619l-71 -65l84 -82l415 -668h-194l-406 664h-73v-664h-154zM342 1540l190 242h203v-43l-268 -199h-125z" />
<glyph unicode="&#x1e31;" horiz-adv-x="794" d="M121 0v1434h147v-873l68 29l239 434h170l-241 -414l-72 -65l84 -80l264 -465h-178l-258 461h-76v-461h-147zM393 1169l96 306h160v-43l-168 -263h-88z" />
<glyph unicode="&#x1e3e;" horiz-adv-x="1304" d="M131 0v1434h129l346 -705l51 -168h5l49 170l327 703h136v-1434h-154v942l18 217h-8l-65 -203l-289 -622h-51l-303 622l-64 203h-8l29 -217v-942h-148zM551 1540l190 242h203v-43l-268 -199h-125z" />
<glyph unicode="&#x1e3f;" horiz-adv-x="1333" d="M121 0v1024h104l27 -109h6q43 59 102 97q59 37 152 37q78 0 128 -34t79 -120q37 72 105 113q69 41 151 41q68 0 116 -18q48 -17 77 -61q30 -44 44 -117t15 -183v-670h-148v651q0 133 -25 199q-26 66 -118 65q-78 0 -124 -48t-64 -130v-737h-148v608q0 82 -5 141 q-5 58 -22 95q-16 37 -45 54t-75 17q-70 0 -118 -54t-67 -124v-737h-147zM606 1169l96 306h160v-43l-168 -263h-88z" />
<glyph unicode="&#x1e54;" horiz-adv-x="923" d="M131 0v1419q66 18 139 25q74 6 146 6q82 0 162 -18t144 -68q65 -49 104 -135q40 -86 40 -219q0 -129 -38 -219t-100 -147q-62 -56 -143 -82t-167 -25h-27q-18 0 -39 1q-20 1 -40 3q-19 2 -27 4v-545h-154zM285 686q8 -4 25 -5t36 -2q18 -1 36 -1h26q57 0 110 14t94 52 t67 103t26 163q0 86 -24 143t-61 92q-38 35 -90 49q-51 15 -106 15q-41 0 -79 -3t-60 -10v-610zM336 1540l190 242h203v-43l-268 -199h-125z" />
<glyph unicode="&#x1e55;" horiz-adv-x="890" d="M121 -410v1434h104l23 -111h8q76 135 238 136q162 0 242 -121q81 -121 81 -396q0 -129 -26 -232q-27 -103 -76 -176t-120 -111t-157 -38q-59 0 -94 8q-35 7 -76 29v-422h-147zM268 162q29 -25 65 -39t95 -14q109 0 172 110q63 111 64 316q0 86 -12 155q-11 70 -36 120 t-62 78q-38 28 -93 27q-150 0 -193 -182v-571zM379 1169l96 306h160v-43l-168 -263h-88z" />
<glyph unicode="&#x1e9e;" horiz-adv-x="1069" d="M129 0v1028q0 96 16.5 176t57.5 136.5t110.5 87t175.5 30.5q135 0 236.5 -43t173.5 -108l-256 -424l-55 -60v-4l53 15q160 -4 246 -108.5t86 -289.5q0 -221 -98.5 -341t-282.5 -120q-16 0 -45 2.5t-59.5 6.5t-58.5 11t-46 19l25 138q14 -10 37.5 -18.5t49 -12.5t50 -6 t43.5 -2q109 0 166 85t57 220q0 143 -68.5 218t-210.5 75h-92v110l267 434q-33 33 -96.5 50.5t-129.5 17.5q-70 0 -108.5 -27.5t-58 -74.5t-24.5 -110.5t-5 -135.5v-975h-156z" />
<glyph unicode="&#x2011;" horiz-adv-x="595" d="M96 514v141h404v-141h-404z" />
<glyph unicode="&#x2013;" horiz-adv-x="1085" d="M190 518v141h705v-141h-705z" />
<glyph unicode="&#x2014;" horiz-adv-x="1355" d="M195 518v141h966v-141h-966z" />
<glyph unicode="&#x2018;" horiz-adv-x="331" d="M63 1309q0 68 17.5 117t42 83.5t50.5 55t44 30.5l47 -67q-35 -25 -60.5 -66t-23.5 -96q39 6 62.5 -21.5t23.5 -74.5t-25.5 -75t-66.5 -28q-47 0 -79 35t-32 107z" />
<glyph unicode="&#x2019;" horiz-adv-x="331" d="M63 1350q0 47 27 73.5t68 26.5q49 0 79.5 -34t30.5 -103q0 -66 -16 -115t-40 -83t-50.5 -55.5t-44.5 -31.5l-47 62q35 23 60.5 64.5t23.5 96.5q-37 -6 -64 21t-27 78z" />
<glyph unicode="&#x201a;" horiz-adv-x="331" d="M63 102q0 47 27 74t68 27q49 0 80 -34t30 -103q0 -66 -16 -115t-40 -83t-50 -55q-27 -22 -45 -32l-47 61q35 23 60 65q26 42 24 97q-37 -6 -64 21q-27 26 -27 77z" />
<glyph unicode="&#x201c;" horiz-adv-x="589" d="M63 1309q0 68 18 116q17 49 42 84t50 56q26 20 44 30l47 -67q-35 -25 -60 -66q-26 -41 -24 -96q39 6 63 -21q23 -28 23 -75t-25 -75q-26 -28 -67 -28q-47 0 -79 35t-32 107zM322 1309q0 68 17 116q17 49 42 84t50 56q26 20 44 30l47 -67q-35 -25 -60 -66q-26 -41 -24 -96 q39 6 63 -21q23 -28 23 -75t-25 -75q-26 -28 -67 -28q-47 0 -79 35t-31 107z" />
<glyph unicode="&#x201d;" horiz-adv-x="589" d="M63 1350q0 47 27 73q27 27 68 27q49 0 80 -34t30 -103q0 -66 -16 -115t-40 -83t-50 -55q-27 -22 -45 -32l-47 62q35 23 60 64q26 42 24 97q-37 -6 -64 21t-27 78zM322 1350q0 47 26 73q27 27 68 27q49 0 80 -34t30 -103q0 -66 -16 -115t-40 -83t-50 -55q-27 -22 -45 -32 l-47 62q35 23 60 64q26 42 24 97q-37 -6 -64 21q-26 27 -26 78z" />
<glyph unicode="&#x201e;" horiz-adv-x="589" d="M63 102q0 47 27 74t68 27q49 0 80 -34t30 -103q0 -66 -16 -115t-40 -83t-50 -55q-27 -22 -45 -32l-47 61q35 23 60 65q26 42 24 97q-37 -6 -64 21q-27 26 -27 77zM322 102q0 47 26 74q27 27 68 27q49 0 80 -34t30 -103q0 -66 -16 -115t-40 -83t-50 -55q-27 -22 -45 -32 l-47 61q35 23 60 65q26 42 24 97q-37 -6 -64 21q-26 26 -26 77z" />
<glyph unicode="&#x2020;" horiz-adv-x="806" d="M66 889v133h210l74 -23l-20 97v338h147v-338l-20 -97l73 23h211v-133h-213l-71 22l20 -88v-823l-26 -410h-97l-24 412v821l20 88l-74 -22h-210z" />
<glyph unicode="&#x2021;" horiz-adv-x="806" d="M66 362v134h210l74 -23l-20 86v266l20 86l-74 -22h-210v133h210l74 -23l-20 95v340h147v-340l-20 -95l73 23h211v-133h-213l-71 22l20 -86v-266l-20 -86l71 23h213v-134h-211l-73 23l20 -94v-291l-26 -410h-95l-26 412v289l20 94l-74 -23h-210z" />
<glyph unicode="&#x2022;" horiz-adv-x="743" d="M139 637q0 129 64.5 207t169.5 78q102 0 167.5 -75t65.5 -210t-65.5 -210t-167.5 -75q-104 0 -169 75t-65 210z" />
<glyph unicode="&#x2026;" horiz-adv-x="1345" d="M125 92q0 57 28 86t74 29q47 0 75 -29t28 -86q0 -59 -28 -88t-75 -29t-74 29q-28 29 -28 88zM582 92q0 57 27 86q28 29 75 29t75 -29t27 -86q0 -59 -27 -88q-28 -29 -75 -29t-75 29q-27 29 -27 88zM1040 92q0 57 28 86t75 29t75 -29t27 -86q0 -59 -27 -88 q-28 -29 -75 -29t-75 29t-28 88z" />
<glyph unicode="&#x2030;" horiz-adv-x="1941" d="M113 1110q0 94 19 161t55 108q36 42 84 61q48 18 104 18q55 0 103 -17t84 -58q36 -40 55 -107q19 -68 20 -166q0 -98 -20 -166q-19 -68 -55 -107q-36 -40 -84 -58q-48 -17 -103 -17t-104 17q-48 17 -84 58q-36 40 -55 107q-19 68 -19 166zM195 37l872 1423l96 -61 l-872 -1424zM246 1110q0 -133 36 -184t93 -52q29 0 52 11q24 10 40 36t26 71q9 46 9 118q0 70 -9 116t-26 72q-16 27 -40 37t-52 11q-31 0 -54 -11q-24 -10 -40 -37t-26 -72q-9 -46 -9 -116zM723 350q0 94 19 161t56 109q36 42 84 60t103 18t104 -17q48 -17 83 -57 q36 -40 56 -108q19 -68 19 -166t-19 -166t-56 -107q-36 -40 -83 -58q-48 -17 -104 -17q-55 0 -103 17t-84 58q-36 40 -56 107q-19 68 -19 166zM856 350q0 -133 36 -184t93 -51q29 0 52 10q24 10 40 36t26 71q9 46 9 118q0 70 -9 116t-26 73q-16 27 -40 36q-24 10 -52 11 q-31 0 -54 -11q-24 -10 -40 -36q-16 -27 -26 -73q-9 -46 -9 -116zM1329 350q0 94 20 161q19 67 55 109t84 60t103 18t104 -17q48 -17 84 -57t55 -108t19 -166t-19 -166t-55 -107q-36 -40 -84 -58q-48 -17 -104 -17q-55 0 -103 17t-84 58q-36 40 -55 107q-20 68 -20 166z M1462 350q0 -133 36 -184t93 -51q29 0 53 10t39 36q16 26 26 71q9 46 9 118q0 70 -9 116t-26 73q-16 27 -39 36q-24 10 -53 11q-31 0 -54 -11q-24 -10 -40 -36q-16 -27 -26 -73q-9 -46 -9 -116z" />
<glyph unicode="&#x2039;" horiz-adv-x="495" d="M61 530l265 471l102 -67l-168 -318l-78 -84l78 -73l178 -312l-102 -69z" />
<glyph unicode="&#x203a;" horiz-adv-x="495" d="M57 930l105 71l272 -452l-262 -471l-102 67l166 318l79 84l-79 74z" />
<glyph unicode="&#x2044;" horiz-adv-x="305" d="M-291 33l789 1427l100 -55l-786 -1430z" />
<glyph unicode="&#x2081;" horiz-adv-x="675" d="M92 459l256 211h84v-758h154v-117h-457v117h172v526l12 74l-45 -57l-123 -82z" />
<glyph unicode="&#x2082;" horiz-adv-x="675" d="M90 -139q43 43 99.5 109.5t107.5 142t86 155.5t35 152q0 61 -32 94t-79 33q-45 0 -87 -14.5t-70 -34.5l-41 106q41 33 101 49.5t120 16.5q104 0 160.5 -59.5t56.5 -170.5q0 -66 -17.5 -128t-47 -122.5t-69.5 -119t-83 -115.5l-76 -66v-4l94 31h230v-121h-488v66z" />
<glyph unicode="&#x2083;" horiz-adv-x="675" d="M117 -182l26 114q31 -16 67 -25t79 -9q78 0 117.5 42t37.5 117q2 66 -33.5 107t-119.5 41h-90v47l157 244l60 55l-84 -12h-215v116h432v-65l-168 -258l-43 -35v-6l41 6q92 0 144.5 -64.5t49.5 -175.5q2 -125 -74.5 -200.5t-199.5 -75.5q-59 0 -104 10t-80 27z" />
<glyph unicode="&#x2084;" horiz-adv-x="675" d="M49 -12v69l371 615h92v-570h133v-114h-133v-197h-125v197h-338zM180 94l84 8h123v256l14 109h-8l-37 -102l-120 -209z" />
<glyph unicode="&#x20ac;" d="M25 526l32 127h88v64v40.5t2 41.5h-122l32 129h103q20 150 63 248t104.5 160.5t136.5 92t159 29.5t144 -11t107 -34l-40 -135q-39 18 -88.5 28.5t-118.5 10.5q-55 0 -104.5 -20.5t-90.5 -64.5t-71.5 -116t-47.5 -188h457l-31 -129h-438q-2 -16 -2 -41v-41v-32.5t2 -31.5 h406l-31 -127h-365q29 -215 115 -312t221 -97q129 0 209 57l35 -123q-49 -41 -123 -58.5t-150 -17.5q-188 0 -309 129t-153 422h-131z" />
<glyph unicode="&#x20b4;" d="M84 522v127h686v-127h-375q-35 -43 -65.5 -115.5t-30.5 -138.5q0 -72 43 -115.5t147 -43.5q78 0 128.5 15t87.5 42l47 -121q-37 -29 -105.5 -49.5t-185.5 -20.5q-158 0 -237 72t-79 201q0 39 10.5 81t25 79.5t30.5 67.5t27 46h-154zM84 795v127h385q41 53 66.5 122.5 t25.5 133.5q0 72 -38 109.5t-128 37.5q-66 0 -109.5 -16.5t-82.5 -38.5l-49 127q49 29 107 45t163 16q285 0 285 -256q0 -78 -27 -152.5t-61 -127.5h149v-127h-686z" />
<glyph unicode="&#x20b6;" d="M59 291v123h121v147h-121v123h121v735q63 18 136 24.5t145 6.5q78 0 152.5 -18.5t132 -67.5t92 -133t34.5 -215q0 -129 -35.5 -216t-95 -140.5t-136.5 -76t-159 -22.5l-116 -2v-145h272v-123h-272v-291h-150v291h-121zM330 690h116q49 0 97.5 13.5t86.5 50.5t61.5 99 t23.5 161q0 84 -19.5 141t-53.5 93t-79 51.5t-96 15.5q-41 0 -78 -2t-59 -8v-615z" />
<glyph unicode="&#x20b7;" d="M59 291v123h121v147h-121v123h121v735q63 18 136 25q73 6 145 6q78 0 152 -18q75 -18 132 -68q57 -49 93 -133q35 -84 34 -215q0 -129 -35 -216q-36 -87 -96 -141q-59 -53 -136 -75q-77 -23 -159 -23l-116 -2v-145h272v-123h-272v-291h-150v291h-121zM330 690h116 q49 0 98 13q48 13 86 51q38 37 61 99q24 62 24 161q0 84 -20 141q-19 57 -53 93t-79 51t-96 16q-41 0 -78 -2t-59 -8v-615z" />
<glyph unicode="&#x20b9;" d="M59 291v123h121v147h-121v123h121v735q63 18 136 25q73 6 145 6q78 0 152 -18q75 -18 132 -68q57 -49 93 -133q35 -84 34 -215q0 -129 -35 -216q-36 -87 -96 -141q-59 -53 -136 -75q-77 -23 -159 -23l-116 -2v-145h272v-123h-272v-291h-150v291h-121zM330 690h116 q49 0 98 13q48 13 86 51q38 37 61 99q24 62 24 161q0 84 -20 141q-19 57 -53 93t-79 51t-96 16q-41 0 -78 -2t-59 -8v-615z" />
<glyph unicode="&#x20ba;" d="M59 291v123h121v147h-121v123h121v735q63 18 136 25q73 6 145 6q78 0 152 -18q75 -18 132 -68q57 -49 93 -133q35 -84 34 -215q0 -129 -35 -216q-36 -87 -96 -141q-59 -53 -136 -75q-77 -23 -159 -23l-116 -2v-145h272v-123h-272v-291h-150v291h-121zM330 690h116 q49 0 98 13q48 13 86 51q38 37 61 99q24 62 24 161q0 84 -20 141q-19 57 -53 93t-79 51t-96 16q-41 0 -78 -2t-59 -8v-615z" />
<glyph unicode="&#x20bb;" d="M59 291v123h121v147h-121v123h121v735q63 18 136 25q73 6 145 6q78 0 152 -18q75 -18 132 -68q57 -49 93 -133q35 -84 34 -215q0 -129 -35 -216q-36 -87 -96 -141q-59 -53 -136 -75q-77 -23 -159 -23l-116 -2v-145h272v-123h-272v-291h-150v291h-121zM330 690h116 q49 0 98 13q48 13 86 51q38 37 61 99q24 62 24 161q0 84 -20 141q-19 57 -53 93t-79 51t-96 16q-41 0 -78 -2t-59 -8v-615z" />
<glyph unicode="&#x20bc;" d="M59 291v123h121v147h-121v123h121v735q63 18 136 25q73 6 145 6q78 0 152 -18q75 -18 132 -68q57 -49 93 -133q35 -84 34 -215q0 -129 -35 -216q-36 -87 -96 -141q-59 -53 -136 -75q-77 -23 -159 -23l-116 -2v-145h272v-123h-272v-291h-150v291h-121zM330 690h116 q49 0 98 13q48 13 86 51q38 37 61 99q24 62 24 161q0 84 -20 141q-19 57 -53 93t-79 51t-96 16q-41 0 -78 -2t-59 -8v-615z" />
<glyph unicode="&#x20bd;" d="M59 291v123h121v147h-121v123h121v735q63 18 136 25q73 6 145 6q78 0 152 -18q75 -18 132 -68q57 -49 93 -133q35 -84 34 -215q0 -129 -35 -216q-36 -87 -96 -141q-59 -53 -136 -75q-77 -23 -159 -23l-116 -2v-145h272v-123h-272v-291h-150v291h-121zM330 690h116 q49 0 98 13q48 13 86 51q38 37 61 99q24 62 24 161q0 84 -20 141q-19 57 -53 93t-79 51t-96 16q-41 0 -78 -2t-59 -8v-615z" />
<glyph unicode="&#x20be;" d="M59 291v123h121v147h-121v123h121v735q63 18 136 25q73 6 145 6q78 0 152 -18q75 -18 132 -68q57 -49 93 -133q35 -84 34 -215q0 -129 -35 -216q-36 -87 -96 -141q-59 -53 -136 -75q-77 -23 -159 -23l-116 -2v-145h272v-123h-272v-291h-150v291h-121zM330 690h116 q49 0 98 13q48 13 86 51q38 37 61 99q24 62 24 161q0 84 -20 141q-19 57 -53 93t-79 51t-96 16q-41 0 -78 -2t-59 -8v-615z" />
<glyph unicode="&#x20bf;" d="M59 291v123h121v147h-121v123h121v735q63 18 136 25q73 6 145 6q78 0 152 -18q75 -18 132 -68q57 -49 93 -133q35 -84 34 -215q0 -129 -35 -216q-36 -87 -96 -141q-59 -53 -136 -75q-77 -23 -159 -23l-116 -2v-145h272v-123h-272v-291h-150v291h-121zM330 690h116 q49 0 98 13q48 13 86 51q38 37 61 99q24 62 24 161q0 84 -20 141q-19 57 -53 93t-79 51t-96 16q-41 0 -78 -2t-59 -8v-615z" />
<glyph unicode="&#x20c0;" d="M59 291v123h121v147h-121v123h121v735q63 18 136 25q73 6 145 6q78 0 152 -18q75 -18 132 -68q57 -49 93 -133q35 -84 34 -215q0 -129 -35 -216q-36 -87 -96 -141q-59 -53 -136 -75q-77 -23 -159 -23l-116 -2v-145h272v-123h-272v-291h-150v291h-121zM330 690h116 q49 0 98 13q48 13 86 51q38 37 61 99q24 62 24 161q0 84 -20 141q-19 57 -53 93t-79 51t-96 16q-41 0 -78 -2t-59 -8v-615z" />
<glyph unicode="&#x20c1;" d="M59 291v123h121v147h-121v123h121v735q63 18 136 25q73 6 145 6q78 0 152 -18q75 -18 132 -68q57 -49 93 -133q35 -84 34 -215q0 -129 -35 -216q-36 -87 -96 -141q-59 -53 -136 -75q-77 -23 -159 -23l-116 -2v-145h272v-123h-272v-291h-150v291h-121zM330 690h116 q49 0 98 13q48 13 86 51q38 37 61 99q24 62 24 161q0 84 -20 141q-19 57 -53 93t-79 51t-96 16q-41 0 -78 -2t-59 -8v-615z" />
<glyph unicode="&#x20c2;" d="M59 291v123h121v147h-121v123h121v735q63 18 136 25q73 6 145 6q78 0 152 -18q75 -18 132 -68q57 -49 93 -133q35 -84 34 -215q0 -129 -35 -216q-36 -87 -96 -141q-59 -53 -136 -75q-77 -23 -159 -23l-116 -2v-145h272v-123h-272v-291h-150v291h-121zM330 690h116 q49 0 98 13q48 13 86 51q38 37 61 99q24 62 24 161q0 84 -20 141q-19 57 -53 93t-79 51t-96 16q-41 0 -78 -2t-59 -8v-615z" />
<glyph unicode="&#x20c3;" d="M59 291v123h121v147h-121v123h121v735q63 18 136 25q73 6 145 6q78 0 152 -18q75 -18 132 -68q57 -49 93 -133q35 -84 34 -215q0 -129 -35 -216q-36 -87 -96 -141q-59 -53 -136 -75q-77 -23 -159 -23l-116 -2v-145h272v-123h-272v-291h-150v291h-121zM330 690h116 q49 0 98 13q48 13 86 51q38 37 61 99q24 62 24 161q0 84 -20 141q-19 57 -53 93t-79 51t-96 16q-41 0 -78 -2t-59 -8v-615z" />
<glyph unicode="&#x20c4;" d="M59 291v123h121v147h-121v123h121v735q63 18 136 25q73 6 145 6q78 0 152 -18q75 -18 132 -68q57 -49 93 -133q35 -84 34 -215q0 -129 -35 -216q-36 -87 -96 -141q-59 -53 -136 -75q-77 -23 -159 -23l-116 -2v-145h272v-123h-272v-291h-150v291h-121zM330 690h116 q49 0 98 13q48 13 86 51q38 37 61 99q24 62 24 161q0 84 -20 141q-19 57 -53 93t-79 51t-96 16q-41 0 -78 -2t-59 -8v-615z" />
<glyph unicode="&#x20c5;" d="M59 291v123h121v147h-121v123h121v735q63 18 136 25q73 6 145 6q78 0 152 -18q75 -18 132 -68q57 -49 93 -133q35 -84 34 -215q0 -129 -35 -216q-36 -87 -96 -141q-59 -53 -136 -75q-77 -23 -159 -23l-116 -2v-145h272v-123h-272v-291h-150v291h-121zM330 690h116 q49 0 98 13q48 13 86 51q38 37 61 99q24 62 24 161q0 84 -20 141q-19 57 -53 93t-79 51t-96 16q-41 0 -78 -2t-59 -8v-615z" />
<glyph unicode="&#x20c6;" d="M59 291v123h121v147h-121v123h121v735q63 18 136 25q73 6 145 6q78 0 152 -18q75 -18 132 -68q57 -49 93 -133q35 -84 34 -215q0 -129 -35 -216q-36 -87 -96 -141q-59 -53 -136 -75q-77 -23 -159 -23l-116 -2v-145h272v-123h-272v-291h-150v291h-121zM330 690h116 q49 0 98 13q48 13 86 51q38 37 61 99q24 62 24 161q0 84 -20 141q-19 57 -53 93t-79 51t-96 16q-41 0 -78 -2t-59 -8v-615z" />
<glyph unicode="&#x20c7;" d="M59 291v123h121v147h-121v123h121v735q63 18 136 25q73 6 145 6q78 0 152 -18q75 -18 132 -68q57 -49 93 -133q35 -84 34 -215q0 -129 -35 -216q-36 -87 -96 -141q-59 -53 -136 -75q-77 -23 -159 -23l-116 -2v-145h272v-123h-272v-291h-150v291h-121zM330 690h116 q49 0 98 13q48 13 86 51q38 37 61 99q24 62 24 161q0 84 -20 141q-19 57 -53 93t-79 51t-96 16q-41 0 -78 -2t-59 -8v-615z" />
<glyph unicode="&#x20c8;" d="M59 291v123h121v147h-121v123h121v735q63 18 136 25q73 6 145 6q78 0 152 -18q75 -18 132 -68q57 -49 93 -133q35 -84 34 -215q0 -129 -35 -216q-36 -87 -96 -141q-59 -53 -136 -75q-77 -23 -159 -23l-116 -2v-145h272v-123h-272v-291h-150v291h-121zM330 690h116 q49 0 98 13q48 13 86 51q38 37 61 99q24 62 24 161q0 84 -20 141q-19 57 -53 93t-79 51t-96 16q-41 0 -78 -2t-59 -8v-615z" />
<glyph unicode="&#x20c9;" d="M59 291v123h121v147h-121v123h121v735q63 18 136 25q73 6 145 6q78 0 152 -18q75 -18 132 -68q57 -49 93 -133q35 -84 34 -215q0 -129 -35 -216q-36 -87 -96 -141q-59 -53 -136 -75q-77 -23 -159 -23l-116 -2v-145h272v-123h-272v-291h-150v291h-121zM330 690h116 q49 0 98 13q48 13 86 51q38 37 61 99q24 62 24 161q0 84 -20 141q-19 57 -53 93t-79 51t-96 16q-41 0 -78 -2t-59 -8v-615z" />
<glyph unicode="&#x20ca;" d="M59 291v123h121v147h-121v123h121v735q63 18 136 25q73 6 145 6q78 0 152 -18q75 -18 132 -68q57 -49 93 -133q35 -84 34 -215q0 -129 -35 -216q-36 -87 -96 -141q-59 -53 -136 -75q-77 -23 -159 -23l-116 -2v-145h272v-123h-272v-291h-150v291h-121zM330 690h116 q49 0 98 13q48 13 86 51q38 37 61 99q24 62 24 161q0 84 -20 141q-19 57 -53 93t-79 51t-96 16q-41 0 -78 -2t-59 -8v-615z" />
<glyph unicode="&#x20cb;" d="M59 291v123h121v147h-121v123h121v735q63 18 136 25q73 6 145 6q78 0 152 -18q75 -18 132 -68q57 -49 93 -133q35 -84 34 -215q0 -129 -35 -216q-36 -87 -96 -141q-59 -53 -136 -75q-77 -23 -159 -23l-116 -2v-145h272v-123h-272v-291h-150v291h-121zM330 690h116 q49 0 98 13q48 13 86 51q38 37 61 99q24 62 24 161q0 84 -20 141q-19 57 -53 93t-79 51t-96 16q-41 0 -78 -2t-59 -8v-615z" />
<glyph unicode="&#x20cc;" d="M59 291v123h121v147h-121v123h121v735q63 18 136 25q73 6 145 6q78 0 152 -18q75 -18 132 -68q57 -49 93 -133q35 -84 34 -215q0 -129 -35 -216q-36 -87 -96 -141q-59 -53 -136 -75q-77 -23 -159 -23l-116 -2v-145h272v-123h-272v-291h-150v291h-121zM330 690h116 q49 0 98 13q48 13 86 51q38 37 61 99q24 62 24 161q0 84 -20 141q-19 57 -53 93t-79 51t-96 16q-41 0 -78 -2t-59 -8v-615z" />
<glyph unicode="&#x20cd;" d="M59 291v123h121v147h-121v123h121v735q63 18 136 25q73 6 145 6q78 0 152 -18q75 -18 132 -68q57 -49 93 -133q35 -84 34 -215q0 -129 -35 -216q-36 -87 -96 -141q-59 -53 -136 -75q-77 -23 -159 -23l-116 -2v-145h272v-123h-272v-291h-150v291h-121zM330 690h116 q49 0 98 13q48 13 86 51q38 37 61 99q24 62 24 161q0 84 -20 141q-19 57 -53 93t-79 51t-96 16q-41 0 -78 -2t-59 -8v-615z" />
<glyph unicode="&#x20ce;" d="M59 291v123h121v147h-121v123h121v735q63 18 136 25q73 6 145 6q78 0 152 -18q75 -18 132 -68q57 -49 93 -133q35 -84 34 -215q0 -129 -35 -216q-36 -87 -96 -141q-59 -53 -136 -75q-77 -23 -159 -23l-116 -2v-145h272v-123h-272v-291h-150v291h-121zM330 690h116 q49 0 98 13q48 13 86 51q38 37 61 99q24 62 24 161q0 84 -20 141q-19 57 -53 93t-79 51t-96 16q-41 0 -78 -2t-59 -8v-615z" />
<glyph unicode="&#x20cf;" d="M59 291v123h121v147h-121v123h121v735q63 18 136 25q73 6 145 6q78 0 152 -18q75 -18 132 -68q57 -49 93 -133q35 -84 34 -215q0 -129 -35 -216q-36 -87 -96 -141q-59 -53 -136 -75q-77 -23 -159 -23l-116 -2v-145h272v-123h-272v-291h-150v291h-121zM330 690h116 q49 0 98 13q48 13 86 51q38 37 61 99q24 62 24 161q0 84 -20 141q-19 57 -53 93t-79 51t-96 16q-41 0 -78 -2t-59 -8v-615z" />
<glyph unicode="&#x2113;" horiz-adv-x="1024" d="M150 446l174 152v520q0 90 20.5 154.5t56 105.5t83.5 60.5t104 19.5q98 0 161.5 -60.5t63.5 -183.5q0 -152 -82 -321.5t-268 -349.5v-287q0 -90 34.5 -124t84.5 -34q51 0 112.5 21.5t102.5 44.5l34 -103q-45 -29 -117.5 -57.5t-144.5 -28.5q-129 0 -187 62.5t-58 195.5 v213l-103 -90zM463 707q115 133 167 256.5t52 240.5q0 70 -28.5 100.5t-65.5 30.5q-25 0 -47.5 -7t-40 -28.5t-27.5 -59.5t-10 -99v-434z" />
<glyph unicode="&#x2116;" horiz-adv-x="1689" d="M129 0v1456h92l506 -936l86 -225h8l-26 215v924h147v-1457h-92l-504 938l-86 236h-8l24 -225v-926h-147zM1065 1110q0 94 19.5 160.5t55.5 108.5t84 60.5t101 18.5q55 0 103.5 -17.5t84 -57.5t55 -107.5t19.5 -165.5t-19.5 -165.5t-55 -107.5t-84 -57.5t-103.5 -17.5 q-53 0 -101 17.5t-84 57.5t-55.5 107.5t-19.5 165.5zM1096 502v137h471v-137h-471zM1198 1110q0 -133 36 -184.5t91 -51.5q29 0 52.5 10.5t41 36t26.5 71.5t9 118q0 70 -9 116t-26.5 72.5t-41 37t-52.5 10.5t-52.5 -10.5t-39.5 -37t-25.5 -72.5t-9.5 -116z" />
<glyph unicode="&#x2122;" horiz-adv-x="1497" d="M70 1300v134h583v-134h-217v-604h-147v604h-219zM717 696v738h145l168 -342l45 -119l49 123l154 338h147v-738h-137v342l21 211h-9l-63 -174l-137 -287h-70l-139 285l-60 176h-8l27 -209v-344h-133z" />
<glyph unicode="&#x212e;" horiz-adv-x="1228" d="M90 530q0 121 38 224.5t107.5 179.5t167 119t215.5 43q127 0 224.5 -45t165 -122t102.5 -179.5t39 -219.5h-827v-370q127 -121 296 -121q254 0 396 246l71 -43q-88 -135 -202.5 -206t-264.5 -71q-121 0 -219 44t-166.5 120t-105.5 179.5t-37 221.5zM322 604h596v297 q-129 123 -302 123q-176 0 -294 -123v-297z" />
<glyph unicode="&#x2202;" horiz-adv-x="851" d="M39 377q0 133 27.5 254t83 213t137 146t190.5 54q66 0 100.5 -14t63.5 -41h8q-6 100 -42 168t-89 108t-116.5 54t-125.5 10l27 129q115 2 207 -27.5t157.5 -102.5t100.5 -192.5t35 -299.5q0 -227 -33 -390t-91 -267.5t-138 -154t-176 -49.5q-160 0 -243 104.5t-83 297.5z M193 365q0 -49 10 -95.5t32.5 -82t57.5 -57t84 -21.5q80 0 132 65.5t83 170t44 232.5t13 252q-31 39 -70.5 60.5t-105.5 21.5q-57 0 -108.5 -36.5t-89 -107.5t-60 -172t-22.5 -230z" />
<glyph unicode="&#x220f;" horiz-adv-x="1107" d="M131 -410v1844h846v-1844h-154v1702h-538v-1702h-154z" />
<glyph unicode="&#x2211;" horiz-adv-x="849" d="M33 -268l362 719l58 61l-60 66l-360 714v142h758v-142h-619l72 -73l344 -695l-359 -719l-65 -73h627v-142h-758v142z" />
<glyph unicode="&#x2212;" horiz-adv-x="849" d="M72 627v137h704v-137h-704z" />
<glyph unicode="&#x2215;" horiz-adv-x="849" d="M-18 33l788 1427l100 -55l-786 -1430z" />
<glyph unicode="&#x221a;" horiz-adv-x="849" d="M-12 780v133h295l143 -430l41 -268h4l31 272l237 947h138l-373 -1457h-66l-262 803h-188z" />
<glyph unicode="&#x221e;" horiz-adv-x="1423" d="M86 709q0 184 82 289.5t217 105.5q119 0 202 -65.5t134 -166.5q72 125 159 178.5t187 53.5q121 0 195.5 -98.5t74.5 -274.5q0 -188 -83 -292.5t-218 -104.5q-59 0 -109 20.5t-91 55t-75 80t-59 96.5q-59 -121 -145 -186.5t-184 -65.5q-59 0 -111.5 25.5t-91.5 74.5 t-61.5 119t-22.5 156zM229 715q0 -51 11.5 -96.5t34 -79t55 -53t73.5 -19.5q37 0 71 20.5t65.5 52t59.5 72.5t50 84q-23 57 -50.5 107.5t-59 87.5t-70.5 58.5t-82 21.5q-35 0 -63.5 -20.5t-50 -56.5t-33 -82t-11.5 -97zM776 760q20 -55 47 -107.5t61 -94.5t72.5 -66.5 t81.5 -24.5q68 0 112 72.5t44 187.5q0 45 -9 89t-27.5 78t-49.5 55.5t-74 21.5q-68 0 -134 -56.5t-124 -154.5z" />
<glyph unicode="&#x222b;" horiz-adv-x="581" d="M-78 -385l39 125q74 -33 145 -33q66 0 88.5 49t22.5 172v1223q0 160 54.5 233.5t177.5 73.5q57 0 110 -11t94 -30l-39 -123q-35 16 -69.5 23.5t-75.5 7.5q-61 0 -82.5 -48t-21.5 -169v-1227q0 -160 -57.5 -233.5t-176.5 -73.5q-61 0 -115.5 11.5t-93.5 29.5z" />
<glyph unicode="&#x2248;" horiz-adv-x="849" d="M47 569q74 68 133 95t111 26q47 0 88 -17t78 -37q37 -19 72 -37q36 -17 73 -17q29 0 62 14t67 53l70 -123q-66 -55 -117 -76q-51 -22 -94 -22q-45 0 -83 17t-74 39t-72 39t-74 18q-37 0 -79 -21q-42 -20 -93 -71zM47 909q74 68 133 95t111 26q47 0 88 -17t78 -37 q37 -19 72 -37q36 -17 73 -17q29 0 62 14t67 53l70 -123q-66 -55 -117 -76q-51 -22 -94 -22q-45 0 -83 17t-74 39t-72 39t-74 18q-37 0 -79 -21q-42 -20 -93 -72z" />
<glyph unicode="&#x2260;" horiz-adv-x="849" d="M72 457v137h250l71 203h-321v137h370l101 283h135l-103 -283h201v-137h-250l-73 -203h323v-137h-373l-114 -322h-131l114 322h-200z" />
<glyph unicode="&#x2264;" horiz-adv-x="849" d="M66 872v60l614 457l80 -111l-391 -297l-152 -78l150 -65l401 -295l-78 -111zM94 473l78 113l596 -418l-78 -113z" />
<glyph unicode="&#x2265;" horiz-adv-x="849" d="M68 1278l77 111l625 -441v-59l-614 -457l-80 111l391 297l151 78l-149 65zM86 166l596 424l80 -111l-594 -424z" />
<glyph unicode="&#x25ca;" horiz-adv-x="849" d="M59 700l328 756h68l333 -745l-333 -734h-68zM209 723l174 -391l47 -187h2l45 191l162 354l-174 393l-45 185h-4l-45 -189z" />
<glyph unicode="&#x2c67;" horiz-adv-x="1163" d="M131 0v1434h154v-631h528v631h154v-1293h151v-405h-106l-25 264h-174v662h-528v-662h-154z" />
<glyph unicode="&#x2c68;" horiz-adv-x="956" d="M121 0v1434h147v-506h6q41 53 101.5 87t150.5 34q68 0 118 -18.5t83 -63.5t49.5 -120t16.5 -185v-529h122v-393h-100l-27 260h-143v623q0 143 -33.5 217.5t-134.5 74.5q-72 0 -130 -51t-79 -129v-735h-147z" />
<glyph unicode="&#xe000;" horiz-adv-x="1024" d="M0 0v1024h1024v-1024h-1024z" />
<glyph unicode="&#xf401;" horiz-adv-x="4" d="M-807 1540l191 242h202v-43l-268 -199h-125z" />
<glyph unicode="&#xf406;" horiz-adv-x="829" d="M123 1743l78 41q29 -70 86 -113t135 -43q80 0 132 46t79 110l74 -33q-31 -129 -112 -192.5t-175 -63.5q-88 0 -173 59.5t-124 188.5z" />
<glyph unicode="&#xf407;" horiz-adv-x="536" d="M123 -418l14 80q47 -4 75 2t42 19q14 12 18 27t4 30q0 57 -141 76l82 184h102l-38 -88q133 -31 133 -154q0 -80 -59 -132q-58 -52 -156 -52q-41 0 -76 8z" />
<glyph unicode="&#xf408;" horiz-adv-x="776" d="M123 1530v45l219 207h102l209 -209v-43h-135l-96 100l-31 72l-31 -70l-106 -102h-131z" />
<glyph unicode="&#xf409;" horiz-adv-x="448" d="M125 -209q0 43 27 70t63 26q45 0 78 -34q33 -35 33 -119q0 -53 -16 -93q-15 -40 -37 -70t-45 -47q-24 -17 -42 -26l-55 56q35 27 58 64q24 38 22 87q-35 -4 -60 19q-26 22 -26 67z" />
<glyph unicode="&#xf40a;" horiz-adv-x="331" d="M63 1350q0 47 27 73q27 27 68 27q49 0 80 -34t30 -103q0 -66 -16 -115t-40 -83t-50 -55q-27 -22 -45 -32l-47 62q35 23 60 64q26 42 24 97q-37 -6 -64 21t-27 78z" />
<glyph unicode="&#xf40b;" horiz-adv-x="468" d="M123 1632q0 43 28.5 75t81.5 32t83 -32t30 -75q0 -47 -29.5 -77.5t-83.5 -30.5q-53 0 -81.5 30.5t-28.5 77.5z" />
<glyph unicode="&#xf40c;" horiz-adv-x="614" d="M123 1573q0 76 43 125t141 49q88 0 136.5 -44t48.5 -130q0 -74 -46.5 -122t-138.5 -48t-138 46t-46 124zM233 1573q0 -37 17.5 -60.5t56.5 -23.5q74 0 74 84q0 88 -74 88t-74 -88z" />
<glyph unicode="&#xf40d;" horiz-adv-x="808" d="M123 1597q57 70 105 95.5t91 25.5q33 0 63 -10t57.5 -21.5t53 -21.5t52.5 -10q23 0 44 8t44 33l53 -76q-49 -57 -92 -77.5t-80 -20.5q-31 0 -59.5 10t-56 21.5t-54.5 21.5t-55 10q-29 0 -56.5 -12t-60.5 -47z" />
<glyph unicode="&#xf40e;" horiz-adv-x="569" d="M123 -223q0 88 50 148t128 95h98q-59 -33 -94 -82q-35 -50 -35 -116q2 -59 41 -91t115 -1l20 -82q-23 -23 -64 -35q-42 -12 -81 -12q-82 0 -130 49t-48 127z" />
<glyph unicode="&#xf486;" horiz-adv-x="964" d="M131 10v1411q61 12 144 21q83 8 180 8q70 0 139 -13q70 -13 125 -51q55 -37 89 -103t34 -175q0 -53 -13 -107q-12 -53 -38 -100q-27 -47 -67 -84t-97 -55v-8q49 -10 94 -34t80 -66t55 -102t21 -144q0 -111 -35 -192t-96 -132q-60 -51 -139 -76t-167 -24h-66q-38 0 -81 3 t-85 8t-77 15zM285 139q12 -4 31 -6t43 -4t49 -3t45 -1q55 0 102 17t83 53q36 35 56 85t21 117q0 84 -26 137q-26 52 -66 80q-41 29 -94 39q-52 10 -107 11h-137v-525zM285 797h84q29 0 65 2q37 2 62 6q76 31 130 99q54 69 54 169q0 68 -18 114t-51 73q-32 27 -74 37 q-43 11 -91 12q-53 0 -96 -3t-65 -8v-501zM313 1540l191 242h203v-43l-269 -199h-125z" />
<glyph unicode="&#xf487;" horiz-adv-x="888" d="M121 53v1381h147v-488h6q84 102 224 103q158 0 236 -125q79 -125 79 -396q0 -276 -105 -411t-298 -135q-94 0 -172 21q-78 22 -117 50zM268 150q29 -16 71 -26q42 -9 89 -9q106 0 169 101q62 101 62 312q0 88 -11 159t-35 122t-61 79q-38 28 -91 27q-74 0 -122 -44 t-71 -119v-602zM416 1169l96 306h160v-43l-168 -263h-88z" />
<glyph unicode="&#xf488;" horiz-adv-x="845" d="M131 0v1434h637v-142h-483v-506h450v-141h-450v-645h-154zM311 1540l191 242h203v-43l-269 -199h-125z" />
<glyph unicode="&#xf489;" horiz-adv-x="526" d="M33 891v133h125v57q0 193 55 279t188 86q53 0 97 -6q43 -6 88 -27l-37 -127q-37 16 -69 22q-32 5 -60 5q-41 0 -64 -17q-23 -16 -33 -51q-11 -35 -15 -89q-3 -54 -3 -132h213v-133h-213v-891h-147v891h-125zM287 1540l190 242h203v-43l-268 -199h-125z" />
<glyph unicode="&#xf49e;" horiz-adv-x="1003" d="M-4 1075v127h141v232h154v-232h362v-127h-362v-256q43 29 116.5 58.5t167.5 29.5q72 0 130.5 -18.5t99.5 -64.5t63.5 -121.5t22.5 -192.5v-510h-154v483q0 145 -47 214t-151 69q-74 0 -140.5 -25.5t-107.5 -66.5v-674h-154v1075h-141z" />
<glyph unicode="&#xf49f;" horiz-adv-x="903" d="M-8 1176v120h131v138h147v-138h265v-120h-265v-248h6q41 53 102 87q60 34 150 34q68 0 118 -19q50 -18 83 -63t49 -120t17 -185v-662h-148v623q0 143 -34 218t-134 74q-72 0 -130 -51t-79 -129v-735h-147v1176h-131z" />
<glyph unicode="&#xf4c6;" horiz-adv-x="997" d="M113 899v535h153v-500q0 -150 51.5 -208t149.5 -58q72 0 138.5 26.5t107.5 69.5v670h153v-1491q0 -211 -69.5 -302.5t-223.5 -70.5v133q47 0 75 18.5t42.5 55.5t18.5 93t4 130v614q-41 -31 -115 -59.5t-164 -28.5q-66 0 -124 16.5t-102 58.5t-69.5 113.5t-25.5 184.5z " />
<glyph unicode="&#xf4c7;" horiz-adv-x="811" d="M74 678v346h147v-299q0 -51 5 -92t19.5 -71t41 -45t69.5 -15q72 0 117 18.5t70 40.5v463h147v-1083q0 -188 -56 -278.5t-179 -88.5q-12 0 -24.5 1t-27.5 3v129q92 -2 116 70.5t24 222.5v430q-25 -18 -77 -39.5t-140 -21.5q-59 0 -106.5 15t-79 50t-49 94.5t-17.5 149.5z " />
<glyph unicode="&#xf4cc;" horiz-adv-x="917" d="M6 1434h180l281 -736l39 -182h10l33 189l213 729h158l-293 -932q-45 -143 -79 -242q-34 -98 -68 -158q-34 -59 -74 -86q-41 -27 -101 -26q-53 0 -88 10t-65 33l45 131q33 -23 59 -28q27 -5 49 -5q45 0 76 63q31 62 53 177zM336 1540l190 242h203v-43l-268 -199h-125z" />
<glyph unicode="&#xf4cd;" horiz-adv-x="770" d="M14 1024h168l193 -662l43 -198h10l31 198l155 662h150l-244 -920q-29 -111 -57 -206q-29 -96 -63 -167t-75 -111q-42 -40 -100 -40q-57 0 -100 19l25 139q29 -10 57 -4q29 6 54 35q26 29 47 85q22 56 38 146zM338 1169l96 306h160v-43l-168 -263h-88z" />
<glyph unicode="&#xf4d6;" horiz-adv-x="952" d="M61 1380q57 37 137 58q79 20 164 20q113 0 205 -40t158 -128t102 -229q37 -141 37 -342q0 -203 -41 -345t-112 -231q-72 -88 -168 -128t-209 -40q-84 0 -153 15q-69 14 -115 37l43 139q39 -20 102 -35q63 -14 131 -14q70 0 134 29q65 30 116 95t83 168t36 253h-469v137 h469q-10 260 -110 389q-99 129 -255 129q-78 0 -137 -19q-59 -18 -103 -45zM266 1632q0 43 29 75t82 32t83 -32t29 -75q0 -47 -29 -78q-30 -31 -83 -30q-53 0 -82 30q-29 31 -29 78z" />
<glyph unicode="&#xf4d7;" horiz-adv-x="761" d="M57 25l41 131q39 -23 92 -35t103 -12q227 0 239 344h-339v127h339q-6 160 -64 247q-58 88 -165 88q-66 0 -115 -18t-79 -41l-52 117q47 35 115 55t156 21q184 0 271 -134q87 -133 87 -403q0 -268 -99 -402t-280 -135q-158 0 -250 50zM215 1335q0 49 28 80t72 31 q45 0 75 -30t30 -81q0 -49 -30 -77t-75 -27q-45 0 -72 29q-28 28 -28 75z" />
<glyph unicode="&#xf50a;" horiz-adv-x="888" d="M63 29l41 139q41 -23 106.5 -37t160.5 -14q55 0 104 19.5t86 56t58.5 93t21.5 130.5q0 133 -70.5 193.5t-189.5 70.5q-20 2 -35.5 2h-38.5h-84v133h37q31 0 76 2t72 8q82 20 140 85t58 163q0 135 -65.5 189.5t-165.5 54.5q-80 0 -141.5 -15.5t-100.5 -37.5l-41 127 q37 23 122 45t192 22q70 0 135 -16.5t115.5 -56t81 -108.5t30.5 -171q0 -104 -52 -195.5t-161 -136.5v-8q115 -23 181.5 -110t66.5 -234q0 -104 -29 -184t-78 -134.5t-115.5 -86t-142.5 -40.5l-24 -344h-97l-30 342q-76 4 -130.5 18.5t-93.5 35.5z" />
<glyph unicode="&#xf50b;" horiz-adv-x="718" d="M53 39l39 127q39 -25 89 -36t108 -11q201 0 200 180q0 74 -47 117t-157 43h-88v127h108q29 0 56 13q28 13 50 36t34 52q13 30 14 63q0 80 -42 116q-42 37 -128 37q-63 0 -113 -18q-49 -18 -78 -39l-43 117q51 33 120 53t157 20q135 0 208 -62t72 -188q0 -78 -39 -143 q-39 -66 -106 -94v-8q94 -23 135 -86t41 -168q0 -111 -61 -192t-191 -103l-24 -359h-97l-32 353q-59 4 -104 18q-44 14 -81 35z" />
<glyph unicode="&#xf50c;" horiz-adv-x="937" d="M88 717q0 205 42 346t112 229t160 127q91 39 188 39q98 0 163 -14t111 -35l-37 -139q-41 23 -96 35t-127 12t-135 -32t-113 -102q-49 -71 -77 -186q-29 -115 -29 -280q0 -299 102 -449t273 -149q70 0 125 19t94 46l37 -129q-43 -37 -107 -55q-63 -18 -135 -23l-29 -65 q133 -31 133 -154q0 -80 -58 -132t-157 -52q-41 0 -75 8l14 80q47 -4 75 2t42 19q14 12 18 27t4 30q0 57 -141 76l72 164q-98 8 -182 54q-83 46 -142 135t-92 224t-33 324z" />
<glyph unicode="&#xf50d;" horiz-adv-x="729" d="M76 512q0 262 93 399t267 138q80 0 137 -15q57 -14 99 -37l-41 -127q-78 45 -178 45q-111 0 -167 -97t-57 -306q0 -84 13 -157q12 -73 41 -127t73 -85q45 -31 113 -30q53 0 99 17t75 42l43 -121q-41 -31 -90 -48t-102 -23l-29 -68q133 -31 133 -154q0 -80 -58 -132 t-157 -52q-41 0 -76 8l15 80q47 -4 74 2q28 6 42 19q14 12 19 27q4 15 4 30q0 57 -142 76l72 161q-86 8 -146 51q-60 42 -98 110q-37 69 -54 164t-17 210z" />
<glyph unicode="&#xf50e;" horiz-adv-x="968" d="M10 0l432 1456h84l432 -1456h-159l-117 401h-406l-114 -401h-152zM223 1599v127h531v-127h-531zM317 539h328l-125 442l-39 215h-4l-39 -219z" />
<glyph unicode="&#xf50f;" horiz-adv-x="819" d="M59 274q0 88 30 148q30 59 84 96t129 52t167 16h41q20 0 43 -2q6 63 6 112q0 117 -35 164t-127 47q-57 0 -125 -17t-112 -44l-49 117q59 37 144 57t179 20q86 0 138 -25q52 -26 82 -70t39 -100t9 -118q0 -123 -5 -240t-5 -221q0 -78 5 -144q5 -67 20 -126h-113l-35 121 h-8q-31 -53 -90 -92t-160 -39q-111 0 -181 76q-71 77 -71 212zM158 1196v121h497v-121h-497zM213 291q0 -82 40 -127t103 -45q86 0 133 41t66 90v217q-20 2 -41 3q-20 1 -41 1q-49 0 -96 -8t-84 -29q-37 -20 -59 -55t-21 -88z" />
<glyph unicode="&#xf510;" horiz-adv-x="878" d="M131 0v1434h637v-142h-483v-485h444v-141h-444v-525h493v-141h-647zM178 1599v127h531v-127h-531z" />
<glyph unicode="&#xf511;" horiz-adv-x="845" d="M76 512q0 262 96 399t272 138q57 0 114 -15q56 -14 101 -57t73 -121t28 -203q0 -35 -3 -74q-3 -40 -7 -83h-521q0 -88 15 -160q14 -72 45 -122t79 -78t119 -27q55 0 110 20q54 20 83 49l53 -108q-49 -45 -125 -70t-159 -25q-96 0 -167 38t-117 109t-68 169t-21 221z M176 1196v121h498v-121h-498zM231 618h387q4 154 -43 226t-129 71q-94 0 -149 -71q-55 -72 -66 -226z" />
<glyph unicode="&#xf512;" horiz-adv-x="878" d="M131 0v1434h637v-142h-483v-485h444v-141h-444v-525h493v-141h-647zM172 1815v127h530v-127h-530zM180 1626q0 43 26 70t70 26q43 0 69 -26q26 -27 26 -70t-26 -68q-26 -26 -69 -26q-45 0 -70 26q-26 25 -26 68zM504 1626q0 43 25 70q26 27 69 26q45 0 71 -26 q26 -27 25 -70q0 -43 -25 -68q-26 -26 -71 -26q-43 0 -69 26q-25 25 -25 68z" />
<glyph unicode="&#xf513;" horiz-adv-x="845" d="M76 512q0 262 96 399t272 138q57 0 114 -15q56 -14 101 -57t73 -121t28 -203q0 -35 -3 -74q-3 -40 -7 -83h-521q0 -88 15 -160q14 -72 45 -122t79 -78t119 -27q55 0 110 20q54 20 83 49l53 -108q-49 -45 -125 -70t-159 -25q-96 0 -167 38t-117 109t-68 169t-21 221z M170 1563v127h530v-127h-530zM186 1298q0 47 24 74t64 27q41 0 65 -27t23 -74q0 -43 -23 -69q-24 -27 -65 -27t-64 27q-24 26 -24 69zM231 618h387q4 154 -43 226t-129 71q-94 0 -149 -71q-55 -72 -66 -226zM512 1298q0 47 24 74t64 27q41 0 65 -27t23 -74q0 -43 -23 -69 q-24 -27 -65 -27t-64 27q-24 26 -24 69z" />
<glyph unicode="&#xf514;" horiz-adv-x="878" d="M131 0v1434h637v-142h-483v-485h444v-141h-444v-525h493v-141h-647zM160 1999l147 35q4 -76 42 -121t104 -45t101 45q36 45 42 119l131 -31q-16 -117 -84 -180t-192 -64q-121 0 -200 58q-79 57 -91 184zM184 1626q0 43 26 70t71 26q43 0 68 -26q26 -27 26 -70t-26 -68 q-26 -26 -68 -26q-45 0 -71 26q-26 25 -26 68zM508 1626q0 43 26 70t68 26q45 0 71 -26q26 -27 25 -70q0 -43 -25 -68q-26 -26 -71 -26q-43 0 -68 26q-26 25 -26 68z" />
<glyph unicode="&#xf515;" horiz-adv-x="845" d="M76 512q0 262 96 399t272 138q57 0 114 -15q56 -14 101 -57t73 -121t28 -203q0 -35 -3 -74q-3 -40 -7 -83h-521q0 -88 15 -160q14 -72 45 -122t79 -78t119 -27q55 0 110 20q54 20 83 49l53 -108q-49 -45 -125 -70t-159 -25q-96 0 -167 38t-117 109t-68 169t-21 221z M150 1710l147 35q4 -76 42 -121t103 -45q66 0 102 45t42 119l131 -31q-16 -117 -84 -180t-193 -64q-121 0 -199 58q-79 57 -91 184zM184 1298q0 47 24 74t64 27q41 0 65 -27t23 -74q0 -43 -23 -69q-24 -27 -65 -27t-64 27q-24 26 -24 69zM231 618h387q4 154 -43 226t-129 71 q-94 0 -149 -71q-55 -72 -66 -226zM510 1298q0 47 24 74t64 27q41 0 65 -27t23 -74q0 -43 -23 -69q-24 -27 -65 -27t-64 27q-24 26 -24 69z" />
<glyph unicode="&#xf516;" horiz-adv-x="888" d="M63 29l41 139q41 -23 107 -37t160 -14q55 0 104 19t86 57q37 37 59 93t21 130q0 133 -71 193t-189 71q-20 2 -36 2h-38h-84v133h37q31 0 76 2t72 8q82 20 140 85t58 163q0 135 -65 190q-66 54 -166 54q-80 0 -142 -14q-61 -14 -100 -37l-41 125q37 23 122 45 q85 23 192 22q70 0 135 -16q66 -16 115 -57q50 -40 81 -108q31 -69 31 -171q0 -104 -52 -196q-52 -91 -161 -136v-8q115 -23 181 -110q67 -87 67 -234q0 -119 -36 -203t-96 -138t-141 -80q-80 -26 -165 -26q-109 0 -182 15q-73 14 -120 39zM147 1739v43h142l96 -103l29 -69 l30 67l103 105h135v-45l-217 -209h-109z" />
<glyph unicode="&#xf517;" horiz-adv-x="718" d="M53 39l39 127q39 -25 92 -37t111 -12q100 0 150 47t51 135q0 74 -47 117t-158 43h-92v127h112q29 0 57 13t49 36q22 23 35 52q13 30 13 63q0 80 -42 116q-42 37 -128 37q-63 0 -116 -18q-52 -18 -81 -39l-43 117q51 33 120 53t157 20q135 0 208 -62t72 -188 q0 -78 -39 -143q-39 -66 -106 -94v-8q94 -23 135 -86t41 -168q0 -129 -86 -216t-264 -87q-82 0 -138 15t-102 40zM119 1499h139l64 -135l34 -119l35 119l74 135h125l-203 -373h-78z" />
<glyph unicode="&#xf518;" horiz-adv-x="1124" d="M88 717q0 365 117 553t356 188q129 0 219 -52t147 -149q56 -96 83 -233t26 -307q0 -365 -117 -553q-118 -188 -358 -189q-127 0 -217 53q-90 52 -147 148t-83 234q-26 137 -26 307zM250 717q0 -121 17 -230t55 -190q37 -82 96 -131t143 -49q154 0 234 147t79 453 q0 119 -17 227q-17 109 -54 192t-96 132t-146 49q-152 0 -231 -148q-80 -147 -80 -452zM305 1599v127h531v-127h-531z" />
<glyph unicode="&#xf519;" horiz-adv-x="884" d="M76 512q0 276 95 407q95 130 271 130q188 0 278 -134q89 -133 89 -403q0 -279 -96 -408t-271 -129q-188 0 -277 134q-89 133 -89 403zM195 1196v121h497v-121h-497zM229 512q0 -90 12 -164q11 -74 37 -127t66 -83q41 -30 98 -29q106 0 160 95q53 95 53 308q0 88 -11 163 t-37 128t-66 83q-41 30 -99 29q-104 0 -158 -96q-55 -96 -55 -307z" />
<glyph unicode="&#xf51a;" horiz-adv-x="1124" d="M88 717q0 365 117 553t356 188q129 0 219 -52t147 -149q56 -96 83 -233t26 -307q0 -365 -117 -553q-118 -188 -358 -189q-127 0 -217 53q-90 52 -147 148t-83 234q-26 137 -26 307zM250 717q0 -121 17 -230t55 -190q37 -82 96 -131t143 -49q154 0 234 147t79 453 q0 119 -17 227q-17 109 -54 192t-96 132t-146 49q-152 0 -231 -148q-80 -147 -80 -452zM272 1747l148 35q4 -76 42 -121t103 -45q66 0 102 45t42 119l131 -31q-16 -117 -84 -180t-193 -64q-121 0 -199 58q-79 57 -92 184z" />
<glyph unicode="&#xf51b;" horiz-adv-x="884" d="M76 512q0 276 95 407q95 130 271 130q188 0 278 -134q89 -133 89 -403q0 -279 -96 -408t-271 -129q-188 0 -277 134q-89 133 -89 403zM178 1399l125 39q10 -94 50 -134t93 -40t94 43q40 43 50 129l112 -33q-16 -123 -89 -188t-171 -64q-47 0 -91 13t-80 43t-60 77 q-25 47 -33 115zM229 512q0 -90 12 -164q11 -74 37 -127t66 -83q41 -30 98 -29q106 0 160 95q53 95 53 308q0 88 -11 163t-37 128t-66 83q-41 30 -99 29q-104 0 -158 -96q-55 -96 -55 -307z" />
</font>
</defs>
</svg>
